<?xml version="1.0" encoding="utf-8"?>
<!-- Generator: Adobe Illustrator 19.2.1, SVG Export Plug-In . SVG Version: 6.00 Build 0)  -->
<svg version="1.1" id="layer" xmlns="http://www.w3.org/2000/svg" xmlns:xlink="http://www.w3.org/1999/xlink" x="0px" y="0px"
	 viewBox="0 0 652 652" style="enable-background:new 0 0 652 652;" xml:space="preserve">
<style type="text/css">
	.st0{fill:#63D2F9;}
	.st1{fill:#4E5EE4;}
	.st2{fill:#63B0F9;}
	.st3{fill:#282846;}
</style>
<path id="Stroke-1" class="st0" d="M111.3,373.2v-24.3H84.8c-7.2,0-13.9,3.8-17.6,10l-8.6,14.4H111.3z"/>
<polygon id="Stroke-3" class="st1" points="26.9,279.7 26.9,304.1 96.7,304.1 111.3,279.7 "/>
<path id="Stroke-5" class="st2" d="M60.3,317.8L27,373.2h28.4l39.8-66.3H79.6C71.7,306.9,64.4,311,60.3,317.8z"/>
<path id="OpenZeppelin" class="st3" d="M171.6,349.9c-14.3,0-24.8-10.4-24.8-24.3c0-13.8,10.6-24.3,24.8-24.3s24.8,10.6,24.8,24.3
	C196.6,339.3,185.9,349.9,171.6,349.9z M171.7,341.4c9,0,15.5-6.7,15.5-15.8c0-9-6.5-15.8-15.5-15.8c-9.1,0-15.6,6.8-15.6,15.8
	C156.2,334.7,162.6,341.4,171.7,341.4z M206.1,364.4v-50.6h8.6v4.5h0.5c0.9-1.5,4.2-5.4,10.6-5.4c9.9,0,16.7,7.4,16.7,18.3
	s-6.7,18.6-16.4,18.6c-6.3,0-9.6-3.5-10.8-5.4h-0.5v19.9H206.1z M224.2,342c5.7,0,9.5-4.4,9.5-10.6c0-6.4-3.8-10.6-9.6-10.6
	c-5.8,0-9.4,4.6-9.4,10.6C214.7,337.9,218.7,342,224.2,342z M267.6,349.9c-10.4,0-17.8-7.8-17.8-18.3c0-11.1,7.5-18.7,17.8-18.7
	c11.4,0,17.6,8.4,17.6,18.3v2.7h-26.9c0.3,5.4,4,9,9.6,9c4.3,0,7.6-2,8.8-4.9h8.1C283.1,345.2,276.7,349.9,267.6,349.9z
	 M258.4,327.8h18.4c-0.4-4.8-4.1-7.9-9.2-7.9C262.7,319.9,258.9,323.3,258.4,327.8z M294.6,349v-35.2h8.3v4.3h0.5
	c1.4-2.6,4.9-5.2,10-5.2c7.9,0,12.8,5.6,12.8,13.1v23h-8.8v-20.7c0-4.3-2.8-7.2-6.8-7.2c-4.2,0-7.3,3.3-7.3,7.8V349H294.6z
	 M334.8,349v-8l24.5-30.7v-0.5h-23.6v-7.7h34.8v7.9L346,340.8v0.5h24.6v7.7H334.8z M394.3,349.9c-10.4,0-17.8-7.8-17.8-18.3
	c0-11.1,7.5-18.7,17.8-18.7c11.4,0,17.6,8.4,17.6,18.3v2.7H385c0.3,5.4,4,9,9.6,9c4.3,0,7.6-2,8.8-4.9h8.1
	C409.8,345.2,403.5,349.9,394.3,349.9z M385.1,327.8h18.4c-0.4-4.8-4.1-7.9-9.2-7.9C389.4,319.9,385.7,323.3,385.1,327.8z
	 M421.3,364.4v-50.6h8.6v4.5h0.5c0.9-1.5,4.2-5.4,10.6-5.4c9.9,0,16.7,7.4,16.7,18.3s-6.7,18.6-16.4,18.6c-6.3,0-9.6-3.5-10.8-5.4
	h-0.5v19.9H421.3z M439.4,342c5.7,0,9.5-4.4,9.5-10.6c0-6.4-3.8-10.6-9.6-10.6c-5.8,0-9.4,4.6-9.4,10.6
	C429.9,337.9,433.9,342,439.4,342z M467.2,364.4v-50.6h8.6v4.5h0.5c0.9-1.5,4.2-5.4,10.6-5.4c9.9,0,16.7,7.4,16.7,18.3
	s-6.7,18.6-16.4,18.6c-6.3,0-9.6-3.5-10.8-5.4h-0.5v19.9H467.2z M485.2,342c5.7,0,9.5-4.4,9.5-10.6c0-6.4-3.8-10.6-9.6-10.6
	c-5.8,0-9.4,4.6-9.4,10.6C475.7,337.9,479.8,342,485.2,342z M528.7,349.9c-10.4,0-17.8-7.8-17.8-18.3c0-11.1,7.5-18.7,17.8-18.7
	c11.4,0,17.6,8.4,17.6,18.3v2.7h-26.9c0.3,5.4,4,9,9.6,9c4.3,0,7.6-2,8.8-4.9h8.1C544.1,345.2,537.8,349.9,528.7,349.9z
	 M519.4,327.8h18.4c-0.4-4.8-4.1-7.9-9.2-7.9C523.7,319.9,520,323.3,519.4,327.8z M564.3,349c-6.2,0-9.7-3.7-9.7-9.9v-40.3h8.8v39.5
	c0,2,1,3.1,2.8,3.1h1.4v7.6H564.3z M580.4,309.1c-3.2,0-5.4-1.9-5.4-5.1c0-3,2.2-5,5.4-5c3.2,0,5.4,2,5.4,5
	C585.7,307.2,583.5,309.1,580.4,309.1z M576,349v-35.2h8.8V349H576z M595.4,349v-35.2h8.3v4.3h0.5c1.4-2.6,4.9-5.2,10-5.2
	c7.9,0,12.8,5.6,12.8,13.1v23h-8.8v-20.7c0-4.3-2.8-7.2-6.8-7.2c-4.2,0-7.3,3.3-7.3,7.8V349H595.4z"/>
</svg>
