<?xml version="1.0" encoding="UTF-8" standalone="no"?>
<svg
   width="210"
   height="100"
   viewBox="0 0 210 100"
   fill="none"
   version="1.1"
   id="svg3768"
   sodipodi:docname="graphic3.svg"
   inkscape:version="1.2 (dc2aedaf03, 2022-05-15)"
   xmlns:inkscape="http://www.inkscape.org/namespaces/inkscape"
   xmlns:sodipodi="http://sodipodi.sourceforge.net/DTD/sodipodi-0.dtd"
   xmlns="http://www.w3.org/2000/svg"
   xmlns:svg="http://www.w3.org/2000/svg">
  <sodipodi:namedview
     id="namedview3770"
     pagecolor="#ffffff"
     bordercolor="#666666"
     borderopacity="1.0"
     inkscape:showpageshadow="2"
     inkscape:pageopacity="0.0"
     inkscape:pagecheckerboard="0"
     inkscape:deskcolor="#d1d1d1"
     showgrid="false"
     inkscape:zoom="0.88283828"
     inkscape:cx="232.77196"
     inkscape:cy="-1.1327103"
     inkscape:window-width="1366"
     inkscape:window-height="715"
     inkscape:window-x="-8"
     inkscape:window-y="-8"
     inkscape:window-maximized="1"
     inkscape:current-layer="svg3768" />
  <g
     filter="url(#filter0_dddddd_0_1)"
     id="g3687"
     transform="translate(-109.8729,1.1327103)">
    <rect
       x="114.404"
       y="2"
       width="202.16701"
       height="44.734901"
       rx="11.02"
       fill="#ffffff"
       id="rect3685" />
  </g>
  <circle
     cx="189.4921"
     cy="25.50001"
     r="1.72057"
     fill="#ed7c57"
     id="circle3689" />
  <path
     d="m 55.662103,21.85471 c -0.81,0 -1.484,-0.2709 -2.02,-0.8129 -0.532,-0.5368 -0.798,-1.2053 -0.798,-2.0054 0,-0.8052 0.266,-1.4736 0.798,-2.0053 0.536,-0.542 1.21,-0.813 2.02,-0.813 0.491,0 0.942,0.1162 1.355,0.3485 0.418,0.2271 0.744,0.5368 0.976,0.9291 l -0.921,0.5342 c -0.135,-0.2426 -0.326,-0.431 -0.573,-0.5652 -0.248,-0.1394 -0.527,-0.209 -0.837,-0.209 -0.526,0 -0.952,0.1651 -1.277,0.4955 -0.32,0.3355 -0.48,0.7639 -0.48,1.2852 0,0.5162 0.16,0.9421 0.48,1.2776 0.325,0.3303 0.751,0.4955 1.277,0.4955 0.31,0 0.589,-0.0671 0.837,-0.2013 0.252,-0.1394 0.443,-0.3278 0.573,-0.5652 l 0.921,0.5342 c -0.232,0.3923 -0.558,0.7046 -0.976,0.9369 -0.413,0.2271 -0.864,0.3406 -1.355,0.3406 z m 6.262,-0.5884 c -0.392,0.3923 -0.878,0.5884 -1.456,0.5884 -0.578,0 -1.063,-0.1961 -1.455,-0.5884 -0.393,-0.3923 -0.589,-0.8775 -0.589,-1.4556 0,-0.5729 0.196,-1.0556 0.589,-1.4479 0.397,-0.3974 0.882,-0.5961 1.455,-0.5961 0.573,0 1.058,0.1987 1.456,0.5961 0.397,0.3975 0.596,0.8801 0.596,1.4479 0,0.573 -0.199,1.0582 -0.596,1.4556 z m -2.207,-0.6891 c 0.201,0.2013 0.452,0.302 0.751,0.302 0.3,0 0.55,-0.1007 0.751,-0.302 0.202,-0.2013 0.302,-0.4568 0.302,-0.7665 0,-0.3097 -0.1,-0.5652 -0.302,-0.7665 -0.201,-0.2013 -0.451,-0.302 -0.751,-0.302 -0.299,0 -0.55,0.1007 -0.751,0.302 -0.196,0.2065 -0.294,0.462 -0.294,0.7665 0,0.3045 0.098,0.56 0.294,0.7665 z m 7.787,-2.8105 c 0.444,0 0.798,0.1445 1.061,0.4335 0.268,0.2891 0.403,0.6762 0.403,1.1614 v 2.3847 h -0.999 v -2.315 c 0,-0.2323 -0.057,-0.4129 -0.171,-0.542 -0.113,-0.129 -0.273,-0.1935 -0.48,-0.1935 -0.227,0 -0.405,0.0748 -0.534,0.2245 -0.124,0.1497 -0.186,0.3665 -0.186,0.6504 v 2.1756 h -0.998 v -2.315 c 0,-0.2323 -0.057,-0.4129 -0.171,-0.542 -0.113,-0.129 -0.273,-0.1935 -0.48,-0.1935 -0.222,0 -0.4,0.0774 -0.534,0.2322 -0.129,0.1497 -0.194,0.3639 -0.194,0.6427 v 2.1756 h -0.998 v -3.8712 h 0.998 v 0.4103 c 0.233,-0.3458 0.591,-0.5187 1.077,-0.5187 0.48,0 0.831,0.1858 1.053,0.5574 0.253,-0.3716 0.637,-0.5574 1.153,-0.5574 z m 4.565,0 c 0.521,0 0.965,0.1987 1.332,0.5961 0.371,0.3975 0.557,0.8801 0.557,1.4479 0,0.5781 -0.186,1.0633 -0.557,1.4556 -0.362,0.3923 -0.806,0.5884 -1.332,0.5884 -0.542,0 -0.96,-0.1884 -1.254,-0.5652 v 2.0054 h -0.999 v -5.4198 h 0.999 v 0.4568 c 0.294,-0.3768 0.712,-0.5652 1.254,-0.5652 z m -0.952,2.8337 c 0.201,0.2014 0.456,0.302 0.766,0.302 0.31,0 0.565,-0.1006 0.767,-0.302 0.206,-0.2064 0.309,-0.4697 0.309,-0.7897 0,-0.32 -0.103,-0.5807 -0.309,-0.782 -0.202,-0.2065 -0.457,-0.3097 -0.767,-0.3097 -0.31,0 -0.565,0.1032 -0.766,0.3097 -0.202,0.2013 -0.302,0.462 -0.302,0.782 0,0.32 0.1,0.5833 0.302,0.7897 z m 4.544,1.1459 h -0.998 v -5.652 h 0.998 z m 4.677,-1.5252 h -2.919 c 0.13,0.4852 0.493,0.7278 1.092,0.7278 0.382,0 0.671,-0.1291 0.867,-0.3872 l 0.806,0.4646 c -0.382,0.5523 -0.945,0.8284 -1.688,0.8284 -0.64,0 -1.154,-0.1935 -1.541,-0.5806 -0.387,-0.3872 -0.581,-0.875 -0.581,-1.4634 0,-0.5781 0.191,-1.0633 0.573,-1.4556 0.377,-0.3923 0.867,-0.5884 1.471,-0.5884 0.573,0 1.04,0.1961 1.402,0.5884 0.371,0.3923 0.557,0.8775 0.557,1.4556 0,0.1084 -0.013,0.2452 -0.039,0.4104 z m -2.934,-0.7743 h 1.974 c -0.056,-0.2529 -0.173,-0.4465 -0.348,-0.5807 -0.17,-0.1342 -0.374,-0.2013 -0.612,-0.2013 -0.268,0 -0.49,0.0697 -0.666,0.2091 -0.175,0.1342 -0.291,0.3251 -0.348,0.5729 z m 5.771,-1.5717 v 0.96 h -0.875 v 1.6105 c 0,0.1342 0.034,0.2323 0.101,0.2942 0.067,0.062 0.165,0.0981 0.294,0.1084 0.129,0.0052 0.289,0.0026 0.48,-0.0077 v 0.9058 c -0.676,0.0775 -1.158,0.0155 -1.448,-0.1858 -0.283,-0.2064 -0.425,-0.5781 -0.425,-1.1149 v -1.6105 h -0.674 v -0.96 h 0.674 v -0.782 l 0.998,-0.302 v 1.084 z m 4.346,2.346 h -2.918 c 0.129,0.4852 0.492,0.7278 1.091,0.7278 0.382,0 0.671,-0.1291 0.867,-0.3872 l 0.806,0.4646 c -0.382,0.5523 -0.945,0.8284 -1.688,0.8284 -0.64,0 -1.154,-0.1935 -1.541,-0.5806 -0.387,-0.3872 -0.581,-0.875 -0.581,-1.4634 0,-0.5781 0.191,-1.0633 0.573,-1.4556 0.377,-0.3923 0.867,-0.5884 1.471,-0.5884 0.573,0 1.04,0.1961 1.402,0.5884 0.371,0.3923 0.557,0.8775 0.557,1.4556 0,0.1084 -0.013,0.2452 -0.039,0.4104 z m -2.934,-0.7743 h 1.974 c -0.056,-0.2529 -0.173,-0.4465 -0.348,-0.5807 -0.17,-0.1342 -0.374,-0.2013 -0.612,-0.2013 -0.268,0 -0.49,0.0697 -0.666,0.2091 -0.175,0.1342 -0.291,0.3251 -0.348,0.5729 z m 6.575,-1.1149 v -2.0054 h 0.998 v 5.4198 h -0.998 v -0.4568 c -0.295,0.3768 -0.713,0.5652 -1.255,0.5652 -0.521,0 -0.967,-0.1961 -1.339,-0.5884 -0.367,-0.3974 -0.55,-0.8826 -0.55,-1.4556 0,-0.5678 0.183,-1.0504 0.55,-1.4479 0.372,-0.3974 0.818,-0.5961 1.339,-0.5961 0.542,0 0.96,0.1884 1.255,0.5652 z m -1.843,2.2685 c 0.212,0.2014 0.47,0.302 0.774,0.302 0.31,0 0.565,-0.1006 0.767,-0.302 0.201,-0.2064 0.302,-0.4697 0.302,-0.7897 0,-0.32 -0.101,-0.5807 -0.302,-0.782 -0.202,-0.2065 -0.457,-0.3097 -0.767,-0.3097 -0.31,0 -0.568,0.1032 -0.774,0.3097 -0.201,0.2013 -0.302,0.462 -0.302,0.782 0,0.32 0.101,0.5833 0.302,0.7897 z m 7.587,1.2543 c -0.531,0 -0.98,-0.1187 -1.347,-0.3561 -0.366,-0.2375 -0.627,-0.5652 -0.782,-0.9833 l 0.914,-0.5343 c 0.212,0.5523 0.627,0.8285 1.246,0.8285 0.289,0 0.506,-0.0516 0.651,-0.1549 0.144,-0.1032 0.217,-0.2426 0.217,-0.4181 0,-0.1909 -0.086,-0.338 -0.256,-0.4413 -0.17,-0.1084 -0.475,-0.2245 -0.914,-0.3484 -0.474,-0.1445 -0.849,-0.3123 -1.122,-0.5033 -0.341,-0.2529 -0.511,-0.6245 -0.511,-1.1149 0,-0.4955 0.173,-0.8852 0.519,-1.1691 0.345,-0.2942 0.766,-0.4414 1.262,-0.4414 0.433,0 0.818,0.1059 1.153,0.3175 0.336,0.2116 0.596,0.511 0.782,0.8981 l -0.898,0.5188 c -0.217,-0.4646 -0.563,-0.6968 -1.037,-0.6968 -0.217,0 -0.39,0.0516 -0.519,0.1548 -0.129,0.0981 -0.194,0.2271 -0.194,0.3871 0,0.1704 0.07,0.3097 0.209,0.4181 0.155,0.1084 0.429,0.222 0.821,0.3407 l 0.372,0.1239 c 0.067,0.0206 0.183,0.0645 0.348,0.1316 0.155,0.0568 0.268,0.111 0.341,0.1626 0.253,0.1549 0.423,0.3149 0.511,0.48 0.134,0.2168 0.201,0.4723 0.201,0.7666 0,0.5006 -0.183,0.8981 -0.55,1.1923 -0.366,0.2942 -0.838,0.4413 -1.417,0.4413 z m 6.166997,-1.5949 0.658,-2.3847 h 1.061 l -1.231,3.8712 h -0.952 l -0.713,-2.346 -0.712,2.346 h -0.952 l -1.230997,-3.8712 h 1.059997 l 0.658,2.3769 0.705,-2.3769 h 0.945 z m 5.048,-1.9279 v -0.4568 h 0.999 v 3.8712 h -0.999 v -0.4568 c -0.299,0.3768 -0.72,0.5652 -1.262,0.5652 -0.516,0 -0.96,-0.1961 -1.331,-0.5884 -0.367,-0.3974 -0.55,-0.8826 -0.55,-1.4556 0,-0.5678 0.183,-1.0504 0.55,-1.4479 0.371,-0.3974 0.815,-0.5961 1.331,-0.5961 0.542,0 0.963,0.1884 1.262,0.5652 z m -1.842,2.2685 c 0.201,0.2014 0.456,0.302 0.766,0.302 0.31,0 0.565,-0.1006 0.767,-0.302 0.206,-0.2064 0.309,-0.4697 0.309,-0.7897 0,-0.32 -0.103,-0.5807 -0.309,-0.782 -0.202,-0.2065 -0.457,-0.3097 -0.767,-0.3097 -0.31,0 -0.565,0.1032 -0.766,0.3097 -0.202,0.2013 -0.302,0.462 -0.302,0.782 0,0.32 0.1,0.5833 0.302,0.7897 z m 6,-2.8337 c 0.521,0 0.965,0.1987 1.332,0.5961 0.371,0.3975 0.557,0.8801 0.557,1.4479 0,0.5781 -0.186,1.0633 -0.557,1.4556 -0.362,0.3923 -0.806,0.5884 -1.332,0.5884 -0.542,0 -0.96,-0.1884 -1.254,-0.5652 v 2.0054 h -0.999 v -5.4198 h 0.999 v 0.4568 c 0.294,-0.3768 0.712,-0.5652 1.254,-0.5652 z m -0.952,2.8337 c 0.201,0.2014 0.456,0.302 0.766,0.302 0.31,0 0.565,-0.1006 0.767,-0.302 0.206,-0.2064 0.309,-0.4697 0.309,-0.7897 0,-0.32 -0.103,-0.5807 -0.309,-0.782 -0.202,-0.2065 -0.457,-0.3097 -0.767,-0.3097 -0.31,0 -0.565,0.1032 -0.766,0.3097 -0.202,0.2013 -0.302,0.462 -0.302,0.782 0,0.32 0.1,0.5833 0.302,0.7897 z"
     fill="#000000"
     id="path3691" />
  <path
     d="m 55.377103,28.86551 h 0.939 l -1.445,2.5714 v 1.644 h -0.825 v -1.644 l -1.439,-2.5714 h 0.939 l 0.915,1.7585 z m 3.634,3.0291 h -2.27 c 0.1,0.3774 0.383,0.5661 0.849,0.5661 0.297,0 0.522,-0.1004 0.674,-0.3011 l 0.626,0.3613 c -0.297,0.4296 -0.734,0.6444 -1.312,0.6444 -0.498,0 -0.898,-0.1506 -1.199,-0.4517 -0.301,-0.3011 -0.451,-0.6805 -0.451,-1.1382 0,-0.4496 0.148,-0.827 0.445,-1.1321 0.293,-0.3051 0.675,-0.4577 1.144,-0.4577 0.446,0 0.809,0.1526 1.09,0.4577 0.29,0.3051 0.434,0.6825 0.434,1.1321 0,0.0843 -0.01,0.1907 -0.03,0.3192 z m -2.282,-0.6022 h 1.535 c -0.044,-0.1967 -0.134,-0.3473 -0.271,-0.4516 -0.132,-0.1044 -0.291,-0.1566 -0.476,-0.1566 -0.208,0 -0.381,0.0542 -0.517,0.1626 -0.137,0.1044 -0.227,0.2529 -0.271,0.4456 z m 3.453,-0.3673 c 0,0.1284 0.183,0.2388 0.548,0.3312 0.129,0.0281 0.245,0.0622 0.35,0.1023 0.104,0.0362 0.208,0.0904 0.313,0.1626 0.108,0.0683 0.192,0.1606 0.253,0.2771 0.06,0.1164 0.09,0.2509 0.09,0.4034 0,0.3092 -0.116,0.548 -0.349,0.7166 -0.233,0.1646 -0.52,0.247 -0.861,0.247 -0.619,0 -1.04,-0.2389 -1.265,-0.7167 l 0.674,-0.3794 c 0.093,0.261 0.289,0.3915 0.591,0.3915 0.277,0 0.415,-0.0863 0.415,-0.259 0,-0.1284 -0.183,-0.2388 -0.548,-0.3312 -0.136,-0.0361 -0.253,-0.0722 -0.349,-0.1084 -0.097,-0.0361 -0.201,-0.0883 -0.313,-0.1565 -0.113,-0.0723 -0.199,-0.1626 -0.259,-0.271 -0.056,-0.1125 -0.085,-0.2429 -0.085,-0.3915 0,-0.2971 0.109,-0.5299 0.326,-0.6985 0.22,-0.1727 0.493,-0.259 0.819,-0.259 0.245,0 0.467,0.0562 0.668,0.1686 0.201,0.1084 0.359,0.265 0.476,0.4698 l -0.663,0.3613 c -0.096,-0.2048 -0.257,-0.3071 -0.481,-0.3071 -0.101,0 -0.185,0.024 -0.253,0.0722 -0.065,0.0442 -0.097,0.1024 -0.097,0.1747 z m 3.688,-0.8552 v 0.7468 h -0.681 v 1.2525 c 0,0.1044 0.026,0.1807 0.078,0.2289 0.053,0.0482 0.129,0.0763 0.229,0.0843 0.101,0.004 0.225,0.002 0.374,-0.006 v 0.7045 c -0.526,0.0603 -0.902,0.0121 -1.126,-0.1445 -0.221,-0.1606 -0.332,-0.4496 -0.332,-0.8672 v -1.2525 h -0.524 v -0.7468 h 0.524 v -0.6082 l 0.777,-0.2348 v 0.843 z m 3.38,1.8247 h -2.27 c 0.1,0.3774 0.383,0.5661 0.849,0.5661 0.297,0 0.522,-0.1004 0.674,-0.3011 l 0.627,0.3613 c -0.298,0.4296 -0.735,0.6444 -1.313,0.6444 -0.498,0 -0.898,-0.1506 -1.199,-0.4517 -0.301,-0.3011 -0.451,-0.6805 -0.451,-1.1382 0,-0.4496 0.148,-0.827 0.445,-1.1321 0.293,-0.3051 0.675,-0.4577 1.145,-0.4577 0.445,0 0.809,0.1526 1.09,0.4577 0.289,0.3051 0.433,0.6825 0.433,1.1321 0,0.0843 -0.01,0.1907 -0.03,0.3192 z m -2.282,-0.6022 h 1.535 c -0.044,-0.1967 -0.134,-0.3473 -0.271,-0.4516 -0.132,-0.1044 -0.291,-0.1566 -0.475,-0.1566 -0.209,0 -0.382,0.0542 -0.518,0.1626 -0.137,0.1044 -0.227,0.2529 -0.271,0.4456 z m 3.631,-1.2225 v 0.5179 c 0.069,-0.1887 0.185,-0.3312 0.35,-0.4275 0.164,-0.1004 0.353,-0.1506 0.566,-0.1506 v 0.8672 c -0.237,-0.0321 -0.45,0.016 -0.639,0.1445 -0.184,0.1245 -0.277,0.3312 -0.277,0.6203 v 1.4392 h -0.777 v -3.011 z m 3.541,0.3553 v -1.5597 h 0.776 v 4.2154 h -0.776 v -0.3553 c -0.229,0.2931 -0.554,0.4397 -0.976,0.4397 -0.405,0 -0.753,-0.1526 -1.042,-0.4577 -0.285,-0.3092 -0.427,-0.6865 -0.427,-1.1322 0,-0.4416 0.142,-0.8169 0.427,-1.1261 0.289,-0.3091 0.637,-0.4637 1.042,-0.4637 0.422,0 0.747,0.1466 0.976,0.4396 z m -1.434,1.7645 c 0.165,0.1566 0.366,0.2348 0.603,0.2348 0.24,0 0.439,-0.0782 0.596,-0.2348 0.156,-0.1606 0.235,-0.3653 0.235,-0.6143 0,-0.2489 -0.079,-0.4516 -0.235,-0.6082 -0.157,-0.1606 -0.356,-0.2409 -0.596,-0.2409 -0.241,0 -0.442,0.0803 -0.603,0.2409 -0.156,0.1566 -0.235,0.3593 -0.235,0.6082 0,0.249 0.079,0.4537 0.235,0.6143 z m 5.209,-1.7645 v -0.3553 h 0.777 v 3.011 h -0.777 v -0.3553 c -0.233,0.2931 -0.56,0.4397 -0.981,0.4397 -0.402,0 -0.747,-0.1526 -1.036,-0.4577 -0.285,-0.3092 -0.428,-0.6865 -0.428,-1.1322 0,-0.4416 0.143,-0.8169 0.428,-1.1261 0.289,-0.3091 0.634,-0.4637 1.036,-0.4637 0.421,0 0.748,0.1466 0.981,0.4396 z m -1.433,1.7645 c 0.157,0.1566 0.355,0.2348 0.596,0.2348 0.241,0 0.44,-0.0782 0.596,-0.2348 0.161,-0.1606 0.241,-0.3653 0.241,-0.6143 0,-0.2489 -0.08,-0.4516 -0.241,-0.6082 -0.156,-0.1606 -0.355,-0.2409 -0.596,-0.2409 -0.241,0 -0.439,0.0803 -0.596,0.2409 -0.157,0.1566 -0.235,0.3593 -0.235,0.6082 0,0.249 0.078,0.4537 0.235,0.6143 z m 4.209,-0.0964 0.669,-2.0234 h 0.831 l -1.096,3.011 c -0.157,0.4336 -0.366,0.7468 -0.627,0.9395 -0.257,0.1967 -0.578,0.285 -0.963,0.2649 v -0.7226 c 0.205,0.004 0.369,-0.0401 0.494,-0.1325 0.124,-0.0923 0.222,-0.2409 0.295,-0.4456 l -1.235,-2.9147 h 0.849 z m 6.211,-1.8487 c 0,0.3252 -0.084,0.6102 -0.253,0.8551 h 0.006 l -1.312,1.9812 h -0.952 l 0.94,-1.373 c -0.438,-0.004 -0.795,-0.1425 -1.072,-0.4155 -0.273,-0.273 -0.41,-0.6223 -0.41,-1.0478 0,-0.4336 0.141,-0.7849 0.422,-1.0539 0.285,-0.273 0.652,-0.4095 1.102,-0.4095 0.449,0 0.817,0.1365 1.102,0.4095 0.285,0.273 0.427,0.6243 0.427,1.0539 z m -2.228,0 c 0,0.2047 0.066,0.3713 0.199,0.4998 0.132,0.1245 0.299,0.1867 0.5,0.1867 0.208,0 0.377,-0.0622 0.506,-0.1867 0.132,-0.1285 0.198,-0.2951 0.198,-0.4998 0,-0.2048 -0.066,-0.3694 -0.198,-0.4938 -0.129,-0.1245 -0.298,-0.1867 -0.506,-0.1867 -0.201,0 -0.368,0.0642 -0.5,0.1927 -0.133,0.1244 -0.199,0.287 -0.199,0.4878 z m 3.684,0.2469 c 0,0.1405 -0.05,0.2609 -0.151,0.3613 -0.1,0.1004 -0.22,0.1506 -0.361,0.1506 -0.14,0 -0.261,-0.0502 -0.361,-0.1506 -0.101,-0.1004 -0.151,-0.2208 -0.151,-0.3613 0,-0.1405 0.05,-0.261 0.151,-0.3613 0.1,-0.1004 0.221,-0.1506 0.361,-0.1506 0.141,0 0.261,0.0502 0.361,0.1506 0.101,0.1003 0.151,0.2208 0.151,0.3613 z m 0,2.1559 c 0,0.1405 -0.05,0.2609 -0.151,0.3613 -0.1,0.1003 -0.22,0.1505 -0.361,0.1505 -0.14,0 -0.261,-0.0502 -0.361,-0.1505 -0.101,-0.1004 -0.151,-0.2208 -0.151,-0.3613 0,-0.1406 0.05,-0.261 0.151,-0.3614 0.1,-0.1003 0.221,-0.1505 0.361,-0.1505 0.141,0 0.261,0.0502 0.361,0.1505 0.101,0.1004 0.151,0.2208 0.151,0.3614 z m 3.249,-1.0539 h 0.452 v 0.7708 h -0.452 v 0.7166 h -0.837 v -0.7166 h -1.993 v -0.7708 l 1.403,-2.728 h 0.891 l -1.397,2.728 h 1.096 v -0.9996 h 0.837 z m 0.432,-2.3365 1.108,-0.3915 h 0.723 v 4.2154 h -0.831 v -3.3361 l -0.795,0.2228 z m 4.16,-0.3915 h 1.572 c 0.401,0 0.742,0.1365 1.023,0.4095 0.277,0.273 0.416,0.6083 0.416,1.0057 0,0.3975 -0.139,0.7327 -0.416,1.0057 -0.281,0.273 -0.622,0.4095 -1.023,0.4095 h -0.741 v 1.385 h -0.831 z m 0.831,2.0535 h 0.741 c 0.176,0 0.323,-0.0602 0.439,-0.1806 0.117,-0.1245 0.175,-0.277 0.175,-0.4577 0,-0.1847 -0.058,-0.3372 -0.175,-0.4577 -0.116,-0.1204 -0.263,-0.1806 -0.439,-0.1806 h -0.741 z m 5.990997,-2.0535 h 0.855 v 4.2154 h -0.825 v -2.7339 l -1.185997,1.9571 h -0.097 l -1.186,-1.9511 v 2.7279 h -0.831 v -4.2154 h 0.855 l 1.211,1.9933 z"
     fill="#898989"
     id="path3693" />
  <path
     d="m 155.0771,27.69111 c -0.414,0 -0.763,-0.0923 -1.048,-0.277 -0.285,-0.1847 -0.488,-0.4396 -0.608,-0.7648 l 0.71,-0.4155 c 0.165,0.4296 0.488,0.6444 0.97,0.6444 0.225,0 0.393,-0.0402 0.506,-0.1205 0.112,-0.0803 0.168,-0.1887 0.168,-0.3252 0,-0.1485 -0.066,-0.2629 -0.199,-0.3432 -0.132,-0.0843 -0.369,-0.1747 -0.71,-0.271 -0.369,-0.1124 -0.661,-0.2429 -0.873,-0.3914 -0.265,-0.1968 -0.398,-0.4858 -0.398,-0.8672 0,-0.3854 0.135,-0.6885 0.404,-0.9093 0.269,-0.2289 0.596,-0.3433 0.981,-0.3433 0.338,0 0.637,0.0823 0.898,0.2469 0.261,0.1646 0.463,0.3975 0.608,0.6986 l -0.699,0.4034 c -0.168,-0.3613 -0.437,-0.5419 -0.807,-0.5419 -0.168,0 -0.303,0.0401 -0.403,0.1204 -0.101,0.0763 -0.151,0.1766 -0.151,0.3011 0,0.1325 0.054,0.2409 0.163,0.3252 0.12,0.0843 0.333,0.1726 0.638,0.265 l 0.289,0.0963 c 0.052,0.0161 0.143,0.0502 0.271,0.1024 0.121,0.0441 0.209,0.0863 0.265,0.1264 0.197,0.1205 0.329,0.2449 0.398,0.3734 0.104,0.1686 0.156,0.3673 0.156,0.5962 0,0.3894 -0.142,0.6985 -0.427,0.9274 -0.285,0.2288 -0.653,0.3432 -1.102,0.3432 z m 3.669,-3.0953 v 0.7467 h -0.68 v 1.2526 c 0,0.1044 0.026,0.1807 0.078,0.2289 0.052,0.0481 0.128,0.0762 0.229,0.0843 0.1,0.004 0.225,0.002 0.373,-0.0061 v 0.7046 c -0.526,0.0602 -0.901,0.0121 -1.126,-0.1445 -0.221,-0.1606 -0.331,-0.4497 -0.331,-0.8672 v -1.2526 h -0.524 v -0.7467 h 0.524 v -0.6082 l 0.777,-0.2349 v 0.8431 z m 3.381,1.8247 h -2.271 c 0.101,0.3774 0.384,0.5661 0.849,0.5661 0.297,0 0.522,-0.1004 0.675,-0.3011 l 0.626,0.3613 c -0.297,0.4295 -0.735,0.6443 -1.313,0.6443 -0.498,0 -0.897,-0.1505 -1.198,-0.4516 -0.301,-0.3011 -0.452,-0.6805 -0.452,-1.1382 0,-0.4496 0.149,-0.827 0.446,-1.1321 0.293,-0.3051 0.674,-0.4577 1.144,-0.4577 0.446,0 0.809,0.1526 1.09,0.4577 0.289,0.3051 0.434,0.6825 0.434,1.1321 0,0.0843 -0.01,0.1907 -0.03,0.3192 z m -2.283,-0.6022 h 1.536 c -0.044,-0.1967 -0.135,-0.3473 -0.271,-0.4517 -0.133,-0.1043 -0.291,-0.1565 -0.476,-0.1565 -0.209,0 -0.381,0.0542 -0.518,0.1626 -0.136,0.1043 -0.227,0.2529 -0.271,0.4456 z m 3.632,1.7885 h -0.777 v -4.396 h 0.777 z m 1.488,0 h -0.777 v -4.396 h 0.777 z m 3.637,-1.1863 h -2.27 c 0.1,0.3774 0.383,0.5661 0.849,0.5661 0.297,0 0.522,-0.1004 0.675,-0.3011 l 0.626,0.3613 c -0.297,0.4295 -0.735,0.6443 -1.313,0.6443 -0.498,0 -0.897,-0.1505 -1.198,-0.4516 -0.301,-0.3011 -0.452,-0.6805 -0.452,-1.1382 0,-0.4496 0.149,-0.827 0.446,-1.1321 0.293,-0.3051 0.674,-0.4577 1.144,-0.4577 0.446,0 0.809,0.1526 1.09,0.4577 0.289,0.3051 0.433,0.6825 0.433,1.1321 0,0.0843 -0.01,0.1907 -0.03,0.3192 z m -2.282,-0.6022 h 1.536 c -0.045,-0.1967 -0.135,-0.3473 -0.271,-0.4517 -0.133,-0.1043 -0.291,-0.1565 -0.476,-0.1565 -0.209,0 -0.381,0.0542 -0.518,0.1626 -0.136,0.1043 -0.227,0.2529 -0.271,0.4456 z m 3.632,-1.2225 v 0.5179 c 0.068,-0.1887 0.184,-0.3312 0.349,-0.4276 0.165,-0.1003 0.353,-0.1505 0.566,-0.1505 v 0.8672 c -0.237,-0.0322 -0.45,0.016 -0.638,0.1445 -0.185,0.1244 -0.277,0.3312 -0.277,0.6203 v 1.4392 h -0.777 v -3.011 z"
     fill="#898989"
     id="path3695" />
  <circle
     cx="144.64311"
     cy="26.04801"
     r="5.5918598"
     fill="#a179e1"
     stroke="#a179e1"
     stroke-width="0.860286"
     id="circle3697" />
  <rect
     style="fill:#f9896b;fill-opacity:1;stroke-width:4.03489;stroke-linecap:round;stroke-linejoin:round"
     id="rect3772"
     width="34.953018"
     height="33.820309"
     x="10.163564"
     y="8.8681755"
     rx="7.5567484" />
  <path
     d="m 31.319103,25.66611 c 1.004,-0.6678 1.749,-1.7472 1.965,-3.0359 0.303,-1.8084 -0.521,-3.5142 -1.947,-4.3746 l 0.234,-1.3957 c 0.1,-0.5962 -0.288,-1.1463 -0.866,-1.2287 -0.578,-0.0824 -1.128,0.3342 -1.228,0.9303 l -0.181,1.0795 -2.093,-0.2983 0.18,-1.0795 c 0.1,-0.5962 -0.287,-1.1463 -0.866,-1.2287 -0.578,-0.0823 -1.128,0.3342 -1.227,0.9304 l -0.181,1.0795 -2.094,-0.2984 c -0.578,-0.0824 -1.128,0.3342 -1.228,0.9303 -0.1,0.5962 0.288,1.1463 0.866,1.2287 l 1.047,0.1492 -0.905,5.3974 -0.904,5.3975 -1.047,-0.1492 c -0.579,-0.0824 -1.128,0.3342 -1.228,0.9303 -0.1,0.5962 0.288,1.1463 0.866,1.2287 l 2.094,0.2983 -0.181,1.0795 c -0.1,0.5962 0.287,1.1463 0.866,1.2287 0.578,0.0824 1.128,-0.3342 1.228,-0.9303 l 0.18,-1.0795 2.094,0.2983 -0.181,1.0795 c -0.099,0.5961 0.288,1.1463 0.866,1.2286 0.579,0.0824 1.128,-0.3341 1.228,-0.9303 l 0.234,-1.3957 c 1.641,-0.4235 2.985,-1.8204 3.288,-3.6288 0.216,-1.2887 -0.141,-2.5251 -0.879,-3.4411 z m -5.525,-6.3136 3.664,0.5221 c 1.155,0.1645 1.932,1.2668 1.732,2.4573 -0.2,1.1905 -1.301,2.0251 -2.456,1.8606 l -3.664,-0.522 z m 1.855,11.317 -3.665,-0.5221 0.724,-4.318 3.664,0.5221 c 1.155,0.1645 1.932,1.2669 1.732,2.4573 -0.199,1.1905 -1.301,2.0252 -2.455,1.8607 z"
     fill="#ffffff"
     id="path3699" />
  <defs
     id="defs3766">
    <filter
       id="filter0_dddddd_0_1"
       x="0.94394702"
       y="0.16153"
       width="429.08701"
       height="301.858"
       filterUnits="userSpaceOnUse"
       color-interpolation-filters="sRGB">
      <feFlood
         flood-opacity="0"
         result="BackgroundImageFix"
         id="feFlood3701" />
      <feColorMatrix
         in="SourceAlpha"
         type="matrix"
         values="0 0 0 0 0 0 0 0 0 0 0 0 0 0 0 0 0 0 127 0"
         result="hardAlpha"
         id="feColorMatrix3703" />
      <feOffset
         dy="2.62639"
         id="feOffset3705" />
      <feGaussianBlur
         stdDeviation="2.23243"
         id="feGaussianBlur3707" />
      <feColorMatrix
         type="matrix"
         values="0 0 0 0 0 0 0 0 0 0 0 0 0 0 0 0 0 0 0.01 0"
         id="feColorMatrix3709" />
      <feBlend
         mode="normal"
         in2="BackgroundImageFix"
         result="effect1_dropShadow_0_1"
         id="feBlend3711" />
      <feColorMatrix
         in="SourceAlpha"
         type="matrix"
         values="0 0 0 0 0 0 0 0 0 0 0 0 0 0 0 0 0 0 127 0"
         result="hardAlpha"
         id="feColorMatrix3713" />
      <feOffset
         dy="11.5561"
         id="feOffset3715" />
      <feGaussianBlur
         stdDeviation="4.62244"
         id="feGaussianBlur3717" />
      <feColorMatrix
         type="matrix"
         values="0 0 0 0 0 0 0 0 0 0 0 0 0 0 0 0 0 0 0.0117778 0"
         id="feColorMatrix3719" />
      <feBlend
         mode="normal"
         in2="effect1_dropShadow_0_1"
         result="effect2_dropShadow_0_1"
         id="feBlend3721" />
      <feColorMatrix
         in="SourceAlpha"
         type="matrix"
         values="0 0 0 0 0 0 0 0 0 0 0 0 0 0 0 0 0 0 127 0"
         result="hardAlpha"
         id="feColorMatrix3723" />
      <feOffset
         dy="28.365"
         id="feOffset3725" />
      <feGaussianBlur
         stdDeviation="9.21862"
         id="feGaussianBlur3727" />
      <feColorMatrix
         type="matrix"
         values="0 0 0 0 0 0 0 0 0 0 0 0 0 0 0 0 0 0 0.015 0"
         id="feColorMatrix3729" />
      <feBlend
         mode="normal"
         in2="effect2_dropShadow_0_1"
         result="effect3_dropShadow_0_1"
         id="feBlend3731" />
      <feColorMatrix
         in="SourceAlpha"
         type="matrix"
         values="0 0 0 0 0 0 0 0 0 0 0 0 0 0 0 0 0 0 127 0"
         result="hardAlpha"
         id="feColorMatrix3733" />
      <feOffset
         dy="54.6288"
         id="feOffset3735" />
      <feGaussianBlur
         stdDeviation="18.0695"
         id="feGaussianBlur3737" />
      <feColorMatrix
         type="matrix"
         values="0 0 0 0 0 0 0 0 0 0 0 0 0 0 0 0 0 0 0.0182222 0"
         id="feColorMatrix3739" />
      <feBlend
         mode="normal"
         in2="effect3_dropShadow_0_1"
         result="effect4_dropShadow_0_1"
         id="feBlend3741" />
      <feColorMatrix
         in="SourceAlpha"
         type="matrix"
         values="0 0 0 0 0 0 0 0 0 0 0 0 0 0 0 0 0 0 127 0"
         result="hardAlpha"
         id="feColorMatrix3743" />
      <feOffset
         dy="91.9235"
         id="feOffset3745" />
      <feGaussianBlur
         stdDeviation="33.2238"
         id="feGaussianBlur3747" />
      <feColorMatrix
         type="matrix"
         values="0 0 0 0 0 0 0 0 0 0 0 0 0 0 0 0 0 0 0.0227778 0"
         id="feColorMatrix3749" />
      <feBlend
         mode="normal"
         in2="effect4_dropShadow_0_1"
         result="effect5_dropShadow_0_1"
         id="feBlend3751" />
      <feColorMatrix
         in="SourceAlpha"
         type="matrix"
         values="0 0 0 0 0 0 0 0 0 0 0 0 0 0 0 0 0 0 127 0"
         result="hardAlpha"
         id="feColorMatrix3753" />
      <feOffset
         dy="141.825"
         id="feOffset3755" />
      <feGaussianBlur
         stdDeviation="56.7299"
         id="feGaussianBlur3757" />
      <feColorMatrix
         type="matrix"
         values="0 0 0 0 0 0 0 0 0 0 0 0 0 0 0 0 0 0 0.03 0"
         id="feColorMatrix3759" />
      <feBlend
         mode="normal"
         in2="effect5_dropShadow_0_1"
         result="effect6_dropShadow_0_1"
         id="feBlend3761" />
      <feBlend
         mode="normal"
         in="SourceGraphic"
         in2="effect6_dropShadow_0_1"
         result="shape"
         id="feBlend3763" />
    </filter>
  </defs>
</svg>
