<svg width="180" height="110" fill="none" xmlns="http://www.w3.org/2000/svg"><g filter="url(#prefix__filter0_dddddd_0_1)" transform="translate(-73.37 -1.359)"><rect x="88.999" y="9.874" width="145.36" height="48.453" rx="11.012" fill="#fff"/></g><rect x="24.63" y="15.641" width="34" height="34" rx="9" fill="#f9896b"/><path d="M46.184 33.14c1.03-.607 1.77-1.631 1.942-2.888.244-1.764-.696-3.483-2.234-4.401l.188-1.362c.08-.581-.35-1.142-.964-1.252-.612-.11-1.174.272-1.254.853l-.145 1.053-2.218-.399.145-1.053c.08-.58-.35-1.142-.964-1.252-.612-.11-1.174.272-1.254.853l-.145 1.053-2.218-.399c-.613-.11-1.174.272-1.255.854-.08.581.352 1.142.964 1.252l1.11.2-.727 5.263-.726 5.264-1.109-.199c-.613-.11-1.174.272-1.254.853-.08.582.351 1.142.963 1.253l2.218.399-.145 1.052c-.08.582.352 1.143.964 1.253.613.11 1.174-.272 1.254-.854l.145-1.052 2.22.398-.147 1.053c-.08.582.352 1.142.964 1.253.613.11 1.174-.272 1.254-.854l.188-1.36c1.71-.335 3.068-1.641 3.311-3.405.173-1.257-.255-2.491-1.07-3.43zM40.1 26.65l3.882.699c1.223.22 2.087 1.343 1.927 2.504-.16 1.161-1.285 1.927-2.508 1.707l-3.882-.698zm2.43 11.227l-3.882-.699.581-4.21 3.881.697c1.223.22 2.088 1.344 1.928 2.505-.16 1.161-1.286 1.927-2.509 1.707z" fill="#fff"/><path d="M69.108 22.928v-1.08h-1.085v-.555h1.085v-1.085h.556v1.085h1.08v.556h-1.08v1.079zm2.984.713l-.568-.562.461-.466.416.41h1.213l.247-.247v-.916l-.269.247h-1.467l-.623-.623v-1.36l.623-.624h1.821l.623.624v2.894l-.623.623zm.36-2.152h1.1l.31-.309v-.815l-.248-.247h-1.163l-.247.247.006.877zm2.847 2.152v-.702h.68v.702zm3.29 0v-.803H76.6v-.64l1.99-2.698h.707v2.697h.483v.64h-.483v.804zm-1.118-1.444h1.118v-1.511zm3.426 1.607l-.388-.382 3.94-4.085.387.377zm.124-2.298l-.624-.635v-.736l.624-.635h.955l.624.635v.736l-.624.635zm.32-.556h.31l.27-.264v-.366l-.27-.264h-.31l-.264.264v.366zm2.028 2.691l-.623-.635v-.736l.623-.64h.956l.623.64v.736l-.623.635zm.321-.556H84l.268-.264v-.365l-.269-.27h-.309l-.264.27v.365zM93.804 23.484h-5.842l2.804-3.973z" fill="#27ae60"/><g filter="url(#prefix__filter1_ddddd_0_1)" transform="translate(-73.37 -1.359)"><path d="M142.168 45.452l3.711-2.97a3.272 3.272 0 014.191.086l2.392 2.08a3.274 3.274 0 002.147.804h6.788c1.376 0 2.604-.861 3.075-2.154l3.019-8.301c.763-2.1 3.36-2.833 5.109-1.444l2.211 1.756a3.272 3.272 0 004.236-.141l2.329-2.118a3.272 3.272 0 011.765-.821l9.488-1.278a3.272 3.272 0 012.805.985l5.366 5.628a3.272 3.272 0 005.226-.666l6.953-12.48" stroke="#f9896b" stroke-width="1.124"/></g><defs id="prefix__defs138"><filter id="prefix__filter0_dddddd_0_1" x=".902" y="8.447" width="321.555" height="248.1" filterUnits="userSpaceOnUse" color-interpolation-filters="sRGB"><feFlood flood-opacity="0" result="BackgroundImageFix" id="prefix__feFlood18"/><feColorMatrix in="SourceAlpha" type="matrix" values="0 0 0 0 0 0 0 0 0 0 0 0 0 0 0 0 0 0 127 0" result="hardAlpha" id="prefix__feColorMatrix20"/><feOffset dy="2.039" id="prefix__feOffset22"/><feGaussianBlur stdDeviation="1.733" id="prefix__feGaussianBlur24"/><feColorMatrix type="matrix" values="0 0 0 0 0 0 0 0 0 0 0 0 0 0 0 0 0 0 0.01 0" id="prefix__feColorMatrix26"/><feBlend mode="normal" in2="BackgroundImageFix" result="effect1_dropShadow_0_1" id="prefix__feBlend28"/><feColorMatrix in="SourceAlpha" type="matrix" values="0 0 0 0 0 0 0 0 0 0 0 0 0 0 0 0 0 0 127 0" result="hardAlpha" id="prefix__feColorMatrix30"/><feOffset dy="8.973" id="prefix__feOffset32"/><feGaussianBlur stdDeviation="3.589" id="prefix__feGaussianBlur34"/><feColorMatrix type="matrix" values="0 0 0 0 0 0 0 0 0 0 0 0 0 0 0 0 0 0 0.0117778 0" id="prefix__feColorMatrix36"/><feBlend mode="normal" in2="effect1_dropShadow_0_1" result="effect2_dropShadow_0_1" id="prefix__feBlend38"/><feColorMatrix in="SourceAlpha" type="matrix" values="0 0 0 0 0 0 0 0 0 0 0 0 0 0 0 0 0 0 127 0" result="hardAlpha" id="prefix__feColorMatrix40"/><feOffset dy="22.024" id="prefix__feOffset42"/><feGaussianBlur stdDeviation="7.158" id="prefix__feGaussianBlur44"/><feColorMatrix type="matrix" values="0 0 0 0 0 0 0 0 0 0 0 0 0 0 0 0 0 0 0.015 0" id="prefix__feColorMatrix46"/><feBlend mode="normal" in2="effect2_dropShadow_0_1" result="effect3_dropShadow_0_1" id="prefix__feBlend48"/><feColorMatrix in="SourceAlpha" type="matrix" values="0 0 0 0 0 0 0 0 0 0 0 0 0 0 0 0 0 0 127 0" result="hardAlpha" id="prefix__feColorMatrix50"/><feOffset dy="42.417" id="prefix__feOffset52"/><feGaussianBlur stdDeviation="14.03" id="prefix__feGaussianBlur54"/><feColorMatrix type="matrix" values="0 0 0 0 0 0 0 0 0 0 0 0 0 0 0 0 0 0 0.0182222 0" id="prefix__feColorMatrix56"/><feBlend mode="normal" in2="effect3_dropShadow_0_1" result="effect4_dropShadow_0_1" id="prefix__feBlend58"/><feColorMatrix in="SourceAlpha" type="matrix" values="0 0 0 0 0 0 0 0 0 0 0 0 0 0 0 0 0 0 127 0" result="hardAlpha" id="prefix__feColorMatrix60"/><feOffset dy="71.375" id="prefix__feOffset62"/><feGaussianBlur stdDeviation="25.797" id="prefix__feGaussianBlur64"/><feColorMatrix type="matrix" values="0 0 0 0 0 0 0 0 0 0 0 0 0 0 0 0 0 0 0.0227778 0" id="prefix__feColorMatrix66"/><feBlend mode="normal" in2="effect4_dropShadow_0_1" result="effect5_dropShadow_0_1" id="prefix__feBlend68"/><feColorMatrix in="SourceAlpha" type="matrix" values="0 0 0 0 0 0 0 0 0 0 0 0 0 0 0 0 0 0 127 0" result="hardAlpha" id="prefix__feColorMatrix70"/><feOffset dy="110.121" id="prefix__feOffset72"/><feGaussianBlur stdDeviation="44.049" id="prefix__feGaussianBlur74"/><feColorMatrix type="matrix" values="0 0 0 0 0 0 0 0 0 0 0 0 0 0 0 0 0 0 0.03 0" id="prefix__feColorMatrix76"/><feBlend mode="normal" in2="effect5_dropShadow_0_1" result="effect6_dropShadow_0_1" id="prefix__feBlend78"/><feBlend mode="normal" in="SourceGraphic" in2="effect6_dropShadow_0_1" result="shape" id="prefix__feBlend80"/></filter><filter id="prefix__filter1_ddddd_0_1" x="102.817" y=".258" width="149.652" height="99.868" filterUnits="userSpaceOnUse" color-interpolation-filters="sRGB"><feFlood flood-opacity="0" result="BackgroundImageFix" id="prefix__feFlood83"/><feColorMatrix in="SourceAlpha" type="matrix" values="0 0 0 0 0 0 0 0 0 0 0 0 0 0 0 0 0 0 127 0" result="hardAlpha" id="prefix__feColorMatrix85"/><feOffset dy=".411" id="prefix__feOffset87"/><feGaussianBlur stdDeviation=".905" id="prefix__feGaussianBlur89"/><feColorMatrix type="matrix" values="0 0 0 0 0.976471 0 0 0 0 0.537255 0 0 0 0 0.419608 0 0 0 0.107952 0" id="prefix__feColorMatrix91"/><feBlend mode="normal" in2="BackgroundImageFix" result="effect1_dropShadow_0_1" id="prefix__feBlend93"/><feColorMatrix in="SourceAlpha" type="matrix" values="0 0 0 0 0 0 0 0 0 0 0 0 0 0 0 0 0 0 127 0" result="hardAlpha" id="prefix__feColorMatrix95"/><feOffset dy="1.838" id="prefix__feOffset97"/><feGaussianBlur stdDeviation="2.09" id="prefix__feGaussianBlur99"/><feColorMatrix type="matrix" values="0 0 0 0 0.976471 0 0 0 0 0.537255 0 0 0 0 0.419608 0 0 0 0.170976 0" id="prefix__feColorMatrix101"/><feBlend mode="normal" in2="effect1_dropShadow_0_1" result="effect2_dropShadow_0_1" id="prefix__feBlend103"/><feColorMatrix in="SourceAlpha" type="matrix" values="0 0 0 0 0 0 0 0 0 0 0 0 0 0 0 0 0 0 127 0" result="hardAlpha" id="prefix__feColorMatrix105"/><feOffset dy="4.57" id="prefix__feOffset107"/><feGaussianBlur stdDeviation="4.774" id="prefix__feGaussianBlur109"/><feColorMatrix type="matrix" values="0 0 0 0 0.976471 0 0 0 0 0.537255 0 0 0 0 0.419608 0 0 0 0.219024 0" id="prefix__feColorMatrix111"/><feBlend mode="normal" in2="effect2_dropShadow_0_1" result="effect3_dropShadow_0_1" id="prefix__feBlend113"/><feColorMatrix in="SourceAlpha" type="matrix" values="0 0 0 0 0 0 0 0 0 0 0 0 0 0 0 0 0 0 127 0" result="hardAlpha" id="prefix__feColorMatrix115"/><feOffset dy="8.898" id="prefix__feOffset117"/><feGaussianBlur stdDeviation="10.171" id="prefix__feGaussianBlur119"/><feColorMatrix type="matrix" values="0 0 0 0 0.976471 0 0 0 0 0.537255 0 0 0 0 0.419608 0 0 0 0.282048 0" id="prefix__feColorMatrix121"/><feBlend mode="normal" in2="effect3_dropShadow_0_1" result="effect4_dropShadow_0_1" id="prefix__feBlend123"/><feColorMatrix in="SourceAlpha" type="matrix" values="0 0 0 0 0 0 0 0 0 0 0 0 0 0 0 0 0 0 127 0" result="hardAlpha" id="prefix__feColorMatrix125"/><feOffset dy="15.113" id="prefix__feOffset127"/><feGaussianBlur stdDeviation="19.5" id="prefix__feGaussianBlur129"/><feColorMatrix type="matrix" values="0 0 0 0 0.976471 0 0 0 0 0.537255 0 0 0 0 0.419608 0 0 0 0.39 0" id="prefix__feColorMatrix131"/><feBlend mode="normal" in2="effect4_dropShadow_0_1" result="effect5_dropShadow_0_1" id="prefix__feBlend133"/><feBlend mode="normal" in="SourceGraphic" in2="effect5_dropShadow_0_1" result="shape" id="prefix__feBlend135"/></filter></defs></svg>