<?xml version="1.0" encoding="UTF-8" standalone="no"?>
<svg
   width="115"
   height="90"
   viewBox="0 0 115 90"
   fill="none"
   version="1.1"
   id="svg142"
   sodipodi:docname="graphic1.svg"
   inkscape:version="1.2 (dc2aedaf03, 2022-05-15)"
   xmlns:inkscape="http://www.inkscape.org/namespaces/inkscape"
   xmlns:sodipodi="http://sodipodi.sourceforge.net/DTD/sodipodi-0.dtd"
   xmlns="http://www.w3.org/2000/svg"
   xmlns:svg="http://www.w3.org/2000/svg">
  <sodipodi:namedview
     id="namedview144"
     pagecolor="#ffffff"
     bordercolor="#666666"
     borderopacity="1.0"
     inkscape:showpageshadow="2"
     inkscape:pageopacity="0.0"
     inkscape:pagecheckerboard="0"
     inkscape:deskcolor="#d1d1d1"
     showgrid="false"
     inkscape:zoom="2.1747967"
     inkscape:cx="114.26355"
     inkscape:cy="108.05607"
     inkscape:window-width="1366"
     inkscape:window-height="715"
     inkscape:window-x="-8"
     inkscape:window-y="-8"
     inkscape:window-maximized="1"
     inkscape:current-layer="svg142" />
  <g
     filter="url(#filter0_dddddd_0_1)"
     id="g4"
     transform="translate(-86.284112,-4.5981308)">
    <rect
       x="89"
       y="4"
       width="109"
       height="43"
       rx="11.0121"
       fill="#ffffff"
       id="rect2" />
  </g>
  <rect
     x="9.715888"
     y="6.4018693"
     width="29"
     height="29"
     rx="9"
     fill="#da1d6c"
     id="rect6" />
  <path
     d="m 33.416888,22.823569 c -1.019,4.0929 -4.746,7.0048 -9.136,7.0048 -4.41,0 -8.106,-3.0842 -9.083,-7.194 1.175,0 2.273,0.0054 2.783,0.0054 0.241,0 0.288,0.0041 0.302,0.0031 0.383,-0.0188 0.864,-0.1455 1.184,-0.9237 l 1.22,-3.1901 2.708,6.5209 c 0.244,0.5198 0.65,0.483 0.893,0.483 h 0.023 c 0.473,0 0.678,-0.1658 0.858,-0.5087 l 3.059,-6.4463 1.044,2.9052 0.064,0.1407 c 0.22,0.484 0.379,0.9621 0.925,1.0246 0.113,0.0129 1.42,-0.01 3.182,-0.01 0,0 0,0.0113 -0.026,0.1851 z"
     fill="#fefefe"
     id="path8" />
  <path
     d="m 33.715888,20.413069 c 0,0.0487 0,0.1712 -10e-4,0.1712 h -0.002 -2.813 l -1.641,-4.5839 c -0.146,-0.341 -0.365,-0.852 -1.005,-0.852 -0.392,0 -0.746,0.3234 -0.947,0.8571 l -2.974,6.8904 -2.864,-6.8486 c -0.28,-0.6083 -0.474,-0.8943 -1.034,-0.8943 -0.381,0 -0.66,0.1402 -0.965,0.8608 l -1.699,4.6385 -2.824,-0.0029 c -0.002,-0.0706 -0.003,-0.1411 -0.003,-0.2117 0,-5.1564 4.181,-9.3236 9.337,-9.3236 5.156,0 9.435,4.1426 9.435,9.299 z"
     fill="#fefefe"
     id="path10" />
  <path
     d="m 47.193888,11.688269 v -1.0788 h -1.085 v -0.5563 h 1.085 V 8.9687692 h 0.556 v 1.0843998 h 1.079 v 0.5563 h -1.079 v 1.0788 z m 2.365,0.7136 v -0.6406 h 0.551 V 8.9012692 h -0.472 v -0.6405 h 1.174 v 3.5004998 h 0.551 v 0.6406 z m 2.46,0 v -0.8597 l 2.118,-1.9103998 v -0.5057 l -0.247,-0.2472 h -1.04 l -0.41,0.4101 -0.461,-0.4663 0.562,-0.5619 h 1.675 l 0.623,0.6237 v 1.0395 l -2.022,1.8372998 h 2.062 v 0.6406 z m 3.676,0 v -0.7024 h 0.68 v 0.7024 z m 3.29,0 v -0.8035 h -1.989 v -0.6406 l 1.989,-2.6969998 h 0.708 v 2.6969998 h 0.483 v 0.6406 h -0.483 v 0.8035 z m -1.118,-1.4441 h 1.118 V 9.4463692 Z m 3.426,1.607 -0.388,-0.382 3.939,-4.0849998 0.388,0.3765 z m 0.124,-2.2981 -0.624,-0.6348998 v -0.7361 l 0.624,-0.6349 h 0.955 l 0.624,0.6349 v 0.7361 l -0.624,0.6348998 z m 0.32,-0.5561998 h 0.309 l 0.27,-0.2641 v -0.3653 l -0.27,-0.2641 h -0.309 l -0.264,0.2641 v 0.3653 z m 2.028,2.6913998 -0.623,-0.6349 v -0.7361 l 0.623,-0.6406 h 0.956 l 0.623,0.6406 v 0.7361 l -0.623,0.6349 z m 0.321,-0.5563 h 0.309 l 0.269,-0.2641 v -0.3652 l -0.269,-0.2697 h -0.309 l -0.264,0.2697 v 0.3652 z"
     fill="#f26c6d"
     id="path12" />
  <path
     d="m 71.889888,8.2714692 h -5.842 l 2.804,3.9728998 z"
     fill="#f26c6d"
     id="path14" />
  <g
     filter="url(#filter1_ddddd_0_1)"
     id="g18"
     transform="translate(-86.284112,-4.5981308)">
    <path
       d="m 132,32.1131 3.077,-2.1663 c 1.198,-0.8437 2.801,-0.8282 3.983,0.0385 l 2.67,1.9588 c 0.154,0.1125 0.297,0.2376 0.43,0.374 l 2.962,3.0501 c 1.381,1.4216 3.679,1.3719 4.997,-0.1082 l 2.981,-3.3484 c 0.473,-0.5308 1.1,-0.9008 1.793,-1.0583 l 4.598,-1.0444 c 0.595,-0.1351 1.215,-0.1083 1.796,0.0777 l 1.37,0.4384 c 1.43,0.4577 2.992,-0.0732 3.846,-1.3077 l 1.74,-2.5135 c 1.244,-1.797 3.833,-1.9777 5.315,-0.371 l 3.417,3.7056 c 1.381,1.4982 3.76,1.4593 5.091,-0.0834 l 2.968,-3.4371 c 0.648,-0.7508 1.591,-1.1825 2.583,-1.1825 H 194"
       stroke="#da1d6c"
       stroke-width="1.12378"
       id="path16" />
  </g>
  <defs
     id="defs140">
    <filter
       id="filter0_dddddd_0_1"
       x="0.90284002"
       y="2.5725"
       width="285.194"
       height="242.646"
       filterUnits="userSpaceOnUse"
       color-interpolation-filters="sRGB">
      <feFlood
         flood-opacity="0"
         result="BackgroundImageFix"
         id="feFlood20" />
      <feColorMatrix
         in="SourceAlpha"
         type="matrix"
         values="0 0 0 0 0 0 0 0 0 0 0 0 0 0 0 0 0 0 127 0"
         result="hardAlpha"
         id="feColorMatrix22" />
      <feOffset
         dy="2.03929"
         id="feOffset24" />
      <feGaussianBlur
         stdDeviation="1.73339"
         id="feGaussianBlur26" />
      <feColorMatrix
         type="matrix"
         values="0 0 0 0 0 0 0 0 0 0 0 0 0 0 0 0 0 0 0.01 0"
         id="feColorMatrix28" />
      <feBlend
         mode="normal"
         in2="BackgroundImageFix"
         result="effect1_dropShadow_0_1"
         id="feBlend30" />
      <feColorMatrix
         in="SourceAlpha"
         type="matrix"
         values="0 0 0 0 0 0 0 0 0 0 0 0 0 0 0 0 0 0 127 0"
         result="hardAlpha"
         id="feColorMatrix32" />
      <feOffset
         dy="8.97286"
         id="feOffset34" />
      <feGaussianBlur
         stdDeviation="3.58914"
         id="feGaussianBlur36" />
      <feColorMatrix
         type="matrix"
         values="0 0 0 0 0 0 0 0 0 0 0 0 0 0 0 0 0 0 0.0117778 0"
         id="feColorMatrix38" />
      <feBlend
         mode="normal"
         in2="effect1_dropShadow_0_1"
         result="effect2_dropShadow_0_1"
         id="feBlend40" />
      <feColorMatrix
         in="SourceAlpha"
         type="matrix"
         values="0 0 0 0 0 0 0 0 0 0 0 0 0 0 0 0 0 0 127 0"
         result="hardAlpha"
         id="feColorMatrix42" />
      <feOffset
         dy="22.0243"
         id="feOffset44" />
      <feGaussianBlur
         stdDeviation="7.15789"
         id="feGaussianBlur46" />
      <feColorMatrix
         type="matrix"
         values="0 0 0 0 0 0 0 0 0 0 0 0 0 0 0 0 0 0 0.015 0"
         id="feColorMatrix48" />
      <feBlend
         mode="normal"
         in2="effect2_dropShadow_0_1"
         result="effect3_dropShadow_0_1"
         id="feBlend50" />
      <feColorMatrix
         in="SourceAlpha"
         type="matrix"
         values="0 0 0 0 0 0 0 0 0 0 0 0 0 0 0 0 0 0 127 0"
         result="hardAlpha"
         id="feColorMatrix52" />
      <feOffset
         dy="42.4172"
         id="feOffset54" />
      <feGaussianBlur
         stdDeviation="14.0303"
         id="feGaussianBlur56" />
      <feColorMatrix
         type="matrix"
         values="0 0 0 0 0 0 0 0 0 0 0 0 0 0 0 0 0 0 0.0182222 0"
         id="feColorMatrix58" />
      <feBlend
         mode="normal"
         in2="effect3_dropShadow_0_1"
         result="effect4_dropShadow_0_1"
         id="feBlend60" />
      <feColorMatrix
         in="SourceAlpha"
         type="matrix"
         values="0 0 0 0 0 0 0 0 0 0 0 0 0 0 0 0 0 0 127 0"
         result="hardAlpha"
         id="feColorMatrix62" />
      <feOffset
         dy="71.375"
         id="feOffset64" />
      <feGaussianBlur
         stdDeviation="25.797"
         id="feGaussianBlur66" />
      <feColorMatrix
         type="matrix"
         values="0 0 0 0 0 0 0 0 0 0 0 0 0 0 0 0 0 0 0.0227778 0"
         id="feColorMatrix68" />
      <feBlend
         mode="normal"
         in2="effect4_dropShadow_0_1"
         result="effect5_dropShadow_0_1"
         id="feBlend70" />
      <feColorMatrix
         in="SourceAlpha"
         type="matrix"
         values="0 0 0 0 0 0 0 0 0 0 0 0 0 0 0 0 0 0 127 0"
         result="hardAlpha"
         id="feColorMatrix72" />
      <feOffset
         dy="110.121"
         id="feOffset74" />
      <feGaussianBlur
         stdDeviation="44.0486"
         id="feGaussianBlur76" />
      <feColorMatrix
         type="matrix"
         values="0 0 0 0 0 0 0 0 0 0 0 0 0 0 0 0 0 0 0.03 0"
         id="feColorMatrix78" />
      <feBlend
         mode="normal"
         in2="effect5_dropShadow_0_1"
         result="effect6_dropShadow_0_1"
         id="feBlend80" />
      <feBlend
         mode="normal"
         in="SourceGraphic"
         in2="effect6_dropShadow_0_1"
         result="shape"
         id="feBlend82" />
    </filter>
    <filter
       id="filter1_ddddd_0_1"
       x="92.676498"
       y="0.58418"
       width="140.323"
       height="90.493301"
       filterUnits="userSpaceOnUse"
       color-interpolation-filters="sRGB">
      <feFlood
         flood-opacity="0"
         result="BackgroundImageFix"
         id="feFlood85" />
      <feColorMatrix
         in="SourceAlpha"
         type="matrix"
         values="0 0 0 0 0 0 0 0 0 0 0 0 0 0 0 0 0 0 127 0"
         result="hardAlpha"
         id="feColorMatrix87" />
      <feOffset
         dy="0.41106"
         id="feOffset89" />
      <feGaussianBlur
         stdDeviation="0.9048"
         id="feGaussianBlur91" />
      <feColorMatrix
         type="matrix"
         values="0 0 0 0 0.568627 0 0 0 0 0.0196078 0 0 0 0 0.462745 0 0 0 0.107952 0"
         id="feColorMatrix93" />
      <feBlend
         mode="normal"
         in2="BackgroundImageFix"
         result="effect1_dropShadow_0_1"
         id="feBlend95" />
      <feColorMatrix
         in="SourceAlpha"
         type="matrix"
         values="0 0 0 0 0 0 0 0 0 0 0 0 0 0 0 0 0 0 127 0"
         result="hardAlpha"
         id="feColorMatrix97" />
      <feOffset
         dy="1.83768"
         id="feOffset99" />
      <feGaussianBlur
         stdDeviation="2.0904"
         id="feGaussianBlur101" />
      <feColorMatrix
         type="matrix"
         values="0 0 0 0 0.568627 0 0 0 0 0.0196078 0 0 0 0 0.462745 0 0 0 0.170976 0"
         id="feColorMatrix103" />
      <feBlend
         mode="normal"
         in2="effect1_dropShadow_0_1"
         result="effect2_dropShadow_0_1"
         id="feBlend105" />
      <feColorMatrix
         in="SourceAlpha"
         type="matrix"
         values="0 0 0 0 0 0 0 0 0 0 0 0 0 0 0 0 0 0 127 0"
         result="hardAlpha"
         id="feColorMatrix107" />
      <feOffset
         dy="4.57002"
         id="feOffset109" />
      <feGaussianBlur
         stdDeviation="4.7736"
         id="feGaussianBlur111" />
      <feColorMatrix
         type="matrix"
         values="0 0 0 0 0.568627 0 0 0 0 0.0196078 0 0 0 0 0.462745 0 0 0 0.219024 0"
         id="feColorMatrix113" />
      <feBlend
         mode="normal"
         in2="effect2_dropShadow_0_1"
         result="effect3_dropShadow_0_1"
         id="feBlend115" />
      <feColorMatrix
         in="SourceAlpha"
         type="matrix"
         values="0 0 0 0 0 0 0 0 0 0 0 0 0 0 0 0 0 0 127 0"
         result="hardAlpha"
         id="feColorMatrix117" />
      <feOffset
         dy="8.89824"
         id="feOffset119" />
      <feGaussianBlur
         stdDeviation="10.1712"
         id="feGaussianBlur121" />
      <feColorMatrix
         type="matrix"
         values="0 0 0 0 0.568627 0 0 0 0 0.0196078 0 0 0 0 0.462745 0 0 0 0.282048 0"
         id="feColorMatrix123" />
      <feBlend
         mode="normal"
         in2="effect3_dropShadow_0_1"
         result="effect4_dropShadow_0_1"
         id="feBlend125" />
      <feColorMatrix
         in="SourceAlpha"
         type="matrix"
         values="0 0 0 0 0 0 0 0 0 0 0 0 0 0 0 0 0 0 127 0"
         result="hardAlpha"
         id="feColorMatrix127" />
      <feOffset
         dy="15.1125"
         id="feOffset129" />
      <feGaussianBlur
         stdDeviation="19.5"
         id="feGaussianBlur131" />
      <feColorMatrix
         type="matrix"
         values="0 0 0 0 0.568627 0 0 0 0 0.0196078 0 0 0 0 0.462745 0 0 0 0.39 0"
         id="feColorMatrix133" />
      <feBlend
         mode="normal"
         in2="effect4_dropShadow_0_1"
         result="effect5_dropShadow_0_1"
         id="feBlend135" />
      <feBlend
         mode="normal"
         in="SourceGraphic"
         in2="effect5_dropShadow_0_1"
         result="shape"
         id="feBlend137" />
    </filter>
  </defs>
</svg>
