<?xml version="1.0" encoding="UTF-8" standalone="no"?>
<svg
   width="180"
   height="110"
   viewBox="0 0 180 110"
   fill="none"
   version="1.1"
   id="svg140"
   sodipodi:docname="graphic0.svg"
   inkscape:version="1.2 (dc2aedaf03, 2022-05-15)"
   xmlns:inkscape="http://www.inkscape.org/namespaces/inkscape"
   xmlns:sodipodi="http://sodipodi.sourceforge.net/DTD/sodipodi-0.dtd"
   xmlns="http://www.w3.org/2000/svg"
   xmlns:svg="http://www.w3.org/2000/svg">
  <sodipodi:namedview
     id="namedview142"
     pagecolor="#ffffff"
     bordercolor="#666666"
     borderopacity="1.0"
     inkscape:showpageshadow="2"
     inkscape:pageopacity="0.0"
     inkscape:pagecheckerboard="0"
     inkscape:deskcolor="#d1d1d1"
     showgrid="false"
     inkscape:zoom="1.4719927"
     inkscape:cx="81.861818"
     inkscape:cy="152.85402"
     inkscape:window-width="1366"
     inkscape:window-height="715"
     inkscape:window-x="-8"
     inkscape:window-y="-8"
     inkscape:window-maximized="1"
     inkscape:current-layer="svg140" />
  <g
     filter="url(#filter0_dddddd_0_1)"
     id="g4"
     transform="translate(-73.369928,-1.3587024)">
    <rect
       x="88.999496"
       y="9.8743896"
       width="145.36"
       height="48.4534"
       rx="11.0121"
       fill="#ffffff"
       id="rect2" />
  </g>
  <rect
     x="24.630072"
     y="15.641297"
     width="34"
     height="34"
     rx="9"
     fill="#f9896b"
     id="rect6" />
  <path
     d="m 46.184072,33.139598 c 1.029,-0.6063 1.769,-1.6306 1.942,-2.8875 0.244,-1.7637 -0.696,-3.4833 -2.234,-4.4015 l 0.188,-1.3612 c 0.08,-0.5814 -0.351,-1.1421 -0.964,-1.2523 -0.612,-0.1102 -1.174,0.2719 -1.254,0.8534 l -0.145,1.0528 -2.218,-0.399 0.145,-1.0528 c 0.08,-0.5814 -0.351,-1.1421 -0.964,-1.2523 -0.612,-0.1102 -1.174,0.2719 -1.254,0.8533 l -0.145,1.0528 -2.218,-0.3989 c -0.613,-0.1102 -1.174,0.2719 -1.255,0.8533 -0.08,0.5814 0.352,1.1421 0.964,1.2523 l 1.109,0.1995 -0.726,5.264 -0.726,5.264 -1.109,-0.1994 c -0.613,-0.1102 -1.174,0.2719 -1.254,0.8533 -0.081,0.5814 0.351,1.1421 0.963,1.2523 l 2.218,0.3989 -0.145,1.0528 c -0.08,0.5815 0.352,1.1422 0.964,1.2523 0.613,0.1102 1.174,-0.2719 1.254,-0.8533 l 0.145,-1.0528 2.219,0.3989 -0.146,1.0529 c -0.08,0.5814 0.352,1.1421 0.964,1.2522 0.613,0.1102 1.174,-0.2719 1.254,-0.8533 l 0.188,-1.3612 c 1.71,-0.334 3.068,-1.6404 3.311,-3.4041 0.173,-1.2569 -0.255,-2.4911 -1.071,-3.4294 z m -6.085,-6.4892 3.882,0.6982 c 1.223,0.22 2.087,1.3435 1.927,2.5046 -0.16,1.161 -1.285,1.9266 -2.508,1.7066 l -3.882,-0.6981 z m 2.429,11.2263 -3.881,-0.6982 0.581,-4.2112 3.881,0.6981 c 1.223,0.22 2.088,1.3436 1.928,2.5046 -0.16,1.1611 -1.286,1.9267 -2.509,1.7067 z"
     fill="#ffffff"
     id="path8" />
  <path
     d="m 69.108072,22.927698 v -1.0788 h -1.085 v -0.5563 h 1.085 v -1.0844 h 0.556 v 1.0844 h 1.079 v 0.5563 h -1.079 v 1.0788 z m 2.984,0.7136 -0.568,-0.5619 0.461,-0.4664 0.416,0.4102 h 1.213 l 0.247,-0.2472 v -0.9159 l -0.269,0.2472 h -1.467 l -0.623,-0.6237 v -1.3597 l 0.623,-0.6237 h 1.821 l 0.623,0.6237 v 2.8937 l -0.623,0.6237 z m 0.359,-2.152 h 1.101 l 0.309,-0.3091 v -0.8147 l -0.247,-0.2472 h -1.163 l -0.247,0.2472 0.006,0.8765 z m 2.848,2.152 v -0.7024 h 0.68 v 0.7024 z m 3.29,0 v -0.8035 h -1.989 v -0.6406 l 1.989,-2.697 h 0.708 v 2.697 h 0.483 v 0.6406 h -0.483 v 0.8035 z m -1.118,-1.4441 h 1.118 v -1.5114 z m 3.426,1.607 -0.388,-0.382 3.939,-4.085 0.388,0.3765 z m 0.124,-2.2981 -0.624,-0.6349 v -0.7361 l 0.624,-0.6349 h 0.955 l 0.624,0.6349 v 0.7361 l -0.624,0.6349 z m 0.32,-0.5562 h 0.309 l 0.27,-0.2641 v -0.3653 l -0.27,-0.2641 h -0.309 l -0.264,0.2641 v 0.3653 z m 2.028,2.6914 -0.623,-0.6349 v -0.7361 l 0.623,-0.6406 h 0.956 l 0.623,0.6406 v 0.7361 l -0.623,0.6349 z m 0.321,-0.5563 h 0.309 l 0.269,-0.2641 v -0.3652 l -0.269,-0.2697 h -0.309 l -0.264,0.2697 v 0.3652 z"
     fill="#27ae60"
     id="path10" />
  <path
     d="m 93.804072,23.483698 h -5.842 l 2.804,-3.9729 z"
     fill="#27ae60"
     id="path12" />
  <g
     filter="url(#filter1_ddddd_0_1)"
     id="g16"
     transform="translate(-73.369928,-1.3587024)">
    <path
       d="m 142.168,45.4516 3.711,-2.969 c 1.234,-0.9875 2.998,-0.9513 4.191,0.0859 l 2.392,2.0802 c 0.596,0.5177 1.358,0.8029 2.147,0.8029 h 6.788 c 1.376,0 2.604,-0.8606 3.075,-2.1535 l 3.019,-8.3011 c 0.763,-2.0994 3.36,-2.8331 5.109,-1.4439 l 2.211,1.7559 c 1.256,0.9972 3.049,0.9374 4.236,-0.1412 l 2.329,-2.1177 c 0.491,-0.4465 1.107,-0.7331 1.765,-0.8216 l 9.488,-1.2774 c 1.039,-0.1398 2.082,0.2263 2.805,0.9848 l 5.366,5.6276 c 1.521,1.5955 4.153,1.2604 5.226,-0.6654 l 6.953,-12.4794"
       stroke="#f9896b"
       stroke-width="1.12378"
       id="path14" />
  </g>
  <defs
     id="defs138">
    <filter
       id="filter0_dddddd_0_1"
       x="0.90235102"
       y="8.4468899"
       width="321.55499"
       height="248.10001"
       filterUnits="userSpaceOnUse"
       color-interpolation-filters="sRGB">
      <feFlood
         flood-opacity="0"
         result="BackgroundImageFix"
         id="feFlood18" />
      <feColorMatrix
         in="SourceAlpha"
         type="matrix"
         values="0 0 0 0 0 0 0 0 0 0 0 0 0 0 0 0 0 0 127 0"
         result="hardAlpha"
         id="feColorMatrix20" />
      <feOffset
         dy="2.03929"
         id="feOffset22" />
      <feGaussianBlur
         stdDeviation="1.73339"
         id="feGaussianBlur24" />
      <feColorMatrix
         type="matrix"
         values="0 0 0 0 0 0 0 0 0 0 0 0 0 0 0 0 0 0 0.01 0"
         id="feColorMatrix26" />
      <feBlend
         mode="normal"
         in2="BackgroundImageFix"
         result="effect1_dropShadow_0_1"
         id="feBlend28" />
      <feColorMatrix
         in="SourceAlpha"
         type="matrix"
         values="0 0 0 0 0 0 0 0 0 0 0 0 0 0 0 0 0 0 127 0"
         result="hardAlpha"
         id="feColorMatrix30" />
      <feOffset
         dy="8.97286"
         id="feOffset32" />
      <feGaussianBlur
         stdDeviation="3.58914"
         id="feGaussianBlur34" />
      <feColorMatrix
         type="matrix"
         values="0 0 0 0 0 0 0 0 0 0 0 0 0 0 0 0 0 0 0.0117778 0"
         id="feColorMatrix36" />
      <feBlend
         mode="normal"
         in2="effect1_dropShadow_0_1"
         result="effect2_dropShadow_0_1"
         id="feBlend38" />
      <feColorMatrix
         in="SourceAlpha"
         type="matrix"
         values="0 0 0 0 0 0 0 0 0 0 0 0 0 0 0 0 0 0 127 0"
         result="hardAlpha"
         id="feColorMatrix40" />
      <feOffset
         dy="22.0243"
         id="feOffset42" />
      <feGaussianBlur
         stdDeviation="7.15789"
         id="feGaussianBlur44" />
      <feColorMatrix
         type="matrix"
         values="0 0 0 0 0 0 0 0 0 0 0 0 0 0 0 0 0 0 0.015 0"
         id="feColorMatrix46" />
      <feBlend
         mode="normal"
         in2="effect2_dropShadow_0_1"
         result="effect3_dropShadow_0_1"
         id="feBlend48" />
      <feColorMatrix
         in="SourceAlpha"
         type="matrix"
         values="0 0 0 0 0 0 0 0 0 0 0 0 0 0 0 0 0 0 127 0"
         result="hardAlpha"
         id="feColorMatrix50" />
      <feOffset
         dy="42.4172"
         id="feOffset52" />
      <feGaussianBlur
         stdDeviation="14.0303"
         id="feGaussianBlur54" />
      <feColorMatrix
         type="matrix"
         values="0 0 0 0 0 0 0 0 0 0 0 0 0 0 0 0 0 0 0.0182222 0"
         id="feColorMatrix56" />
      <feBlend
         mode="normal"
         in2="effect3_dropShadow_0_1"
         result="effect4_dropShadow_0_1"
         id="feBlend58" />
      <feColorMatrix
         in="SourceAlpha"
         type="matrix"
         values="0 0 0 0 0 0 0 0 0 0 0 0 0 0 0 0 0 0 127 0"
         result="hardAlpha"
         id="feColorMatrix60" />
      <feOffset
         dy="71.375"
         id="feOffset62" />
      <feGaussianBlur
         stdDeviation="25.797"
         id="feGaussianBlur64" />
      <feColorMatrix
         type="matrix"
         values="0 0 0 0 0 0 0 0 0 0 0 0 0 0 0 0 0 0 0.0227778 0"
         id="feColorMatrix66" />
      <feBlend
         mode="normal"
         in2="effect4_dropShadow_0_1"
         result="effect5_dropShadow_0_1"
         id="feBlend68" />
      <feColorMatrix
         in="SourceAlpha"
         type="matrix"
         values="0 0 0 0 0 0 0 0 0 0 0 0 0 0 0 0 0 0 127 0"
         result="hardAlpha"
         id="feColorMatrix70" />
      <feOffset
         dy="110.121"
         id="feOffset72" />
      <feGaussianBlur
         stdDeviation="44.0486"
         id="feGaussianBlur74" />
      <feColorMatrix
         type="matrix"
         values="0 0 0 0 0 0 0 0 0 0 0 0 0 0 0 0 0 0 0.03 0"
         id="feColorMatrix76" />
      <feBlend
         mode="normal"
         in2="effect5_dropShadow_0_1"
         result="effect6_dropShadow_0_1"
         id="feBlend78" />
      <feBlend
         mode="normal"
         in="SourceGraphic"
         in2="effect6_dropShadow_0_1"
         result="shape"
         id="feBlend80" />
    </filter>
    <filter
       id="filter1_ddddd_0_1"
       x="102.817"
       y="0.25776401"
       width="149.65199"
       height="99.868202"
       filterUnits="userSpaceOnUse"
       color-interpolation-filters="sRGB">
      <feFlood
         flood-opacity="0"
         result="BackgroundImageFix"
         id="feFlood83" />
      <feColorMatrix
         in="SourceAlpha"
         type="matrix"
         values="0 0 0 0 0 0 0 0 0 0 0 0 0 0 0 0 0 0 127 0"
         result="hardAlpha"
         id="feColorMatrix85" />
      <feOffset
         dy="0.41106"
         id="feOffset87" />
      <feGaussianBlur
         stdDeviation="0.9048"
         id="feGaussianBlur89" />
      <feColorMatrix
         type="matrix"
         values="0 0 0 0 0.976471 0 0 0 0 0.537255 0 0 0 0 0.419608 0 0 0 0.107952 0"
         id="feColorMatrix91" />
      <feBlend
         mode="normal"
         in2="BackgroundImageFix"
         result="effect1_dropShadow_0_1"
         id="feBlend93" />
      <feColorMatrix
         in="SourceAlpha"
         type="matrix"
         values="0 0 0 0 0 0 0 0 0 0 0 0 0 0 0 0 0 0 127 0"
         result="hardAlpha"
         id="feColorMatrix95" />
      <feOffset
         dy="1.83768"
         id="feOffset97" />
      <feGaussianBlur
         stdDeviation="2.0904"
         id="feGaussianBlur99" />
      <feColorMatrix
         type="matrix"
         values="0 0 0 0 0.976471 0 0 0 0 0.537255 0 0 0 0 0.419608 0 0 0 0.170976 0"
         id="feColorMatrix101" />
      <feBlend
         mode="normal"
         in2="effect1_dropShadow_0_1"
         result="effect2_dropShadow_0_1"
         id="feBlend103" />
      <feColorMatrix
         in="SourceAlpha"
         type="matrix"
         values="0 0 0 0 0 0 0 0 0 0 0 0 0 0 0 0 0 0 127 0"
         result="hardAlpha"
         id="feColorMatrix105" />
      <feOffset
         dy="4.57002"
         id="feOffset107" />
      <feGaussianBlur
         stdDeviation="4.7736"
         id="feGaussianBlur109" />
      <feColorMatrix
         type="matrix"
         values="0 0 0 0 0.976471 0 0 0 0 0.537255 0 0 0 0 0.419608 0 0 0 0.219024 0"
         id="feColorMatrix111" />
      <feBlend
         mode="normal"
         in2="effect2_dropShadow_0_1"
         result="effect3_dropShadow_0_1"
         id="feBlend113" />
      <feColorMatrix
         in="SourceAlpha"
         type="matrix"
         values="0 0 0 0 0 0 0 0 0 0 0 0 0 0 0 0 0 0 127 0"
         result="hardAlpha"
         id="feColorMatrix115" />
      <feOffset
         dy="8.89824"
         id="feOffset117" />
      <feGaussianBlur
         stdDeviation="10.1712"
         id="feGaussianBlur119" />
      <feColorMatrix
         type="matrix"
         values="0 0 0 0 0.976471 0 0 0 0 0.537255 0 0 0 0 0.419608 0 0 0 0.282048 0"
         id="feColorMatrix121" />
      <feBlend
         mode="normal"
         in2="effect3_dropShadow_0_1"
         result="effect4_dropShadow_0_1"
         id="feBlend123" />
      <feColorMatrix
         in="SourceAlpha"
         type="matrix"
         values="0 0 0 0 0 0 0 0 0 0 0 0 0 0 0 0 0 0 127 0"
         result="hardAlpha"
         id="feColorMatrix125" />
      <feOffset
         dy="15.1125"
         id="feOffset127" />
      <feGaussianBlur
         stdDeviation="19.5"
         id="feGaussianBlur129" />
      <feColorMatrix
         type="matrix"
         values="0 0 0 0 0.976471 0 0 0 0 0.537255 0 0 0 0 0.419608 0 0 0 0.39 0"
         id="feColorMatrix131" />
      <feBlend
         mode="normal"
         in2="effect4_dropShadow_0_1"
         result="effect5_dropShadow_0_1"
         id="feBlend133" />
      <feBlend
         mode="normal"
         in="SourceGraphic"
         in2="effect5_dropShadow_0_1"
         result="shape"
         id="feBlend135" />
    </filter>
  </defs>
</svg>
