<svg width="115" height="90" fill="none" xmlns="http://www.w3.org/2000/svg"><g filter="url(#prefix__filter0_dddddd_0_1)" transform="translate(-86.284 -4.598)"><rect x="89" y="4" width="109" height="43" rx="11.012" fill="#fff"/></g><rect x="9.716" y="6.402" width="29" height="29" rx="9" fill="#da1d6c"/><path d="M33.417 22.824c-1.02 4.092-4.746 7.004-9.136 7.004-4.41 0-8.106-3.084-9.083-7.194 1.175 0 2.273.006 2.783.006.24 0 .288.004.302.003.383-.019.864-.146 1.184-.924l1.22-3.19 2.708 6.521c.244.52.65.483.893.483h.023c.473 0 .678-.166.858-.509l3.059-6.446 1.044 2.905.064.14c.22.485.379.963.925 1.025.113.013 1.42-.01 3.182-.01 0 0 0 .012-.026.186z" fill="#fefefe"/><path d="M33.716 20.413l-.001.171H30.9L29.259 16c-.146-.34-.365-.852-1.005-.852-.392 0-.746.324-.947.857l-2.974 6.89-2.864-6.848c-.28-.608-.474-.894-1.034-.894-.381 0-.66.14-.965.86l-1.7 4.64-2.823-.004a7.472 7.472 0 01-.003-.211c0-5.157 4.18-9.324 9.337-9.324 5.156 0 9.435 4.143 9.435 9.3z" fill="#fefefe"/><path d="M47.194 11.688V10.61h-1.085v-.556h1.085V8.97h.556v1.084h1.079v.556h-1.08v1.08zm2.365.714v-.64h.55v-2.86h-.471V8.26h1.174v3.5h.55v.64zm2.46 0v-.86l2.118-1.91v-.506l-.247-.247h-1.04l-.41.41-.461-.466.562-.562h1.675l.623.623v1.04l-2.022 1.837h2.062v.64zm3.676 0v-.703h.68v.703zm3.29 0v-.804h-1.99v-.64l1.99-2.697h.708v2.697h.483v.64h-.483v.804zm-1.118-1.444h1.118V9.446zm3.426 1.607l-.388-.382 3.939-4.085.388.376zm.124-2.298l-.624-.635v-.736l.624-.635h.955l.624.635v.736l-.624.635zm.32-.557h.309l.27-.264v-.365l-.27-.264h-.31l-.263.264v.365zm2.028 2.692l-.623-.635v-.736l.623-.64h.956l.623.64v.736l-.623.635zm.32-.556h.31l.269-.265v-.365l-.27-.27h-.308l-.264.27v.365zM71.89 8.271h-5.842l2.804 3.973z" fill="#f26c6d"/><g filter="url(#prefix__filter1_ddddd_0_1)" transform="translate(-86.284 -4.598)"><path d="M132 32.113l3.077-2.166a3.413 3.413 0 013.983.038l2.67 1.96c.154.112.297.237.43.373l2.962 3.05a3.413 3.413 0 004.997-.108l2.981-3.348c.473-.531 1.1-.901 1.793-1.059l4.598-1.044a3.412 3.412 0 011.796.078l1.37.438a3.412 3.412 0 003.846-1.308l1.74-2.513a3.413 3.413 0 015.315-.371l3.417 3.705a3.412 3.412 0 005.091-.083l2.968-3.437a3.412 3.412 0 012.583-1.183H194" stroke="#da1d6c" stroke-width="1.124"/></g><defs id="prefix__defs140"><filter id="prefix__filter0_dddddd_0_1" x=".903" y="2.572" width="285.194" height="242.646" filterUnits="userSpaceOnUse" color-interpolation-filters="sRGB"><feFlood flood-opacity="0" result="BackgroundImageFix" id="prefix__feFlood20"/><feColorMatrix in="SourceAlpha" type="matrix" values="0 0 0 0 0 0 0 0 0 0 0 0 0 0 0 0 0 0 127 0" result="hardAlpha" id="prefix__feColorMatrix22"/><feOffset dy="2.039" id="prefix__feOffset24"/><feGaussianBlur stdDeviation="1.733" id="prefix__feGaussianBlur26"/><feColorMatrix type="matrix" values="0 0 0 0 0 0 0 0 0 0 0 0 0 0 0 0 0 0 0.01 0" id="prefix__feColorMatrix28"/><feBlend mode="normal" in2="BackgroundImageFix" result="effect1_dropShadow_0_1" id="prefix__feBlend30"/><feColorMatrix in="SourceAlpha" type="matrix" values="0 0 0 0 0 0 0 0 0 0 0 0 0 0 0 0 0 0 127 0" result="hardAlpha" id="prefix__feColorMatrix32"/><feOffset dy="8.973" id="prefix__feOffset34"/><feGaussianBlur stdDeviation="3.589" id="prefix__feGaussianBlur36"/><feColorMatrix type="matrix" values="0 0 0 0 0 0 0 0 0 0 0 0 0 0 0 0 0 0 0.0117778 0" id="prefix__feColorMatrix38"/><feBlend mode="normal" in2="effect1_dropShadow_0_1" result="effect2_dropShadow_0_1" id="prefix__feBlend40"/><feColorMatrix in="SourceAlpha" type="matrix" values="0 0 0 0 0 0 0 0 0 0 0 0 0 0 0 0 0 0 127 0" result="hardAlpha" id="prefix__feColorMatrix42"/><feOffset dy="22.024" id="prefix__feOffset44"/><feGaussianBlur stdDeviation="7.158" id="prefix__feGaussianBlur46"/><feColorMatrix type="matrix" values="0 0 0 0 0 0 0 0 0 0 0 0 0 0 0 0 0 0 0.015 0" id="prefix__feColorMatrix48"/><feBlend mode="normal" in2="effect2_dropShadow_0_1" result="effect3_dropShadow_0_1" id="prefix__feBlend50"/><feColorMatrix in="SourceAlpha" type="matrix" values="0 0 0 0 0 0 0 0 0 0 0 0 0 0 0 0 0 0 127 0" result="hardAlpha" id="prefix__feColorMatrix52"/><feOffset dy="42.417" id="prefix__feOffset54"/><feGaussianBlur stdDeviation="14.03" id="prefix__feGaussianBlur56"/><feColorMatrix type="matrix" values="0 0 0 0 0 0 0 0 0 0 0 0 0 0 0 0 0 0 0.0182222 0" id="prefix__feColorMatrix58"/><feBlend mode="normal" in2="effect3_dropShadow_0_1" result="effect4_dropShadow_0_1" id="prefix__feBlend60"/><feColorMatrix in="SourceAlpha" type="matrix" values="0 0 0 0 0 0 0 0 0 0 0 0 0 0 0 0 0 0 127 0" result="hardAlpha" id="prefix__feColorMatrix62"/><feOffset dy="71.375" id="prefix__feOffset64"/><feGaussianBlur stdDeviation="25.797" id="prefix__feGaussianBlur66"/><feColorMatrix type="matrix" values="0 0 0 0 0 0 0 0 0 0 0 0 0 0 0 0 0 0 0.0227778 0" id="prefix__feColorMatrix68"/><feBlend mode="normal" in2="effect4_dropShadow_0_1" result="effect5_dropShadow_0_1" id="prefix__feBlend70"/><feColorMatrix in="SourceAlpha" type="matrix" values="0 0 0 0 0 0 0 0 0 0 0 0 0 0 0 0 0 0 127 0" result="hardAlpha" id="prefix__feColorMatrix72"/><feOffset dy="110.121" id="prefix__feOffset74"/><feGaussianBlur stdDeviation="44.049" id="prefix__feGaussianBlur76"/><feColorMatrix type="matrix" values="0 0 0 0 0 0 0 0 0 0 0 0 0 0 0 0 0 0 0.03 0" id="prefix__feColorMatrix78"/><feBlend mode="normal" in2="effect5_dropShadow_0_1" result="effect6_dropShadow_0_1" id="prefix__feBlend80"/><feBlend mode="normal" in="SourceGraphic" in2="effect6_dropShadow_0_1" result="shape" id="prefix__feBlend82"/></filter><filter id="prefix__filter1_ddddd_0_1" x="92.676" y=".584" width="140.323" height="90.493" filterUnits="userSpaceOnUse" color-interpolation-filters="sRGB"><feFlood flood-opacity="0" result="BackgroundImageFix" id="prefix__feFlood85"/><feColorMatrix in="SourceAlpha" type="matrix" values="0 0 0 0 0 0 0 0 0 0 0 0 0 0 0 0 0 0 127 0" result="hardAlpha" id="prefix__feColorMatrix87"/><feOffset dy=".411" id="prefix__feOffset89"/><feGaussianBlur stdDeviation=".905" id="prefix__feGaussianBlur91"/><feColorMatrix type="matrix" values="0 0 0 0 0.568627 0 0 0 0 0.0196078 0 0 0 0 0.462745 0 0 0 0.107952 0" id="prefix__feColorMatrix93"/><feBlend mode="normal" in2="BackgroundImageFix" result="effect1_dropShadow_0_1" id="prefix__feBlend95"/><feColorMatrix in="SourceAlpha" type="matrix" values="0 0 0 0 0 0 0 0 0 0 0 0 0 0 0 0 0 0 127 0" result="hardAlpha" id="prefix__feColorMatrix97"/><feOffset dy="1.838" id="prefix__feOffset99"/><feGaussianBlur stdDeviation="2.09" id="prefix__feGaussianBlur101"/><feColorMatrix type="matrix" values="0 0 0 0 0.568627 0 0 0 0 0.0196078 0 0 0 0 0.462745 0 0 0 0.170976 0" id="prefix__feColorMatrix103"/><feBlend mode="normal" in2="effect1_dropShadow_0_1" result="effect2_dropShadow_0_1" id="prefix__feBlend105"/><feColorMatrix in="SourceAlpha" type="matrix" values="0 0 0 0 0 0 0 0 0 0 0 0 0 0 0 0 0 0 127 0" result="hardAlpha" id="prefix__feColorMatrix107"/><feOffset dy="4.57" id="prefix__feOffset109"/><feGaussianBlur stdDeviation="4.774" id="prefix__feGaussianBlur111"/><feColorMatrix type="matrix" values="0 0 0 0 0.568627 0 0 0 0 0.0196078 0 0 0 0 0.462745 0 0 0 0.219024 0" id="prefix__feColorMatrix113"/><feBlend mode="normal" in2="effect2_dropShadow_0_1" result="effect3_dropShadow_0_1" id="prefix__feBlend115"/><feColorMatrix in="SourceAlpha" type="matrix" values="0 0 0 0 0 0 0 0 0 0 0 0 0 0 0 0 0 0 127 0" result="hardAlpha" id="prefix__feColorMatrix117"/><feOffset dy="8.898" id="prefix__feOffset119"/><feGaussianBlur stdDeviation="10.171" id="prefix__feGaussianBlur121"/><feColorMatrix type="matrix" values="0 0 0 0 0.568627 0 0 0 0 0.0196078 0 0 0 0 0.462745 0 0 0 0.282048 0" id="prefix__feColorMatrix123"/><feBlend mode="normal" in2="effect3_dropShadow_0_1" result="effect4_dropShadow_0_1" id="prefix__feBlend125"/><feColorMatrix in="SourceAlpha" type="matrix" values="0 0 0 0 0 0 0 0 0 0 0 0 0 0 0 0 0 0 127 0" result="hardAlpha" id="prefix__feColorMatrix127"/><feOffset dy="15.113" id="prefix__feOffset129"/><feGaussianBlur stdDeviation="19.5" id="prefix__feGaussianBlur131"/><feColorMatrix type="matrix" values="0 0 0 0 0.568627 0 0 0 0 0.0196078 0 0 0 0 0.462745 0 0 0 0.39 0" id="prefix__feColorMatrix133"/><feBlend mode="normal" in2="effect4_dropShadow_0_1" result="effect5_dropShadow_0_1" id="prefix__feBlend135"/><feBlend mode="normal" in="SourceGraphic" in2="effect5_dropShadow_0_1" result="shape" id="prefix__feBlend137"/></filter></defs></svg>