<svg width="210" height="100" fill="none" xmlns="http://www.w3.org/2000/svg"><g filter="url(#prefix__filter0_dddddd_0_1)" transform="translate(-109.873 1.133)"><rect x="114.404" y="2" width="202.167" height="44.735" rx="11.02" fill="#fff"/></g><circle cx="189.492" cy="25.5" r="1.721" fill="#ed7c57"/><path d="M55.662 21.855c-.81 0-1.484-.271-2.02-.813-.532-.537-.798-1.205-.798-2.006 0-.805.266-1.473.798-2.005.536-.542 1.21-.813 2.02-.813.491 0 .942.116 1.355.349.418.227.744.536.976.929l-.92.534a1.415 1.415 0 00-.574-.565 1.678 1.678 0 00-.837-.21c-.526 0-.952.166-1.277.496-.32.336-.48.764-.48 1.285 0 .517.16.943.48 1.278.325.33.751.496 1.277.496.31 0 .59-.068.837-.202.252-.14.443-.328.573-.565l.921.534a2.544 2.544 0 01-.976.937c-.413.227-.864.34-1.355.34zm6.262-.589c-.392.393-.878.589-1.456.589s-1.063-.196-1.455-.589c-.393-.392-.589-.877-.589-1.455 0-.573.196-1.056.59-1.448a1.978 1.978 0 011.454-.596c.573 0 1.058.198 1.456.596.397.397.596.88.596 1.448 0 .573-.199 1.058-.596 1.455zm-2.207-.689c.201.202.452.302.751.302a1.036 1.036 0 001.053-1.069 1.036 1.036 0 00-1.053-1.068c-.299 0-.55.1-.75.302a1.07 1.07 0 00-.295.767c0 .304.098.56.294.766zm7.787-2.81c.444 0 .798.144 1.061.433.268.29.403.676.403 1.162v2.384h-.999v-2.315c0-.232-.057-.413-.17-.542-.114-.129-.274-.193-.48-.193-.228 0-.406.075-.535.224-.124.15-.186.367-.186.65v2.176H65.6v-2.315c0-.232-.057-.413-.17-.542-.114-.129-.274-.193-.48-.193-.223 0-.4.077-.535.232-.129.15-.194.364-.194.643v2.175h-.998v-3.87h.998v.41c.233-.346.591-.52 1.077-.52.48 0 .831.187 1.053.558.253-.371.637-.557 1.153-.557zm4.565 0c.521 0 .965.198 1.332.596.371.397.557.88.557 1.448 0 .578-.186 1.063-.557 1.455a1.742 1.742 0 01-1.332.589c-.542 0-.96-.189-1.254-.565v2.005h-.999v-5.42h1v.457c.293-.377.711-.565 1.253-.565zm-.952 2.833c.201.202.456.302.766.302s.565-.1.767-.302a1.07 1.07 0 00.31-.79c0-.32-.104-.58-.31-.781a1.027 1.027 0 00-.767-.31c-.31 0-.565.103-.766.31-.202.201-.302.462-.302.782s.1.583.302.79zm4.544 1.146h-.998v-5.652h.998zm4.677-1.525H77.42c.13.485.493.728 1.092.728.382 0 .671-.13.867-.387l.806.464c-.382.553-.945.829-1.688.829-.64 0-1.154-.194-1.54-.58-.388-.388-.582-.876-.582-1.464 0-.578.191-1.064.573-1.456.377-.392.867-.588 1.471-.588.573 0 1.04.196 1.402.588.371.392.557.878.557 1.456 0 .108-.013.245-.039.41zm-2.934-.774h1.974a.966.966 0 00-.348-.58.958.958 0 00-.612-.202c-.268 0-.49.07-.666.209a.966.966 0 00-.348.573zm5.771-1.572v.96H82.3v1.61c0 .135.034.233.101.295a.477.477 0 00.294.108c.13.005.29.003.48-.007v.905c-.676.078-1.158.016-1.448-.185-.283-.207-.425-.579-.425-1.115v-1.61h-.674v-.96h.674v-.783l.998-.302v1.084zm4.346 2.346h-2.918c.13.485.492.728 1.091.728.382 0 .671-.13.867-.387l.806.464c-.382.553-.945.829-1.688.829-.64 0-1.154-.194-1.54-.58-.388-.388-.582-.876-.582-1.464 0-.578.191-1.064.573-1.456.377-.392.867-.588 1.471-.588.573 0 1.04.196 1.402.588.371.392.557.878.557 1.456 0 .108-.013.245-.039.41zm-2.934-.774h1.974a.966.966 0 00-.348-.58.958.958 0 00-.612-.202c-.268 0-.49.07-.666.209a.966.966 0 00-.348.573zm6.575-1.115v-2.005h.998v5.42h-.998v-.457c-.295.376-.713.565-1.255.565-.52 0-.967-.196-1.339-.589-.367-.397-.55-.882-.55-1.455 0-.568.183-1.05.55-1.448.372-.398.818-.596 1.34-.596.541 0 .96.188 1.254.565zM89.32 20.6c.212.202.47.302.774.302.31 0 .565-.1.767-.302.201-.206.302-.47.302-.79 0-.32-.1-.58-.302-.781a1.027 1.027 0 00-.767-.31c-.31 0-.568.103-.774.31-.2.201-.302.462-.302.782s.101.583.302.79zm7.587 1.255c-.53 0-.98-.119-1.347-.356a1.948 1.948 0 01-.782-.984l.914-.534c.212.552.627.829 1.246.829.29 0 .506-.052.651-.155a.49.49 0 00.217-.418.49.49 0 00-.256-.442c-.17-.108-.475-.224-.914-.348-.474-.145-.849-.312-1.122-.503-.34-.253-.51-.625-.51-1.115 0-.496.172-.886.518-1.17.345-.294.766-.44 1.262-.44.433 0 .818.105 1.153.317.336.211.596.51.782.898l-.898.519c-.217-.465-.563-.697-1.037-.697-.217 0-.39.051-.519.155a.464.464 0 00-.194.387c0 .17.07.31.21.418.154.108.428.222.82.34l.372.124c.067.02.183.065.348.132.155.057.268.11.341.163.253.154.423.314.511.48.134.216.201.472.201.766 0 .5-.183.898-.55 1.192-.366.295-.838.442-1.417.442zm6.167-1.595l.658-2.385h1.061l-1.23 3.871h-.953l-.713-2.346-.712 2.346h-.952l-1.23-3.87h1.06l.657 2.376.705-2.377h.945zm5.048-1.928v-.457h1v3.871h-1v-.456c-.299.376-.72.565-1.262.565-.516 0-.96-.196-1.33-.589-.368-.397-.55-.882-.55-1.455 0-.568.182-1.05.55-1.448.37-.398.814-.596 1.33-.596.542 0 .963.188 1.262.565zM106.28 20.6c.201.202.456.302.766.302s.565-.1.767-.302a1.07 1.07 0 00.31-.79c0-.32-.104-.58-.31-.781a1.027 1.027 0 00-.767-.31c-.31 0-.565.103-.766.31-.202.201-.302.462-.302.782s.1.583.302.79zm6-2.833c.521 0 .965.198 1.332.596.371.397.557.88.557 1.448 0 .578-.186 1.063-.557 1.455a1.742 1.742 0 01-1.332.589c-.542 0-.96-.189-1.254-.565v2.005h-.999v-5.42h1v.457c.293-.377.711-.565 1.253-.565zm-.952 2.833c.201.202.456.302.766.302s.565-.1.767-.302a1.07 1.07 0 00.31-.79c0-.32-.104-.58-.31-.781a1.027 1.027 0 00-.767-.31c-.31 0-.565.103-.766.31-.202.201-.302.462-.302.782s.1.583.302.79z" fill="#000"/><path d="M55.377 28.866h.94l-1.446 2.57v1.645h-.825v-1.644l-1.439-2.571h.94l.914 1.758zm3.634 3.029h-2.27c.1.377.383.566.85.566.296 0 .521-.1.673-.301l.626.36c-.297.43-.734.645-1.312.645-.498 0-.898-.15-1.199-.451-.3-.301-.45-.68-.45-1.139 0-.45.147-.827.444-1.132.293-.305.675-.457 1.144-.457.446 0 .81.152 1.09.457.29.305.434.683.434 1.132 0 .085-.01.191-.03.32zm-2.282-.603h1.535a.749.749 0 00-.27-.451.744.744 0 00-.477-.157.805.805 0 00-.517.163.746.746 0 00-.27.445zm3.453-.367c0 .129.183.239.548.331.13.028.245.063.35.103.104.036.208.09.313.162a.71.71 0 01.253.277c.06.117.09.251.09.404 0 .309-.116.548-.349.716-.233.165-.52.247-.86.247-.62 0-1.04-.239-1.266-.716l.674-.38c.093.261.29.392.591.392.277 0 .415-.087.415-.26 0-.128-.183-.238-.548-.33a3.701 3.701 0 01-.349-.109 1.853 1.853 0 01-.313-.156.752.752 0 01-.259-.271.868.868 0 01-.085-.392c0-.297.11-.53.326-.698.22-.173.493-.26.82-.26.244 0 .466.057.667.17.201.108.36.264.476.469l-.663.361a.495.495 0 00-.48-.307.426.426 0 00-.254.072.202.202 0 00-.097.175zm3.688-.855v.747h-.68v1.252c0 .105.025.18.077.23a.375.375 0 00.23.083c.1.004.224.002.373-.006v.705c-.526.06-.902.012-1.126-.145-.22-.16-.332-.45-.332-.867v-1.252h-.524v-.747h.524v-.608l.777-.235v.843zm3.38 1.825h-2.27c.1.377.383.566.85.566.296 0 .521-.1.673-.301l.627.36c-.298.43-.735.645-1.313.645-.498 0-.898-.15-1.199-.451-.3-.301-.45-.68-.45-1.139 0-.45.147-.827.444-1.132.293-.305.675-.457 1.145-.457.445 0 .81.152 1.09.457.29.305.433.683.433 1.132 0 .085-.01.191-.03.32zm-2.282-.603h1.535a.749.749 0 00-.27-.451.744.744 0 00-.476-.157.806.806 0 00-.518.163.746.746 0 00-.27.445zM68.6 30.07v.518a.79.79 0 01.35-.428c.164-.1.353-.15.566-.15v.867a.887.887 0 00-.639.144c-.184.125-.277.332-.277.62v1.44h-.777V30.07zm3.541.355v-1.56h.776v4.216h-.776v-.355c-.229.293-.554.44-.976.44-.405 0-.753-.153-1.042-.458a1.609 1.609 0 01-.427-1.133c0-.441.142-.816.427-1.126.29-.309.637-.463 1.042-.463.422 0 .747.146.976.44zm-1.434 1.765a.843.843 0 00.603.235.81.81 0 00.596-.235.846.846 0 00.235-.615.825.825 0 00-.235-.608.799.799 0 00-.596-.24.82.82 0 00-.603.24.825.825 0 00-.235.608c0 .25.08.454.235.615zm5.21-1.765v-.355h.776v3.01h-.777v-.354c-.233.293-.56.44-.98.44-.403 0-.748-.153-1.037-.458a1.61 1.61 0 01-.428-1.133c0-.441.143-.816.428-1.126a1.37 1.37 0 011.036-.463c.421 0 .748.146.981.44zm-1.434 1.765a.808.808 0 00.596.235c.241 0 .44-.079.596-.235a.83.83 0 00.241-.615.81.81 0 00-.24-.608.796.796 0 00-.597-.24.797.797 0 00-.596.24.821.821 0 00-.235.608c0 .25.078.454.235.615zm4.21-.097l.668-2.023h.831l-1.096 3.01c-.157.435-.366.748-.627.94-.257.197-.578.285-.963.265v-.722c.205.004.37-.04.494-.133.124-.092.222-.24.295-.445L77.06 30.07h.85zm6.21-1.848c0 .325-.084.61-.253.855h.006l-1.312 1.98h-.952l.94-1.372c-.438-.004-.795-.143-1.072-.416-.273-.273-.41-.622-.41-1.047 0-.434.141-.785.422-1.054.285-.273.652-.41 1.102-.41.45 0 .817.137 1.102.41.285.273.427.624.427 1.054zm-2.228 0c0 .204.066.37.2.5a.7.7 0 00.5.186.699.699 0 00.505-.187.667.667 0 00.198-.5.647.647 0 00-.198-.493.699.699 0 00-.506-.187.688.688 0 00-.5.193.637.637 0 00-.199.488zm3.684.247c0 .14-.05.26-.15.36-.1.101-.22.151-.362.151a.492.492 0 01-.36-.15.49.49 0 01-.152-.361c0-.141.05-.261.151-.362.1-.1.221-.15.361-.15a.49.49 0 01.361.15c.101.1.151.221.151.362zm0 2.155c0 .14-.05.261-.15.362-.1.1-.22.15-.362.15a.493.493 0 01-.36-.15.49.49 0 01-.152-.362c0-.14.05-.26.151-.361.1-.1.221-.15.361-.15a.49.49 0 01.361.15c.101.1.151.22.151.361zm3.25-1.053h.451v.77h-.452v.717h-.837v-.717h-1.993v-.77l1.403-2.728h.891l-1.397 2.728h1.096v-1h.837zm.431-2.337l1.108-.391h.723v4.215h-.83v-3.336l-.796.223zm4.16-.391h1.572c.401 0 .742.136 1.023.409.277.273.416.608.416 1.006 0 .397-.139.732-.416 1.005-.28.273-.622.41-1.023.41h-.74v1.385h-.832zm.831 2.053h.741c.176 0 .323-.06.44-.18a.643.643 0 00.174-.458.63.63 0 00-.175-.458.585.585 0 00-.439-.18h-.74zm5.991-2.053h.855v4.215h-.825v-2.734l-1.186 1.957h-.097l-1.186-1.951v2.728h-.83v-4.215h.854l1.211 1.993zM155.077 27.691c-.414 0-.763-.092-1.048-.277a1.51 1.51 0 01-.608-.765l.71-.415c.165.43.488.644.97.644.225 0 .393-.04.506-.12a.38.38 0 00.168-.325.38.38 0 00-.199-.344c-.132-.084-.369-.174-.71-.27-.369-.113-.66-.244-.873-.392-.265-.197-.398-.486-.398-.867 0-.386.135-.689.404-.91.27-.228.596-.343.981-.343.338 0 .637.082.898.247.261.165.463.398.608.699l-.699.403c-.168-.361-.437-.542-.807-.542a.626.626 0 00-.403.12.359.359 0 00-.15.302c0 .132.053.24.162.325.12.084.333.172.638.265l.29.096c.051.016.142.05.27.103.121.044.21.086.265.126.197.12.33.245.398.373.104.169.156.368.156.597 0 .389-.142.698-.427.927-.285.229-.653.343-1.102.343zm3.67-3.095v.747h-.68v1.252c0 .105.025.18.077.229a.371.371 0 00.23.084c.1.004.224.002.372-.006v.705c-.526.06-.9.012-1.126-.145-.22-.16-.33-.45-.33-.867v-1.252h-.525v-.747h.524v-.608l.777-.235v.843zm3.38 1.825h-2.27c.1.377.383.566.848.566.297 0 .522-.1.675-.301l.626.36c-.297.43-.735.645-1.313.645-.498 0-.897-.15-1.198-.451-.3-.302-.452-.681-.452-1.139 0-.45.15-.827.446-1.132.293-.305.674-.457 1.144-.457.446 0 .81.152 1.09.457.29.305.434.683.434 1.132 0 .085-.01.191-.03.32zm-2.283-.603h1.536a.754.754 0 00-.27-.451.747.747 0 00-.477-.157.808.808 0 00-.518.163.75.75 0 00-.27.445zm3.632 1.789h-.777V23.21h.777zm1.488 0h-.777V23.21h.777zm3.637-1.186h-2.27c.1.377.383.566.85.566.296 0 .521-.1.674-.301l.626.36c-.297.43-.735.645-1.313.645-.498 0-.897-.15-1.198-.451-.3-.302-.452-.681-.452-1.139 0-.45.15-.827.446-1.132.293-.305.674-.457 1.144-.457.446 0 .81.152 1.09.457.29.305.433.683.433 1.132 0 .085-.01.191-.03.32zm-2.282-.603h1.536a.759.759 0 00-.27-.451.747.747 0 00-.477-.157.808.808 0 00-.518.163.75.75 0 00-.27.445zm3.632-1.222v.518a.785.785 0 01.35-.428c.164-.1.352-.15.565-.15v.867a.883.883 0 00-.638.144c-.185.125-.277.332-.277.62v1.44h-.777v-3.011z" fill="#898989"/><circle cx="144.643" cy="26.048" r="5.592" fill="#a179e1" stroke="#a179e1" stroke-width=".86"/><rect width="34.953" height="33.82" x="10.164" y="8.868" rx="7.557" fill="#f9896b"/><path d="M31.32 25.666a4.55 4.55 0 001.964-3.036c.303-1.808-.52-3.514-1.947-4.374l.234-1.396c.1-.596-.288-1.146-.866-1.229-.578-.082-1.128.334-1.228.93l-.18 1.08-2.094-.298.18-1.08c.1-.596-.287-1.146-.866-1.228-.578-.083-1.128.334-1.227.93l-.18 1.08-2.095-.299c-.578-.082-1.128.334-1.228.93-.1.597.288 1.147.866 1.229l1.047.15-.905 5.397-.904 5.397-1.047-.15c-.579-.081-1.128.335-1.228.931-.1.596.288 1.147.866 1.229l2.094.298-.18 1.08c-.1.596.286 1.146.865 1.228.578.083 1.128-.334 1.228-.93l.18-1.08 2.094.299-.18 1.08c-.1.596.287 1.146.865 1.228.58.082 1.128-.334 1.228-.93l.234-1.396c1.641-.423 2.985-1.82 3.288-3.629a4.324 4.324 0 00-.879-3.44zm-5.526-6.313l3.664.522c1.155.164 1.932 1.266 1.732 2.457-.2 1.19-1.3 2.025-2.456 1.86l-3.664-.521zM27.65 30.67l-3.665-.523.724-4.318 3.664.523c1.155.164 1.932 1.266 1.732 2.457-.199 1.19-1.3 2.025-2.455 1.86z" fill="#fff"/><defs id="prefix__defs3766"><filter id="prefix__filter0_dddddd_0_1" x=".944" y=".162" width="429.087" height="301.858" filterUnits="userSpaceOnUse" color-interpolation-filters="sRGB"><feFlood flood-opacity="0" result="BackgroundImageFix" id="prefix__feFlood3701"/><feColorMatrix in="SourceAlpha" type="matrix" values="0 0 0 0 0 0 0 0 0 0 0 0 0 0 0 0 0 0 127 0" result="hardAlpha" id="prefix__feColorMatrix3703"/><feOffset dy="2.626" id="prefix__feOffset3705"/><feGaussianBlur stdDeviation="2.232" id="prefix__feGaussianBlur3707"/><feColorMatrix type="matrix" values="0 0 0 0 0 0 0 0 0 0 0 0 0 0 0 0 0 0 0.01 0" id="prefix__feColorMatrix3709"/><feBlend mode="normal" in2="BackgroundImageFix" result="effect1_dropShadow_0_1" id="prefix__feBlend3711"/><feColorMatrix in="SourceAlpha" type="matrix" values="0 0 0 0 0 0 0 0 0 0 0 0 0 0 0 0 0 0 127 0" result="hardAlpha" id="prefix__feColorMatrix3713"/><feOffset dy="11.556" id="prefix__feOffset3715"/><feGaussianBlur stdDeviation="4.622" id="prefix__feGaussianBlur3717"/><feColorMatrix type="matrix" values="0 0 0 0 0 0 0 0 0 0 0 0 0 0 0 0 0 0 0.0117778 0" id="prefix__feColorMatrix3719"/><feBlend mode="normal" in2="effect1_dropShadow_0_1" result="effect2_dropShadow_0_1" id="prefix__feBlend3721"/><feColorMatrix in="SourceAlpha" type="matrix" values="0 0 0 0 0 0 0 0 0 0 0 0 0 0 0 0 0 0 127 0" result="hardAlpha" id="prefix__feColorMatrix3723"/><feOffset dy="28.365" id="prefix__feOffset3725"/><feGaussianBlur stdDeviation="9.219" id="prefix__feGaussianBlur3727"/><feColorMatrix type="matrix" values="0 0 0 0 0 0 0 0 0 0 0 0 0 0 0 0 0 0 0.015 0" id="prefix__feColorMatrix3729"/><feBlend mode="normal" in2="effect2_dropShadow_0_1" result="effect3_dropShadow_0_1" id="prefix__feBlend3731"/><feColorMatrix in="SourceAlpha" type="matrix" values="0 0 0 0 0 0 0 0 0 0 0 0 0 0 0 0 0 0 127 0" result="hardAlpha" id="prefix__feColorMatrix3733"/><feOffset dy="54.629" id="prefix__feOffset3735"/><feGaussianBlur stdDeviation="18.07" id="prefix__feGaussianBlur3737"/><feColorMatrix type="matrix" values="0 0 0 0 0 0 0 0 0 0 0 0 0 0 0 0 0 0 0.0182222 0" id="prefix__feColorMatrix3739"/><feBlend mode="normal" in2="effect3_dropShadow_0_1" result="effect4_dropShadow_0_1" id="prefix__feBlend3741"/><feColorMatrix in="SourceAlpha" type="matrix" values="0 0 0 0 0 0 0 0 0 0 0 0 0 0 0 0 0 0 127 0" result="hardAlpha" id="prefix__feColorMatrix3743"/><feOffset dy="91.924" id="prefix__feOffset3745"/><feGaussianBlur stdDeviation="33.224" id="prefix__feGaussianBlur3747"/><feColorMatrix type="matrix" values="0 0 0 0 0 0 0 0 0 0 0 0 0 0 0 0 0 0 0.0227778 0" id="prefix__feColorMatrix3749"/><feBlend mode="normal" in2="effect4_dropShadow_0_1" result="effect5_dropShadow_0_1" id="prefix__feBlend3751"/><feColorMatrix in="SourceAlpha" type="matrix" values="0 0 0 0 0 0 0 0 0 0 0 0 0 0 0 0 0 0 127 0" result="hardAlpha" id="prefix__feColorMatrix3753"/><feOffset dy="141.825" id="prefix__feOffset3755"/><feGaussianBlur stdDeviation="56.73" id="prefix__feGaussianBlur3757"/><feColorMatrix type="matrix" values="0 0 0 0 0 0 0 0 0 0 0 0 0 0 0 0 0 0 0.03 0" id="prefix__feColorMatrix3759"/><feBlend mode="normal" in2="effect5_dropShadow_0_1" result="effect6_dropShadow_0_1" id="prefix__feBlend3761"/><feBlend mode="normal" in="SourceGraphic" in2="effect6_dropShadow_0_1" result="shape" id="prefix__feBlend3763"/></filter></defs></svg>