<svg width="140" height="110" fill="none" xmlns="http://www.w3.org/2000/svg"><g filter="url(#prefix__filter0_dddddd_832_523)" transform="translate(-84.707 4.654)"><rect x="89" y="2" width="131.045" height="48.453" rx="13.215" fill="#fff"/></g><path d="M49.55 21.405v-.556h1.854v.556zm2.583 1.355v-.641h.551v-2.86h-.472v-.64h1.174v3.5h.551v.64zm4.241 0v-.804h-1.989v-.64l1.99-2.698h.707v2.698h.483v.64h-.483v.804zm-1.119-1.444h1.12v-1.512zm2.926 1.444v-.703h.68v.703zm1.92 0l-.563-.562.455-.467.416.41h1.175l.247-.247v-.91l-.247-.247h-1.866v-2.119h2.59v.641H60.42v.86h1.49l.63.623v1.394l-.63.624zm3.667.163l-.388-.383 3.94-4.084.387.376zm.124-2.299l-.624-.635v-.736l.624-.635h.955l.624.635v.736l-.624.635zm.32-.556h.31l.27-.264v-.365l-.27-.264h-.31l-.264.264v.365zm2.028 2.692l-.623-.635v-.736l.623-.641h.956l.623.64v.737l-.623.635zm.321-.557h.31l.268-.264v-.365l-.269-.27h-.309l-.264.27v.365zM75.331 18.63H69.49l2.804 3.972z" fill="#f26c6d"/><g filter="url(#prefix__filter1_ddddd_832_523)" transform="translate(-84.707 4.654)"><path d="M135.266 27.095l7.328 7.904a3.412 3.412 0 005.005 0l3.848-4.151a3.41 3.41 0 012.167-1.076l5.336-.528c.508-.05.998-.214 1.435-.479l3.99-2.423a3.412 3.412 0 014.057.384l7.134 6.438c.627.566 1.442.879 2.286.879h4.137c.955 0 1.866-.4 2.512-1.103l3.671-3.993a3.413 3.413 0 014.769-.25l1.92 1.692c.453.399.792.911.982 1.484l2.128 6.408c.754 2.27 3.548 3.08 5.399 1.566l1.305-1.067" stroke="#84e8f4" stroke-width="1.124"/></g><rect x="11.293" y="13.654" width="34" height="34" rx="9" fill="#84e8f4"/><path d="M36.864 24.181c-.303 0-8.85 4.667-14.599 7.833m-2.147 1.184l2.147-1.184m0 0c-1.288-3.968 1.546-10.495 9.446-7.403M20.547 36.204c.303 0 8.851-4.667 14.6-7.833m2.146-1.184c-.647.357-1.37.757-2.147 1.184m0 0c1.288 3.968-1.546 10.495-9.446 7.403" stroke="#fff" stroke-width=".487"/><defs id="prefix__defs140"><filter id="prefix__filter0_dddddd_832_523" x=".903" y=".572" width="307.239" height="248.1" filterUnits="userSpaceOnUse" color-interpolation-filters="sRGB"><feFlood flood-opacity="0" result="BackgroundImageFix" id="prefix__feFlood20"/><feColorMatrix in="SourceAlpha" type="matrix" values="0 0 0 0 0 0 0 0 0 0 0 0 0 0 0 0 0 0 127 0" result="hardAlpha" id="prefix__feColorMatrix22"/><feOffset dy="2.039" id="prefix__feOffset24"/><feGaussianBlur stdDeviation="1.733" id="prefix__feGaussianBlur26"/><feColorMatrix type="matrix" values="0 0 0 0 0 0 0 0 0 0 0 0 0 0 0 0 0 0 0.01 0" id="prefix__feColorMatrix28"/><feBlend mode="normal" in2="BackgroundImageFix" result="effect1_dropShadow_832_523" id="prefix__feBlend30"/><feColorMatrix in="SourceAlpha" type="matrix" values="0 0 0 0 0 0 0 0 0 0 0 0 0 0 0 0 0 0 127 0" result="hardAlpha" id="prefix__feColorMatrix32"/><feOffset dy="8.973" id="prefix__feOffset34"/><feGaussianBlur stdDeviation="3.589" id="prefix__feGaussianBlur36"/><feColorMatrix type="matrix" values="0 0 0 0 0 0 0 0 0 0 0 0 0 0 0 0 0 0 0.0117778 0" id="prefix__feColorMatrix38"/><feBlend mode="normal" in2="effect1_dropShadow_832_523" result="effect2_dropShadow_832_523" id="prefix__feBlend40"/><feColorMatrix in="SourceAlpha" type="matrix" values="0 0 0 0 0 0 0 0 0 0 0 0 0 0 0 0 0 0 127 0" result="hardAlpha" id="prefix__feColorMatrix42"/><feOffset dy="22.024" id="prefix__feOffset44"/><feGaussianBlur stdDeviation="7.158" id="prefix__feGaussianBlur46"/><feColorMatrix type="matrix" values="0 0 0 0 0 0 0 0 0 0 0 0 0 0 0 0 0 0 0.015 0" id="prefix__feColorMatrix48"/><feBlend mode="normal" in2="effect2_dropShadow_832_523" result="effect3_dropShadow_832_523" id="prefix__feBlend50"/><feColorMatrix in="SourceAlpha" type="matrix" values="0 0 0 0 0 0 0 0 0 0 0 0 0 0 0 0 0 0 127 0" result="hardAlpha" id="prefix__feColorMatrix52"/><feOffset dy="42.417" id="prefix__feOffset54"/><feGaussianBlur stdDeviation="14.03" id="prefix__feGaussianBlur56"/><feColorMatrix type="matrix" values="0 0 0 0 0 0 0 0 0 0 0 0 0 0 0 0 0 0 0.0182222 0" id="prefix__feColorMatrix58"/><feBlend mode="normal" in2="effect3_dropShadow_832_523" result="effect4_dropShadow_832_523" id="prefix__feBlend60"/><feColorMatrix in="SourceAlpha" type="matrix" values="0 0 0 0 0 0 0 0 0 0 0 0 0 0 0 0 0 0 127 0" result="hardAlpha" id="prefix__feColorMatrix62"/><feOffset dy="71.375" id="prefix__feOffset64"/><feGaussianBlur stdDeviation="25.797" id="prefix__feGaussianBlur66"/><feColorMatrix type="matrix" values="0 0 0 0 0 0 0 0 0 0 0 0 0 0 0 0 0 0 0.0227778 0" id="prefix__feColorMatrix68"/><feBlend mode="normal" in2="effect4_dropShadow_832_523" result="effect5_dropShadow_832_523" id="prefix__feBlend70"/><feColorMatrix in="SourceAlpha" type="matrix" values="0 0 0 0 0 0 0 0 0 0 0 0 0 0 0 0 0 0 127 0" result="hardAlpha" id="prefix__feColorMatrix72"/><feOffset dy="110.121" id="prefix__feOffset74"/><feGaussianBlur stdDeviation="44.049" id="prefix__feGaussianBlur76"/><feColorMatrix type="matrix" values="0 0 0 0 0 0 0 0 0 0 0 0 0 0 0 0 0 0 0.03 0" id="prefix__feColorMatrix78"/><feBlend mode="normal" in2="effect5_dropShadow_832_523" result="effect6_dropShadow_832_523" id="prefix__feBlend80"/><feBlend mode="normal" in="SourceGraphic" in2="effect6_dropShadow_832_523" result="shape" id="prefix__feBlend82"/></filter><filter id="prefix__filter1_ddddd_832_523" x="95.854" y="1.397" width="148.176" height="93.897" filterUnits="userSpaceOnUse" color-interpolation-filters="sRGB"><feFlood flood-opacity="0" result="BackgroundImageFix" id="prefix__feFlood85"/><feColorMatrix in="SourceAlpha" type="matrix" values="0 0 0 0 0 0 0 0 0 0 0 0 0 0 0 0 0 0 127 0" result="hardAlpha" id="prefix__feColorMatrix87"/><feOffset dy=".411" id="prefix__feOffset89"/><feGaussianBlur stdDeviation=".905" id="prefix__feGaussianBlur91"/><feColorMatrix type="matrix" values="0 0 0 0 0.517647 0 0 0 0 0.909804 0 0 0 0 0.956863 0 0 0 0.107952 0" id="prefix__feColorMatrix93"/><feBlend mode="normal" in2="BackgroundImageFix" result="effect1_dropShadow_832_523" id="prefix__feBlend95"/><feColorMatrix in="SourceAlpha" type="matrix" values="0 0 0 0 0 0 0 0 0 0 0 0 0 0 0 0 0 0 127 0" result="hardAlpha" id="prefix__feColorMatrix97"/><feOffset dy="1.838" id="prefix__feOffset99"/><feGaussianBlur stdDeviation="2.09" id="prefix__feGaussianBlur101"/><feColorMatrix type="matrix" values="0 0 0 0 0.517647 0 0 0 0 0.909804 0 0 0 0 0.956863 0 0 0 0.170976 0" id="prefix__feColorMatrix103"/><feBlend mode="normal" in2="effect1_dropShadow_832_523" result="effect2_dropShadow_832_523" id="prefix__feBlend105"/><feColorMatrix in="SourceAlpha" type="matrix" values="0 0 0 0 0 0 0 0 0 0 0 0 0 0 0 0 0 0 127 0" result="hardAlpha" id="prefix__feColorMatrix107"/><feOffset dy="4.57" id="prefix__feOffset109"/><feGaussianBlur stdDeviation="4.774" id="prefix__feGaussianBlur111"/><feColorMatrix type="matrix" values="0 0 0 0 0.517647 0 0 0 0 0.909804 0 0 0 0 0.956863 0 0 0 0.219024 0" id="prefix__feColorMatrix113"/><feBlend mode="normal" in2="effect2_dropShadow_832_523" result="effect3_dropShadow_832_523" id="prefix__feBlend115"/><feColorMatrix in="SourceAlpha" type="matrix" values="0 0 0 0 0 0 0 0 0 0 0 0 0 0 0 0 0 0 127 0" result="hardAlpha" id="prefix__feColorMatrix117"/><feOffset dy="8.898" id="prefix__feOffset119"/><feGaussianBlur stdDeviation="10.171" id="prefix__feGaussianBlur121"/><feColorMatrix type="matrix" values="0 0 0 0 0.517647 0 0 0 0 0.909804 0 0 0 0 0.956863 0 0 0 0.282048 0" id="prefix__feColorMatrix123"/><feBlend mode="normal" in2="effect3_dropShadow_832_523" result="effect4_dropShadow_832_523" id="prefix__feBlend125"/><feColorMatrix in="SourceAlpha" type="matrix" values="0 0 0 0 0 0 0 0 0 0 0 0 0 0 0 0 0 0 127 0" result="hardAlpha" id="prefix__feColorMatrix127"/><feOffset dy="15.113" id="prefix__feOffset129"/><feGaussianBlur stdDeviation="19.5" id="prefix__feGaussianBlur131"/><feColorMatrix type="matrix" values="0 0 0 0 0.517647 0 0 0 0 0.909804 0 0 0 0 0.956863 0 0 0 0.39 0" id="prefix__feColorMatrix133"/><feBlend mode="normal" in2="effect4_dropShadow_832_523" result="effect5_dropShadow_832_523" id="prefix__feBlend135"/><feBlend mode="normal" in="SourceGraphic" in2="effect5_dropShadow_832_523" result="shape" id="prefix__feBlend137"/></filter></defs></svg>