<?xml version="1.0" encoding="UTF-8" standalone="no"?>
<svg
   width="677"
   height="661"
   viewBox="0 0 677 661"
   fill="none"
   version="1.1"
   id="svg289"
   sodipodi:docname="card-graphic.svg"
   inkscape:version="1.2 (dc2aedaf03, 2022-05-15)"
   xmlns:inkscape="http://www.inkscape.org/namespaces/inkscape"
   xmlns:sodipodi="http://sodipodi.sourceforge.net/DTD/sodipodi-0.dtd"
   xmlns="http://www.w3.org/2000/svg"
   xmlns:svg="http://www.w3.org/2000/svg">
  <sodipodi:namedview
     id="namedview291"
     pagecolor="#ffffff"
     bordercolor="#666666"
     borderopacity="1.0"
     inkscape:showpageshadow="2"
     inkscape:pageopacity="0.0"
     inkscape:pagecheckerboard="0"
     inkscape:deskcolor="#d1d1d1"
     showgrid="false"
     inkscape:zoom="0.67849163"
     inkscape:cx="230.6587"
     inkscape:cy="409.73239"
     inkscape:window-width="1366"
     inkscape:window-height="715"
     inkscape:window-x="-8"
     inkscape:window-y="-8"
     inkscape:window-maximized="1"
     inkscape:current-layer="svg289" />
  <path
     d="M -4.88281e-4,193.27186 358.33022,288.73451 v 232.4313 L -4.88281e-4,425.70316 Z"
     fill="#ebece8"
     id="path2"
     style="stroke-width:1.14975" />
  <rect
     x="152.18683"
     y="305.33691"
     width="484.23129"
     height="215.8289"
     fill="#c6d3da"
     id="rect4"
     style="stroke-width:1.14975" />
  <rect
     x="182.62416"
     y="381.43085"
     width="48.42313"
     height="48.42313"
     fill="#ffffff"
     id="rect6"
     style="stroke-width:1.14975" />
  <rect
     x="244.88318"
     y="389.73093"
     width="96.84626"
     height="12.451685"
     rx="1.383518"
     fill="#ffffff"
     id="rect8"
     style="stroke-width:1.14975" />
  <rect
     x="244.88318"
     y="411.86823"
     width="146.653"
     height="8.3011084"
     rx="1.383518"
     fill="#ffffff"
     id="rect10"
     style="stroke-width:1.14975" />
  <rect
     x="244.88318"
     y="447.83929"
     width="106.53084"
     height="9.6846256"
     rx="1.383518"
     fill="#ffffff"
     id="rect12"
     style="stroke-width:1.14975" />
  <rect
     x="359.71454"
     y="447.83929"
     width="214.44574"
     height="9.6846256"
     rx="1.383518"
     fill="#ffffff"
     id="rect14"
     style="stroke-width:1.14975" />
  <path
     d="m 630.88321,557.82906 v 39.42955 H 531.26997 M 114.83131,346.15076 v 53.95665 H 56.723483 v 197.1512 H 430.96457 m 0,-39.42955 v 39.42955 m 0,0 h 100.3054 m 0,-39.42955 v 39.42955"
     stroke="#838383"
     stroke-width="1.38352"
     stroke-dasharray="6.02, 6.02"
     id="path16" />
  <g
     filter="url(#filter0_dddddd_832_569)"
     id="g20"
     transform="matrix(1.1497507,0,0,1.1497507,7.3120409e-5,48.52515)">
    <rect
       x="344.14899"
       y="380.99799"
       width="62.572601"
       height="62.572601"
       fill="#ffffff"
       id="rect18" />
  </g>
  <path
     d="m 437.77914,522.49032 c 1.40155,-0.82667 2.40873,-2.22132 2.64443,-3.93215 0.33112,-2.40183 -0.94855,-4.74387 -3.04224,-5.99365 l 0.25639,-1.85454 c 0.10808,-0.79103 -0.47945,-1.55447 -1.31301,-1.70508 -0.83357,-0.14947 -1.59931,0.37022 -1.70853,1.16239 l -0.19776,1.43374 -3.0204,-0.54383 0.19776,-1.43374 c 0.10923,-0.79103 -0.4783,-1.55446 -1.31186,-1.70508 -0.83357,-0.14947 -1.59931,0.37022 -1.70853,1.1624 l -0.19776,1.43374 -3.0204,-0.54383 c -0.83357,-0.14947 -1.59815,0.37022 -1.70738,1.16239 -0.10922,0.79103 0.4783,1.55562 1.31187,1.70508 l 1.51077,0.27135 -0.98878,7.16869 -0.98879,7.1687 -1.51077,-0.27249 c -0.83357,-0.14947 -1.59816,0.37136 -1.70738,1.16239 -0.10923,0.79218 0.47829,1.55562 1.31186,1.70508 l 3.0204,0.54384 -0.19776,1.43373 c -0.10922,0.79103 0.4783,1.55562 1.31302,1.70509 0.83357,0.15061 1.59815,-0.37022 1.70738,-1.1624 l 0.19775,-1.43374 3.0204,0.54383 -0.19776,1.43374 c -0.10922,0.79218 0.47945,1.55561 1.31302,1.70508 0.83357,0.15062 1.59815,-0.37022 1.70738,-1.1624 l 0.25639,-1.8534 c 2.3294,-0.45415 4.17705,-2.23396 4.50817,-4.63579 0.23685,-1.71083 -0.34607,-3.39177 -1.45788,-4.66914 z m -8.28625,-8.83698 5.2854,0.95084 c 1.66599,0.29894 2.84333,1.82925 2.62488,3.41016 -0.2173,1.58091 -1.74992,2.62373 -3.41591,2.3248 l -5.2854,-0.95085 z m 3.30783,15.28708 -5.2854,-0.95084 0.79102,-5.73496 5.28541,0.95085 c 1.66599,0.30008 2.84333,1.8304 2.62488,3.41131 -0.2173,1.5809 -1.74992,2.62373 -3.41591,2.32364 z"
     fill="#f9896b"
     id="path22"
     style="stroke-width:1.14975" />
  <g
     filter="url(#filter1_dddddd_832_569)"
     id="g26"
     transform="matrix(1.1497507,0,0,1.1497507,7.3120409e-5,48.52515)">
    <rect
       x="430.78799"
       y="380.99799"
       width="62.572601"
       height="62.572601"
       fill="#ffffff"
       id="rect24" />
  </g>
  <path
     d="m 546.08565,524.2046 c -1.77291,7.1227 -8.25866,12.18966 -15.89875,12.18966 -7.67458,0 -14.10514,-5.36704 -15.80562,-12.51964 2.04426,0 3.95514,0.0104 4.84275,0.0104 0.41851,0 0.50014,0.007 0.52428,0.005 0.66801,-0.0322 1.50503,-0.25295 2.06151,-1.60735 l 2.12244,-5.551 4.71283,11.34804 c 0.42425,0.90485 1.13135,0.84047 1.55331,0.84047 h 0.0402 c 0.82322,0 1.18079,-0.28859 1.49468,-0.88531 l 5.32334,-11.21812 1.81661,5.05546 0.11037,0.24489 c 0.38402,0.84277 0.65996,1.67404 1.6108,1.78327 0.19546,0.0218 2.47082,-0.0173 5.5372,-0.0173 0,0 0,0.0195 -0.046,0.32193 z"
     fill="#3db5e6"
     id="path28"
     style="stroke-width:1.14975" />
  <path
     d="m 546.60649,520.00916 c 0,0.0851 0,0.29778 -10e-4,0.29778 h -0.003 -4.89564 l -2.85483,-7.97697 c -0.25524,-0.59327 -0.63696,-1.48317 -1.75107,-1.48317 -0.6818,0 -1.29692,0.56337 -1.64644,1.49237 l -5.17733,11.99075 -4.98302,-11.91831 c -0.48749,-1.05892 -0.82437,-1.55677 -1.80051,-1.55677 -0.66225,0 -1.1486,0.2449 -1.67748,1.49813 l -2.95831,8.0724 -4.91289,-0.005 c -0.005,-0.12302 -0.006,-0.24605 -0.006,-0.36907 0,-8.97265 7.27448,-16.22528 16.24828,-16.22528 8.9738,0 16.41959,7.20894 16.41959,16.18274 z"
     fill="#d8292f"
     id="path30"
     style="stroke-width:1.14975" />
  <g
     filter="url(#filter2_dddddd_832_569)"
     id="g34"
     transform="matrix(1.1497507,0,0,1.1497507,7.3120409e-5,48.52515)">
    <rect
       x="517.427"
       y="380.99799"
       width="62.572601"
       height="62.572601"
       fill="#ffffff"
       id="rect32" />
  </g>
  <path
     d="m 617.23567,526.48111 c -1.18194,0.003 -2.27535,-0.63122 -2.85943,-1.65909 -0.57602,-1.02213 -0.54153,-2.27881 0.0897,-3.26645 l 5.89018,-9.24974 c 0.61281,-1.01178 1.72462,-1.6154 2.90657,-1.57976 1.18309,0.0288 2.25811,0.691 2.81459,1.73498 0.54843,1.03822 0.48059,2.28685 -0.17706,3.26184 l -5.88673,9.24859 c -0.60592,0.9451 -1.65449,1.51537 -2.7778,1.50963 z"
     fill="#f62b54"
     id="path36"
     style="stroke-width:1.14975" />
  <path
     d="m 627.33853,526.48111 c -1.18769,0 -2.2811,-0.63467 -2.85483,-1.65565 -0.57487,-1.01982 -0.54038,-2.2719 0.0897,-3.25839 l 5.87868,-9.2279 c 0.60477,-1.02672 1.71888,-1.64414 2.91002,-1.6131 1.19804,0.0265 2.2834,0.69675 2.83298,1.74417 0.54498,1.04858 0.4645,2.30525 -0.2127,3.27679 l -5.87753,9.2279 c -0.60477,0.94165 -1.64759,1.50963 -2.7663,1.50618 z"
     fill="#ffcc00"
     id="path38"
     style="stroke-width:1.14975" />
  <path
     d="m 637.21489,526.55929 c 1.67519,0 3.03304,-1.32911 3.03304,-2.96866 0,-1.63954 -1.35785,-2.96865 -3.03304,-2.96865 -1.67404,0 -3.03189,1.32911 -3.03189,2.96865 0,1.63955 1.35785,2.96866 3.03189,2.96866 z"
     fill="#00ca72"
     id="path40"
     style="stroke-width:1.14975" />
  <rect
     x="89.680626"
     y="79.56842"
     width="436.12918"
     height="266.33859"
     rx="11.638006"
     fill="url(#paint0_linear_832_569)"
     id="rect42"
     style="fill:url(#paint0_linear_832_569);stroke-width:1.14975" />
  <mask
     id="mask0_832_569"
     style="mask-type:alpha"
     maskUnits="userSpaceOnUse"
     x="78"
     y="27"
     width="380"
     height="232">
    <rect
       x="78.0005"
       y="27"
       width="379.325"
       height="231.649"
       rx="10.1346"
       fill="#50449C"
       id="rect44" />
  </mask>
  <g
     mask="url(#mask0_832_569)"
     id="g53"
     transform="matrix(1.1497507,0,0,1.1497507,7.3120409e-5,48.52515)">
    <path
       d="M 271.324,135.243 C 202.987,89.6844 194.516,40.3902 196.967,19.761 h 270.016 v 260.605 h -89.764 c -2.611,-20.599 -22.578,-50.702 -39.348,-77.1 -16.818,-26.474 -40.45,-50.625 -66.547,-68.023 z"
       fill="#491fef"
       id="path47" />
    <path
       d="M 430.788,273.85 C 471.327,208.989 362.259,77.4318 302.658,19.7609 L 279.493,-2.68005 H 499.559 V 273.85 c -39.814,27.026 -109.309,64.862 -68.771,0 z"
       fill="#d9f9fd"
       id="path49" />
    <path
       d="M 476.394,182.639 C 477.552,140.942 359.605,50.4061 300.486,10.3502 L 466.984,-6.29956 501.007,89.9794 C 492.32,138.24 475.236,224.336 476.394,182.639 Z"
       fill="#00e4ff"
       id="path51" />
  </g>
  <path
     d="m 451.67963,139.55804 3.68265,-16.17055 h 3.6838 l -2.7847,16.17055 z"
     fill="#000000"
     id="path55"
     style="stroke-width:1.14975" />
  <path
     d="m 472.52116,123.56719 c -0.89796,-0.3593 -2.33515,-0.71859 -4.13221,-0.71859 -4.49207,0 -7.72517,2.24592 -7.72517,5.47994 0,2.42563 2.24546,3.68334 4.04252,4.49185 1.79591,0.8085 2.33514,1.3475 2.33514,2.06621 0,1.07801 -1.43718,1.61713 -2.69501,1.61713 -1.79706,0 -2.7847,-0.26962 -4.31157,-0.89842 l -0.62891,-0.2695 -0.62891,3.68323 c 1.07731,0.4492 3.05373,0.89841 5.11984,0.89841 4.76226,0 7.90568,-2.24592 7.90568,-5.65965 0,-1.88662 -1.167,-3.32393 -3.86201,-4.49184 -1.6177,-0.80851 -2.60534,-1.25771 -2.60534,-2.06622 0,-0.71871 0.80828,-1.43742 2.60534,-1.43742 1.52687,0 2.60418,0.2695 3.41361,0.62892 l 0.4484,0.17959 z"
     fill="#000000"
     id="path57"
     style="stroke-width:1.14975" />
  <path
     d="m 472.52116,123.56719 c -0.89796,-0.3593 -2.33515,-0.71859 -4.13221,-0.71859 -4.49207,0 -6.9169,2.24592 -6.9169,5.47994 0,2.42563 1.43719,3.68334 3.23425,4.49185 1.79591,0.8085 2.33514,1.3475 2.33514,2.06621 0,1.07801 -1.43718,1.61713 -2.69501,1.61713 -1.79706,0 -2.7847,-0.26962 -4.31157,-0.89842 l -0.62891,-0.2695 -0.62891,3.68323 c 1.07731,0.4492 3.05373,0.89841 5.11984,0.89841 4.76226,0 7.90568,-2.24592 7.90568,-5.65965 0,-1.88662 -1.167,-3.32393 -3.86201,-4.49184 -1.6177,-0.80851 -2.60534,-1.25771 -2.60534,-2.06622 0,-0.71871 0.80828,-1.43742 2.60534,-1.43742 1.52687,0 2.60418,0.2695 3.41361,0.62892 l 0.4484,0.17959 z"
     fill="#000000"
     id="path59"
     style="stroke-width:1.14975" />
  <path
     fill-rule="evenodd"
     clip-rule="evenodd"
     d="m 478.9885,124.5554 c 0.44956,-1.078 1.25783,-1.16791 2.3363,-1.16791 h 2.42482 l 3.77348,16.17055 h -4.31271 l -0.53809,-2.69513 h -5.7499 l -0.89795,2.69513 h -4.85195 z m 0.98764,4.85115 c 0,0 -1.43834,3.86293 -1.79706,4.76123 v 0.0899 h 3.77348 c -0.18051,-0.89842 -1.07847,-4.94105 -1.07847,-4.94105 l -0.26904,-1.52722 c -0.27019,0.62892 -0.62891,1.61713 -0.62891,1.61713 z"
     fill="#000000"
     id="path61"
     style="stroke-width:1.14975" />
  <path
     d="m 443.41637,134.70713 -0.44956,-2.33572 c -0.80827,-2.69513 -3.4136,-5.65965 -6.28913,-7.09707 l 4.04367,14.37384 h 4.8508 l 7.27677,-16.17055 h -3.95284 z"
     fill="#000000"
     id="path63"
     style="stroke-width:1.14975" />
  <path
     d="m 430.92663,123.38749 0.80942,0.1797 c 5.74875,1.34751 9.7016,4.76135 11.22847,8.80399 l -1.61655,-7.63619 c -0.26905,-1.078 -1.07847,-1.3475 -2.06611,-1.3475 z"
     fill="#ffbc00"
     id="path65"
     style="stroke-width:1.14975" />
  <path
     d="m 430.92663,123.38749 c 5.7499,1.3475 10.51102,4.85114 12.03789,8.89378 l -1.52687,-6.37836 c -0.26905,-1.07801 -1.16815,-1.70692 -2.15579,-1.70692 z"
     fill="#f7981d"
     id="path67"
     style="stroke-width:1.14975" />
  <path
     d="m 430.92663,123.38749 c 5.7499,1.3475 10.51102,4.85114 12.03789,8.89378 l -1.07732,-3.50364 c -0.27019,-1.078 -0.62891,-2.15601 -1.88674,-2.60522 z"
     fill="#ed7c00"
     id="path69"
     style="stroke-width:1.14975" />
  <path
     d="m 132.48814,215.63681 v -12.10457 l -2.25811,0.49899 v -1.15895 l 2.81689,-1.21758 h 1.13825 v 13.98211 z m 4.42884,0 v -1.17849 c 0.94625,-0.74504 1.83845,-1.49813 2.67662,-2.25696 0.85312,-0.77263 1.60505,-1.53147 2.25811,-2.27766 0.66571,-0.74504 1.1854,-1.47743 1.55791,-2.19717 0.38632,-0.7186 0.57948,-1.41075 0.57948,-2.0776 0,-0.49209 -0.0874,-0.95199 -0.25984,-1.3774 -0.15982,-0.42656 -0.42656,-0.76574 -0.79908,-1.01868 -0.37252,-0.26674 -0.87956,-0.40011 -1.51882,-0.40011 -0.61167,0 -1.12446,0.14026 -1.53722,0.41965 -0.41276,0.26675 -0.72664,0.62547 -0.93935,1.07847 -0.20005,0.453 -0.29893,0.93935 -0.29893,1.45788 h -1.61885 c 0,-0.91865 0.19316,-1.70393 0.57948,-2.35698 0.38631,-0.66571 0.9129,-1.1716 1.5786,-1.51768 0.66571,-0.34607 1.41765,-0.51968 2.25696,-0.51968 1.23828,0 2.25007,0.35297 3.03649,1.05892 0.79908,0.69215 1.19805,1.73152 1.19805,3.11582 0,0.82552 -0.20581,1.6453 -0.61857,2.45702 -0.41391,0.79908 -0.93935,1.57861 -1.57861,2.33744 -0.63926,0.74619 -1.32451,1.44524 -2.05805,2.09715 -0.7186,0.65306 -1.3912,1.23828 -2.01666,1.75797 h 6.75133 v 1.39809 z m 16.00568,0.2403 c -0.89221,0 -1.69703,-0.15981 -2.41677,-0.47945 -0.7186,-0.33342 -1.29807,-0.82552 -1.73728,-1.47857 -0.42656,-0.65191 -0.65306,-1.46479 -0.6795,-2.43633 h 1.69818 c 0.0126,0.79793 0.29204,1.49123 0.83817,2.07645 0.54613,0.57258 1.31187,0.85887 2.2972,0.85887 0.98534,0 1.72463,-0.27249 2.21787,-0.81863 0.50589,-0.54613 0.75884,-1.20493 0.75884,-1.97757 0,-0.6519 -0.15982,-1.18539 -0.47945,-1.59815 -0.30583,-0.41276 -0.72549,-0.71859 -1.25898,-0.91865 -0.51853,-0.20006 -1.09111,-0.30009 -1.71772,-0.30009 h -1.03823 v -1.41764 h 1.03823 c 0.906,0 1.61195,-0.20695 2.11784,-0.61971 0.51968,-0.41276 0.77953,-0.99224 0.77953,-1.73728 0,-0.62661 -0.20696,-1.13825 -0.61972,-1.53836 -0.40011,-0.41276 -0.99913,-0.61972 -1.79821,-0.61972 -0.77148,0 -1.3912,0.2334 -1.85685,0.7002 -0.46679,0.45185 -0.72664,1.02443 -0.77953,1.71773 h -1.69818 c 0.0402,-0.75884 0.2403,-1.43144 0.59902,-2.01782 0.37367,-0.58637 0.87956,-1.03822 1.51882,-1.35785 0.63926,-0.33343 1.37855,-0.50014 2.21672,-0.50014 0.90601,0 1.65794,0.15981 2.25811,0.47944 0.61167,0.31963 1.07157,0.74619 1.3774,1.27853 0.31963,0.53233 0.47945,1.1187 0.47945,1.75796 0,0.70595 -0.19316,1.35211 -0.57948,1.93733 -0.38516,0.57258 -0.96464,0.9589 -1.73727,1.15895 0.82552,0.17247 1.51192,0.56568 2.05691,1.1785 0.54613,0.61281 0.81977,1.41764 0.81977,2.41677 0,0.77264 -0.18051,1.48548 -0.53924,2.13739 -0.34607,0.63926 -0.86576,1.15205 -1.55791,1.53837 -0.6933,0.38631 -1.55216,0.57947 -2.57774,0.57947 z m 13.72113,-0.2403 v -2.99625 h -7.09167 v -1.29807 l 6.79273,-9.68779 h 1.95688 v 9.50843 h 2.0776 v 1.47743 h -2.0776 v 2.99625 z m -5.23367,-4.47368 h 5.31415 v -7.65159 z m 52.75516,4.71398 c -0.95889,0 -1.79131,-0.17361 -2.49726,-0.51969 -0.70479,-0.34607 -1.27162,-0.81862 -1.69703,-1.41879 -0.41276,-0.61167 -0.66571,-1.30497 -0.75998,-2.07645 h 1.63839 c 0.15982,0.77148 0.53233,1.3981 1.11871,1.87754 0.58637,0.46565 1.32566,0.69905 2.21787,0.69905 0.6657,0 1.23828,-0.15291 1.71772,-0.4599 0.47945,-0.31963 0.84507,-0.74504 1.09802,-1.27852 0.26674,-0.53233 0.40011,-1.12446 0.40011,-1.77751 0,-1.03823 -0.29319,-1.87755 -0.87956,-2.51681 -0.58522,-0.63926 -1.34521,-0.95889 -2.27651,-0.95889 -0.77263,0 -1.43144,0.17361 -1.97757,0.51969 -0.54613,0.34607 -0.94624,0.79907 -1.19919,1.35785 h -1.59815 l 1.19919,-7.66998 h 7.33081 v 1.45788 h -6.03274 l -0.81863,4.25523 c 0.31964,-0.38632 0.75884,-0.70595 1.31762,-0.9589 0.57258,-0.25294 1.22563,-0.37941 1.95802,-0.37941 0.91866,0 1.71773,0.2127 2.39723,0.63811 0.69215,0.42656 1.23139,1.00603 1.6177,1.73842 0.38632,0.73239 0.57948,1.56481 0.57948,2.49726 0,0.89221 -0.19316,1.71773 -0.57948,2.47656 -0.37252,0.75884 -0.92555,1.36476 -1.65794,1.81776 -0.71859,0.453 -1.59125,0.6795 -2.61683,0.6795 z m 12.51044,0 c -1.01178,0 -1.86375,-0.18626 -2.5559,-0.55993 -0.6933,-0.38631 -1.25208,-0.8991 -1.67863,-1.53721 -0.41276,-0.63927 -0.7186,-1.35211 -0.91865,-2.13739 -0.18626,-0.79908 -0.27939,-1.61195 -0.27939,-2.43747 0,-1.54527 0.2127,-2.89622 0.63926,-4.05517 0.42541,-1.1716 1.03822,-2.0845 1.8373,-2.73641 0.81287,-0.66571 1.79131,-0.99913 2.93646,-0.99913 0.87841,0 1.6315,0.17361 2.25696,0.51968 0.62662,0.34608 1.11871,0.81173 1.47858,1.3981 0.37252,0.57258 0.60592,1.21184 0.69905,1.91779 h -1.55791 c -0.14717,-0.75884 -0.47255,-1.34521 -0.97959,-1.75797 -0.50589,-0.41276 -1.14515,-0.61972 -1.91663,-0.61972 -1.05203,0 -1.93848,0.50014 -2.65708,1.49928 -0.70594,0.98533 -1.08536,2.52945 -1.13825,4.63349 0.31963,-0.62546 0.82552,-1.1647 1.51767,-1.6177 0.70595,-0.46565 1.55101,-0.69905 2.53635,-0.69905 0.79908,0 1.54527,0.18626 2.23742,0.55878 0.70594,0.37367 1.27852,0.89911 1.71772,1.57861 0.44036,0.66571 0.65996,1.45099 0.65996,2.35699 0,0.78528 -0.19316,1.53837 -0.57947,2.25696 -0.38632,0.71974 -0.9451,1.30497 -1.67749,1.75797 -0.71974,0.453 -1.57861,0.6795 -2.57774,0.6795 z m -0.11958,-1.47858 c 0.62547,0 1.1854,-0.13337 1.67864,-0.39896 0.49209,-0.26674 0.87841,-0.63351 1.1578,-1.09916 0.27939,-0.47945 0.41966,-1.02558 0.41966,-1.6384 0,-0.94509 -0.31273,-1.69703 -0.93935,-2.25696 -0.61167,-0.57257 -1.3843,-0.85886 -2.31675,-0.85886 -0.62546,0 -1.18539,0.14717 -1.67748,0.4392 -0.49325,0.28054 -0.88646,0.65996 -1.1785,1.13941 -0.28054,0.47944 -0.41966,0.99798 -0.41966,1.55791 0,0.59902 0.13912,1.13825 0.41966,1.6177 0.29204,0.46565 0.68525,0.83242 1.1785,1.09916 0.49209,0.26559 1.05202,0.39896 1.67748,0.39896 z m 8.30005,1.23828 5.5533,-12.54378 h -7.66999 v -1.43833 h 9.38772 v 1.25782 l -5.49351,12.72429 z m 13.77517,0.2403 c -0.91865,0 -1.74417,-0.16671 -2.47657,-0.50014 -0.73239,-0.34608 -1.31186,-0.81862 -1.73842,-1.41764 -0.41276,-0.61282 -0.61856,-1.31877 -0.61856,-2.11784 0,-0.85197 0.24604,-1.6177 0.73813,-2.29721 0.50705,-0.67835 1.17275,-1.13135 1.99827,-1.35785 -0.75883,-0.25295 -1.34521,-0.65881 -1.75797,-1.21874 -0.41276,-0.55878 -0.61971,-1.17159 -0.61971,-1.8373 0,-0.6795 0.18051,-1.29922 0.53923,-1.858 0.35987,-0.57257 0.87266,-1.02557 1.53837,-1.35785 0.6657,-0.33343 1.46478,-0.50014 2.39723,-0.50014 0.93244,0 1.73152,0.16671 2.39723,0.50014 0.6657,0.33228 1.17849,0.78528 1.53836,1.35785 0.35873,0.55878 0.53924,1.1785 0.53924,1.858 0,0.65191 -0.20696,1.26473 -0.61972,1.8373 -0.41276,0.55993 -0.99913,0.96579 -1.75797,1.21874 0.82552,0.2265 1.48548,0.6795 1.97757,1.35785 0.50589,0.67951 0.75884,1.44524 0.75884,2.29721 0,0.79907 -0.21271,1.50502 -0.63926,2.11784 -0.41276,0.59902 -0.98534,1.07156 -1.71773,1.41764 -0.73239,0.33343 -1.55791,0.50014 -2.47656,0.50014 z m 0,-8.2897 c 0.85196,0 1.52457,-0.21386 2.01781,-0.63926 0.50589,-0.44036 0.75883,-1.01293 0.75883,-1.71773 0,-0.78643 -0.24604,-1.37855 -0.73928,-1.77866 -0.4921,-0.39897 -1.1716,-0.59902 -2.03736,-0.59902 -0.86577,0 -1.54527,0.20005 -2.03736,0.59902 -0.47945,0.40011 -0.71975,0.99223 -0.71975,1.77866 0,0.7048 0.2472,1.27737 0.73929,1.71773 0.49325,0.4254 1.16585,0.63926 2.01782,0.63926 z m 0,6.81112 c 1.05202,0 1.8373,-0.23915 2.35699,-0.71859 0.53233,-0.49325 0.79907,-1.13941 0.79907,-1.93848 0,-0.90486 -0.28629,-1.59126 -0.85886,-2.05691 -0.57258,-0.46565 -1.33831,-0.69904 -2.2972,-0.69904 -0.9589,0 -1.72463,0.23339 -2.2972,0.69904 -0.57258,0.46565 -0.85887,1.15205 -0.85887,2.05691 0,0.79907 0.25984,1.44523 0.77953,1.93848 0.53234,0.47944 1.32452,0.71859 2.37654,0.71859 z m 43.91127,1.47858 c -0.87955,0 -1.63149,-0.17361 -2.25811,-0.51969 -0.62546,-0.34607 -1.12445,-0.80597 -1.49812,-1.37855 -0.35872,-0.58522 -0.57948,-1.23138 -0.65881,-1.93733 h 1.55791 c 0.13338,0.75884 0.45301,1.34521 0.9589,1.75797 0.50589,0.41276 1.14515,0.61857 1.91778,0.61857 1.06467,0 1.95113,-0.4921 2.65707,-1.47743 0.7048,-0.99914 1.08537,-2.55015 1.13826,-4.65419 -0.31963,0.62546 -0.83242,1.17159 -1.53837,1.63724 -0.69215,0.453 -1.53147,0.6795 -2.5168,0.6795 -0.78528,0 -1.53147,-0.18626 -2.23742,-0.55877 -0.70595,-0.37367 -1.27852,-0.89221 -1.71773,-1.55907 -0.4392,-0.67835 -0.6588,-1.47053 -0.6588,-2.37653 0,-0.78528 0.19316,-1.53837 0.57947,-2.25696 0.39897,-0.71975 0.95774,-1.30497 1.67749,-1.75797 0.71859,-0.453 1.57746,-0.6795 2.57659,-0.6795 1.01178,0 1.86489,0.19316 2.55704,0.57947 0.69215,0.37252 1.24518,0.87841 1.65795,1.51767 0.42655,0.63926 0.73239,1.35901 0.91865,2.15808 0.20005,0.78528 0.30008,1.59126 0.30008,2.41678 0,1.54527 -0.21385,2.90312 -0.63926,4.07472 -0.42656,1.15895 -1.04512,2.0707 -1.858,2.7364 -0.79907,0.65306 -1.77061,0.97959 -2.91577,0.97959 z m 0.0989,-6.73179 c 0.62662,0 1.1854,-0.14027 1.67864,-0.41966 0.49209,-0.29318 0.88531,-0.6795 1.17849,-1.15895 0.29319,-0.47944 0.43921,-0.99798 0.43921,-1.55791 0,-0.59902 -0.14602,-1.13135 -0.43921,-1.59815 -0.29318,-0.47945 -0.6864,-0.85197 -1.17849,-1.11871 -0.49324,-0.26559 -1.05202,-0.39896 -1.67864,-0.39896 -0.62546,0 -1.18424,0.13337 -1.67748,0.39896 -0.49325,0.26674 -0.87841,0.63926 -1.15895,1.11871 -0.27939,0.4668 -0.41966,1.00603 -0.41966,1.61885 0,0.94509 0.30698,1.70393 0.9198,2.2765 0.62546,0.55993 1.405,0.83932 2.33629,0.83932 z m 13.32216,6.73179 c -1.23943,0 -2.31099,-0.30008 -3.217,-0.8991 -0.8922,-0.61282 -1.57746,-1.45789 -2.0569,-2.5375 -0.47945,-1.09112 -0.71975,-2.35699 -0.71975,-3.79533 0,-1.43719 0.2403,-2.69617 0.71975,-3.77463 0.47944,-1.09227 1.1647,-1.93733 2.0569,-2.5375 0.90601,-0.61167 1.97757,-0.91865 3.217,-0.91865 1.23829,0 2.30295,0.30698 3.19516,0.91865 0.89221,0.60017 1.57861,1.44523 2.05806,2.5375 0.47944,1.07846 0.71859,2.33744 0.71859,3.77463 0,1.43834 -0.23915,2.70421 -0.71859,3.79533 -0.47945,1.07961 -1.16585,1.92468 -2.05806,2.5375 -0.89221,0.59902 -1.95687,0.8991 -3.19516,0.8991 z m 0,-1.47858 c 0.81173,0 1.53722,-0.2265 2.17648,-0.6795 0.65306,-0.46565 1.15895,-1.12446 1.51882,-1.97757 0.37252,-0.86461 0.55878,-1.89709 0.55878,-3.09628 0,-1.19804 -0.18626,-2.22362 -0.55878,-3.07558 -0.35987,-0.85197 -0.86576,-1.50503 -1.51882,-1.95803 -0.63926,-0.46565 -1.36475,-0.69905 -2.17648,-0.69905 -0.82667,0 -1.55906,0.2334 -2.19832,0.69905 -0.63811,0.453 -1.14515,1.10606 -1.51767,1.95803 -0.37252,0.85196 -0.55878,1.87754 -0.55878,3.07558 0,1.19919 0.18626,2.23167 0.55878,3.09628 0.37252,0.85311 0.87956,1.51192 1.51767,1.97757 0.63926,0.453 1.37165,0.6795 2.19832,0.6795 z m 9.77518,1.23828 v -12.10457 l -2.25811,0.49899 v -1.15895 l 2.81689,-1.21758 h 1.13826 v 13.98211 z m 4.42884,0 v -1.17849 c 0.94625,-0.74504 1.83846,-1.49813 2.67662,-2.25696 0.85312,-0.77263 1.60506,-1.53147 2.25811,-2.27766 0.66571,-0.74504 1.18425,-1.47743 1.55792,-2.19717 0.38631,-0.7186 0.57947,-1.41075 0.57947,-2.0776 0,-0.49209 -0.0874,-0.95199 -0.25984,-1.3774 -0.15982,-0.42656 -0.42656,-0.76574 -0.79908,-1.01868 -0.37367,-0.26674 -0.87956,-0.40011 -1.51882,-0.40011 -0.61167,0 -1.12446,0.14026 -1.53722,0.41965 -0.41276,0.26675 -0.72664,0.62547 -0.93934,1.07847 -0.20006,0.453 -0.30009,0.93935 -0.30009,1.45788 h -1.6177 c 0,-0.91865 0.19316,-1.70393 0.57948,-2.35698 0.38631,-0.66571 0.91175,-1.1716 1.57745,-1.51768 0.66686,-0.34607 1.4188,-0.51968 2.25811,-0.51968 1.23829,0 2.25007,0.35297 3.0365,1.05892 0.79792,0.69215 1.19804,1.73152 1.19804,3.11582 0,0.82552 -0.20696,1.6453 -0.61972,2.45702 -0.41276,0.79908 -0.9382,1.57861 -1.57746,2.33744 -0.63926,0.74619 -1.32566,1.44524 -2.05805,2.09715 -0.71859,0.65306 -1.3912,1.23828 -2.01666,1.75797 h 6.75133 v 1.39809 z m 53.01156,0.2403 c -0.89221,0 -1.69818,-0.15981 -2.41793,-0.47945 -0.71859,-0.33342 -1.29807,-0.82552 -1.73727,-1.47857 -0.42656,-0.65191 -0.65306,-1.46479 -0.6795,-2.43633 h 1.69818 c 0.0127,0.79793 0.29318,1.49123 0.83932,2.07645 0.54498,0.57258 1.31071,0.85887 2.2972,0.85887 0.98533,0 1.72347,-0.27249 2.21672,-0.81863 0.50589,-0.54613 0.75883,-1.20493 0.75883,-1.97757 0,-0.6519 -0.15981,-1.18539 -0.47944,-1.59815 -0.30584,-0.41276 -0.7255,-0.71859 -1.25783,-0.91865 -0.51969,-0.20006 -1.09226,-0.30009 -1.71773,-0.30009 h -1.03937 v -1.41764 h 1.03937 c 0.90486,0 1.6108,-0.20695 2.11669,-0.61971 0.51969,-0.41276 0.77953,-0.99224 0.77953,-1.73728 0,-0.62661 -0.20695,-1.13825 -0.61971,-1.53836 -0.39896,-0.41276 -0.99913,-0.61972 -1.79706,-0.61972 -0.77263,0 -1.39235,0.2334 -1.858,0.7002 -0.4668,0.45185 -0.72549,1.02443 -0.77953,1.71773 h -1.69818 c 0.0402,-0.75884 0.2403,-1.43144 0.60017,-2.01782 0.37252,-0.58637 0.87841,-1.03822 1.51767,-1.35785 0.63926,-0.33343 1.37855,-0.50014 2.21787,-0.50014 0.90485,0 1.65794,0.15981 2.25696,0.47944 0.61282,0.31963 1.07157,0.74619 1.37855,1.27853 0.31963,0.53233 0.47945,1.1187 0.47945,1.75796 0,0.70595 -0.19316,1.35211 -0.57948,1.93733 -0.38631,0.57258 -0.96579,0.9589 -1.73842,1.15895 0.82552,0.17247 1.51192,0.56568 2.05805,1.1785 0.54613,0.61281 0.81862,1.41764 0.81862,2.41677 0,0.77264 -0.17936,1.48548 -0.53923,2.13739 -0.34607,0.63926 -0.86576,1.15205 -1.55791,1.53837 -0.6933,0.38631 -1.55216,0.57947 -2.57659,0.57947 z m 12.14252,0 c -0.9589,0 -1.79132,-0.17361 -2.49726,-0.51969 -0.70595,-0.34607 -1.27163,-0.81862 -1.69818,-1.41879 -0.41277,-0.61167 -0.66571,-1.30497 -0.75884,-2.07645 h 1.63839 c 0.15982,0.77148 0.53234,1.3981 1.11871,1.87754 0.58522,0.46565 1.32451,0.69905 2.21672,0.69905 0.66571,0 1.23828,-0.15291 1.71773,-0.4599 0.47944,-0.31963 0.84622,-0.74504 1.09916,-1.27852 0.26674,-0.53233 0.39896,-1.12446 0.39896,-1.77751 0,-1.03823 -0.29203,-1.87755 -0.87841,-2.51681 -0.58637,-0.63926 -1.3452,-0.95889 -2.27765,-0.95889 -0.77148,0 -1.43144,0.17361 -1.97757,0.51969 -0.54613,0.34607 -0.9451,0.79907 -1.19804,1.35785 h -1.59816 l 1.19804,-7.66998 h 7.33196 v 1.45788 h -6.03274 l -0.81977,4.25523 c 0.31963,-0.38632 0.75998,-0.70595 1.31876,-0.9589 0.57258,-0.25294 1.22564,-0.37941 1.95803,-0.37941 0.91865,0 1.71773,0.2127 2.39608,0.63811 0.6933,0.42656 1.23253,1.00603 1.61885,1.73842 0.38631,0.73239 0.57947,1.56481 0.57947,2.49726 0,0.89221 -0.19316,1.71773 -0.57947,2.47656 -0.37367,0.75884 -0.92555,1.36476 -1.65794,1.81776 -0.71975,0.453 -1.59126,0.6795 -2.61683,0.6795 z m 13.8085,-0.2403 v -2.99625 h -7.09051 v -1.29807 l 6.79158,-9.68779 h 1.95687 v 9.50843 h 2.0776 v 1.47743 h -2.0776 v 2.99625 z m -5.23366,-4.47368 h 5.31414 v -7.65159 z m 17.32789,4.47368 v -2.99625 h -7.09051 v -1.29807 l 6.79157,-9.68779 h 1.95688 v 9.50843 h 2.0776 v 1.47743 h -2.0776 v 2.99625 z m -5.23252,-4.47368 h 5.313 v -7.65159 z"
     fill="#ffffff"
     id="path71"
     style="stroke-width:1.14975" />
  <path
     d="m 130.99002,139.06491 v -13.98269 h 4.77376 c 1.6384,0 2.98246,0.29295 4.03448,0.87887 1.06582,0.57257 1.8511,1.38499 2.35814,2.43701 0.51853,1.03868 0.77838,2.26386 0.77838,3.67541 0,1.41166 -0.25985,2.6435 -0.77838,3.69553 -0.50704,1.03868 -1.29232,1.85098 -2.35814,2.43689 -1.05202,0.57269 -2.39608,0.85898 -4.03448,0.85898 z m 2.55589,-2.19729 h 2.0983 c 1.17159,0 2.09714,-0.18637 2.77665,-0.55924 0.67835,-0.3862 1.16469,-0.93221 1.45788,-1.63805 0.29319,-0.71905 0.4392,-1.5847 0.4392,-2.59682 0,-0.99868 -0.14601,-1.85765 -0.4392,-2.57682 -0.29319,-0.71906 -0.77953,-1.27174 -1.45788,-1.65794 -0.67951,-0.38621 -1.60506,-0.57925 -2.77665,-0.57925 h -2.0983 z m 16.3989,2.43701 c -0.99914,0 -1.88444,-0.21304 -2.65708,-0.63926 -0.77148,-0.42609 -1.3774,-1.02534 -1.81775,-1.79775 -0.43921,-0.7724 -0.65881,-1.66461 -0.65881,-2.67673 0,-1.02535 0.2127,-1.93756 0.63926,-2.73652 0.43921,-0.79908 1.03938,-1.41834 1.79821,-1.85777 0.77263,-0.45277 1.67749,-0.67916 2.71686,-0.67916 0.97154,0 1.83041,0.21305 2.57659,0.63926 0.74504,0.4261 1.32452,1.01201 1.73728,1.75774 0.42655,0.73251 0.63926,1.55148 0.63926,2.45702 0,0.14648 -0.007,0.29962 -0.0196,0.45944 0,0.15981 -0.007,0.3263 -0.0207,0.49934 h -7.52972 c 0.0529,0.7724 0.31963,1.37832 0.79908,1.81775 0.49209,0.43955 1.08536,0.65927 1.77751,0.65927 0.51969,0 0.952,-0.11325 1.29807,-0.33964 0.35987,-0.23972 0.62546,-0.54601 0.79908,-0.91888 h 2.59728 c -0.18741,0.62593 -0.50014,1.1985 -0.93934,1.71796 -0.42656,0.506 -0.95889,0.90554 -1.59816,1.1985 -0.62546,0.29296 -1.33831,0.43943 -2.13738,0.43943 z m 0.0207,-8.3097 c -0.62661,0 -1.17964,0.1797 -1.65794,0.53923 -0.47944,0.3463 -0.78643,0.87898 -0.9198,1.59804 h 4.93473 c -0.0402,-0.65249 -0.28054,-1.17183 -0.71974,-1.55803 -0.43921,-0.3862 -0.98534,-0.57924 -1.63725,-0.57924 z m 12.97609,8.3097 c -0.74504,0 -1.3981,-0.13981 -1.95688,-0.41942 -0.55993,-0.27974 -1.01178,-0.67261 -1.359,-1.17861 l -0.27939,1.35831 h -2.27651 v -14.38223 h 2.5559 v 5.8927 c 0.31963,-0.43943 0.73929,-0.82563 1.25897,-1.1586 0.53234,-0.33285 1.21874,-0.49934 2.05691,-0.49934 0.93245,0 1.76487,0.22639 2.49726,0.67916 0.73239,0.45277 1.31186,1.07203 1.73842,1.85777 0.42541,0.78562 0.63926,1.67783 0.63926,2.67662 0,0.99878 -0.21385,1.89099 -0.63926,2.67673 -0.42656,0.7724 -1.00603,1.38499 -1.73842,1.83776 -0.73239,0.43944 -1.56481,0.65915 -2.49726,0.65915 z m -0.53923,-2.2373 c 0.81287,0 1.48547,-0.27295 2.01781,-0.81896 0.53233,-0.5459 0.79907,-1.25174 0.79907,-2.11738 0,-0.86554 -0.26674,-1.57804 -0.79907,-2.13739 -0.53234,-0.55924 -1.20494,-0.83886 -2.01781,-0.83886 -0.82553,0 -1.50388,0.27962 -2.03736,0.83886 -0.51854,0.54602 -0.77838,1.25185 -0.77838,2.1175 0,0.86553 0.25984,1.57803 0.77838,2.13727 0.53348,0.54601 1.21183,0.81896 2.03736,0.81896 z m 9.07613,-9.4483 c -0.46565,0 -0.85197,-0.13981 -1.15895,-0.41943 -0.29319,-0.27973 -0.43921,-0.63259 -0.43921,-1.05869 0,-0.42621 0.14602,-0.7724 0.43921,-1.0388 0.30698,-0.27962 0.6933,-0.41943 1.15895,-0.41943 0.46565,0 0.84506,0.13981 1.13825,0.41943 0.30698,0.2664 0.4599,0.61259 0.4599,1.0388 0,0.4261 -0.15292,0.77896 -0.4599,1.05869 -0.29319,0.27962 -0.6726,0.41943 -1.13825,0.41943 z m -1.27853,11.44588 v -9.90775 h 2.55705 v 9.90775 z m 9.64066,0 c -1.03937,0 -1.87179,-0.25306 -2.49725,-0.75906 -0.62547,-0.50601 -0.93935,-1.40488 -0.93935,-2.69663 v -4.31467 H 174.707 v -2.13739 h 1.69703 l 0.30008,-2.65672 h 2.25697 v 2.65672 h 2.67661 v 2.13739 h -2.67661 v 4.33456 c 0,0.47945 0.10002,0.81242 0.30008,0.99879 0.2127,0.17315 0.57258,0.25973 1.07847,0.25973 h 1.23828 v 2.17728 z m 15.14452,0.23972 c -1.41189,0 -2.62373,-0.29962 -3.63551,-0.89887 -1.01178,-0.61259 -1.79131,-1.45823 -2.33744,-2.53693 -0.54614,-1.09191 -0.81863,-2.35043 -0.81863,-3.77532 0,-1.42488 0.27249,-2.68329 0.81863,-3.77532 0.54613,-1.09203 1.32566,-1.94423 2.33744,-2.55681 1.01178,-0.61259 2.22362,-0.91888 3.63551,-0.91888 1.67749,0 3.04914,0.41942 4.11496,1.2584 1.07846,0.82563 1.75107,1.99091 2.01781,3.4957 h -2.81689 c -0.17361,-0.75907 -0.54613,-1.35165 -1.11871,-1.77774 -0.55878,-0.43955 -1.30496,-0.65927 -2.23741,-0.65927 -1.29117,0 -2.3041,0.43943 -3.03649,1.31842 -0.73239,0.87887 -1.09801,2.08404 -1.09801,3.6155 0,1.53147 0.36562,2.73664 1.09801,3.61551 0.73239,0.86565 1.74532,1.29841 3.03649,1.29841 0.93245,0 1.67863,-0.19971 2.23741,-0.59925 0.57258,-0.41276 0.9451,-0.97878 1.11871,-1.69783 h 2.81689 c -0.26674,1.43822 -0.93935,2.56348 -2.01781,3.37578 -1.06582,0.8123 -2.43747,1.2185 -4.11496,1.2185 z m 11.7516,0 c -0.85196,0 -1.55101,-0.13314 -2.09714,-0.39953 -0.54613,-0.27962 -0.952,-0.64582 -1.21874,-1.09859 -0.26674,-0.45277 -0.40011,-0.95222 -0.40011,-1.49813 0,-0.91888 0.35987,-1.66472 1.07961,-2.2373 0.7186,-0.57257 1.79706,-0.85897 3.2354,-0.85897 h 2.51681 v -0.23961 c 0,-0.67928 -0.19316,-1.17861 -0.57948,-1.49824 -0.38631,-0.31952 -0.86461,-0.47933 -1.43834,-0.47933 -0.51853,0 -0.97154,0.12647 -1.35785,0.37953 -0.38632,0.23961 -0.62547,0.59925 -0.7186,1.07858 h -2.49725 c 0.0667,-0.71905 0.30583,-1.34498 0.71859,-1.87766 0.42656,-0.53268 0.97269,-0.93877 1.63839,-1.2185 0.66571,-0.29296 1.4119,-0.43944 2.23742,-0.43944 1.41189,0 2.5237,0.35286 3.33543,1.05869 0.81287,0.70583 1.21873,1.70462 1.21873,2.99637 v 6.09241 h -2.17763 l -0.23914,-1.59804 c -0.29319,0.53268 -0.70595,0.97212 -1.23829,1.31842 -0.51968,0.34619 -1.19229,0.51934 -2.01781,0.51934 z m 0.57948,-1.99757 c 0.73239,0 1.29806,-0.23973 1.69818,-0.71906 0.41276,-0.47944 0.67145,-1.07202 0.77838,-1.77786 h -2.17763 c -0.67835,0 -1.1647,0.12659 -1.45788,0.37954 -0.29319,0.23972 -0.43921,0.53934 -0.43921,0.89887 0,0.3862 0.14602,0.68583 0.43921,0.89899 0.29318,0.21305 0.6795,0.31952 1.15895,0.31952 z m 7.53316,1.75785 v -9.90775 h 2.27766 l 0.23915,1.85766 c 0.35987,-0.63915 0.84621,-1.14527 1.45903,-1.51813 0.62546,-0.38621 1.35786,-0.57925 2.19717,-0.57925 v 2.69663 h -0.71974 c -0.55878,0 -1.05892,0.0866 -1.49813,0.25973 -0.4392,0.17315 -0.78527,0.47277 -1.03822,0.89887 -0.2403,0.42621 -0.35987,1.01879 -0.35987,1.77786 v 4.51438 z m 12.29889,0.23972 c -0.93245,0 -1.76487,-0.22638 -2.49726,-0.67915 -0.73239,-0.45278 -1.31072,-1.07203 -1.73728,-1.85777 -0.42655,-0.78563 -0.63926,-1.67783 -0.63926,-2.67662 0,-0.99879 0.21271,-1.88433 0.63926,-2.65673 0.42656,-0.78574 1.00489,-1.39833 1.73728,-1.83776 0.73239,-0.45277 1.56481,-0.67916 2.49726,-0.67916 0.74618,0 1.39809,0.13981 1.95802,0.41943 0.55878,0.27974 1.01178,0.67261 1.35786,1.17861 v -5.8328 h 2.55704 v 14.38223 h -2.27765 l -0.27939,-1.41822 c -0.31963,0.43944 -0.74619,0.82564 -1.27853,1.15861 -0.51968,0.33285 -1.19804,0.49933 -2.03735,0.49933 z m 0.53923,-2.2373 c 0.82552,0 1.49812,-0.27295 2.01781,-0.81896 0.53234,-0.55924 0.79908,-1.27174 0.79908,-2.13727 0,-0.86565 -0.26674,-1.57148 -0.79908,-2.1175 -0.51969,-0.55924 -1.19229,-0.83886 -2.01781,-0.83886 -0.81173,0 -1.48433,0.27295 -2.01781,0.81897 -0.53234,0.5459 -0.79908,1.25173 -0.79908,2.11738 0,0.86553 0.26674,1.57803 0.79908,2.13739 0.53348,0.55924 1.20608,0.83885 2.01781,0.83885 z"
     fill="#ffffff"
     id="path73"
     style="stroke-width:1.14975" />
  <path
     d="m 132.01215,252.1391 v -10.08791 l -1.881,0.4162 v -0.96579 l 2.34665,-1.01523 h 0.94854 v 11.65273 z m 3.6907,0 v -0.98304 c 0.78872,-0.62086 1.53146,-1.24748 2.23051,-1.88099 0.71055,-0.64271 1.33716,-1.27622 1.88099,-1.89709 0.55533,-0.62202 0.98764,-1.23253 1.29922,-1.83155 0.32193,-0.59902 0.48175,-1.1762 0.48175,-1.73038 0,-0.41161 -0.0713,-0.79448 -0.21616,-1.1486 -0.13337,-0.35527 -0.35527,-0.63811 -0.6657,-0.84966 -0.31043,-0.22191 -0.73239,-0.33228 -1.26473,-0.33228 -0.51049,0 -0.93819,0.11612 -1.28197,0.34952 -0.34377,0.2219 -0.60477,0.52084 -0.78183,0.89796 -0.16671,0.37827 -0.25064,0.78298 -0.25064,1.21528 h -1.34751 c 0,-0.76573 0.16096,-1.41994 0.48174,-1.96377 0.32193,-0.55533 0.76114,-0.97614 1.31532,-1.26473 0.55533,-0.28858 1.18194,-0.43345 1.88099,-0.43345 1.03248,0 1.87524,0.29433 2.5306,0.88301 0.66571,0.57602 0.99913,1.44178 0.99913,2.59613 0,0.6887 -0.17246,1.37051 -0.51623,2.04771 -0.34378,0.6657 -0.78298,1.31531 -1.31532,1.94768 -0.53233,0.62086 -1.10376,1.20379 -1.71428,1.74762 -0.59902,0.54383 -1.1601,1.03247 -1.68093,1.46478 h 5.62573 v 1.16585 z m 13.33825,0.1989 c -0.74389,0 -1.41534,-0.13337 -2.01436,-0.39896 -0.59902,-0.27709 -1.08192,-0.6887 -1.44754,-1.23253 -0.35527,-0.54268 -0.54383,-1.21989 -0.56682,-2.03046 h 1.41534 c 0.0115,0.6657 0.24375,1.24288 0.69905,1.73152 0.4553,0.47715 1.09341,0.71515 1.91433,0.71515 0.82093,0 1.43719,-0.2265 1.84765,-0.6818 0.42196,-0.45531 0.63237,-1.00489 0.63237,-1.64875 0,-0.54268 -0.13338,-0.98763 -0.39897,-1.33141 -0.25524,-0.34377 -0.60477,-0.59902 -1.04857,-0.76573 -0.43346,-0.16672 -0.9106,-0.2495 -1.43144,-0.2495 h -0.86576 v -1.18194 h 0.86576 c 0.75424,0 1.34176,-0.17131 1.76372,-0.51624 0.43345,-0.34378 0.64961,-0.82667 0.64961,-1.44754 0,-0.52198 -0.17247,-0.94969 -0.51624,-1.28197 -0.33343,-0.34377 -0.83242,-0.51624 -1.49813,-0.51624 -0.64386,0 -1.1601,0.19431 -1.54756,0.58293 -0.38862,0.37712 -0.60592,0.85426 -0.64961,1.43144 h -1.41534 c 0.0333,-0.63237 0.20005,-1.19344 0.50014,-1.68094 0.31043,-0.48864 0.73239,-0.86576 1.26472,-1.1325 0.53234,-0.27709 1.1486,-0.41621 1.84765,-0.41621 0.75424,0 1.382,0.13337 1.881,0.40011 0.51048,0.26559 0.89335,0.62087 1.1486,1.06467 0.26674,0.4438 0.39896,0.93245 0.39896,1.46478 0,0.58867 -0.15982,1.12676 -0.48175,1.6154 -0.32193,0.47715 -0.80482,0.79908 -1.44868,0.96464 0.68755,0.14487 1.26013,0.47255 1.71428,0.98304 0.4553,0.51049 0.68295,1.18194 0.68295,2.01321 0,0.64386 -0.14947,1.23828 -0.44955,1.78212 -0.28859,0.53233 -0.7209,0.96004 -1.29807,1.28082 -0.57718,0.32193 -1.29347,0.48289 -2.14774,0.48289 z m 11.43427,-0.1989 v -2.49726 h -5.90971 v -1.08192 l 5.66022,-8.07355 h 1.63034 v 7.92294 h 1.73153 v 1.23253 h -1.73153 v 2.49726 z m -4.361,-3.72979 h 4.42769 v -6.37537 z"
     fill="#ffffff"
     id="path75"
     style="stroke-width:1.14975" />
  <path
     d="m 130.13115,302.07737 4.29432,-11.65272 h 1.48088 l 4.27822,11.65272 h -1.48088 l -1.06581,-2.99625 h -4.96003 l -1.08191,2.99625 z m 2.96291,-4.12876 h 4.12761 l -2.06381,-5.7591 z m 8.82319,4.12876 v -11.65272 h 3.76198 c 0.90946,0 1.65334,0.14946 2.23052,0.44955 0.57717,0.30008 1.00488,0.71054 1.28197,1.23138 0.27709,0.52199 0.41621,1.09916 0.41621,1.73153 0,0.73239 -0.20006,1.39234 -0.59902,1.98102 -0.38862,0.58867 -0.99913,1.00373 -1.83155,1.24862 l 2.5467,5.01062 h -1.6476 l -2.36388,-4.81056 h -0.10003 -2.29721 v 4.81056 z m 1.39809,-5.90972 h 2.26386 c 0.89911,0 1.55332,-0.21615 1.96493,-0.64961 0.41046,-0.43231 0.61511,-0.98764 0.61511,-1.66369 0,-0.6887 -0.20465,-1.23253 -0.61511,-1.63149 -0.40012,-0.41047 -1.06007,-0.61627 -1.98102,-0.61627 h -2.24777 z m 16.58631,6.10863 c -0.85427,0 -1.59816,-0.15522 -2.23052,-0.46565 -0.63236,-0.31044 -1.12101,-0.74389 -1.46478,-1.29807 -0.34378,-0.55533 -0.51624,-1.19919 -0.51624,-1.93158 h 1.46478 c 0,0.4553 0.10578,0.87726 0.31733,1.26587 0.21041,0.37712 0.51509,0.6818 0.91521,0.9152 0.41046,0.22191 0.9152,0.33343 1.51422,0.33343 0.78873,0 1.39809,-0.18971 1.83155,-0.56683 0.43231,-0.37711 0.64961,-0.84851 0.64961,-1.41419 0,-0.4668 -0.10003,-0.83817 -0.30008,-1.11526 -0.20006,-0.28858 -0.4714,-0.52198 -0.81518,-0.69905 -0.33343,-0.17821 -0.72204,-0.33342 -1.16585,-0.46679 -0.4323,-0.13338 -0.8876,-0.28284 -1.36475,-0.44956 -0.8991,-0.31043 -1.56481,-0.6933 -1.99712,-1.1486 -0.43345,-0.46565 -0.64961,-1.07042 -0.64961,-1.8143 -0.0115,-0.62087 0.13338,-1.17045 0.43231,-1.6476 0.30009,-0.48864 0.72204,-0.86576 1.26588,-1.1325 0.55418,-0.27709 1.20953,-0.41621 1.96377,-0.41621 0.74389,0 1.38775,0.13912 1.93043,0.41621 0.55533,0.27824 0.98304,0.6611 1.28197,1.1486 0.31159,0.48864 0.47255,1.04397 0.4829,1.66484 h -1.46478 c 0,-0.32193 -0.0828,-0.63811 -0.2495,-0.94855 -0.16671,-0.32193 -0.42196,-0.58292 -0.76573,-0.78298 -0.33343,-0.1989 -0.75424,-0.29893 -1.26473,-0.29893 -0.63351,-0.0115 -1.15435,0.14947 -1.56481,0.48289 -0.40011,0.33228 -0.60017,0.79333 -0.60017,1.38085 0,0.50015 0.13912,0.88301 0.41621,1.14861 0.28859,0.26674 0.6887,0.48864 1.19919,0.6657 0.51049,0.16671 1.09801,0.36102 1.76372,0.58292 0.55533,0.20006 1.05432,0.43346 1.49927,0.69905 0.44381,0.26675 0.78758,0.61052 1.03133,1.03248 0.25524,0.42196 0.38287,0.96004 0.38287,1.61425 0,0.55533 -0.14372,1.08191 -0.43231,1.58206 -0.28859,0.48749 -0.72664,0.8876 -1.31531,1.19804 -0.57718,0.31043 -1.30382,0.46565 -2.18108,0.46565 z m 5.82808,-0.19891 v -11.985 h 1.39925 v 5.14283 c 0.27709,-0.51049 0.67146,-0.9037 1.18194,-1.18194 0.51049,-0.28859 1.06467,-0.43231 1.66369,-0.43231 0.9543,0 1.72003,0.29894 2.29721,0.89911 0.57717,0.58752 0.86576,1.49812 0.86576,2.72951 v 4.8278 h -1.38085 v -4.67834 c 0,-1.72002 -0.69445,-2.58004 -2.08105,-2.58004 -0.72204,0 -1.32681,0.261 -1.81431,0.78298 -0.48864,0.51049 -0.73239,1.24288 -0.73239,2.19718 v 4.27822 z m 12.27359,0.19891 c -0.6887,0 -1.26012,-0.11613 -1.71543,-0.34953 -0.45415,-0.23225 -0.79332,-0.54383 -1.01523,-0.9313 -0.2219,-0.38861 -0.33227,-0.81057 -0.33227,-1.26587 0,-0.84277 0.32193,-1.49238 0.96464,-1.94768 0.64386,-0.45415 1.52112,-0.6818 2.63063,-0.6818 h 2.23051 v -0.10003 c 0,-0.72089 -0.18856,-1.26473 -0.56567,-1.6315 -0.37712,-0.37712 -0.88301,-0.56567 -1.51538,-0.56567 -0.54383,0 -1.01522,0.13797 -1.41419,0.41621 -0.38861,0.26559 -0.63351,0.65995 -0.73239,1.18194 h -1.43259 c 0.0563,-0.60017 0.25525,-1.10491 0.60017,-1.51537 0.35527,-0.41046 0.79333,-0.7209 1.31417,-0.93245 0.52198,-0.2219 1.07731,-0.33228 1.66483,-0.33228 1.15435,0 2.02012,0.31043 2.59729,0.93245 0.58752,0.60937 0.88186,1.42569 0.88186,2.44667 v 5.0773 h -1.24863 l -0.0828,-1.48203 c -0.2334,0.4668 -0.57718,0.86576 -1.03248,1.19919 -0.4438,0.32078 -1.04282,0.48175 -1.79706,0.48175 z m 0.21616,-1.1808 c 0.53233,0 0.98763,-0.13912 1.36475,-0.41621 0.38862,-0.27824 0.68295,-0.63811 0.88186,-1.08306 0.20006,-0.44381 0.30008,-0.90946 0.30008,-1.3981 v -0.0161 h -2.11439 c -0.82092,0 -1.40384,0.14372 -1.74762,0.43231 -0.33228,0.27824 -0.49899,0.62776 -0.49899,1.04857 0,0.43346 0.15522,0.78298 0.46565,1.04972 0.32193,0.25525 0.77148,0.38287 1.34866,0.38287 z m 6.04309,0.98189 v -11.985 h 1.39809 v 7.20778 l 3.37912,-3.47914 h 1.71428 l -3.66196,3.72864 4.12761,4.52772 h -1.78097 l -3.77808,-4.27822 v 4.27822 z m 9.23709,-10.08791 c -0.27824,0 -0.51049,-0.0885 -0.7002,-0.26675 -0.17706,-0.18856 -0.26559,-0.42081 -0.26559,-0.69904 0,-0.2656 0.0885,-0.4875 0.26559,-0.66571 0.18971,-0.17706 0.42196,-0.26559 0.7002,-0.26559 0.26559,0 0.49325,0.0885 0.6818,0.26559 0.18856,0.17821 0.28284,0.40011 0.28284,0.66571 0,0.27823 -0.0943,0.51048 -0.28284,0.69904 -0.18855,0.17821 -0.41621,0.26675 -0.6818,0.26675 z m -0.7002,10.08791 v -8.25636 h 1.39925 v 8.25636 z m 3.83327,0 v -8.25636 h 1.26473 l 0.11727,1.58091 c 0.25525,-0.54384 0.64386,-0.97614 1.1647,-1.29807 0.52199,-0.32193 1.16585,-0.4829 1.93158,-0.4829 v 1.46478 h -0.38287 c -0.48864,0 -0.93819,0.0885 -1.34865,0.26675 -0.41046,0.16556 -0.73814,0.45415 -0.98189,0.86461 -0.2449,0.41161 -0.36677,0.97729 -0.36677,1.69818 v 4.1621 z"
     fill="#ffffff"
     id="path77"
     style="stroke-width:1.14975" />
  <path
     d="m 375.55808,303.86178 v -12.10457 l -2.25696,0.49899 v -1.15895 l 2.81689,-1.21874 h 1.13825 v 13.98327 z m 5.80854,0 5.5533,-12.54493 h -7.67114 v -1.43834 h 9.38887 v 1.25898 l -5.49351,12.72429 z m 6.83757,1.89709 5.01291,-17.15888 h 1.65794 l -5.01291,17.15888 z m 10.09941,-1.89709 v -12.10457 l -2.25696,0.49899 v -1.15895 l 2.81689,-1.21874 h 1.13825 v 13.98327 z m 4.42999,0 v -1.17849 c 0.94509,-0.74619 1.8373,-1.49813 2.67662,-2.25696 0.85196,-0.77264 1.60505,-1.53147 2.25696,-2.27766 0.66571,-0.74619 1.18539,-1.47858 1.55791,-2.19717 0.38632,-0.7186 0.57948,-1.4119 0.57948,-2.0776 0,-0.4921 -0.0862,-0.952 -0.25985,-1.37855 -0.15981,-0.42541 -0.42541,-0.76574 -0.79907,-1.01868 -0.37252,-0.2656 -0.87841,-0.39897 -1.51768,-0.39897 -0.61281,0 -1.1256,0.13912 -1.53836,0.41966 -0.41276,0.26559 -0.72549,0.62547 -0.9382,1.07847 -0.20005,0.453 -0.30008,0.9382 -0.30008,1.45788 h -1.6177 c 0,-0.91865 0.19316,-1.70393 0.57947,-2.35699 0.38517,-0.6657 0.91175,-1.17159 1.57746,-1.51767 0.66571,-0.34722 1.41879,-0.51968 2.25696,-0.51968 1.23828,0 2.25121,0.35297 3.03649,1.05892 0.79908,0.69215 1.19919,1.73037 1.19919,3.11582 0,0.82552 -0.20695,1.64414 -0.61971,2.45702 -0.41276,0.79907 -0.93935,1.57746 -1.57861,2.33744 -0.63926,0.74504 -1.32451,1.44409 -2.05691,2.09715 -0.71974,0.6519 -1.39119,1.23828 -2.01781,1.75796 h 6.75134 v 1.3981 z"
     fill="#ffffff"
     id="path79"
     style="stroke-width:1.14975" />
  <circle
     cx="473.37311"
     cy="295.13516"
     r="12.484567"
     fill="#58b3ff"
     id="circle81"
     style="stroke-width:1.14975" />
  <circle
     cx="455.06219"
     cy="295.13516"
     r="12.484567"
     fill="#4fbeff"
     id="circle83"
     style="stroke-width:1.14975" />
  <path
     d="M 502.21577,104.03511 V 49.386199 l -35.9711,15.218674 V 118.5621 Z"
     fill="#f7fa62"
     id="path85"
     style="stroke-width:1.14975" />
  <defs
     id="defs287">
    <filter
       id="filter0_dddddd_832_569"
       x="247.883"
       y="379.438"
       width="255.104"
       height="280.73"
       filterUnits="userSpaceOnUse"
       color-interpolation-filters="sRGB">
      <feFlood
         flood-opacity="0"
         result="BackgroundImageFix"
         id="feFlood87" />
      <feColorMatrix
         in="SourceAlpha"
         type="matrix"
         values="0 0 0 0 0 0 0 0 0 0 0 0 0 0 0 0 0 0 127 0"
         result="hardAlpha"
         id="feColorMatrix89" />
      <feOffset
         dy="2.22837"
         id="feOffset91" />
      <feGaussianBlur
         stdDeviation="1.89411"
         id="feGaussianBlur93" />
      <feColorMatrix
         type="matrix"
         values="0 0 0 0 0 0 0 0 0 0 0 0 0 0 0 0 0 0 0.01 0"
         id="feColorMatrix95" />
      <feBlend
         mode="normal"
         in2="BackgroundImageFix"
         result="effect1_dropShadow_832_569"
         id="feBlend97" />
      <feColorMatrix
         in="SourceAlpha"
         type="matrix"
         values="0 0 0 0 0 0 0 0 0 0 0 0 0 0 0 0 0 0 127 0"
         result="hardAlpha"
         id="feColorMatrix99" />
      <feOffset
         dy="9.80483"
         id="feOffset101" />
      <feGaussianBlur
         stdDeviation="3.92193"
         id="feGaussianBlur103" />
      <feColorMatrix
         type="matrix"
         values="0 0 0 0 0 0 0 0 0 0 0 0 0 0 0 0 0 0 0.0117778 0"
         id="feColorMatrix105" />
      <feBlend
         mode="normal"
         in2="effect1_dropShadow_832_569"
         result="effect2_dropShadow_832_569"
         id="feBlend107" />
      <feColorMatrix
         in="SourceAlpha"
         type="matrix"
         values="0 0 0 0 0 0 0 0 0 0 0 0 0 0 0 0 0 0 127 0"
         result="hardAlpha"
         id="feColorMatrix109" />
      <feOffset
         dy="24.0664"
         id="feOffset111" />
      <feGaussianBlur
         stdDeviation="7.82158"
         id="feGaussianBlur113" />
      <feColorMatrix
         type="matrix"
         values="0 0 0 0 0 0 0 0 0 0 0 0 0 0 0 0 0 0 0.015 0"
         id="feColorMatrix115" />
      <feBlend
         mode="normal"
         in2="effect2_dropShadow_832_569"
         result="effect3_dropShadow_832_569"
         id="feBlend117" />
      <feColorMatrix
         in="SourceAlpha"
         type="matrix"
         values="0 0 0 0 0 0 0 0 0 0 0 0 0 0 0 0 0 0 127 0"
         result="hardAlpha"
         id="feColorMatrix119" />
      <feOffset
         dy="46.3501"
         id="feOffset121" />
      <feGaussianBlur
         stdDeviation="15.3312"
         id="feGaussianBlur123" />
      <feColorMatrix
         type="matrix"
         values="0 0 0 0 0 0 0 0 0 0 0 0 0 0 0 0 0 0 0.0182222 0"
         id="feColorMatrix125" />
      <feBlend
         mode="normal"
         in2="effect3_dropShadow_832_569"
         result="effect4_dropShadow_832_569"
         id="feBlend127" />
      <feColorMatrix
         in="SourceAlpha"
         type="matrix"
         values="0 0 0 0 0 0 0 0 0 0 0 0 0 0 0 0 0 0 127 0"
         result="hardAlpha"
         id="feColorMatrix129" />
      <feOffset
         dy="77.9929"
         id="feOffset131" />
      <feGaussianBlur
         stdDeviation="28.1889"
         id="feGaussianBlur133" />
      <feColorMatrix
         type="matrix"
         values="0 0 0 0 0 0 0 0 0 0 0 0 0 0 0 0 0 0 0.0227778 0"
         id="feColorMatrix135" />
      <feBlend
         mode="normal"
         in2="effect4_dropShadow_832_569"
         result="effect5_dropShadow_832_569"
         id="feBlend137" />
      <feColorMatrix
         in="SourceAlpha"
         type="matrix"
         values="0 0 0 0 0 0 0 0 0 0 0 0 0 0 0 0 0 0 127 0"
         result="hardAlpha"
         id="feColorMatrix139" />
      <feOffset
         dy="120.332"
         id="feOffset141" />
      <feGaussianBlur
         stdDeviation="48.1328"
         id="feGaussianBlur143" />
      <feColorMatrix
         type="matrix"
         values="0 0 0 0 0 0 0 0 0 0 0 0 0 0 0 0 0 0 0.03 0"
         id="feColorMatrix145" />
      <feBlend
         mode="normal"
         in2="effect5_dropShadow_832_569"
         result="effect6_dropShadow_832_569"
         id="feBlend147" />
      <feBlend
         mode="normal"
         in="SourceGraphic"
         in2="effect6_dropShadow_832_569"
         result="shape"
         id="feBlend149" />
    </filter>
    <filter
       id="filter1_dddddd_832_569"
       x="334.522"
       y="379.438"
       width="255.104"
       height="280.73"
       filterUnits="userSpaceOnUse"
       color-interpolation-filters="sRGB">
      <feFlood
         flood-opacity="0"
         result="BackgroundImageFix"
         id="feFlood152" />
      <feColorMatrix
         in="SourceAlpha"
         type="matrix"
         values="0 0 0 0 0 0 0 0 0 0 0 0 0 0 0 0 0 0 127 0"
         result="hardAlpha"
         id="feColorMatrix154" />
      <feOffset
         dy="2.22837"
         id="feOffset156" />
      <feGaussianBlur
         stdDeviation="1.89411"
         id="feGaussianBlur158" />
      <feColorMatrix
         type="matrix"
         values="0 0 0 0 0 0 0 0 0 0 0 0 0 0 0 0 0 0 0.01 0"
         id="feColorMatrix160" />
      <feBlend
         mode="normal"
         in2="BackgroundImageFix"
         result="effect1_dropShadow_832_569"
         id="feBlend162" />
      <feColorMatrix
         in="SourceAlpha"
         type="matrix"
         values="0 0 0 0 0 0 0 0 0 0 0 0 0 0 0 0 0 0 127 0"
         result="hardAlpha"
         id="feColorMatrix164" />
      <feOffset
         dy="9.80483"
         id="feOffset166" />
      <feGaussianBlur
         stdDeviation="3.92193"
         id="feGaussianBlur168" />
      <feColorMatrix
         type="matrix"
         values="0 0 0 0 0 0 0 0 0 0 0 0 0 0 0 0 0 0 0.0117778 0"
         id="feColorMatrix170" />
      <feBlend
         mode="normal"
         in2="effect1_dropShadow_832_569"
         result="effect2_dropShadow_832_569"
         id="feBlend172" />
      <feColorMatrix
         in="SourceAlpha"
         type="matrix"
         values="0 0 0 0 0 0 0 0 0 0 0 0 0 0 0 0 0 0 127 0"
         result="hardAlpha"
         id="feColorMatrix174" />
      <feOffset
         dy="24.0664"
         id="feOffset176" />
      <feGaussianBlur
         stdDeviation="7.82158"
         id="feGaussianBlur178" />
      <feColorMatrix
         type="matrix"
         values="0 0 0 0 0 0 0 0 0 0 0 0 0 0 0 0 0 0 0.015 0"
         id="feColorMatrix180" />
      <feBlend
         mode="normal"
         in2="effect2_dropShadow_832_569"
         result="effect3_dropShadow_832_569"
         id="feBlend182" />
      <feColorMatrix
         in="SourceAlpha"
         type="matrix"
         values="0 0 0 0 0 0 0 0 0 0 0 0 0 0 0 0 0 0 127 0"
         result="hardAlpha"
         id="feColorMatrix184" />
      <feOffset
         dy="46.3501"
         id="feOffset186" />
      <feGaussianBlur
         stdDeviation="15.3312"
         id="feGaussianBlur188" />
      <feColorMatrix
         type="matrix"
         values="0 0 0 0 0 0 0 0 0 0 0 0 0 0 0 0 0 0 0.0182222 0"
         id="feColorMatrix190" />
      <feBlend
         mode="normal"
         in2="effect3_dropShadow_832_569"
         result="effect4_dropShadow_832_569"
         id="feBlend192" />
      <feColorMatrix
         in="SourceAlpha"
         type="matrix"
         values="0 0 0 0 0 0 0 0 0 0 0 0 0 0 0 0 0 0 127 0"
         result="hardAlpha"
         id="feColorMatrix194" />
      <feOffset
         dy="77.9929"
         id="feOffset196" />
      <feGaussianBlur
         stdDeviation="28.1889"
         id="feGaussianBlur198" />
      <feColorMatrix
         type="matrix"
         values="0 0 0 0 0 0 0 0 0 0 0 0 0 0 0 0 0 0 0.0227778 0"
         id="feColorMatrix200" />
      <feBlend
         mode="normal"
         in2="effect4_dropShadow_832_569"
         result="effect5_dropShadow_832_569"
         id="feBlend202" />
      <feColorMatrix
         in="SourceAlpha"
         type="matrix"
         values="0 0 0 0 0 0 0 0 0 0 0 0 0 0 0 0 0 0 127 0"
         result="hardAlpha"
         id="feColorMatrix204" />
      <feOffset
         dy="120.332"
         id="feOffset206" />
      <feGaussianBlur
         stdDeviation="48.1328"
         id="feGaussianBlur208" />
      <feColorMatrix
         type="matrix"
         values="0 0 0 0 0 0 0 0 0 0 0 0 0 0 0 0 0 0 0.03 0"
         id="feColorMatrix210" />
      <feBlend
         mode="normal"
         in2="effect5_dropShadow_832_569"
         result="effect6_dropShadow_832_569"
         id="feBlend212" />
      <feBlend
         mode="normal"
         in="SourceGraphic"
         in2="effect6_dropShadow_832_569"
         result="shape"
         id="feBlend214" />
    </filter>
    <filter
       id="filter2_dddddd_832_569"
       x="421.162"
       y="379.438"
       width="255.104"
       height="280.73"
       filterUnits="userSpaceOnUse"
       color-interpolation-filters="sRGB">
      <feFlood
         flood-opacity="0"
         result="BackgroundImageFix"
         id="feFlood217" />
      <feColorMatrix
         in="SourceAlpha"
         type="matrix"
         values="0 0 0 0 0 0 0 0 0 0 0 0 0 0 0 0 0 0 127 0"
         result="hardAlpha"
         id="feColorMatrix219" />
      <feOffset
         dy="2.22837"
         id="feOffset221" />
      <feGaussianBlur
         stdDeviation="1.89411"
         id="feGaussianBlur223" />
      <feColorMatrix
         type="matrix"
         values="0 0 0 0 0 0 0 0 0 0 0 0 0 0 0 0 0 0 0.01 0"
         id="feColorMatrix225" />
      <feBlend
         mode="normal"
         in2="BackgroundImageFix"
         result="effect1_dropShadow_832_569"
         id="feBlend227" />
      <feColorMatrix
         in="SourceAlpha"
         type="matrix"
         values="0 0 0 0 0 0 0 0 0 0 0 0 0 0 0 0 0 0 127 0"
         result="hardAlpha"
         id="feColorMatrix229" />
      <feOffset
         dy="9.80483"
         id="feOffset231" />
      <feGaussianBlur
         stdDeviation="3.92193"
         id="feGaussianBlur233" />
      <feColorMatrix
         type="matrix"
         values="0 0 0 0 0 0 0 0 0 0 0 0 0 0 0 0 0 0 0.0117778 0"
         id="feColorMatrix235" />
      <feBlend
         mode="normal"
         in2="effect1_dropShadow_832_569"
         result="effect2_dropShadow_832_569"
         id="feBlend237" />
      <feColorMatrix
         in="SourceAlpha"
         type="matrix"
         values="0 0 0 0 0 0 0 0 0 0 0 0 0 0 0 0 0 0 127 0"
         result="hardAlpha"
         id="feColorMatrix239" />
      <feOffset
         dy="24.0664"
         id="feOffset241" />
      <feGaussianBlur
         stdDeviation="7.82158"
         id="feGaussianBlur243" />
      <feColorMatrix
         type="matrix"
         values="0 0 0 0 0 0 0 0 0 0 0 0 0 0 0 0 0 0 0.015 0"
         id="feColorMatrix245" />
      <feBlend
         mode="normal"
         in2="effect2_dropShadow_832_569"
         result="effect3_dropShadow_832_569"
         id="feBlend247" />
      <feColorMatrix
         in="SourceAlpha"
         type="matrix"
         values="0 0 0 0 0 0 0 0 0 0 0 0 0 0 0 0 0 0 127 0"
         result="hardAlpha"
         id="feColorMatrix249" />
      <feOffset
         dy="46.3501"
         id="feOffset251" />
      <feGaussianBlur
         stdDeviation="15.3312"
         id="feGaussianBlur253" />
      <feColorMatrix
         type="matrix"
         values="0 0 0 0 0 0 0 0 0 0 0 0 0 0 0 0 0 0 0.0182222 0"
         id="feColorMatrix255" />
      <feBlend
         mode="normal"
         in2="effect3_dropShadow_832_569"
         result="effect4_dropShadow_832_569"
         id="feBlend257" />
      <feColorMatrix
         in="SourceAlpha"
         type="matrix"
         values="0 0 0 0 0 0 0 0 0 0 0 0 0 0 0 0 0 0 127 0"
         result="hardAlpha"
         id="feColorMatrix259" />
      <feOffset
         dy="77.9929"
         id="feOffset261" />
      <feGaussianBlur
         stdDeviation="28.1889"
         id="feGaussianBlur263" />
      <feColorMatrix
         type="matrix"
         values="0 0 0 0 0 0 0 0 0 0 0 0 0 0 0 0 0 0 0.0227778 0"
         id="feColorMatrix265" />
      <feBlend
         mode="normal"
         in2="effect4_dropShadow_832_569"
         result="effect5_dropShadow_832_569"
         id="feBlend267" />
      <feColorMatrix
         in="SourceAlpha"
         type="matrix"
         values="0 0 0 0 0 0 0 0 0 0 0 0 0 0 0 0 0 0 127 0"
         result="hardAlpha"
         id="feColorMatrix269" />
      <feOffset
         dy="120.332"
         id="feOffset271" />
      <feGaussianBlur
         stdDeviation="48.1328"
         id="feGaussianBlur273" />
      <feColorMatrix
         type="matrix"
         values="0 0 0 0 0 0 0 0 0 0 0 0 0 0 0 0 0 0 0.03 0"
         id="feColorMatrix275" />
      <feBlend
         mode="normal"
         in2="effect5_dropShadow_832_569"
         result="effect6_dropShadow_832_569"
         id="feBlend277" />
      <feBlend
         mode="normal"
         in="SourceGraphic"
         in2="effect6_dropShadow_832_569"
         result="shape"
         id="feBlend279" />
    </filter>
    <linearGradient
       id="paint0_linear_832_569"
       x1="267.662"
       y1="27"
       x2="267.662"
       y2="258.649"
       gradientUnits="userSpaceOnUse"
       gradientTransform="matrix(1.1497507,0,0,1.1497507,7.3120409e-5,48.52515)">
      <stop
         stop-color="#2B00D4"
         id="stop282" />
      <stop
         offset="1"
         stop-color="#2100A2"
         id="stop284" />
    </linearGradient>
  </defs>
</svg>
