<svg width="772" height="642" fill="none" xmlns="http://www.w3.org/2000/svg"><path d="M0 165.931l411.368 109.593v266.834L0 432.766z" fill="#ebece8"/><rect x="174.712" y="294.584" width="555.904" height="247.774" fill="#c6d3da" rx="13.361"/><path fill="#fff" d="M209.655 381.94h55.59v55.59h-55.59z"/><rect x="281.129" y="391.469" width="111.181" height="14.295" rx="2.311" fill="#fff"/><rect x="281.129" y="416.883" width="168.36" height="9.53" rx="2.311" fill="#fff"/><rect x="281.129" y="458.178" width="122.299" height="11.118" rx="2.311" fill="#fff"/><rect x="412.957" y="458.178" width="246.186" height="11.118" rx="2.311" fill="#fff"/><path d="M724.262 584.448v45.265H609.905M131.828 341.438v61.943H65.119v226.332h429.634m0-45.265v45.265m0 0h115.152m0-45.265v45.265" stroke="#838383" stroke-width="1.588" stroke-dasharray="6.02 6.02"/><g filter="url(#prefix__filter0_dddddd_906_569)" transform="matrix(1.31993 0 0 1.31993 0 -.24)"><path fill="#fff" d="M344.149 380.998h62.573v62.573h-62.573z"/></g><path d="M502.576 543.878c1.61-.949 2.765-2.55 3.036-4.514.38-2.757-1.089-5.446-3.493-6.88l.295-2.13c.124-.908-.55-1.784-1.508-1.957-.957-.172-1.836.425-1.961 1.334l-.227 1.646-3.468-.624.228-1.646c.125-.908-.55-1.784-1.507-1.957-.956-.172-1.836.425-1.961 1.334l-.227 1.646-3.467-.624c-.957-.172-1.835.425-1.96 1.334-.126.908.549 1.786 1.506 1.958l1.734.311-1.135 8.23-1.135 8.23-1.735-.313c-.957-.172-1.834.426-1.96 1.334-.125.91.55 1.786 1.506 1.958l3.468.624-.227 1.646c-.126.908.549 1.786 1.507 1.957.957.173 1.835-.425 1.96-1.334l.227-1.646 3.468.624-.227 1.646c-.126.91.55 1.786 1.507 1.958.957.173 1.835-.425 1.96-1.335l.294-2.127c2.674-.522 4.796-2.565 5.176-5.322.272-1.964-.398-3.894-1.674-5.36zm-9.513-10.145l6.068 1.092c1.913.343 3.264 2.1 3.013 3.915-.249 1.815-2.008 3.012-3.921 2.669l-6.068-1.092zm3.798 17.55l-6.068-1.091.908-6.584 6.068 1.091c1.912.345 3.264 2.102 3.013 3.917-.25 1.815-2.009 3.012-3.921 2.667z" fill="#f9896b"/><g filter="url(#prefix__filter1_dddddd_906_569)" transform="matrix(1.31993 0 0 1.31993 0 -.24)"><path fill="#fff" d="M430.788 380.998h62.573v62.573h-62.573z"/></g><path d="M626.913 545.846c-2.035 8.177-9.48 13.994-18.252 13.994-8.81 0-16.193-6.161-18.145-14.372 2.347 0 4.54.012 5.56.012.48 0 .574.008.602.006.767-.037 1.728-.29 2.366-1.846l2.437-6.372 5.41 13.027c.487 1.04 1.3.965 1.784.965h.046c.945 0 1.355-.331 1.716-1.016l6.11-12.879 2.086 5.804.127.281c.441.968.758 1.922 1.85 2.047.224.026 2.836-.02 6.356-.02 0 0 0 .023-.053.37z" fill="#3db5e6"/><path d="M627.511 541.03v.342h-5.624l-3.277-9.158c-.293-.68-.732-1.702-2.01-1.702-.783 0-1.49.646-1.89 1.713l-5.944 13.765-5.721-13.682c-.56-1.216-.946-1.787-2.067-1.787-.76 0-1.319.28-1.926 1.72l-3.396 9.267-5.64-.006a9.979 9.979 0 01-.007-.424c0-10.3 8.351-18.627 18.653-18.627 10.302 0 18.85 8.276 18.85 18.578z" fill="#d8292f"/><g filter="url(#prefix__filter2_dddddd_906_569)" transform="matrix(1.31993 0 0 1.31993 0 -.24)"><path fill="#fff" d="M517.427 380.998H580v62.573h-62.573z"/></g><path d="M708.594 548.46a3.767 3.767 0 01-3.282-1.905 3.643 3.643 0 01.103-3.75l6.762-10.618a3.77 3.77 0 013.337-1.814 3.763 3.763 0 013.23 1.992 3.641 3.641 0 01-.203 3.744l-6.758 10.618a3.766 3.766 0 01-3.189 1.733z" fill="#f62b54"/><path d="M720.193 548.46a3.755 3.755 0 01-3.278-1.9 3.633 3.633 0 01.103-3.741l6.749-10.594a3.763 3.763 0 013.34-1.852c1.376.03 2.622.8 3.253 2.002a3.633 3.633 0 01-.244 3.762l-6.748 10.594a3.76 3.76 0 01-3.175 1.729z" fill="#fc0"/><path d="M731.53 548.55c1.924 0 3.483-1.526 3.483-3.408 0-1.883-1.559-3.408-3.482-3.408-1.922 0-3.48 1.525-3.48 3.408 0 1.882 1.558 3.408 3.48 3.408z" fill="#00ca72"/><rect x="102.955" y="35.398" width="500.682" height="305.76" rx="13.361" fill="url(#prefix__paint0_linear_906_569)"/><g mask="url(#prefix__mask15250)" transform="matrix(1.1554 0 0 1.1554 0 -.116)"><path d="M309.96 154.395c-78.068-52.046-87.746-108.36-84.945-131.927H533.48v297.715H430.934c-2.983-23.533-25.793-57.922-44.951-88.08-19.213-30.243-46.21-57.833-76.023-77.708z" fill="#491fef"/><path d="M492.13 312.739c46.312-74.097-78.286-224.388-146.374-290.27L319.292-3.169h251.403v315.907c-45.484 30.874-124.875 74.098-78.564 0z" fill="#d9f9fd"/><path style="mix-blend-mode:normal" d="M533.48-7.303l-190.207 19.02c67.538 45.76 202.28 149.188 200.957 196.822-1.322 47.635 18.196-50.72 28.12-105.853z" class="prefix__UnoptimicedTransforms" fill="#00e4ff"/></g><path d="M518.534 104.267l4.228-18.564h4.229l-3.197 18.564zM542.46 85.91c-1.03-.413-2.68-.825-4.743-.825-5.157 0-8.87 2.578-8.87 6.29 0 2.785 2.579 4.23 4.642 5.157 2.062.929 2.68 1.547 2.68 2.372 0 1.238-1.65 1.857-3.093 1.857-2.063 0-3.197-.31-4.95-1.031l-.722-.31-.722 4.229c1.237.515 3.506 1.03 5.878 1.03 5.467 0 9.075-2.577 9.075-6.496 0-2.166-1.34-3.816-4.433-5.157-1.857-.928-2.991-1.444-2.991-2.372 0-.825.928-1.65 2.99-1.65 1.754 0 2.99.31 3.92.722l.514.206z" fill="#000"/><path d="M542.46 85.91c-1.03-.413-2.68-.825-4.743-.825-5.157 0-7.941 2.578-7.941 6.29 0 2.785 1.65 4.23 3.713 5.157 2.062.929 2.68 1.547 2.68 2.372 0 1.238-1.65 1.857-3.093 1.857-2.063 0-3.197-.31-4.95-1.031l-.722-.31-.722 4.229c1.237.515 3.506 1.03 5.878 1.03 5.467 0 9.075-2.577 9.075-6.496 0-2.166-1.34-3.816-4.433-5.157-1.857-.928-2.991-1.444-2.991-2.372 0-.825.928-1.65 2.99-1.65 1.754 0 2.99.31 3.92.722l.514.206z" fill="#000"/><path fill-rule="evenodd" clip-rule="evenodd" d="M549.885 87.044c.516-1.237 1.444-1.34 2.682-1.34h2.784l4.332 18.563h-4.951l-.618-3.094h-6.601l-1.03 3.094h-5.57zm1.134 5.57s-1.651 4.434-2.063 5.465v.103h4.332c-.207-1.03-1.238-5.672-1.238-5.672l-.31-1.753c-.31.722-.721 1.856-.721 1.856z" fill="#000"/><path d="M509.048 98.698l-.516-2.681c-.928-3.094-3.92-6.497-7.22-8.148l4.642 16.502h5.569l8.353-18.564h-4.538z" fill="#000"/><path d="M494.71 85.703l.929.207c6.6 1.547 11.137 5.466 12.89 10.107l-1.856-8.767c-.309-1.237-1.238-1.547-2.372-1.547z" fill="#ffbc00"/><path d="M494.71 85.703c6.6 1.547 12.066 5.57 13.819 10.21l-1.753-7.322c-.309-1.238-1.34-1.96-2.475-1.96z" fill="#f7981d"/><path d="M494.71 85.703c6.6 1.547 12.066 5.57 13.819 10.21l-1.237-4.022c-.31-1.237-.722-2.475-2.166-2.99z" fill="#ed7c00"/><path d="M152.098 191.607V177.71l-2.592.572v-1.33l3.234-1.398h1.306v16.052zm5.084 0v-1.353a58.48 58.48 0 003.073-2.591 31.867 31.867 0 002.593-2.615c.764-.855 1.36-1.696 1.788-2.522.444-.825.665-1.62.665-2.386 0-.564-.1-1.092-.298-1.58-.183-.49-.49-.88-.917-1.17-.428-.306-1.01-.46-1.744-.46-.702 0-1.29.161-1.765.482a2.924 2.924 0 00-1.078 1.238 4.097 4.097 0 00-.343 1.674h-1.859c0-1.055.222-1.956.666-2.706a4.418 4.418 0 011.812-1.742c.764-.397 1.627-.597 2.59-.597 1.422 0 2.584.405 3.487 1.216.917.794 1.375 1.988 1.375 3.577 0 .948-.236 1.889-.71 2.82a14.584 14.584 0 01-1.812 2.684c-.734.857-1.52 1.66-2.363 2.408a69.513 69.513 0 01-2.315 2.018h7.75v1.605zm18.375.276c-1.024 0-1.948-.184-2.774-.55a4.783 4.783 0 01-1.995-1.698c-.49-.749-.75-1.682-.78-2.797h1.95c.014.916.335 1.712.962 2.384.627.657 1.506.986 2.637.986s1.98-.313 2.546-.94c.581-.627.872-1.383.872-2.27 0-.749-.184-1.361-.55-1.835-.352-.474-.834-.825-1.446-1.055a5.436 5.436 0 00-1.972-.344h-1.192v-1.628h1.192c1.04 0 1.85-.237 2.431-.711.597-.474.895-1.14.895-1.995 0-.719-.238-1.306-.711-1.766-.46-.474-1.147-.711-2.065-.711-.885 0-1.597.268-2.131.804-.536.518-.835 1.176-.895 1.972h-1.95c.046-.871.276-1.644.688-2.317a4.306 4.306 0 011.743-1.559c.734-.382 1.583-.574 2.545-.574 1.04 0 1.904.184 2.593.55.702.368 1.23.857 1.58 1.468.368.611.551 1.285.551 2.019 0 .81-.222 1.552-.665 2.224-.442.657-1.107 1.1-1.994 1.33.947.198 1.735.65 2.361 1.353.627.704.941 1.628.941 2.775 0 .887-.207 1.705-.619 2.453-.397.734-.994 1.323-1.788 1.766-.796.444-1.782.666-2.96.666zm15.752-.276v-3.44h-8.141v-1.49l7.798-11.122h2.247v10.916h2.385v1.696h-2.385v3.44zm-6.008-5.136h6.1v-8.784zm60.564 5.412c-1.101 0-2.057-.2-2.867-.597-.81-.397-1.46-.94-1.949-1.629a5.36 5.36 0 01-.872-2.384h1.88c.184.886.612 1.605 1.285 2.156.673.534 1.522.802 2.546.802.765 0 1.422-.175 1.972-.528a3.56 3.56 0 001.26-1.467c.307-.612.46-1.291.46-2.041 0-1.192-.336-2.155-1.01-2.89-.671-.733-1.544-1.1-2.613-1.1-.887 0-1.643.2-2.27.596a3.56 3.56 0 00-1.377 1.56h-1.835l1.377-8.806h8.416v1.674h-6.926l-.94 4.885c.367-.444.872-.81 1.513-1.101.657-.29 1.407-.436 2.248-.436 1.054 0 1.972.245 2.752.733a5.085 5.085 0 011.857 1.996c.444.84.665 1.796.665 2.867a6.176 6.176 0 01-.665 2.843 5.01 5.01 0 01-1.903 2.087c-.825.52-1.827.78-3.004.78zm14.362 0c-1.162 0-2.14-.214-2.935-.643a5.498 5.498 0 01-1.927-1.765 8.236 8.236 0 01-1.054-2.454c-.214-.917-.321-1.85-.321-2.798 0-1.774.244-3.325.734-4.655.488-1.345 1.192-2.393 2.11-3.142.932-.764 2.056-1.147 3.37-1.147 1.009 0 1.873.2 2.591.597.72.397 1.285.932 1.698 1.605a5.24 5.24 0 01.802 2.201h-1.788c-.17-.87-.543-1.544-1.125-2.018-.58-.474-1.315-.711-2.2-.711-1.208 0-2.226.574-3.05 1.721-.811 1.131-1.247 2.904-1.307 5.32.367-.719.947-1.338 1.742-1.858.81-.534 1.78-.802 2.912-.802.917 0 1.774.214 2.568.641a5.221 5.221 0 011.972 1.812c.506.765.758 1.666.758 2.706a5.4 5.4 0 01-.665 2.591c-.444.827-1.085 1.498-1.926 2.019-.826.52-1.812.78-2.96.78zm-.138-1.698c.718 0 1.361-.153 1.927-.458a3.417 3.417 0 001.33-1.262c.32-.55.481-1.177.481-1.88 0-1.086-.359-1.949-1.078-2.592-.702-.657-1.59-.986-2.66-.986-.718 0-1.36.17-1.925.505a3.696 3.696 0 00-1.353 1.308 3.477 3.477 0 00-.482 1.788c0 .688.16 1.307.482 1.857.335.535.786.956 1.353 1.262.565.305 1.207.458 1.925.458zm9.529 1.422l6.375-14.4h-8.805v-1.652h10.777V177l-6.306 14.608zm15.814.276c-1.055 0-2.002-.192-2.843-.575-.84-.397-1.506-.94-1.996-1.627-.474-.704-.71-1.514-.71-2.431 0-.978.283-1.858.847-2.638a4.16 4.16 0 012.294-1.558c-.87-.29-1.544-.757-2.018-1.4-.474-.641-.711-1.345-.711-2.109 0-.78.207-1.491.619-2.133.413-.657 1.002-1.177 1.766-1.559.764-.382 1.682-.574 2.752-.574 1.07 0 1.988.192 2.752.574.764.382 1.353.902 1.766 1.56.412.64.62 1.352.62 2.132 0 .749-.238 1.452-.712 2.11-.474.642-1.147 1.108-2.018 1.399.947.26 1.705.78 2.27 1.558.58.78.871 1.66.871 2.638 0 .917-.244 1.727-.734 2.43-.474.689-1.131 1.231-1.972 1.628-.84.383-1.788.575-2.843.575zm0-9.517c.978 0 1.75-.246 2.316-.734.581-.506.872-1.163.872-1.972 0-.903-.283-1.583-.85-2.042-.564-.458-1.344-.688-2.338-.688s-1.774.23-2.339.688c-.55.46-.826 1.14-.826 2.042 0 .81.284 1.466.849 1.972.566.488 1.338.734 2.316.734zm0 7.82c1.208 0 2.11-.275 2.706-.826.611-.566.917-1.308.917-2.225 0-1.039-.328-1.827-.986-2.362-.657-.534-1.536-.802-2.637-.802-1.1 0-1.98.268-2.637.802-.658.535-.986 1.323-.986 2.362 0 .917.298 1.659.895 2.225.61.55 1.52.825 2.728.825zm50.41 1.697c-1.009 0-1.872-.2-2.592-.597a4.776 4.776 0 01-1.72-1.583 5.346 5.346 0 01-.756-2.224h1.789c.153.871.52 1.545 1.1 2.018.581.474 1.315.71 2.202.71 1.222 0 2.24-.564 3.05-1.696.81-1.147 1.247-2.927 1.307-5.343-.367.718-.955 1.345-1.766 1.88-.794.52-1.758.78-2.89.78a5.428 5.428 0 01-2.568-.641 5.28 5.28 0 01-1.972-1.79c-.504-.779-.756-1.688-.756-2.729a5.4 5.4 0 01.665-2.59 5.518 5.518 0 011.926-2.019c.825-.52 1.811-.78 2.958-.78 1.162 0 2.14.222 2.935.665a5.099 5.099 0 011.904 1.743c.49.734.84 1.56 1.054 2.477.23.902.345 1.827.345 2.775 0 1.774-.246 3.333-.734 4.678-.49 1.33-1.2 2.377-2.133 3.141-.917.75-2.033 1.125-3.347 1.125zm.114-7.729c.72 0 1.361-.16 1.927-.481a3.898 3.898 0 001.353-1.33c.337-.551.505-1.147.505-1.79 0-.687-.168-1.298-.505-1.834a3.532 3.532 0 00-1.353-1.284c-.566-.305-1.207-.458-1.927-.458-.718 0-1.36.153-1.925.458a3.366 3.366 0 00-1.331 1.284c-.32.536-.482 1.155-.482 1.858 0 1.085.353 1.957 1.056 2.614.718.643 1.613.963 2.682.963zm15.294 7.729c-1.423 0-2.653-.345-3.693-1.033-1.024-.703-1.81-1.673-2.361-2.913-.55-1.252-.826-2.706-.826-4.357 0-1.65.275-3.095.826-4.333.55-1.254 1.337-2.224 2.361-2.913 1.04-.702 2.27-1.055 3.693-1.055 1.422 0 2.644.353 3.668 1.055 1.025.689 1.813 1.659 2.363 2.913.55 1.238.825 2.683.825 4.333 0 1.651-.275 3.105-.825 4.357-.55 1.24-1.338 2.21-2.363 2.913-1.024.688-2.246 1.033-3.668 1.033zm0-1.698c.932 0 1.765-.26 2.499-.78.75-.535 1.33-1.29 1.744-2.27.427-.993.641-2.178.641-3.555 0-1.375-.214-2.553-.641-3.53-.414-.979-.994-1.728-1.744-2.248a4.138 4.138 0 00-2.499-.803c-.949 0-1.79.268-2.523.803-.733.52-1.315 1.27-1.743 2.247-.427.978-.641 2.156-.641 3.531 0 1.377.214 2.562.641 3.555.428.98 1.01 1.735 1.743 2.27.733.52 1.574.78 2.523.78zm11.222 1.422V177.71l-2.592.572v-1.33l3.234-1.398h1.307v16.052zm5.085 0v-1.353a58.476 58.476 0 003.072-2.591 31.867 31.867 0 002.593-2.615c.764-.855 1.36-1.696 1.788-2.522.444-.825.666-1.62.666-2.386 0-.564-.1-1.092-.299-1.58-.183-.49-.49-.88-.917-1.17-.429-.306-1.01-.46-1.744-.46-.702 0-1.29.161-1.764.482a2.924 2.924 0 00-1.079 1.238 4.098 4.098 0 00-.344 1.674h-1.857c0-1.055.221-1.956.665-2.706a4.415 4.415 0 011.81-1.742c.766-.397 1.63-.597 2.593-.597 1.422 0 2.583.405 3.486 1.216.916.794 1.375 1.988 1.375 3.577 0 .948-.237 1.889-.711 2.82a14.51 14.51 0 01-1.811 2.684 24.96 24.96 0 01-2.363 2.408 69.483 69.483 0 01-2.315 2.018h7.75v1.605zm60.858.276c-1.025 0-1.95-.184-2.776-.55a4.783 4.783 0 01-1.995-1.698c-.49-.749-.75-1.682-.78-2.797h1.95c.014.916.336 1.712.963 2.384.626.657 1.505.986 2.638.986 1.13 0 1.978-.313 2.544-.94.581-.627.872-1.383.872-2.27 0-.749-.184-1.361-.55-1.835-.352-.474-.834-.825-1.445-1.055a5.446 5.446 0 00-1.972-.344h-1.193v-1.628h1.193c1.039 0 1.85-.237 2.43-.711.597-.474.895-1.14.895-1.995 0-.719-.237-1.306-.711-1.766-.458-.474-1.147-.711-2.063-.711-.887 0-1.599.268-2.133.804-.536.518-.833 1.176-.895 1.972h-1.95c.046-.871.276-1.644.69-2.317a4.294 4.294 0 011.742-1.559c.733-.382 1.582-.574 2.546-.574 1.038 0 1.903.184 2.59.55.704.368 1.23.857 1.583 1.468.367.611.55 1.285.55 2.019 0 .81-.221 1.552-.665 2.224-.443.657-1.108 1.1-1.995 1.33.947.198 1.735.65 2.362 1.353.627.704.94 1.628.94 2.775 0 .887-.206 1.705-.619 2.453-.397.734-.994 1.323-1.788 1.766-.796.444-1.782.666-2.958.666zm13.94 0c-1.101 0-2.057-.2-2.867-.597-.81-.397-1.46-.94-1.95-1.629a5.343 5.343 0 01-.871-2.384h1.88c.184.886.612 1.605 1.285 2.156.672.534 1.52.802 2.545.802.764 0 1.421-.175 1.972-.528.55-.367.971-.855 1.262-1.467.306-.612.458-1.291.458-2.041 0-1.192-.336-2.155-1.009-2.89-.673-.733-1.544-1.1-2.615-1.1-.885 0-1.643.2-2.27.596a3.557 3.557 0 00-1.375 1.56h-1.835l1.376-8.806h8.417v1.674h-6.926l-.941 4.885c.367-.444.872-.81 1.514-1.101.657-.29 1.407-.436 2.248-.436 1.054 0 1.972.245 2.75.733a5.079 5.079 0 011.859 1.996c.443.84.665 1.796.665 2.867a6.176 6.176 0 01-.665 2.843 5.018 5.018 0 01-1.903 2.087c-.827.52-1.827.78-3.005.78zm15.852-.276v-3.44h-8.14v-1.49l7.797-11.122h2.246v10.916h2.385v1.696h-2.385v3.44zm-6.009-5.136h6.101v-8.784zm19.893 5.136v-3.44h-8.14v-1.49l7.797-11.122h2.246v10.916h2.386v1.696h-2.386v3.44zm-6.007-5.136h6.1v-8.784zM150.378 103.701V87.65h5.48c1.882 0 3.425.336 4.632 1.009 1.224.657 2.125 1.59 2.707 2.798.596 1.192.894 2.599.894 4.219s-.298 3.035-.894 4.242c-.582 1.193-1.483 2.125-2.707 2.798-1.207.658-2.75.986-4.631.986zm2.934-2.522h2.41c1.344 0 2.407-.214 3.187-.642a3.786 3.786 0 001.674-1.88c.336-.826.504-1.82.504-2.982 0-1.147-.168-2.133-.504-2.958a3.774 3.774 0 00-1.674-1.904c-.78-.443-1.843-.665-3.188-.665h-2.409zm18.827 2.797c-1.147 0-2.164-.244-3.05-.733a5.324 5.324 0 01-2.088-2.064c-.504-.887-.756-1.911-.756-3.073 0-1.177.244-2.225.734-3.142a5.434 5.434 0 012.064-2.133c.887-.52 1.926-.78 3.12-.78 1.115 0 2.1.245 2.957.735a5.17 5.17 0 011.995 2.018c.49.84.734 1.78.734 2.82 0 .168-.008.344-.023.528 0 .183-.008.374-.024.573h-8.644c.06.887.367 1.582.918 2.087.565.504 1.246.757 2.04.757.597 0 1.093-.13 1.49-.39.414-.276.718-.627.918-1.055h2.981a5.451 5.451 0 01-1.078 1.972c-.49.58-1.1 1.04-1.835 1.376-.718.336-1.536.504-2.453.504zm.023-9.54c-.719 0-1.354.207-1.903.62-.55.397-.903 1.009-1.056 1.834h5.665c-.046-.749-.322-1.345-.826-1.788-.504-.444-1.131-.665-1.88-.665zm14.897 9.54c-.855 0-1.605-.16-2.246-.481a4.057 4.057 0 01-1.56-1.353l-.321 1.56h-2.614V87.19h2.934v6.765a5.28 5.28 0 011.446-1.33c.61-.382 1.399-.573 2.361-.573 1.07 0 2.026.26 2.867.78.84.52 1.506 1.23 1.996 2.132.488.902.734 1.926.734 3.073s-.246 2.17-.734 3.073a5.638 5.638 0 01-1.996 2.11c-.84.504-1.796.756-2.867.756zm-.619-2.568c.933 0 1.705-.313 2.317-.94.61-.627.917-1.437.917-2.431s-.306-1.812-.917-2.454c-.612-.642-1.384-.963-2.317-.963-.948 0-1.726.321-2.339.963-.595.627-.893 1.437-.893 2.431s.298 1.812.893 2.454c.613.627 1.391.94 2.34.94zm10.42-10.847c-.535 0-.978-.16-1.33-.481-.337-.321-.505-.727-.505-1.216s.168-.886.504-1.192c.353-.321.796-.482 1.33-.482.535 0 .97.16 1.307.482.353.306.528.703.528 1.192 0 .49-.175.895-.528 1.216-.336.32-.772.481-1.306.481zm-1.468 13.14V92.327h2.935v11.374zm11.067 0c-1.193 0-2.148-.29-2.866-.871s-1.079-1.613-1.079-3.096v-4.953h-1.948v-2.454h1.948l.345-3.05h2.59v3.05h3.073v2.454h-3.072v4.976c0 .55.115.933.344 1.146.244.2.658.299 1.238.299h1.422v2.5zm17.387.275c-1.621 0-3.013-.344-4.174-1.032a7.059 7.059 0 01-2.683-2.912c-.627-1.253-.94-2.698-.94-4.334 0-1.636.313-3.08.94-4.334.626-1.254 1.521-2.232 2.683-2.935 1.161-.704 2.553-1.055 4.174-1.055 1.925 0 3.5.481 4.724 1.444 1.238.948 2.01 2.286 2.316 4.013h-3.234c-.2-.871-.627-1.551-1.284-2.04-.642-.505-1.498-.757-2.569-.757-1.482 0-2.645.504-3.486 1.513-.84 1.01-1.26 2.393-1.26 4.15 0 1.76.42 3.143 1.26 4.152.841.993 2.004 1.49 3.486 1.49 1.07 0 1.927-.23 2.569-.688.657-.474 1.085-1.123 1.284-1.949h3.234c-.306 1.651-1.078 2.943-2.316 3.876-1.224.932-2.799 1.398-4.724 1.398zm13.49 0c-.978 0-1.78-.152-2.407-.458-.627-.321-1.093-.742-1.4-1.261a3.326 3.326 0 01-.458-1.72c0-1.055.413-1.911 1.239-2.569.825-.657 2.063-.986 3.714-.986h2.89v-.275c0-.78-.222-1.353-.666-1.72-.443-.367-.992-.55-1.65-.55-.596 0-1.116.145-1.56.435-.443.276-.718.688-.825 1.239h-2.867c.077-.826.351-1.544.825-2.156a4.689 4.689 0 011.881-1.399c.764-.336 1.621-.504 2.569-.504 1.62 0 2.897.405 3.829 1.215.933.81 1.399 1.957 1.399 3.44v6.994h-2.5l-.274-1.834a4.211 4.211 0 01-1.422 1.513c-.597.398-1.369.596-2.316.596zm.666-2.293c.84 0 1.49-.275 1.95-.825.473-.55.77-1.231.893-2.041h-2.5c-.779 0-1.337.145-1.674.435-.336.276-.504.62-.504 1.032 0 .444.168.788.504 1.032.337.245.78.367 1.33.367zm8.648 2.018V92.327h2.615l.274 2.133a4.703 4.703 0 011.675-1.743c.718-.444 1.56-.665 2.523-.665v3.096h-.827c-.641 0-1.215.099-1.72.298A2.372 2.372 0 00250 96.478c-.276.489-.414 1.17-.414 2.04v5.183zm14.12.275c-1.071 0-2.027-.26-2.868-.78a5.588 5.588 0 01-1.994-2.132c-.49-.902-.734-1.926-.734-3.073 0-1.146.244-2.163.734-3.05.49-.902 1.154-1.605 1.994-2.11.841-.52 1.797-.78 2.867-.78.857 0 1.605.161 2.248.482a4.053 4.053 0 011.559 1.353V87.19h2.935v16.511h-2.614l-.321-1.628c-.367.505-.857.948-1.468 1.33-.596.382-1.375.573-2.339.573zm.618-2.568c.948 0 1.72-.313 2.317-.94.61-.642.917-1.46.917-2.454 0-.994-.306-1.804-.917-2.43-.597-.643-1.369-.964-2.317-.964-.932 0-1.704.314-2.316.94-.611.627-.918 1.437-.918 2.431s.307 1.812.918 2.454c.612.642 1.384.963 2.316.963zM151.552 233.512V221.93l-2.16.478v-1.11l2.694-1.165h1.09v13.378zm4.237 0v-1.129a48.28 48.28 0 002.56-2.16 26.499 26.499 0 002.16-2.177c.637-.714 1.134-1.415 1.491-2.103.37-.687.553-1.35.553-1.986 0-.473-.082-.912-.248-1.319a2.004 2.004 0 00-.764-.975c-.356-.255-.84-.382-1.452-.382-.586 0-1.077.134-1.472.402a2.432 2.432 0 00-.897 1.03 3.42 3.42 0 00-.288 1.396h-1.547c0-.88.185-1.63.553-2.255.37-.637.874-1.12 1.51-1.452.638-.331 1.357-.497 2.16-.497 1.185 0 2.152.338 2.905 1.013.764.662 1.147 1.656 1.147 2.98 0 .791-.198 1.574-.593 2.352-.395.764-.899 1.51-1.51 2.236a20.92 20.92 0 01-1.968 2.006 58.033 58.033 0 01-1.93 1.681h6.459v1.339zm15.312.228c-.854 0-1.625-.153-2.312-.458a3.979 3.979 0 01-1.662-1.415c-.408-.623-.624-1.4-.65-2.33h1.624c.013.763.28 1.426.802 1.987.523.548 1.256.821 2.198.821.943 0 1.65-.26 2.121-.783.485-.522.726-1.153.726-1.893 0-.623-.153-1.133-.458-1.528-.293-.395-.694-.688-1.204-.88a4.542 4.542 0 00-1.643-.285h-.994v-1.357h.994c.866 0 1.54-.197 2.025-.593.498-.395.746-.95.746-1.662 0-.6-.198-1.09-.593-1.472-.383-.394-.956-.592-1.72-.592-.739 0-1.332.223-1.776.669-.447.433-.696.98-.746 1.643h-1.625c.038-.726.23-1.37.574-1.93.356-.56.84-.993 1.452-1.3.611-.318 1.319-.477 2.121-.477.866 0 1.587.153 2.16.459.586.305 1.025.713 1.318 1.222.306.51.458 1.07.458 1.682 0 .676-.183 1.293-.553 1.854-.37.548-.924.918-1.663 1.108.79.166 1.447.542 1.968 1.128.523.586.784 1.357.784 2.311 0 .74-.172 1.422-.516 2.046-.331.612-.828 1.103-1.49 1.47-.663.37-1.485.555-2.466.555zm13.127-.228v-2.867h-6.785v-1.242l6.498-9.269h1.872v9.096h1.988v1.415h-1.988v2.867zm-5.007-4.282h5.083v-7.319zM149.392 290.842l4.93-13.378h1.7l4.912 13.378h-1.7l-1.224-3.44h-5.694l-1.242 3.44zm3.402-4.74h4.738l-2.369-6.612zm10.129 4.74v-13.378h4.319c1.044 0 1.898.172 2.56.516.663.345 1.154.816 1.472 1.414.318.6.478 1.262.478 1.988 0 .84-.23 1.598-.688 2.274-.446.676-1.147 1.152-2.102 1.433l2.923 5.753h-1.891l-2.714-5.523H164.528v5.523zm1.605-6.785h2.599c1.032 0 1.783-.248 2.256-.746.47-.496.706-1.133.706-1.91 0-.79-.235-1.415-.706-1.873-.46-.47-1.217-.707-2.275-.707h-2.58zm19.041 7.013c-.98 0-1.835-.178-2.56-.535-.726-.356-1.287-.854-1.682-1.49-.395-.637-.593-1.377-.593-2.217h1.682c0 .522.121 1.007.364 1.453.242.433.592.783 1.05 1.05.472.255 1.052.383 1.74.383.905 0 1.604-.217 2.102-.65.496-.433.746-.974.746-1.624 0-.536-.115-.962-.345-1.28-.23-.332-.541-.6-.936-.803a7.3 7.3 0 00-1.338-.536 44.741 44.741 0 01-1.567-.516c-1.032-.356-1.796-.796-2.293-1.318-.497-.535-.745-1.23-.745-2.083-.014-.713.153-1.344.496-1.892a3.437 3.437 0 011.453-1.3c.636-.318 1.389-.478 2.255-.478.854 0 1.593.16 2.216.478.637.32 1.128.76 1.471 1.319.358.56.543 1.198.555 1.911h-1.682c0-.37-.095-.732-.286-1.089a2.211 2.211 0 00-.88-.899c-.382-.228-.865-.343-1.451-.343-.727-.013-1.325.172-1.797.554-.459.382-.689.911-.689 1.586 0 .574.16 1.013.478 1.318.332.307.79.561 1.377.765.586.191 1.26.414 2.025.669.637.23 1.21.497 1.72.802.51.307.905.701 1.185 1.186.293.484.44 1.102.44 1.853 0 .637-.166 1.242-.497 1.816-.331.56-.834 1.019-1.51 1.375-.662.357-1.497.535-2.504.535zm6.69-.228v-13.76h1.607v5.905a3.318 3.318 0 011.357-1.357 3.814 3.814 0 011.91-.496c1.096 0 1.975.343 2.637 1.032.663.674.994 1.72.994 3.133v5.543h-1.585v-5.371c0-1.975-.797-2.962-2.39-2.962-.828 0-1.522.3-2.082.899-.56.586-.84 1.427-.84 2.522v4.912zm14.091.228c-.79 0-1.446-.133-1.97-.401-.52-.267-.91-.625-1.165-1.07a2.88 2.88 0 01-.381-1.453c0-.967.37-1.713 1.107-2.236.74-.521 1.747-.782 3.02-.782h2.56v-.115c0-.828-.216-1.452-.648-1.873-.433-.433-1.014-.65-1.74-.65-.624 0-1.166.159-1.624.478-.446.305-.727.758-.84 1.357h-1.645c.065-.689.293-1.268.689-1.74.408-.47.91-.827 1.509-1.07a4.835 4.835 0 011.91-.382c1.326 0 2.32.357 2.983 1.07.674.7 1.012 1.638 1.012 2.81v5.829h-1.433l-.096-1.702a3.809 3.809 0 01-1.185 1.377c-.51.368-1.197.553-2.063.553zm.248-1.356c.611 0 1.134-.16 1.567-.477.446-.32.784-.733 1.012-1.244a3.86 3.86 0 00.345-1.605v-.018h-2.427c-.943 0-1.612.165-2.007.496-.381.32-.573.72-.573 1.204 0 .497.179.899.535 1.205.37.293.886.44 1.548.44zm6.938 1.128v-13.76h1.605v8.275l3.88-3.994h1.967l-4.204 4.28 4.739 5.199h-2.045l-4.337-4.912v4.912zm10.604-11.581c-.32 0-.586-.102-.804-.307a1.126 1.126 0 01-.305-.802c0-.305.102-.56.305-.764.218-.204.485-.305.804-.305.305 0 .566.101.783.305.216.204.325.459.325.764 0 .32-.109.586-.325.802a1.099 1.099 0 01-.783.307zm-.804 11.58v-9.478h1.607v9.479zm4.401 0v-9.478h1.452l.135 1.815a3.44 3.44 0 011.337-1.49c.599-.37 1.338-.554 2.217-.554v1.681h-.44c-.56 0-1.077.102-1.548.306-.471.19-.847.522-1.127.993-.281.472-.421 1.122-.421 1.95v4.778zM431.146 292.89v-13.896l-2.592.573v-1.33l3.234-1.4h1.307v16.053zm6.668 0l6.375-14.402h-8.807v-1.65h10.779v1.444l-6.307 14.608zm7.85 2.178l5.754-19.699h1.904l-5.755 19.699zm11.594-2.178v-13.896l-2.591.573v-1.33l3.233-1.4h1.307v16.053zm5.085 0v-1.353a60.254 60.254 0 003.073-2.59 31.844 31.844 0 002.591-2.616c.764-.856 1.361-1.697 1.789-2.522.443-.825.665-1.62.665-2.385a4.16 4.16 0 00-.298-1.583 2.394 2.394 0 00-.918-1.17c-.427-.304-1.008-.457-1.742-.457-.704 0-1.292.16-1.766.482a2.913 2.913 0 00-1.077 1.238 4.093 4.093 0 00-.345 1.673h-1.857c0-1.054.222-1.956.665-2.706a4.407 4.407 0 011.811-1.742c.765-.398 1.63-.596 2.591-.596 1.422 0 2.585.405 3.486 1.215.918.795 1.377 1.987 1.377 3.577 0 .948-.238 1.888-.711 2.82a14.563 14.563 0 01-1.813 2.684 25.255 25.255 0 01-2.361 2.408 71.022 71.022 0 01-2.317 2.018h7.751v1.605z" fill="#fff"/><circle cx="543.438" cy="282.872" r="14.332" fill="#58b3ff"/><circle cx="522.417" cy="282.872" r="14.332" fill="#4fbeff"/><path d="M576.55 63.487V.749L535.255 18.22v61.944z" fill="#f7fa62"/><defs id="prefix__defs287"><filter id="prefix__filter0_dddddd_906_569" x="247.883" y="379.438" width="255.104" height="280.73" filterUnits="userSpaceOnUse" color-interpolation-filters="sRGB"><feFlood flood-opacity="0" result="BackgroundImageFix" id="prefix__feFlood87"/><feColorMatrix in="SourceAlpha" type="matrix" values="0 0 0 0 0 0 0 0 0 0 0 0 0 0 0 0 0 0 127 0" result="hardAlpha" id="prefix__feColorMatrix89"/><feOffset dy="2.228" id="prefix__feOffset91"/><feGaussianBlur stdDeviation="1.894" id="prefix__feGaussianBlur93"/><feColorMatrix type="matrix" values="0 0 0 0 0 0 0 0 0 0 0 0 0 0 0 0 0 0 0.01 0" id="prefix__feColorMatrix95"/><feBlend mode="normal" in2="BackgroundImageFix" result="effect1_dropShadow_906_569" id="prefix__feBlend97"/><feColorMatrix in="SourceAlpha" type="matrix" values="0 0 0 0 0 0 0 0 0 0 0 0 0 0 0 0 0 0 127 0" result="hardAlpha" id="prefix__feColorMatrix99"/><feOffset dy="9.805" id="prefix__feOffset101"/><feGaussianBlur stdDeviation="3.922" id="prefix__feGaussianBlur103"/><feColorMatrix type="matrix" values="0 0 0 0 0 0 0 0 0 0 0 0 0 0 0 0 0 0 0.0117778 0" id="prefix__feColorMatrix105"/><feBlend mode="normal" in2="effect1_dropShadow_906_569" result="effect2_dropShadow_906_569" id="prefix__feBlend107"/><feColorMatrix in="SourceAlpha" type="matrix" values="0 0 0 0 0 0 0 0 0 0 0 0 0 0 0 0 0 0 127 0" result="hardAlpha" id="prefix__feColorMatrix109"/><feOffset dy="24.066" id="prefix__feOffset111"/><feGaussianBlur stdDeviation="7.822" id="prefix__feGaussianBlur113"/><feColorMatrix type="matrix" values="0 0 0 0 0 0 0 0 0 0 0 0 0 0 0 0 0 0 0.015 0" id="prefix__feColorMatrix115"/><feBlend mode="normal" in2="effect2_dropShadow_906_569" result="effect3_dropShadow_906_569" id="prefix__feBlend117"/><feColorMatrix in="SourceAlpha" type="matrix" values="0 0 0 0 0 0 0 0 0 0 0 0 0 0 0 0 0 0 127 0" result="hardAlpha" id="prefix__feColorMatrix119"/><feOffset dy="46.35" id="prefix__feOffset121"/><feGaussianBlur stdDeviation="15.331" id="prefix__feGaussianBlur123"/><feColorMatrix type="matrix" values="0 0 0 0 0 0 0 0 0 0 0 0 0 0 0 0 0 0 0.0182222 0" id="prefix__feColorMatrix125"/><feBlend mode="normal" in2="effect3_dropShadow_906_569" result="effect4_dropShadow_906_569" id="prefix__feBlend127"/><feColorMatrix in="SourceAlpha" type="matrix" values="0 0 0 0 0 0 0 0 0 0 0 0 0 0 0 0 0 0 127 0" result="hardAlpha" id="prefix__feColorMatrix129"/><feOffset dy="77.993" id="prefix__feOffset131"/><feGaussianBlur stdDeviation="28.189" id="prefix__feGaussianBlur133"/><feColorMatrix type="matrix" values="0 0 0 0 0 0 0 0 0 0 0 0 0 0 0 0 0 0 0.0227778 0" id="prefix__feColorMatrix135"/><feBlend mode="normal" in2="effect4_dropShadow_906_569" result="effect5_dropShadow_906_569" id="prefix__feBlend137"/><feColorMatrix in="SourceAlpha" type="matrix" values="0 0 0 0 0 0 0 0 0 0 0 0 0 0 0 0 0 0 127 0" result="hardAlpha" id="prefix__feColorMatrix139"/><feOffset dy="120.332" id="prefix__feOffset141"/><feGaussianBlur stdDeviation="48.133" id="prefix__feGaussianBlur143"/><feColorMatrix type="matrix" values="0 0 0 0 0 0 0 0 0 0 0 0 0 0 0 0 0 0 0.03 0" id="prefix__feColorMatrix145"/><feBlend mode="normal" in2="effect5_dropShadow_906_569" result="effect6_dropShadow_906_569" id="prefix__feBlend147"/><feBlend mode="normal" in="SourceGraphic" in2="effect6_dropShadow_906_569" result="shape" id="prefix__feBlend149"/></filter><filter id="prefix__filter1_dddddd_906_569" x="334.522" y="379.438" width="255.104" height="280.73" filterUnits="userSpaceOnUse" color-interpolation-filters="sRGB"><feFlood flood-opacity="0" result="BackgroundImageFix" id="prefix__feFlood152"/><feColorMatrix in="SourceAlpha" type="matrix" values="0 0 0 0 0 0 0 0 0 0 0 0 0 0 0 0 0 0 127 0" result="hardAlpha" id="prefix__feColorMatrix154"/><feOffset dy="2.228" id="prefix__feOffset156"/><feGaussianBlur stdDeviation="1.894" id="prefix__feGaussianBlur158"/><feColorMatrix type="matrix" values="0 0 0 0 0 0 0 0 0 0 0 0 0 0 0 0 0 0 0.01 0" id="prefix__feColorMatrix160"/><feBlend mode="normal" in2="BackgroundImageFix" result="effect1_dropShadow_906_569" id="prefix__feBlend162"/><feColorMatrix in="SourceAlpha" type="matrix" values="0 0 0 0 0 0 0 0 0 0 0 0 0 0 0 0 0 0 127 0" result="hardAlpha" id="prefix__feColorMatrix164"/><feOffset dy="9.805" id="prefix__feOffset166"/><feGaussianBlur stdDeviation="3.922" id="prefix__feGaussianBlur168"/><feColorMatrix type="matrix" values="0 0 0 0 0 0 0 0 0 0 0 0 0 0 0 0 0 0 0.0117778 0" id="prefix__feColorMatrix170"/><feBlend mode="normal" in2="effect1_dropShadow_906_569" result="effect2_dropShadow_906_569" id="prefix__feBlend172"/><feColorMatrix in="SourceAlpha" type="matrix" values="0 0 0 0 0 0 0 0 0 0 0 0 0 0 0 0 0 0 127 0" result="hardAlpha" id="prefix__feColorMatrix174"/><feOffset dy="24.066" id="prefix__feOffset176"/><feGaussianBlur stdDeviation="7.822" id="prefix__feGaussianBlur178"/><feColorMatrix type="matrix" values="0 0 0 0 0 0 0 0 0 0 0 0 0 0 0 0 0 0 0.015 0" id="prefix__feColorMatrix180"/><feBlend mode="normal" in2="effect2_dropShadow_906_569" result="effect3_dropShadow_906_569" id="prefix__feBlend182"/><feColorMatrix in="SourceAlpha" type="matrix" values="0 0 0 0 0 0 0 0 0 0 0 0 0 0 0 0 0 0 127 0" result="hardAlpha" id="prefix__feColorMatrix184"/><feOffset dy="46.35" id="prefix__feOffset186"/><feGaussianBlur stdDeviation="15.331" id="prefix__feGaussianBlur188"/><feColorMatrix type="matrix" values="0 0 0 0 0 0 0 0 0 0 0 0 0 0 0 0 0 0 0.0182222 0" id="prefix__feColorMatrix190"/><feBlend mode="normal" in2="effect3_dropShadow_906_569" result="effect4_dropShadow_906_569" id="prefix__feBlend192"/><feColorMatrix in="SourceAlpha" type="matrix" values="0 0 0 0 0 0 0 0 0 0 0 0 0 0 0 0 0 0 127 0" result="hardAlpha" id="prefix__feColorMatrix194"/><feOffset dy="77.993" id="prefix__feOffset196"/><feGaussianBlur stdDeviation="28.189" id="prefix__feGaussianBlur198"/><feColorMatrix type="matrix" values="0 0 0 0 0 0 0 0 0 0 0 0 0 0 0 0 0 0 0.0227778 0" id="prefix__feColorMatrix200"/><feBlend mode="normal" in2="effect4_dropShadow_906_569" result="effect5_dropShadow_906_569" id="prefix__feBlend202"/><feColorMatrix in="SourceAlpha" type="matrix" values="0 0 0 0 0 0 0 0 0 0 0 0 0 0 0 0 0 0 127 0" result="hardAlpha" id="prefix__feColorMatrix204"/><feOffset dy="120.332" id="prefix__feOffset206"/><feGaussianBlur stdDeviation="48.133" id="prefix__feGaussianBlur208"/><feColorMatrix type="matrix" values="0 0 0 0 0 0 0 0 0 0 0 0 0 0 0 0 0 0 0.03 0" id="prefix__feColorMatrix210"/><feBlend mode="normal" in2="effect5_dropShadow_906_569" result="effect6_dropShadow_906_569" id="prefix__feBlend212"/><feBlend mode="normal" in="SourceGraphic" in2="effect6_dropShadow_906_569" result="shape" id="prefix__feBlend214"/></filter><filter id="prefix__filter2_dddddd_906_569" x="421.162" y="379.438" width="255.104" height="280.73" filterUnits="userSpaceOnUse" color-interpolation-filters="sRGB"><feFlood flood-opacity="0" result="BackgroundImageFix" id="prefix__feFlood217"/><feColorMatrix in="SourceAlpha" type="matrix" values="0 0 0 0 0 0 0 0 0 0 0 0 0 0 0 0 0 0 127 0" result="hardAlpha" id="prefix__feColorMatrix219"/><feOffset dy="2.228" id="prefix__feOffset221"/><feGaussianBlur stdDeviation="1.894" id="prefix__feGaussianBlur223"/><feColorMatrix type="matrix" values="0 0 0 0 0 0 0 0 0 0 0 0 0 0 0 0 0 0 0.01 0" id="prefix__feColorMatrix225"/><feBlend mode="normal" in2="BackgroundImageFix" result="effect1_dropShadow_906_569" id="prefix__feBlend227"/><feColorMatrix in="SourceAlpha" type="matrix" values="0 0 0 0 0 0 0 0 0 0 0 0 0 0 0 0 0 0 127 0" result="hardAlpha" id="prefix__feColorMatrix229"/><feOffset dy="9.805" id="prefix__feOffset231"/><feGaussianBlur stdDeviation="3.922" id="prefix__feGaussianBlur233"/><feColorMatrix type="matrix" values="0 0 0 0 0 0 0 0 0 0 0 0 0 0 0 0 0 0 0.0117778 0" id="prefix__feColorMatrix235"/><feBlend mode="normal" in2="effect1_dropShadow_906_569" result="effect2_dropShadow_906_569" id="prefix__feBlend237"/><feColorMatrix in="SourceAlpha" type="matrix" values="0 0 0 0 0 0 0 0 0 0 0 0 0 0 0 0 0 0 127 0" result="hardAlpha" id="prefix__feColorMatrix239"/><feOffset dy="24.066" id="prefix__feOffset241"/><feGaussianBlur stdDeviation="7.822" id="prefix__feGaussianBlur243"/><feColorMatrix type="matrix" values="0 0 0 0 0 0 0 0 0 0 0 0 0 0 0 0 0 0 0.015 0" id="prefix__feColorMatrix245"/><feBlend mode="normal" in2="effect2_dropShadow_906_569" result="effect3_dropShadow_906_569" id="prefix__feBlend247"/><feColorMatrix in="SourceAlpha" type="matrix" values="0 0 0 0 0 0 0 0 0 0 0 0 0 0 0 0 0 0 127 0" result="hardAlpha" id="prefix__feColorMatrix249"/><feOffset dy="46.35" id="prefix__feOffset251"/><feGaussianBlur stdDeviation="15.331" id="prefix__feGaussianBlur253"/><feColorMatrix type="matrix" values="0 0 0 0 0 0 0 0 0 0 0 0 0 0 0 0 0 0 0.0182222 0" id="prefix__feColorMatrix255"/><feBlend mode="normal" in2="effect3_dropShadow_906_569" result="effect4_dropShadow_906_569" id="prefix__feBlend257"/><feColorMatrix in="SourceAlpha" type="matrix" values="0 0 0 0 0 0 0 0 0 0 0 0 0 0 0 0 0 0 127 0" result="hardAlpha" id="prefix__feColorMatrix259"/><feOffset dy="77.993" id="prefix__feOffset261"/><feGaussianBlur stdDeviation="28.189" id="prefix__feGaussianBlur263"/><feColorMatrix type="matrix" values="0 0 0 0 0 0 0 0 0 0 0 0 0 0 0 0 0 0 0.0227778 0" id="prefix__feColorMatrix265"/><feBlend mode="normal" in2="effect4_dropShadow_906_569" result="effect5_dropShadow_906_569" id="prefix__feBlend267"/><feColorMatrix in="SourceAlpha" type="matrix" values="0 0 0 0 0 0 0 0 0 0 0 0 0 0 0 0 0 0 127 0" result="hardAlpha" id="prefix__feColorMatrix269"/><feOffset dy="120.332" id="prefix__feOffset271"/><feGaussianBlur stdDeviation="48.133" id="prefix__feGaussianBlur273"/><feColorMatrix type="matrix" values="0 0 0 0 0 0 0 0 0 0 0 0 0 0 0 0 0 0 0.03 0" id="prefix__feColorMatrix275"/><feBlend mode="normal" in2="effect5_dropShadow_906_569" result="effect6_dropShadow_906_569" id="prefix__feBlend277"/><feBlend mode="normal" in="SourceGraphic" in2="effect6_dropShadow_906_569" result="shape" id="prefix__feBlend279"/></filter><linearGradient id="prefix__paint0_linear_906_569" x1="267.662" y1="27" x2="267.662" y2="258.649" gradientUnits="userSpaceOnUse" gradientTransform="matrix(1.31993 0 0 1.31993 0 -.24)"><stop stop-color="#2B00D4" id="prefix__stop282"/><stop offset="1" stop-color="#2100A2" id="prefix__stop284"/></linearGradient><mask maskUnits="userSpaceOnUse" id="prefix__mask15250"><rect id="prefix__rect15252" width="433.34" height="264.635" x="89.473" y="30.471" rx="11.564" opacity="1" fill="#fff" fill-opacity="1" fill-rule="nonzero" stroke="none" stroke-width="1.142" stroke-linecap="round" stroke-linejoin="round" stroke-dasharray="none" stroke-opacity="1"/></mask></defs></svg>