<svg width="677" height="661" viewBox="0 0 677 661" fill="none" xmlns="http://www.w3.org/2000/svg">
<path d="M-0.000488281 125.894L311.659 208.923V411.081L-0.000488281 328.052V125.894Z" fill="#EBECE8"/>
<rect x="132.365" y="223.363" width="421.162" height="187.718" fill="#C6D3DA"/>
<rect x="158.838" y="289.546" width="42.1162" height="42.1162" fill="white"/>
<rect x="212.988" y="296.765" width="84.2324" height="10.8299" rx="1.20332" fill="white"/>
<rect x="212.988" y="316.019" width="127.552" height="7.21992" rx="1.20332" fill="white"/>
<rect x="212.988" y="347.305" width="92.6556" height="8.42324" rx="1.20332" fill="white"/>
<rect x="312.863" y="347.305" width="186.515" height="8.42324" rx="1.20332" fill="white"/>
<path d="M548.713 442.969V477.263H462.074M99.8749 258.861V305.79H49.3354V477.263H374.833M374.833 442.969V477.263M374.833 477.263H462.074M462.074 442.969V477.263" stroke="#838383" stroke-width="1.20332" stroke-dasharray="6.02 6.02"/>
<g filter="url(#filter0_dddddd_832_569)">
<rect x="344.149" y="380.998" width="62.5726" height="62.5726" fill="white"/>
</g>
<path d="M380.76 412.233C381.979 411.514 382.855 410.301 383.06 408.813C383.348 406.724 382.235 404.687 380.414 403.6L380.637 401.987C380.731 401.299 380.22 400.635 379.495 400.504C378.77 400.374 378.104 400.826 378.009 401.515L377.837 402.762L375.21 402.289L375.382 401.042C375.477 400.354 374.966 399.69 374.241 399.559C373.516 399.429 372.85 399.881 372.755 400.57L372.583 401.817L369.956 401.344C369.231 401.214 368.566 401.666 368.471 402.355C368.376 403.043 368.887 403.708 369.612 403.838L370.926 404.074L370.066 410.309L369.206 416.544L367.892 416.307C367.167 416.177 366.502 416.63 366.407 417.318C366.312 418.007 366.823 418.671 367.548 418.801L370.175 419.274L370.003 420.521C369.908 421.209 370.419 421.874 371.145 422.004C371.87 422.135 372.535 421.682 372.63 420.993L372.802 419.746L375.429 420.219L375.257 421.466C375.162 422.155 375.674 422.819 376.399 422.949C377.124 423.08 377.789 422.627 377.884 421.938L378.107 420.326C380.133 419.931 381.74 418.383 382.028 416.294C382.234 414.806 381.727 413.344 380.76 412.233ZM373.553 404.547L378.15 405.374C379.599 405.634 380.623 406.965 380.433 408.34C380.244 409.715 378.911 410.622 377.462 410.362L372.865 409.535L373.553 404.547ZM376.43 417.843L371.833 417.016L372.521 412.028L377.118 412.855C378.567 413.116 379.591 414.447 379.401 415.822C379.212 417.197 377.879 418.104 376.43 417.843Z" fill="#F9896B"/>
<g filter="url(#filter1_dddddd_832_569)">
<rect x="430.788" y="380.998" width="62.5726" height="62.5726" fill="white"/>
</g>
<path d="M474.96 413.724C473.418 419.919 467.777 424.326 461.132 424.326C454.457 424.326 448.864 419.658 447.385 413.437C449.163 413.437 450.825 413.446 451.597 413.446C451.961 413.446 452.032 413.452 452.053 413.45C452.634 413.422 453.362 413.23 453.846 412.052L455.692 407.224L459.791 417.094C460.16 417.881 460.775 417.825 461.142 417.825H461.177C461.893 417.825 462.204 417.574 462.477 417.055L467.107 407.298L468.687 411.695L468.783 411.908C469.117 412.641 469.357 413.364 470.184 413.459C470.354 413.478 472.333 413.444 475 413.444C475 413.444 475 413.461 474.96 413.724Z" fill="#3DB5E6"/>
<path d="M475.413 410.075C475.413 410.149 475.413 410.334 475.412 410.334H475.409H471.151L468.668 403.396C468.446 402.88 468.114 402.106 467.145 402.106C466.552 402.106 466.017 402.596 465.713 403.404L461.21 413.833L456.876 403.467C456.452 402.546 456.159 402.113 455.31 402.113C454.734 402.113 454.311 402.326 453.851 403.416L451.278 410.437L447.005 410.433C447.001 410.326 447 410.219 447 410.112C447 402.308 453.327 396 461.132 396C468.937 396 475.413 402.27 475.413 410.075Z" fill="#D8292F"/>
<g filter="url(#filter2_dddddd_832_569)">
<rect x="517.427" y="380.998" width="62.5726" height="62.5726" fill="white"/>
</g>
<path d="M536.843 415.704C535.815 415.707 534.864 415.155 534.356 414.261C533.855 413.372 533.885 412.279 534.434 411.42L539.557 403.375C540.09 402.495 541.057 401.97 542.085 402.001C543.114 402.026 544.049 402.602 544.533 403.51C545.01 404.413 544.951 405.499 544.379 406.347L539.259 414.391C538.732 415.213 537.82 415.709 536.843 415.704Z" fill="#F62B54"/>
<path d="M545.63 415.704C544.597 415.704 543.646 415.152 543.147 414.264C542.647 413.377 542.677 412.288 543.225 411.43L548.338 403.404C548.864 402.511 549.833 401.974 550.869 402.001C551.911 402.024 552.855 402.607 553.333 403.518C553.807 404.43 553.737 405.523 553.148 406.368L548.036 414.394C547.51 415.213 546.603 415.707 545.63 415.704Z" fill="#FFCC00"/>
<path d="M554.22 415.772C555.677 415.772 556.858 414.616 556.858 413.19C556.858 411.764 555.677 410.608 554.22 410.608C552.764 410.608 551.583 411.764 551.583 413.19C551.583 414.616 552.764 415.772 554.22 415.772Z" fill="#00CA72"/>
<rect x="78" y="27" width="379.325" height="231.649" rx="10.1222" fill="url(#paint0_linear_832_569)"/>
<mask id="mask0_832_569" style="mask-type:alpha" maskUnits="userSpaceOnUse" x="78" y="27" width="380" height="232">
<rect x="78.0005" y="27" width="379.325" height="231.649" rx="10.1346" fill="#50449C"/>
</mask>
<g mask="url(#mask0_832_569)">
<path d="M271.324 135.243C202.987 89.6844 194.516 40.3902 196.967 19.761H466.983V280.366H377.219C374.608 259.767 354.641 229.664 337.871 203.266C321.053 176.792 297.421 152.641 271.324 135.243Z" fill="#491FEF"/>
<path d="M430.788 273.85C471.327 208.989 362.259 77.4318 302.658 19.7609L279.493 -2.68005H499.559V273.85C459.745 300.876 390.25 338.712 430.788 273.85Z" fill="#D9F9FD"/>
<path d="M476.394 182.639C477.552 140.942 359.605 50.4061 300.486 10.3502L466.984 -6.29956L501.007 89.9794C492.32 138.24 475.236 224.336 476.394 182.639Z" fill="#00E4FF"/>
</g>
<path d="M392.85 79.1762L396.053 65.1118H399.257L396.835 79.1762H392.85Z" fill="black"/>
<path d="M410.977 65.2681C410.196 64.9556 408.946 64.6431 407.383 64.6431C403.476 64.6431 400.664 66.5965 400.664 69.4093C400.664 71.519 402.617 72.6129 404.18 73.3161C405.742 74.0193 406.211 74.4881 406.211 75.1132C406.211 76.0508 404.961 76.5197 403.867 76.5197C402.304 76.5197 401.445 76.2852 400.117 75.7383L399.57 75.5039L399.023 78.7074C399.96 79.0981 401.679 79.4888 403.476 79.4888C407.618 79.4888 410.352 77.5354 410.352 74.5663C410.352 72.9254 409.337 71.6753 406.993 70.6595C405.586 69.9563 404.727 69.5656 404.727 68.8624C404.727 68.2373 405.43 67.6122 406.993 67.6122C408.321 67.6122 409.258 67.8466 409.962 68.1592L410.352 68.3154L410.977 65.2681Z" fill="black"/>
<path d="M410.977 65.2681C410.196 64.9556 408.946 64.6431 407.383 64.6431C403.476 64.6431 401.367 66.5965 401.367 69.4093C401.367 71.519 402.617 72.6129 404.18 73.3161C405.742 74.0193 406.211 74.4881 406.211 75.1132C406.211 76.0508 404.961 76.5197 403.867 76.5197C402.304 76.5197 401.445 76.2852 400.117 75.7383L399.57 75.5039L399.023 78.7074C399.96 79.0981 401.679 79.4888 403.476 79.4888C407.618 79.4888 410.352 77.5354 410.352 74.5663C410.352 72.9254 409.337 71.6753 406.993 70.6595C405.586 69.9563 404.727 69.5656 404.727 68.8624C404.727 68.2373 405.43 67.6122 406.993 67.6122C408.321 67.6122 409.258 67.8466 409.962 68.1592L410.352 68.3154L410.977 65.2681Z" fill="black"/>
<path fill-rule="evenodd" clip-rule="evenodd" d="M416.602 66.1276C416.993 65.19 417.696 65.1118 418.634 65.1118H420.743L424.025 79.1762H420.274L419.806 76.8321H414.805L414.024 79.1762H409.804L416.602 66.1276ZM417.461 70.3469C417.461 70.3469 416.21 73.7067 415.898 74.488V74.5662H419.18C419.023 73.7848 418.242 70.2687 418.242 70.2687L418.008 68.9404C417.773 69.4874 417.461 70.3469 417.461 70.3469Z" fill="black"/>
<path d="M385.663 74.9571L385.272 72.9256C384.569 70.5815 382.303 68.0031 379.802 66.7529L383.319 79.2546H387.538L393.867 65.1902H390.429L385.663 74.9571Z" fill="black"/>
<path d="M374.8 65.1118L375.504 65.2681C380.504 66.4401 383.942 69.4093 385.27 72.9254L383.864 66.2838C383.63 65.3462 382.926 65.1118 382.067 65.1118H374.8V65.1118Z" fill="#FFBC00"/>
<path d="M374.8 65.1118C379.801 66.2838 383.942 69.3311 385.27 72.8472L383.942 67.2996C383.708 66.362 382.926 65.815 382.067 65.815L374.8 65.1118Z" fill="#F7981D"/>
<path d="M374.8 65.1118C379.801 66.2838 383.942 69.3311 385.27 72.8472L384.333 69.7999C384.098 68.8623 383.786 67.9247 382.692 67.534L374.8 65.1118Z" fill="#ED7C00"/>
<path d="M115.232 145.346V134.818L113.268 135.252V134.244L115.718 133.185H116.708V145.346H115.232ZM119.084 145.346V144.321C119.907 143.673 120.683 143.018 121.412 142.358C122.154 141.686 122.808 141.026 123.376 140.377C123.955 139.729 124.407 139.092 124.731 138.466C125.067 137.841 125.235 137.239 125.235 136.659C125.235 136.231 125.159 135.831 125.009 135.461C124.87 135.09 124.638 134.795 124.314 134.575C123.99 134.343 123.549 134.227 122.993 134.227C122.461 134.227 122.015 134.349 121.656 134.592C121.297 134.824 121.024 135.136 120.839 135.53C120.665 135.924 120.579 136.347 120.579 136.798H119.171C119.171 135.999 119.339 135.316 119.675 134.748C120.011 134.169 120.469 133.729 121.048 133.428C121.627 133.127 122.281 132.976 123.011 132.976C124.088 132.976 124.968 133.283 125.652 133.897C126.347 134.499 126.694 135.403 126.694 136.607C126.694 137.325 126.515 138.038 126.156 138.744C125.796 139.439 125.339 140.117 124.783 140.777C124.227 141.426 123.631 142.034 122.993 142.601C122.368 143.169 121.783 143.678 121.239 144.13H127.111V145.346H119.084ZM133.005 145.555C132.229 145.555 131.529 145.416 130.903 145.138C130.278 144.848 129.774 144.42 129.392 143.852C129.021 143.285 128.824 142.578 128.801 141.733H130.278C130.289 142.427 130.532 143.03 131.007 143.539C131.482 144.037 132.148 144.286 133.005 144.286C133.862 144.286 134.505 144.049 134.934 143.574C135.374 143.099 135.594 142.526 135.594 141.854C135.594 141.287 135.455 140.823 135.177 140.464C134.911 140.105 134.546 139.839 134.082 139.665C133.631 139.491 133.133 139.404 132.588 139.404H131.685V138.171H132.588C133.376 138.171 133.99 137.991 134.43 137.632C134.882 137.273 135.108 136.769 135.108 136.121C135.108 135.576 134.928 135.131 134.569 134.783C134.221 134.424 133.7 134.244 133.005 134.244C132.334 134.244 131.795 134.447 131.39 134.853C130.984 135.246 130.758 135.744 130.712 136.347H129.235C129.27 135.687 129.444 135.102 129.756 134.592C130.081 134.082 130.521 133.689 131.077 133.411C131.633 133.121 132.276 132.976 133.005 132.976C133.793 132.976 134.447 133.115 134.969 133.393C135.501 133.671 135.901 134.042 136.167 134.505C136.445 134.968 136.584 135.478 136.584 136.034C136.584 136.648 136.416 137.21 136.08 137.719C135.745 138.217 135.241 138.553 134.569 138.727C135.287 138.877 135.884 139.219 136.358 139.752C136.833 140.285 137.071 140.985 137.071 141.854C137.071 142.526 136.914 143.146 136.602 143.713C136.301 144.269 135.849 144.715 135.247 145.051C134.644 145.387 133.897 145.555 133.005 145.555ZM144.939 145.346V142.74H138.771V141.611L144.679 133.185H146.381V141.455H148.188V142.74H146.381V145.346H144.939ZM140.387 141.455H145.009V134.8L140.387 141.455ZM186.271 145.555C185.437 145.555 184.713 145.404 184.099 145.103C183.486 144.802 182.993 144.391 182.623 143.869C182.264 143.337 182.044 142.734 181.962 142.063H183.387C183.526 142.734 183.85 143.279 184.36 143.696C184.87 144.101 185.513 144.304 186.289 144.304C186.868 144.304 187.366 144.171 187.783 143.904C188.2 143.626 188.518 143.256 188.738 142.792C188.97 142.329 189.086 141.814 189.086 141.246C189.086 140.343 188.831 139.613 188.321 139.057C187.812 138.501 187.151 138.223 186.341 138.223C185.669 138.223 185.096 138.374 184.621 138.675C184.146 138.976 183.798 139.37 183.578 139.856H182.188L183.231 133.185H189.607V134.453H184.36L183.648 138.154C183.926 137.818 184.308 137.54 184.794 137.32C185.292 137.1 185.86 136.99 186.497 136.99C187.296 136.99 187.991 137.175 188.582 137.545C189.184 137.916 189.653 138.42 189.989 139.057C190.325 139.694 190.493 140.418 190.493 141.229C190.493 142.005 190.325 142.723 189.989 143.383C189.665 144.043 189.184 144.57 188.547 144.964C187.922 145.358 187.163 145.555 186.271 145.555ZM197.152 145.555C196.272 145.555 195.531 145.393 194.929 145.068C194.326 144.732 193.84 144.286 193.469 143.731C193.11 143.175 192.844 142.555 192.67 141.872C192.508 141.177 192.427 140.47 192.427 139.752C192.427 138.408 192.612 137.233 192.983 136.225C193.353 135.206 193.886 134.412 194.581 133.845C195.288 133.266 196.139 132.976 197.135 132.976C197.899 132.976 198.554 133.127 199.098 133.428C199.643 133.729 200.071 134.134 200.384 134.644C200.708 135.142 200.911 135.698 200.992 136.312H199.637C199.509 135.652 199.226 135.142 198.785 134.783C198.345 134.424 197.789 134.244 197.118 134.244C196.203 134.244 195.432 134.679 194.807 135.548C194.193 136.405 193.863 137.748 193.817 139.578C194.095 139.034 194.535 138.565 195.137 138.171C195.751 137.766 196.486 137.563 197.343 137.563C198.038 137.563 198.687 137.725 199.289 138.049C199.903 138.374 200.401 138.831 200.783 139.422C201.166 140.001 201.357 140.684 201.357 141.472C201.357 142.155 201.189 142.81 200.853 143.435C200.517 144.061 200.031 144.57 199.394 144.964C198.768 145.358 198.021 145.555 197.152 145.555ZM197.048 144.269C197.592 144.269 198.079 144.153 198.508 143.922C198.936 143.69 199.272 143.371 199.515 142.966C199.758 142.549 199.88 142.074 199.88 141.541C199.88 140.719 199.608 140.065 199.063 139.578C198.531 139.08 197.859 138.831 197.048 138.831C196.504 138.831 196.017 138.959 195.589 139.213C195.16 139.457 194.818 139.787 194.564 140.204C194.32 140.621 194.199 141.072 194.199 141.559C194.199 142.08 194.32 142.549 194.564 142.966C194.818 143.371 195.16 143.69 195.589 143.922C196.017 144.153 196.504 144.269 197.048 144.269ZM204.267 145.346L209.097 134.436H202.426V133.185H210.591V134.279L205.813 145.346H204.267ZM216.248 145.555C215.449 145.555 214.731 145.41 214.094 145.12C213.457 144.819 212.953 144.408 212.582 143.887C212.223 143.354 212.044 142.74 212.044 142.045C212.044 141.304 212.258 140.638 212.686 140.047C213.127 139.457 213.706 139.063 214.424 138.866C213.764 138.646 213.254 138.293 212.895 137.806C212.536 137.32 212.356 136.787 212.356 136.208C212.356 135.617 212.513 135.078 212.825 134.592C213.138 134.094 213.584 133.7 214.163 133.411C214.742 133.121 215.437 132.976 216.248 132.976C217.059 132.976 217.754 133.121 218.333 133.411C218.912 133.7 219.358 134.094 219.671 134.592C219.983 135.078 220.14 135.617 220.14 136.208C220.14 136.775 219.96 137.308 219.601 137.806C219.242 138.293 218.732 138.646 218.072 138.866C218.79 139.063 219.364 139.457 219.792 140.047C220.232 140.638 220.452 141.304 220.452 142.045C220.452 142.74 220.267 143.354 219.896 143.887C219.537 144.408 219.039 144.819 218.402 145.12C217.765 145.41 217.047 145.555 216.248 145.555ZM216.248 138.345C216.989 138.345 217.574 138.159 218.003 137.789C218.443 137.406 218.663 136.908 218.663 136.295C218.663 135.611 218.449 135.096 218.02 134.748C217.592 134.401 217.001 134.227 216.248 134.227C215.495 134.227 214.904 134.401 214.476 134.748C214.059 135.096 213.85 135.611 213.85 136.295C213.85 136.908 214.065 137.406 214.493 137.789C214.922 138.159 215.507 138.345 216.248 138.345ZM216.248 144.269C217.163 144.269 217.846 144.061 218.298 143.644C218.761 143.215 218.993 142.653 218.993 141.958C218.993 141.171 218.744 140.574 218.246 140.169C217.748 139.764 217.082 139.561 216.248 139.561C215.414 139.561 214.748 139.764 214.25 140.169C213.752 140.574 213.503 141.171 213.503 141.958C213.503 142.653 213.729 143.215 214.181 143.644C214.644 144.061 215.333 144.269 216.248 144.269ZM254.44 145.555C253.675 145.555 253.021 145.404 252.476 145.103C251.932 144.802 251.498 144.402 251.173 143.904C250.861 143.395 250.669 142.833 250.6 142.219H251.955C252.071 142.879 252.349 143.389 252.789 143.748C253.229 144.107 253.785 144.286 254.457 144.286C255.383 144.286 256.154 143.858 256.768 143.001C257.381 142.132 257.712 140.783 257.758 138.953C257.48 139.497 257.034 139.972 256.42 140.377C255.818 140.771 255.088 140.968 254.231 140.968C253.548 140.968 252.899 140.806 252.285 140.482C251.671 140.157 251.173 139.706 250.791 139.126C250.409 138.536 250.218 137.847 250.218 137.059C250.218 136.376 250.386 135.721 250.722 135.096C251.069 134.47 251.555 133.961 252.181 133.567C252.806 133.173 253.553 132.976 254.422 132.976C255.302 132.976 256.044 133.144 256.646 133.48C257.248 133.804 257.729 134.244 258.088 134.8C258.459 135.356 258.725 135.982 258.887 136.677C259.061 137.36 259.148 138.061 259.148 138.779C259.148 140.123 258.962 141.304 258.592 142.323C258.221 143.331 257.683 144.124 256.976 144.703C256.281 145.271 255.436 145.555 254.44 145.555ZM254.526 139.7C255.071 139.7 255.557 139.578 255.986 139.335C256.414 139.08 256.756 138.744 257.011 138.327C257.266 137.91 257.393 137.459 257.393 136.972C257.393 136.451 257.266 135.988 257.011 135.582C256.756 135.165 256.414 134.841 255.986 134.609C255.557 134.378 255.071 134.262 254.526 134.262C253.982 134.262 253.496 134.378 253.067 134.609C252.638 134.841 252.303 135.165 252.059 135.582C251.816 135.988 251.694 136.457 251.694 136.99C251.694 137.812 251.961 138.472 252.494 138.97C253.038 139.457 253.716 139.7 254.526 139.7ZM266.113 145.555C265.035 145.555 264.103 145.294 263.315 144.773C262.539 144.24 261.943 143.505 261.526 142.566C261.109 141.617 260.9 140.516 260.9 139.265C260.9 138.015 261.109 136.92 261.526 135.982C261.943 135.032 262.539 134.297 263.315 133.775C264.103 133.243 265.035 132.976 266.113 132.976C267.19 132.976 268.116 133.243 268.892 133.775C269.668 134.297 270.265 135.032 270.682 135.982C271.099 136.92 271.307 138.015 271.307 139.265C271.307 140.516 271.099 141.617 270.682 142.566C270.265 143.505 269.668 144.24 268.892 144.773C268.116 145.294 267.19 145.555 266.113 145.555ZM266.113 144.269C266.819 144.269 267.45 144.072 268.006 143.678C268.574 143.273 269.014 142.7 269.327 141.958C269.651 141.206 269.813 140.308 269.813 139.265C269.813 138.223 269.651 137.331 269.327 136.59C269.014 135.849 268.574 135.281 268.006 134.887C267.45 134.482 266.819 134.279 266.113 134.279C265.394 134.279 264.757 134.482 264.201 134.887C263.646 135.281 263.205 135.849 262.881 136.59C262.557 137.331 262.395 138.223 262.395 139.265C262.395 140.308 262.557 141.206 262.881 141.958C263.205 142.7 263.646 143.273 264.201 143.678C264.757 144.072 265.394 144.269 266.113 144.269ZM274.615 145.346V134.818L272.651 135.252V134.244L275.101 133.185H276.091V145.346H274.615ZM278.467 145.346V144.321C279.29 143.673 280.066 143.018 280.795 142.358C281.537 141.686 282.191 141.026 282.759 140.377C283.338 139.729 283.789 139.092 284.114 138.466C284.45 137.841 284.618 137.239 284.618 136.659C284.618 136.231 284.542 135.831 284.392 135.461C284.253 135.09 284.021 134.795 283.697 134.575C283.372 134.343 282.932 134.227 282.376 134.227C281.844 134.227 281.398 134.349 281.039 134.592C280.68 134.824 280.407 135.136 280.222 135.53C280.048 135.924 279.961 136.347 279.961 136.798H278.554C278.554 135.999 278.722 135.316 279.058 134.748C279.394 134.169 279.851 133.729 280.43 133.428C281.01 133.127 281.664 132.976 282.394 132.976C283.471 132.976 284.351 133.283 285.035 133.897C285.729 134.499 286.077 135.403 286.077 136.607C286.077 137.325 285.897 138.038 285.538 138.744C285.179 139.439 284.722 140.117 284.166 140.777C283.61 141.426 283.013 142.034 282.376 142.601C281.751 143.169 281.166 143.678 280.622 144.13H286.494V145.346H278.467ZM324.574 145.555C323.798 145.555 323.097 145.416 322.471 145.138C321.846 144.848 321.342 144.42 320.96 143.852C320.589 143.285 320.392 142.578 320.369 141.733H321.846C321.857 142.427 322.101 143.03 322.576 143.539C323.05 144.037 323.716 144.286 324.574 144.286C325.431 144.286 326.073 144.049 326.502 143.574C326.942 143.099 327.162 142.526 327.162 141.854C327.162 141.287 327.023 140.823 326.745 140.464C326.479 140.105 326.114 139.839 325.651 139.665C325.199 139.491 324.701 139.404 324.157 139.404H323.253V138.171H324.157C324.944 138.171 325.558 137.991 325.998 137.632C326.45 137.273 326.676 136.769 326.676 136.121C326.676 135.576 326.496 135.131 326.137 134.783C325.79 134.424 325.268 134.244 324.574 134.244C323.902 134.244 323.363 134.447 322.958 134.853C322.552 135.246 322.327 135.744 322.28 136.347H320.803C320.838 135.687 321.012 135.102 321.325 134.592C321.649 134.082 322.089 133.689 322.645 133.411C323.201 133.121 323.844 132.976 324.574 132.976C325.361 132.976 326.016 133.115 326.537 133.393C327.07 133.671 327.469 134.042 327.736 134.505C328.014 134.968 328.153 135.478 328.153 136.034C328.153 136.648 327.985 137.21 327.649 137.719C327.313 138.217 326.809 138.553 326.137 138.727C326.855 138.877 327.452 139.219 327.927 139.752C328.402 140.285 328.639 140.985 328.639 141.854C328.639 142.526 328.483 143.146 328.17 143.713C327.869 144.269 327.417 144.715 326.815 145.051C326.212 145.387 325.465 145.555 324.574 145.555ZM335.135 145.555C334.301 145.555 333.577 145.404 332.963 145.103C332.349 144.802 331.857 144.391 331.486 143.869C331.127 143.337 330.907 142.734 330.826 142.063H332.251C332.39 142.734 332.714 143.279 333.224 143.696C333.733 144.101 334.376 144.304 335.152 144.304C335.731 144.304 336.229 144.171 336.646 143.904C337.063 143.626 337.382 143.256 337.602 142.792C337.834 142.329 337.949 141.814 337.949 141.246C337.949 140.343 337.695 139.613 337.185 139.057C336.675 138.501 336.015 138.223 335.204 138.223C334.533 138.223 333.959 138.374 333.484 138.675C333.009 138.976 332.662 139.37 332.442 139.856H331.052L332.094 133.185H338.471V134.453H333.224L332.511 138.154C332.789 137.818 333.172 137.54 333.658 137.32C334.156 137.1 334.724 136.99 335.361 136.99C336.16 136.99 336.855 137.175 337.445 137.545C338.048 137.916 338.517 138.42 338.853 139.057C339.189 139.694 339.357 140.418 339.357 141.229C339.357 142.005 339.189 142.723 338.853 143.383C338.528 144.043 338.048 144.57 337.411 144.964C336.785 145.358 336.027 145.555 335.135 145.555ZM347.145 145.346V142.74H340.978V141.611L346.885 133.185H348.587V141.455H350.394V142.74H348.587V145.346H347.145ZM342.593 141.455H347.215V134.8L342.593 141.455ZM357.664 145.346V142.74H351.497V141.611L357.404 133.185H359.106V141.455H360.913V142.74H359.106V145.346H357.664ZM353.113 141.455H357.734V134.8L353.113 141.455Z" fill="white"/>
<path d="M113.929 78.7473V66.5858H118.081C119.506 66.5858 120.675 66.8406 121.59 67.3502C122.517 67.8482 123.2 68.5548 123.641 69.4698C124.092 70.3732 124.318 71.4388 124.318 72.6665C124.318 73.8943 124.092 74.9657 123.641 75.8807C123.2 76.7841 122.517 77.4906 121.59 78.0002C120.675 78.4983 119.506 78.7473 118.081 78.7473H113.929ZM116.152 76.8362H117.977C118.996 76.8362 119.801 76.6741 120.392 76.3498C120.982 76.0139 121.405 75.539 121.66 74.9251C121.915 74.2997 122.042 73.5468 122.042 72.6665C122.042 71.7979 121.915 71.0508 121.66 70.4253C121.405 69.7999 120.982 69.3192 120.392 68.9833C119.801 68.6474 118.996 68.4795 117.977 68.4795H116.152V76.8362ZM130.415 78.9558C129.546 78.9558 128.776 78.7705 128.104 78.3998C127.433 78.0292 126.906 77.508 126.523 76.8362C126.141 76.1644 125.95 75.3884 125.95 74.5081C125.95 73.6163 126.135 72.8229 126.506 72.128C126.888 71.433 127.41 70.8944 128.07 70.5122C128.742 70.1184 129.529 69.9215 130.433 69.9215C131.278 69.9215 132.025 70.1068 132.674 70.4775C133.322 70.8481 133.826 71.3577 134.185 72.0063C134.556 72.6434 134.741 73.3557 134.741 74.1433C134.741 74.2707 134.735 74.4039 134.724 74.5429C134.724 74.6819 134.718 74.8267 134.706 74.9772H128.157C128.203 75.649 128.435 76.176 128.852 76.5582C129.28 76.9405 129.796 77.1316 130.398 77.1316C130.85 77.1316 131.226 77.0331 131.527 76.8362C131.84 76.6277 132.071 76.3613 132.222 76.037H134.481C134.318 76.5814 134.046 77.0794 133.664 77.5312C133.293 77.9713 132.83 78.3188 132.274 78.5736C131.73 78.8284 131.11 78.9558 130.415 78.9558ZM130.433 71.7284C129.888 71.7284 129.407 71.8847 128.991 72.1974C128.574 72.4986 128.307 72.9619 128.191 73.5873H132.483C132.448 73.0198 132.239 72.5681 131.857 72.2322C131.475 71.8963 131 71.7284 130.433 71.7284ZM141.719 78.9558C141.071 78.9558 140.503 78.8342 140.017 78.591C139.53 78.3477 139.137 78.006 138.835 77.5659L138.592 78.7473H136.612V66.2383H138.835V71.3635C139.113 70.9813 139.478 70.6454 139.93 70.3558C140.393 70.0663 140.99 69.9215 141.719 69.9215C142.53 69.9215 143.254 70.1184 143.891 70.5122C144.528 70.906 145.032 71.4446 145.403 72.128C145.773 72.8113 145.959 73.5873 145.959 74.456C145.959 75.3247 145.773 76.1007 145.403 76.7841C145.032 77.4559 144.528 77.9887 143.891 78.3825C143.254 78.7647 142.53 78.9558 141.719 78.9558ZM141.25 77.0099C141.957 77.0099 142.542 76.7725 143.005 76.2976C143.468 75.8228 143.7 75.2089 143.7 74.456C143.7 73.7032 143.468 73.0835 143.005 72.597C142.542 72.1106 141.957 71.8674 141.25 71.8674C140.532 71.8674 139.942 72.1106 139.478 72.597C139.027 73.0719 138.801 73.6858 138.801 74.4387C138.801 75.1915 139.027 75.8112 139.478 76.2976C139.942 76.7725 140.532 77.0099 141.25 77.0099ZM149.144 68.7922C148.739 68.7922 148.403 68.6706 148.136 68.4274C147.881 68.1841 147.754 67.8772 147.754 67.5066C147.754 67.1359 147.881 66.8348 148.136 66.6031C148.403 66.3599 148.739 66.2383 149.144 66.2383C149.549 66.2383 149.879 66.3599 150.134 66.6031C150.401 66.8348 150.534 67.1359 150.534 67.5066C150.534 67.8772 150.401 68.1841 150.134 68.4274C149.879 68.6706 149.549 68.7922 149.144 68.7922ZM148.032 78.7473V70.13H150.256V78.7473H148.032ZM156.417 78.7473C155.513 78.7473 154.789 78.5272 154.245 78.0871C153.701 77.647 153.428 76.8652 153.428 75.7417V71.989H151.952V70.13H153.428L153.689 67.8193H155.652V70.13H157.98V71.989H155.652V75.759C155.652 76.176 155.739 76.4656 155.913 76.6277C156.098 76.7783 156.411 76.8536 156.851 76.8536H157.928V78.7473H156.417ZM169.589 78.9558C168.361 78.9558 167.307 78.6952 166.427 78.174C165.547 77.6412 164.869 76.9057 164.394 75.9675C163.919 75.0178 163.682 73.9232 163.682 72.6839C163.682 71.4446 163.919 70.3501 164.394 69.4003C164.869 68.4505 165.547 67.7093 166.427 67.1765C167.307 66.6437 168.361 66.3773 169.589 66.3773C171.048 66.3773 172.241 66.7421 173.168 67.4718C174.106 68.1899 174.691 69.2034 174.923 70.5122H172.473C172.322 69.852 171.998 69.3366 171.5 68.966C171.014 68.5837 170.365 68.3926 169.554 68.3926C168.431 68.3926 167.55 68.7748 166.913 69.5393C166.276 70.3037 165.958 71.3519 165.958 72.6839C165.958 74.0159 166.276 75.0641 166.913 75.8285C167.55 76.5814 168.431 76.9578 169.554 76.9578C170.365 76.9578 171.014 76.7841 171.5 76.4366C171.998 76.0776 172.322 75.5853 172.473 74.9599H174.923C174.691 76.2108 174.106 77.1895 173.168 77.896C172.241 78.6025 171.048 78.9558 169.589 78.9558ZM179.81 78.9558C179.069 78.9558 178.461 78.84 177.986 78.6083C177.511 78.3651 177.158 78.0466 176.926 77.6528C176.694 77.259 176.578 76.8246 176.578 76.3498C176.578 75.5506 176.891 74.9019 177.517 74.4039C178.142 73.9059 179.08 73.6568 180.331 73.6568H182.52V73.4484C182.52 72.8576 182.352 72.4233 182.016 72.1453C181.68 71.8674 181.264 71.7284 180.765 71.7284C180.314 71.7284 179.92 71.8384 179.584 72.0585C179.248 72.2669 179.04 72.5797 178.959 72.9966H176.787C176.845 72.3712 177.053 71.8268 177.412 71.3635C177.783 70.9002 178.258 70.547 178.837 70.3037C179.416 70.0489 180.065 69.9215 180.783 69.9215C182.011 69.9215 182.978 70.2284 183.684 70.8423C184.391 71.4562 184.744 72.3249 184.744 73.4484V78.7473H182.85L182.642 77.3574C182.387 77.8207 182.028 78.2029 181.565 78.5041C181.113 78.8052 180.528 78.9558 179.81 78.9558ZM180.314 77.2184C180.951 77.2184 181.443 77.0099 181.791 76.593C182.15 76.176 182.375 75.6606 182.468 75.0467H180.574C179.984 75.0467 179.561 75.1568 179.306 75.3768C179.051 75.5853 178.924 75.8459 178.924 76.1586C178.924 76.4945 179.051 76.7551 179.306 76.9405C179.561 77.1258 179.897 77.2184 180.314 77.2184ZM186.866 78.7473V70.13H188.847L189.055 71.7457C189.368 71.1898 189.791 70.7496 190.324 70.4253C190.868 70.0894 191.505 69.9215 192.235 69.9215V72.2669H191.609C191.123 72.2669 190.688 72.3422 190.306 72.4928C189.924 72.6434 189.623 72.904 189.403 73.2746C189.194 73.6453 189.09 74.1607 189.09 74.8209V78.7473H186.866ZM197.563 78.9558C196.752 78.9558 196.028 78.7589 195.391 78.3651C194.754 77.9713 194.251 77.4327 193.88 76.7493C193.509 76.066 193.324 75.29 193.324 74.4213C193.324 73.5526 193.509 72.7824 193.88 72.1106C194.251 71.4272 194.754 70.8944 195.391 70.5122C196.028 70.1184 196.752 69.9215 197.563 69.9215C198.212 69.9215 198.779 70.0431 199.266 70.2863C199.752 70.5296 200.146 70.8713 200.447 71.3114V66.2383H202.671V78.7473H200.69L200.447 77.5138C200.169 77.896 199.798 78.2319 199.335 78.5215C198.883 78.811 198.293 78.9558 197.563 78.9558ZM198.032 77.0099C198.75 77.0099 199.335 76.7725 199.787 76.2976C200.25 75.8112 200.482 75.1915 200.482 74.4387C200.482 73.6858 200.25 73.0719 199.787 72.597C199.335 72.1106 198.75 71.8674 198.032 71.8674C197.326 71.8674 196.741 72.1048 196.277 72.5797C195.814 73.0545 195.582 73.6684 195.582 74.4213C195.582 75.1741 195.814 75.7938 196.277 76.2803C196.741 76.7667 197.326 77.0099 198.032 77.0099Z" fill="white"/>
<path d="M114.818 177.094V168.32L113.182 168.682V167.842L115.223 166.959H116.048V177.094H114.818ZM118.028 177.094V176.239C118.714 175.699 119.36 175.154 119.968 174.603C120.586 174.044 121.131 173.493 121.604 172.953C122.087 172.412 122.463 171.881 122.734 171.36C123.014 170.839 123.153 170.337 123.153 169.855C123.153 169.497 123.091 169.164 122.965 168.856C122.849 168.547 122.656 168.301 122.386 168.117C122.116 167.924 121.749 167.828 121.286 167.828C120.842 167.828 120.47 167.929 120.171 168.132C119.872 168.325 119.645 168.585 119.491 168.913C119.346 169.242 119.273 169.594 119.273 169.97H118.101C118.101 169.304 118.241 168.735 118.52 168.262C118.8 167.779 119.182 167.413 119.664 167.162C120.147 166.911 120.692 166.785 121.3 166.785C122.198 166.785 122.931 167.041 123.501 167.553C124.08 168.054 124.37 168.807 124.37 169.811C124.37 170.41 124.22 171.003 123.921 171.592C123.622 172.171 123.24 172.736 122.777 173.286C122.314 173.826 121.817 174.333 121.286 174.806C120.765 175.279 120.277 175.704 119.824 176.08H124.717V177.094H118.028ZM129.629 177.267C128.982 177.267 128.398 177.151 127.877 176.92C127.356 176.679 126.936 176.321 126.618 175.848C126.309 175.376 126.145 174.787 126.125 174.082H127.356C127.366 174.661 127.568 175.163 127.964 175.588C128.36 176.003 128.915 176.21 129.629 176.21C130.343 176.21 130.879 176.013 131.236 175.617C131.603 175.221 131.786 174.743 131.786 174.183C131.786 173.711 131.67 173.324 131.439 173.025C131.217 172.726 130.913 172.504 130.527 172.359C130.15 172.214 129.735 172.142 129.282 172.142H128.529V171.114H129.282C129.938 171.114 130.449 170.965 130.816 170.665C131.193 170.366 131.381 169.946 131.381 169.406C131.381 168.952 131.231 168.58 130.932 168.291C130.642 167.992 130.208 167.842 129.629 167.842C129.069 167.842 128.62 168.011 128.283 168.349C127.945 168.677 127.756 169.092 127.718 169.594H126.487C126.516 169.044 126.661 168.556 126.922 168.132C127.192 167.707 127.559 167.379 128.022 167.147C128.485 166.906 129.021 166.785 129.629 166.785C130.285 166.785 130.831 166.901 131.265 167.133C131.709 167.364 132.042 167.673 132.264 168.059C132.496 168.445 132.611 168.87 132.611 169.333C132.611 169.845 132.472 170.313 132.192 170.738C131.912 171.153 131.492 171.433 130.932 171.577C131.53 171.703 132.028 171.988 132.423 172.432C132.819 172.876 133.017 173.46 133.017 174.183C133.017 174.743 132.887 175.26 132.626 175.733C132.375 176.196 131.999 176.568 131.497 176.847C130.995 177.127 130.372 177.267 129.629 177.267ZM139.574 177.094V174.922H134.434V173.981L139.357 166.959H140.775V173.85H142.281V174.922H140.775V177.094H139.574ZM135.781 173.85H139.632V168.305L135.781 173.85Z" fill="white"/>
<path d="M113.182 220.528L116.917 210.393H118.205L121.926 220.528H120.638L119.711 217.922H115.397L114.456 220.528H113.182ZM115.759 216.937H119.349L117.554 211.928L115.759 216.937ZM123.433 220.528V210.393H126.705C127.496 210.393 128.143 210.523 128.645 210.784C129.147 211.045 129.519 211.402 129.76 211.855C130.001 212.309 130.122 212.811 130.122 213.361C130.122 213.998 129.948 214.572 129.601 215.084C129.263 215.596 128.732 215.957 128.008 216.17L130.223 220.528H128.79L126.734 216.344H126.647H124.649V220.528H123.433ZM124.649 215.388H126.618C127.4 215.388 127.969 215.2 128.327 214.823C128.684 214.447 128.862 213.964 128.862 213.376C128.862 212.777 128.684 212.304 128.327 211.957C127.979 211.6 127.405 211.421 126.604 211.421H124.649V215.388ZM139.075 220.701C138.332 220.701 137.685 220.566 137.135 220.296C136.585 220.026 136.16 219.649 135.861 219.167C135.562 218.684 135.412 218.124 135.412 217.487H136.686C136.686 217.883 136.778 218.25 136.962 218.588C137.145 218.916 137.41 219.181 137.758 219.384C138.115 219.577 138.554 219.674 139.075 219.674C139.761 219.674 140.291 219.509 140.668 219.181C141.044 218.853 141.233 218.443 141.233 217.951C141.233 217.545 141.146 217.222 140.972 216.981C140.798 216.73 140.562 216.527 140.263 216.373C139.973 216.218 139.635 216.083 139.249 215.967C138.873 215.851 138.477 215.721 138.062 215.576C137.28 215.306 136.701 214.973 136.325 214.577C135.948 214.172 135.76 213.646 135.76 212.999C135.75 212.459 135.876 211.981 136.136 211.566C136.397 211.141 136.764 210.813 137.237 210.581C137.719 210.34 138.289 210.219 138.945 210.219C139.592 210.219 140.152 210.34 140.624 210.581C141.107 210.823 141.479 211.156 141.739 211.58C142.01 212.005 142.15 212.488 142.159 213.028H140.885C140.885 212.748 140.813 212.473 140.668 212.203C140.523 211.923 140.301 211.696 140.002 211.522C139.712 211.349 139.346 211.262 138.902 211.262C138.351 211.252 137.898 211.392 137.541 211.682C137.193 211.971 137.019 212.372 137.019 212.883C137.019 213.318 137.14 213.651 137.381 213.882C137.632 214.114 137.98 214.307 138.424 214.461C138.868 214.606 139.379 214.775 139.958 214.968C140.441 215.142 140.875 215.345 141.262 215.576C141.648 215.808 141.947 216.107 142.159 216.474C142.381 216.841 142.492 217.309 142.492 217.878C142.492 218.361 142.367 218.819 142.116 219.254C141.865 219.678 141.484 220.026 140.972 220.296C140.47 220.566 139.838 220.701 139.075 220.701ZM144.144 220.528V210.104H145.361V214.577C145.602 214.133 145.945 213.791 146.389 213.549C146.833 213.298 147.315 213.173 147.836 213.173C148.666 213.173 149.332 213.433 149.834 213.955C150.336 214.466 150.587 215.258 150.587 216.329V220.528H149.386V216.459C149.386 214.963 148.782 214.215 147.576 214.215C146.948 214.215 146.422 214.442 145.998 214.896C145.573 215.34 145.361 215.977 145.361 216.807V220.528H144.144ZM154.819 220.701C154.22 220.701 153.723 220.6 153.327 220.397C152.932 220.195 152.637 219.924 152.444 219.587C152.251 219.249 152.155 218.882 152.155 218.486C152.155 217.753 152.435 217.188 152.994 216.792C153.554 216.397 154.317 216.199 155.282 216.199H157.222V216.112C157.222 215.485 157.058 215.012 156.73 214.693C156.402 214.365 155.962 214.201 155.412 214.201C154.939 214.201 154.529 214.321 154.182 214.563C153.844 214.794 153.631 215.137 153.545 215.591H152.299C152.348 215.069 152.521 214.63 152.821 214.273C153.13 213.916 153.511 213.646 153.964 213.462C154.418 213.269 154.901 213.173 155.412 213.173C156.416 213.173 157.169 213.443 157.671 213.984C158.182 214.514 158.438 215.224 158.438 216.112V220.528H157.352L157.28 219.239C157.077 219.645 156.778 219.992 156.382 220.282C155.996 220.561 155.475 220.701 154.819 220.701ZM155.007 219.674C155.47 219.674 155.866 219.553 156.194 219.312C156.532 219.07 156.788 218.757 156.961 218.37C157.135 217.984 157.222 217.579 157.222 217.154V217.14H155.383C154.669 217.14 154.162 217.265 153.863 217.516C153.574 217.758 153.429 218.062 153.429 218.428C153.429 218.805 153.564 219.109 153.834 219.341C154.114 219.563 154.505 219.674 155.007 219.674ZM160.263 220.528V210.104H161.479V216.373L164.418 213.347H165.909L162.724 216.59L166.314 220.528H164.765L161.479 216.807V220.528H160.263ZM168.297 211.754C168.055 211.754 167.853 211.677 167.688 211.522C167.534 211.358 167.457 211.156 167.457 210.914C167.457 210.683 167.534 210.49 167.688 210.335C167.853 210.181 168.055 210.104 168.297 210.104C168.528 210.104 168.726 210.181 168.89 210.335C169.054 210.49 169.136 210.683 169.136 210.914C169.136 211.156 169.054 211.358 168.89 211.522C168.726 211.677 168.528 211.754 168.297 211.754ZM167.688 220.528V213.347H168.905V220.528H167.688ZM171.022 220.528V213.347H172.122L172.224 214.722C172.446 214.249 172.784 213.873 173.237 213.593C173.691 213.313 174.251 213.173 174.917 213.173V214.447H174.584C174.159 214.447 173.768 214.524 173.411 214.679C173.054 214.823 172.769 215.074 172.557 215.431C172.344 215.789 172.238 216.281 172.238 216.908V220.528H171.022Z" fill="white"/>
<path d="M326.643 222.08V211.552L324.68 211.986V210.978L327.13 209.918H328.12V222.08H326.643ZM331.695 222.08L336.525 211.169H329.853V209.918H338.019V211.013L333.241 222.08H331.695ZM337.642 223.73L342.002 208.806H343.444L339.084 223.73H337.642ZM346.426 222.08V211.552L344.463 211.986V210.978L346.913 209.918H347.903V222.08H346.426ZM350.279 222.08V221.055C351.101 220.406 351.877 219.752 352.607 219.092C353.348 218.42 354.003 217.76 354.57 217.111C355.149 216.462 355.601 215.825 355.925 215.2C356.261 214.575 356.429 213.972 356.429 213.393C356.429 212.965 356.354 212.565 356.203 212.194C356.064 211.824 355.833 211.528 355.508 211.308C355.184 211.077 354.744 210.961 354.188 210.961C353.655 210.961 353.209 211.082 352.85 211.326C352.491 211.557 352.219 211.87 352.034 212.264C351.86 212.658 351.773 213.08 351.773 213.532H350.366C350.366 212.733 350.534 212.05 350.87 211.482C351.205 210.903 351.663 210.463 352.242 210.162C352.821 209.86 353.476 209.71 354.205 209.71C355.282 209.71 356.163 210.017 356.846 210.631C357.541 211.233 357.889 212.136 357.889 213.341C357.889 214.059 357.709 214.771 357.35 215.478C356.991 216.173 356.533 216.85 355.977 217.511C355.421 218.159 354.825 218.767 354.188 219.335C353.562 219.902 352.978 220.412 352.433 220.864H358.305V222.08H350.279Z" fill="white"/>
<circle cx="411.718" cy="214.49" r="10.8585" fill="#58B3FF"/>
<circle cx="395.792" cy="214.49" r="10.8585" fill="#4FBEFF"/>
<path d="M436.804 48.28V0.748901L405.518 13.9854V60.9149L436.804 48.28Z" fill="#F7FA62"/>
<defs>
<filter id="filter0_dddddd_832_569" x="247.883" y="379.438" width="255.104" height="280.73" filterUnits="userSpaceOnUse" color-interpolation-filters="sRGB">
<feFlood flood-opacity="0" result="BackgroundImageFix"/>
<feColorMatrix in="SourceAlpha" type="matrix" values="0 0 0 0 0 0 0 0 0 0 0 0 0 0 0 0 0 0 127 0" result="hardAlpha"/>
<feOffset dy="2.22837"/>
<feGaussianBlur stdDeviation="1.89411"/>
<feColorMatrix type="matrix" values="0 0 0 0 0 0 0 0 0 0 0 0 0 0 0 0 0 0 0.01 0"/>
<feBlend mode="normal" in2="BackgroundImageFix" result="effect1_dropShadow_832_569"/>
<feColorMatrix in="SourceAlpha" type="matrix" values="0 0 0 0 0 0 0 0 0 0 0 0 0 0 0 0 0 0 127 0" result="hardAlpha"/>
<feOffset dy="9.80483"/>
<feGaussianBlur stdDeviation="3.92193"/>
<feColorMatrix type="matrix" values="0 0 0 0 0 0 0 0 0 0 0 0 0 0 0 0 0 0 0.0117778 0"/>
<feBlend mode="normal" in2="effect1_dropShadow_832_569" result="effect2_dropShadow_832_569"/>
<feColorMatrix in="SourceAlpha" type="matrix" values="0 0 0 0 0 0 0 0 0 0 0 0 0 0 0 0 0 0 127 0" result="hardAlpha"/>
<feOffset dy="24.0664"/>
<feGaussianBlur stdDeviation="7.82158"/>
<feColorMatrix type="matrix" values="0 0 0 0 0 0 0 0 0 0 0 0 0 0 0 0 0 0 0.015 0"/>
<feBlend mode="normal" in2="effect2_dropShadow_832_569" result="effect3_dropShadow_832_569"/>
<feColorMatrix in="SourceAlpha" type="matrix" values="0 0 0 0 0 0 0 0 0 0 0 0 0 0 0 0 0 0 127 0" result="hardAlpha"/>
<feOffset dy="46.3501"/>
<feGaussianBlur stdDeviation="15.3312"/>
<feColorMatrix type="matrix" values="0 0 0 0 0 0 0 0 0 0 0 0 0 0 0 0 0 0 0.0182222 0"/>
<feBlend mode="normal" in2="effect3_dropShadow_832_569" result="effect4_dropShadow_832_569"/>
<feColorMatrix in="SourceAlpha" type="matrix" values="0 0 0 0 0 0 0 0 0 0 0 0 0 0 0 0 0 0 127 0" result="hardAlpha"/>
<feOffset dy="77.9929"/>
<feGaussianBlur stdDeviation="28.1889"/>
<feColorMatrix type="matrix" values="0 0 0 0 0 0 0 0 0 0 0 0 0 0 0 0 0 0 0.0227778 0"/>
<feBlend mode="normal" in2="effect4_dropShadow_832_569" result="effect5_dropShadow_832_569"/>
<feColorMatrix in="SourceAlpha" type="matrix" values="0 0 0 0 0 0 0 0 0 0 0 0 0 0 0 0 0 0 127 0" result="hardAlpha"/>
<feOffset dy="120.332"/>
<feGaussianBlur stdDeviation="48.1328"/>
<feColorMatrix type="matrix" values="0 0 0 0 0 0 0 0 0 0 0 0 0 0 0 0 0 0 0.03 0"/>
<feBlend mode="normal" in2="effect5_dropShadow_832_569" result="effect6_dropShadow_832_569"/>
<feBlend mode="normal" in="SourceGraphic" in2="effect6_dropShadow_832_569" result="shape"/>
</filter>
<filter id="filter1_dddddd_832_569" x="334.522" y="379.438" width="255.104" height="280.73" filterUnits="userSpaceOnUse" color-interpolation-filters="sRGB">
<feFlood flood-opacity="0" result="BackgroundImageFix"/>
<feColorMatrix in="SourceAlpha" type="matrix" values="0 0 0 0 0 0 0 0 0 0 0 0 0 0 0 0 0 0 127 0" result="hardAlpha"/>
<feOffset dy="2.22837"/>
<feGaussianBlur stdDeviation="1.89411"/>
<feColorMatrix type="matrix" values="0 0 0 0 0 0 0 0 0 0 0 0 0 0 0 0 0 0 0.01 0"/>
<feBlend mode="normal" in2="BackgroundImageFix" result="effect1_dropShadow_832_569"/>
<feColorMatrix in="SourceAlpha" type="matrix" values="0 0 0 0 0 0 0 0 0 0 0 0 0 0 0 0 0 0 127 0" result="hardAlpha"/>
<feOffset dy="9.80483"/>
<feGaussianBlur stdDeviation="3.92193"/>
<feColorMatrix type="matrix" values="0 0 0 0 0 0 0 0 0 0 0 0 0 0 0 0 0 0 0.0117778 0"/>
<feBlend mode="normal" in2="effect1_dropShadow_832_569" result="effect2_dropShadow_832_569"/>
<feColorMatrix in="SourceAlpha" type="matrix" values="0 0 0 0 0 0 0 0 0 0 0 0 0 0 0 0 0 0 127 0" result="hardAlpha"/>
<feOffset dy="24.0664"/>
<feGaussianBlur stdDeviation="7.82158"/>
<feColorMatrix type="matrix" values="0 0 0 0 0 0 0 0 0 0 0 0 0 0 0 0 0 0 0.015 0"/>
<feBlend mode="normal" in2="effect2_dropShadow_832_569" result="effect3_dropShadow_832_569"/>
<feColorMatrix in="SourceAlpha" type="matrix" values="0 0 0 0 0 0 0 0 0 0 0 0 0 0 0 0 0 0 127 0" result="hardAlpha"/>
<feOffset dy="46.3501"/>
<feGaussianBlur stdDeviation="15.3312"/>
<feColorMatrix type="matrix" values="0 0 0 0 0 0 0 0 0 0 0 0 0 0 0 0 0 0 0.0182222 0"/>
<feBlend mode="normal" in2="effect3_dropShadow_832_569" result="effect4_dropShadow_832_569"/>
<feColorMatrix in="SourceAlpha" type="matrix" values="0 0 0 0 0 0 0 0 0 0 0 0 0 0 0 0 0 0 127 0" result="hardAlpha"/>
<feOffset dy="77.9929"/>
<feGaussianBlur stdDeviation="28.1889"/>
<feColorMatrix type="matrix" values="0 0 0 0 0 0 0 0 0 0 0 0 0 0 0 0 0 0 0.0227778 0"/>
<feBlend mode="normal" in2="effect4_dropShadow_832_569" result="effect5_dropShadow_832_569"/>
<feColorMatrix in="SourceAlpha" type="matrix" values="0 0 0 0 0 0 0 0 0 0 0 0 0 0 0 0 0 0 127 0" result="hardAlpha"/>
<feOffset dy="120.332"/>
<feGaussianBlur stdDeviation="48.1328"/>
<feColorMatrix type="matrix" values="0 0 0 0 0 0 0 0 0 0 0 0 0 0 0 0 0 0 0.03 0"/>
<feBlend mode="normal" in2="effect5_dropShadow_832_569" result="effect6_dropShadow_832_569"/>
<feBlend mode="normal" in="SourceGraphic" in2="effect6_dropShadow_832_569" result="shape"/>
</filter>
<filter id="filter2_dddddd_832_569" x="421.162" y="379.438" width="255.104" height="280.73" filterUnits="userSpaceOnUse" color-interpolation-filters="sRGB">
<feFlood flood-opacity="0" result="BackgroundImageFix"/>
<feColorMatrix in="SourceAlpha" type="matrix" values="0 0 0 0 0 0 0 0 0 0 0 0 0 0 0 0 0 0 127 0" result="hardAlpha"/>
<feOffset dy="2.22837"/>
<feGaussianBlur stdDeviation="1.89411"/>
<feColorMatrix type="matrix" values="0 0 0 0 0 0 0 0 0 0 0 0 0 0 0 0 0 0 0.01 0"/>
<feBlend mode="normal" in2="BackgroundImageFix" result="effect1_dropShadow_832_569"/>
<feColorMatrix in="SourceAlpha" type="matrix" values="0 0 0 0 0 0 0 0 0 0 0 0 0 0 0 0 0 0 127 0" result="hardAlpha"/>
<feOffset dy="9.80483"/>
<feGaussianBlur stdDeviation="3.92193"/>
<feColorMatrix type="matrix" values="0 0 0 0 0 0 0 0 0 0 0 0 0 0 0 0 0 0 0.0117778 0"/>
<feBlend mode="normal" in2="effect1_dropShadow_832_569" result="effect2_dropShadow_832_569"/>
<feColorMatrix in="SourceAlpha" type="matrix" values="0 0 0 0 0 0 0 0 0 0 0 0 0 0 0 0 0 0 127 0" result="hardAlpha"/>
<feOffset dy="24.0664"/>
<feGaussianBlur stdDeviation="7.82158"/>
<feColorMatrix type="matrix" values="0 0 0 0 0 0 0 0 0 0 0 0 0 0 0 0 0 0 0.015 0"/>
<feBlend mode="normal" in2="effect2_dropShadow_832_569" result="effect3_dropShadow_832_569"/>
<feColorMatrix in="SourceAlpha" type="matrix" values="0 0 0 0 0 0 0 0 0 0 0 0 0 0 0 0 0 0 127 0" result="hardAlpha"/>
<feOffset dy="46.3501"/>
<feGaussianBlur stdDeviation="15.3312"/>
<feColorMatrix type="matrix" values="0 0 0 0 0 0 0 0 0 0 0 0 0 0 0 0 0 0 0.0182222 0"/>
<feBlend mode="normal" in2="effect3_dropShadow_832_569" result="effect4_dropShadow_832_569"/>
<feColorMatrix in="SourceAlpha" type="matrix" values="0 0 0 0 0 0 0 0 0 0 0 0 0 0 0 0 0 0 127 0" result="hardAlpha"/>
<feOffset dy="77.9929"/>
<feGaussianBlur stdDeviation="28.1889"/>
<feColorMatrix type="matrix" values="0 0 0 0 0 0 0 0 0 0 0 0 0 0 0 0 0 0 0.0227778 0"/>
<feBlend mode="normal" in2="effect4_dropShadow_832_569" result="effect5_dropShadow_832_569"/>
<feColorMatrix in="SourceAlpha" type="matrix" values="0 0 0 0 0 0 0 0 0 0 0 0 0 0 0 0 0 0 127 0" result="hardAlpha"/>
<feOffset dy="120.332"/>
<feGaussianBlur stdDeviation="48.1328"/>
<feColorMatrix type="matrix" values="0 0 0 0 0 0 0 0 0 0 0 0 0 0 0 0 0 0 0.03 0"/>
<feBlend mode="normal" in2="effect5_dropShadow_832_569" result="effect6_dropShadow_832_569"/>
<feBlend mode="normal" in="SourceGraphic" in2="effect6_dropShadow_832_569" result="shape"/>
</filter>
<linearGradient id="paint0_linear_832_569" x1="267.662" y1="27" x2="267.662" y2="258.649" gradientUnits="userSpaceOnUse">
<stop stop-color="#2B00D4"/>
<stop offset="1" stop-color="#2100A2"/>
</linearGradient>
</defs>
</svg>
