<?xml version="1.0" encoding="UTF-8" standalone="no"?>
<svg
   width="677"
   height="553"
   viewBox="0 0 677 553"
   fill="none"
   version="1.1"
   id="svg289"
   sodipodi:docname="card-graphic.svg"
   inkscape:version="1.2 (dc2aedaf03, 2022-05-15)"
   xmlns:inkscape="http://www.inkscape.org/namespaces/inkscape"
   xmlns:sodipodi="http://sodipodi.sourceforge.net/DTD/sodipodi-0.dtd"
   xmlns="http://www.w3.org/2000/svg"
   xmlns:svg="http://www.w3.org/2000/svg">
  <sodipodi:namedview
     id="namedview291"
     pagecolor="#ffffff"
     bordercolor="#666666"
     borderopacity="1.0"
     inkscape:showpageshadow="2"
     inkscape:pageopacity="0.0"
     inkscape:pagecheckerboard="0"
     inkscape:deskcolor="#d1d1d1"
     showgrid="false"
     inkscape:zoom="0.80937973"
     inkscape:cx="341.61963"
     inkscape:cy="282.93271"
     inkscape:window-width="1366"
     inkscape:window-height="715"
     inkscape:window-x="-8"
     inkscape:window-y="-8"
     inkscape:window-maximized="1"
     inkscape:current-layer="svg289" />
  <path
     d="M -4.88281e-4,143.71424 356.03826,238.56629 V 469.51091 L -4.88281e-4,374.65886 Z"
     fill="#ebece8"
     id="path2"
     style="stroke-width:1.1424" />
  <rect
     x="151.21341"
     y="255.06252"
     width="481.13403"
     height="214.44841"
     fill="#c6d3da"
     id="rect4"
     style="stroke-width:1.1424"
     rx="11.564" />
  <rect
     x="181.45607"
     y="330.66974"
     width="48.113403"
     height="48.113403"
     fill="#ffffff"
     id="rect6"
     style="stroke-width:1.1424"
     rx="11.564" />
  <rect
     x="243.31685"
     y="338.91672"
     width="96.226807"
     height="12.372041"
     rx="11.564"
     fill="#ffffff"
     id="rect8"
     style="stroke-width:1.1424" />
  <rect
     x="243.31685"
     y="360.91241"
     width="145.71498"
     height="8.2480125"
     rx="11.564"
     fill="#ffffff"
     id="rect10"
     style="stroke-width:1.1424" />
  <rect
     x="243.31685"
     y="396.65341"
     width="105.84945"
     height="9.6226807"
     rx="11.564"
     fill="#ffffff"
     id="rect12"
     style="stroke-width:1.1424" />
  <rect
     x="357.41373"
     y="396.65341"
     width="213.07411"
     height="9.6226807"
     rx="11.564"
     fill="#ffffff"
     id="rect14"
     style="stroke-width:1.1424" />
  <path
     d="m 626.84796,505.93966 v 39.17735 h -98.9761 M 114.09682,295.6153 v 53.61153 H 56.360665 V 545.11701 H 428.20803 m 0,-39.17735 v 39.17735 m 0,0 h 99.66383 m 0,-39.17735 v 39.17735"
     stroke="#838383"
     stroke-width="1.37467"
     stroke-dasharray="6.02, 6.02"
     id="path16" />
  <g
     filter="url(#filter0_dddddd_906_569)"
     id="g20"
     transform="matrix(1.1423966,0,0,1.1423966,6.9529575e-5,-0.10664099)">
    <rect
       x="344.14899"
       y="380.99799"
       width="62.572601"
       height="62.572601"
       fill="#ffffff"
       id="rect18" />
  </g>
  <path
     d="m 434.97902,470.82695 c 1.39258,-0.82138 2.39332,-2.20711 2.62751,-3.90699 0.32901,-2.38647 -0.94248,-4.71353 -3.02278,-5.95532 l 0.25475,-1.84268 c 0.10739,-0.78597 -0.47638,-1.54452 -1.30462,-1.69418 -0.82823,-0.14851 -1.58907,0.36786 -1.6976,1.15497 l -0.19649,1.42457 -3.00108,-0.54036 0.1965,-1.42457 c 0.10852,-0.78597 -0.47524,-1.54452 -1.30348,-1.69417 -0.82824,-0.14851 -1.58907,0.36785 -1.6976,1.15496 l -0.19649,1.42457 -3.00108,-0.54035 c -0.82824,-0.14851 -1.58793,0.36785 -1.69646,1.15496 -0.10852,0.78597 0.47524,1.54566 1.30348,1.69417 l 1.50111,0.26961 -0.98246,7.12284 -0.98247,7.12285 -1.5011,-0.27075 c -0.82824,-0.14851 -1.58794,0.36899 -1.69646,1.15496 -0.10853,0.78711 0.47523,1.54566 1.30347,1.69418 l 3.00108,0.54035 -0.1965,1.42457 c -0.10852,0.78597 0.47524,1.54566 1.30462,1.69417 0.82824,0.14966 1.58793,-0.36785 1.69646,-1.15496 l 0.19649,-1.42457 3.00108,0.54035 -0.19649,1.42457 c -0.10853,0.78711 0.47638,1.54566 1.30461,1.69418 0.82824,0.14965 1.58793,-0.36786 1.69646,-1.15497 l 0.25476,-1.84154 c 2.31449,-0.45125 4.15032,-2.21968 4.47933,-4.60614 0.23534,-1.69989 -0.34386,-3.37007 -1.44855,-4.63928 z m -8.23326,-8.78046 5.2516,0.94477 c 1.65533,0.29702 2.82515,1.81755 2.60809,3.38834 -0.21591,1.5708 -1.73873,2.60695 -3.39406,2.30993 l -5.2516,-0.94476 z m 3.28668,15.18931 -5.2516,-0.94476 0.78597,-5.69828 5.2516,0.94476 c 1.65533,0.29817 2.82514,1.8187 2.60809,3.3895 -0.21591,1.57079 -1.73873,2.60694 -3.39406,2.30878 z"
     fill="#f9896b"
     id="path22"
     style="stroke-width:1.1424" />
  <g
     filter="url(#filter1_dddddd_906_569)"
     id="g26"
     transform="matrix(1.1423966,0,0,1.1423966,6.9529575e-5,-0.10664099)">
    <rect
       x="430.78799"
       y="380.99799"
       width="62.572601"
       height="62.572601"
       fill="#ffffff"
       id="rect24" />
  </g>
  <path
     d="m 542.59278,472.53027 c -1.76158,7.07714 -8.20584,12.11169 -15.79706,12.11169 -7.6255,0 -14.01492,-5.33271 -15.70453,-12.43956 2.03118,0 3.92985,0.0103 4.81178,0.0103 0.41583,0 0.49694,0.007 0.52093,0.005 0.66373,-0.032 1.4954,-0.25133 2.04832,-1.59707 l 2.10886,-5.51549 4.68268,11.27545 c 0.42155,0.89907 1.12412,0.8351 1.54338,0.8351 h 0.04 c 0.81795,0 1.17324,-0.28675 1.48511,-0.87965 l 5.2893,-11.14636 1.80498,5.02311 0.10967,0.24334 c 0.38157,0.83737 0.65574,1.66332 1.6005,1.77185 0.19421,0.0217 2.45501,-0.0171 5.50178,-0.0171 0,0 0,0.0194 -0.0457,0.31987 z"
     fill="#3db5e6"
     id="path28"
     style="stroke-width:1.1424" />
  <path
     d="m 543.11028,468.36166 c 0,0.0845 0,0.29588 -10e-4,0.29588 h -0.003 -4.86432 l -2.83657,-7.92595 c -0.25361,-0.58947 -0.63289,-1.47369 -1.73987,-1.47369 -0.67744,0 -1.28862,0.55978 -1.63591,1.48283 l -5.14422,11.91406 -4.95114,-11.84208 c -0.48438,-1.05215 -0.8191,-1.54681 -1.789,-1.54681 -0.65802,0 -1.14125,0.24333 -1.66675,1.48854 l -2.93939,8.02077 -4.88146,-0.005 c -0.005,-0.12224 -0.006,-0.24447 -0.006,-0.36671 0,-8.91526 7.22794,-16.1215 16.14435,-16.1215 8.9164,0 16.31456,7.16283 16.31456,16.07923 z"
     fill="#d8292f"
     id="path30"
     style="stroke-width:1.1424" />
  <g
     filter="url(#filter2_dddddd_906_569)"
     id="g34"
     transform="matrix(1.1423966,0,0,1.1423966,6.9529575e-5,-0.10664099)">
    <rect
       x="517.427"
       y="380.99799"
       width="62.572601"
       height="62.572601"
       fill="#ffffff"
       id="rect32" />
  </g>
  <path
     d="m 613.28771,474.79221 c -1.17438,0.003 -2.2608,-0.62717 -2.84114,-1.64848 -0.57234,-1.01559 -0.53807,-2.26423 0.0891,-3.24554 l 5.85249,-9.19059 c 0.6089,-1.0053 1.7136,-1.60506 2.88798,-1.56965 1.17553,0.0286 2.24367,0.68658 2.79659,1.72388 0.54492,1.03158 0.47752,2.27223 -0.17593,3.24098 l -5.84907,9.18944 c -0.60204,0.93905 -1.64391,1.50567 -2.76003,1.49996 z"
     fill="#f62b54"
     id="path36"
     style="stroke-width:1.1424" />
  <path
     d="m 623.32595,474.79221 c -1.1801,0 -2.26652,-0.6306 -2.83657,-1.64505 -0.5712,-1.0133 -0.53693,-2.25737 0.0891,-3.23755 l 5.84107,-9.16888 c 0.6009,-1.02016 1.70788,-1.63362 2.89141,-1.60278 1.19037,0.0263 2.2688,0.69229 2.81486,1.73302 0.5415,1.04186 0.46153,2.2905 -0.21134,3.25583 l -5.83993,9.16887 c -0.6009,0.93563 -1.63706,1.49997 -2.74861,1.49654 z"
     fill="#ffcc00"
     id="path38"
     style="stroke-width:1.1424" />
  <path
     d="m 633.13914,474.8699 c 1.66447,0 3.01364,-1.32061 3.01364,-2.94967 0,-1.62906 -1.34917,-2.94967 -3.01364,-2.94967 -1.66333,0 -3.0125,1.32061 -3.0125,2.94967 0,1.62906 1.34917,2.94967 3.0125,2.94967 z"
     fill="#00ca72"
     id="path40"
     style="stroke-width:1.1424" />
  <rect
     x="89.10701"
     y="30.738068"
     width="433.34"
     height="264.63501"
     rx="11.564"
     fill="url(#paint0_linear_906_569)"
     id="rect42"
     style="fill:url(#paint0_linear_906_569);stroke-width:1.1424" />
  <mask
     id="mask0_906_569"
     maskUnits="userSpaceOnUse"
     x="78"
     y="27"
     width="380"
     height="232">
    <rect
       x="78.000504"
       y="27"
       width="379.32501"
       height="231.649"
       rx="10.1346"
       fill="#50449c"
       id="rect44" />
  </mask>
  <g
     id="g13548"
     mask="url(#mask15250)">
    <path
       d="M 271.324,135.243 C 202.987,89.6844 194.516,40.3902 196.967,19.761 h 270.016 v 260.605 h -89.764 c -2.611,-20.599 -22.578,-50.702 -39.348,-77.1 -16.818,-26.474 -40.45,-50.625 -66.547,-68.023 z"
       fill="#491fef"
       id="path47"
       style="display:inline;opacity:1;stroke-width:0.999653;stroke-dasharray:none"
       transform="matrix(1.1423966,0,0,1.1423966,6.9529575e-5,-0.10664099)" />
    <path
       d="M 430.788,273.85 C 471.327,208.989 362.259,77.4318 302.658,19.7609 L 279.493,-2.68005 H 499.559 V 273.85 c -39.814,27.026 -109.309,64.862 -68.771,0 z"
       fill="#d9f9fd"
       id="path49"
       style="display:inline;opacity:1;stroke-width:0.999653;stroke-dasharray:none"
       transform="matrix(1.1423966,0,0,1.1423966,6.9529575e-5,-0.10664099)" />
    <path
       id="path11956"
       style="display:inline;opacity:1;stroke-width:0.999653;stroke-dasharray:none;mix-blend-mode:normal;fill:#00e4ff;fill-opacity:1;stroke:none;stroke-opacity:1"
       d="M 466.98353 -6.2991201 L 300.48529 10.349679 C 359.60423 50.405539 477.55157 140.94163 476.39357 182.63859 C 475.23558 224.33555 492.32075 138.23998 501.00774 89.979424 L 466.98353 -6.2991201 z "
       class="UnoptimicedTransforms"
       transform="matrix(1.1423966,0,0,1.1423966,6.9529575e-5,-0.10664099)" />
  </g>
  <path
     d="m 448.79059,90.343984 3.6591,-16.067123 h 3.66024 l -2.76689,16.067123 z"
     fill="#000000"
     id="path55"
     style="stroke-width:1.1424" />
  <path
     d="m 469.49881,74.455417 c -0.89221,-0.356999 -2.3202,-0.713998 -4.10577,-0.713998 -4.46334,0 -7.67576,2.231558 -7.67576,5.444891 0,2.410114 2.2311,3.659782 4.01666,4.463115 1.78443,0.803334 2.32021,1.338889 2.32021,2.053001 0,1.071112 -1.42799,1.606781 -2.67778,1.606781 -1.78556,0 -2.76688,-0.267892 -4.28398,-0.892668 l -0.62489,-0.267778 -0.6249,3.659667 c 1.07043,0.446335 3.03421,0.892669 5.0871,0.892669 4.7318,0 7.85512,-2.231557 7.85512,-5.623447 0,-1.874559 -1.15954,-3.302669 -3.83731,-4.463115 -1.60736,-0.803334 -2.58867,-1.249668 -2.58867,-2.053001 0,-0.714113 0.8031,-1.428225 2.58867,-1.428225 1.5171,0 2.58752,0.267778 3.39177,0.624891 l 0.44554,0.178443 z"
     fill="#000000"
     id="path57"
     style="stroke-width:1.1424" />
  <path
     d="m 469.49881,74.455417 c -0.89221,-0.356999 -2.3202,-0.713998 -4.10577,-0.713998 -4.46334,0 -6.87266,2.231558 -6.87266,5.444891 0,2.410114 1.428,3.659782 3.21356,4.463115 1.78443,0.803334 2.32021,1.338889 2.32021,2.053001 0,1.071112 -1.42799,1.606781 -2.67778,1.606781 -1.78556,0 -2.76688,-0.267892 -4.28398,-0.892668 l -0.62489,-0.267778 -0.6249,3.659667 c 1.07043,0.446335 3.03421,0.892669 5.0871,0.892669 4.7318,0 7.85512,-2.231557 7.85512,-5.623447 0,-1.874559 -1.15954,-3.302669 -3.83731,-4.463115 -1.60736,-0.803334 -2.58867,-1.249668 -2.58867,-2.053001 0,-0.714113 0.8031,-1.428225 2.58867,-1.428225 1.5171,0 2.58752,0.267778 3.39177,0.624891 l 0.44554,0.178443 z"
     fill="#000000"
     id="path59"
     style="stroke-width:1.1424" />
  <path
     fill-rule="evenodd"
     clip-rule="evenodd"
     d="m 475.9248,75.437307 c 0.44667,-1.071111 1.24978,-1.160446 2.32135,-1.160446 h 2.40931 l 3.74935,16.067123 h -4.28513 l -0.53465,-2.677892 h -5.71312 l -0.89221,2.677892 h -4.82092 z m 0.98131,4.820114 c 0,0 -1.42913,3.838225 -1.78556,4.730779 v 0.08934 h 3.74934 c -0.17935,-0.892669 -1.07156,-4.90945 -1.07156,-4.90945 l -0.26732,-1.517446 c -0.26847,0.624891 -0.6249,1.606781 -0.6249,1.606781 z"
     fill="#000000"
     id="path61"
     style="stroke-width:1.1424" />
  <path
     d="m 440.58019,85.524098 -0.44668,-2.320778 c -0.80311,-2.677892 -3.39178,-5.623448 -6.24891,-7.051672 l 4.01781,14.2819 h 4.81977 l 7.23023,-16.067123 h -3.92756 z"
     fill="#000000"
     id="path63"
     style="stroke-width:1.1424" />
  <path
     d="m 428.17033,74.276861 0.80425,0.178556 c 5.71198,1.338889 9.63954,4.730893 11.15664,8.747674 l -1.60621,-7.587341 c -0.26732,-1.071112 -1.07156,-1.338889 -2.05288,-1.338889 z"
     fill="#ffbc00"
     id="path65"
     style="stroke-width:1.1424" />
  <path
     d="m 428.17033,74.276861 c 5.71313,1.338889 10.44379,4.820114 11.96089,8.836895 l -1.5171,-6.33756 c -0.26732,-1.071111 -1.16067,-1.696002 -2.14199,-1.696002 z"
     fill="#f7981d"
     id="path67"
     style="stroke-width:1.1424" />
  <path
     d="m 428.17033,74.276861 c 5.71313,1.338889 10.44379,4.820114 11.96089,8.836895 L 439.0608,79.63253 c -0.26846,-1.071111 -0.62489,-2.142222 -1.87467,-2.588556 z"
     fill="#ed7c00"
     id="path69"
     style="stroke-width:1.1424" />
  <path
     d="m 131.64072,165.93614 v -12.02715 l -2.24367,0.4958 v -1.15154 l 2.79887,-1.20979 h 1.13098 v 13.89268 z m 4.40051,0 v -1.17096 c 0.94019,-0.74027 1.82669,-1.48854 2.6595,-2.24252 0.84766,-0.76769 1.59479,-1.52167 2.24367,-2.26309 0.66145,-0.74027 1.17781,-1.46798 1.54795,-2.18312 0.38384,-0.714 0.57576,-1.40172 0.57576,-2.06431 0,-0.48894 -0.0868,-0.9459 -0.25818,-1.36859 -0.15879,-0.42383 -0.42383,-0.76084 -0.79396,-1.01216 -0.37014,-0.26504 -0.87394,-0.39756 -1.50911,-0.39756 -0.60776,0 -1.11726,0.13938 -1.52738,0.41698 -0.41012,0.26503 -0.722,0.62146 -0.93334,1.07157 -0.19878,0.4501 -0.29703,0.93333 -0.29703,1.44855 h -1.60849 c 0,-0.91277 0.19192,-1.69303 0.57577,-2.34191 0.38384,-0.66145 0.90706,-1.1641 1.56851,-1.50796 0.66145,-0.34386 1.40857,-0.51637 2.24252,-0.51637 1.23036,0 2.23567,0.35072 3.01707,1.05215 0.79397,0.68772 1.19038,1.72045 1.19038,3.0959 0,0.82024 -0.20449,1.63477 -0.61461,2.4413 -0.41126,0.79396 -0.93334,1.56851 -1.56851,2.32249 -0.63517,0.74142 -1.31604,1.43599 -2.04489,2.08373 -0.714,0.64888 -1.3823,1.23036 -2.00376,1.74673 h 6.70815 v 1.38915 z m 15.9033,0.23876 c -0.88649,0 -1.68617,-0.15879 -2.40131,-0.47638 -0.714,-0.33129 -1.28977,-0.82024 -1.72616,-1.46912 -0.42383,-0.64774 -0.64889,-1.45541 -0.67516,-2.42074 h 1.68732 c 0.0126,0.79283 0.29017,1.48169 0.83281,2.06317 0.54263,0.56891 1.30347,0.85337 2.2825,0.85337 0.97904,0 1.7136,-0.27075 2.20369,-0.81339 0.50265,-0.54263 0.75398,-1.19723 0.75398,-1.96492 0,-0.64774 -0.15879,-1.17781 -0.47638,-1.58793 -0.30388,-0.41012 -0.72085,-0.714 -1.25092,-0.91277 -0.51522,-0.19878 -1.08414,-0.29817 -1.70674,-0.29817 h -1.03159 v -1.40857 h 1.03159 c 0.9002,0 1.60164,-0.20564 2.10429,-0.61576 0.51636,-0.41012 0.77455,-0.98588 0.77455,-1.72616 0,-0.6226 -0.20564,-1.13097 -0.61576,-1.52852 -0.39755,-0.41012 -0.99274,-0.61576 -1.78671,-0.61576 -0.76654,0 -1.3823,0.23191 -1.84497,0.69572 -0.46381,0.44897 -0.72199,1.01788 -0.77454,1.70674 h -1.68732 c 0.04,-0.75398 0.23876,-1.42228 0.59519,-2.0049 0.37128,-0.58262 0.87393,-1.03159 1.5091,-1.34917 0.63518,-0.3313 1.36974,-0.49695 2.20254,-0.49695 0.90021,0 1.64734,0.1588 2.24367,0.47638 0.60776,0.31759 1.06472,0.74142 1.36859,1.27035 0.31759,0.52893 0.47638,1.11155 0.47638,1.74672 0,0.70144 -0.19192,1.34346 -0.57577,1.92494 -0.3827,0.56892 -0.95847,0.95276 -1.72616,1.15154 0.82024,0.17136 1.50225,0.56206 2.04375,1.17095 0.54264,0.6089 0.81453,1.40858 0.81453,2.40132 0,0.76769 -0.17936,1.47598 -0.53578,2.12372 -0.34387,0.63517 -0.86023,1.14468 -1.54795,1.52852 -0.68887,0.38385 -1.54224,0.57577 -2.56126,0.57577 z m 13.63337,-0.23876 v -2.97708 h -7.04631 v -1.28977 l 6.74928,-9.62583 h 1.94436 v 9.44762 h 2.06431 v 1.46798 h -2.06431 v 2.97708 z m -5.20019,-4.44506 h 5.28015 v -7.60265 z m 52.41772,4.68382 c -0.95275,0 -1.77985,-0.1725 -2.48128,-0.51636 -0.70029,-0.34386 -1.26349,-0.81339 -1.68618,-1.40972 -0.41012,-0.60775 -0.66145,-1.29662 -0.75512,-2.06317 h 1.62791 c 0.1588,0.76655 0.52893,1.38916 1.11155,1.86554 0.58263,0.46267 1.31719,0.69457 2.20369,0.69457 0.66145,0 1.23036,-0.15193 1.70674,-0.45695 0.47638,-0.31759 0.83966,-0.74028 1.09099,-1.27035 0.26503,-0.52893 0.39755,-1.11726 0.39755,-1.76614 0,-1.03159 -0.29131,-1.86554 -0.87393,-2.50071 -0.58148,-0.63517 -1.33661,-0.95276 -2.26195,-0.95276 -0.76769,0 -1.42228,0.1725 -1.96492,0.51636 -0.54264,0.34386 -0.94019,0.79397 -1.19152,1.34917 h -1.58793 l 1.19152,-7.62092 h 7.28392 v 1.44855 h -5.99416 l -0.81338,4.22801 c 0.31758,-0.38384 0.75398,-0.70143 1.30918,-0.95275 0.56892,-0.25133 1.2178,-0.37699 1.94551,-0.37699 0.91277,0 1.70674,0.21134 2.38189,0.63403 0.68773,0.42382 1.22351,0.99959 1.60736,1.7273 0.38384,0.72771 0.57576,1.5548 0.57576,2.48128 0,0.8865 -0.19192,1.70674 -0.57576,2.46073 -0.37014,0.75398 -0.91963,1.35602 -1.64734,1.80613 -0.714,0.4501 -1.58108,0.67515 -2.6001,0.67515 z m 12.43042,0 c -1.00531,0 -1.85182,-0.18507 -2.53955,-0.55634 -0.68886,-0.38385 -1.24407,-0.89336 -1.66789,-1.52739 -0.41012,-0.63517 -0.714,-1.34346 -0.91278,-2.12371 -0.18507,-0.79397 -0.2776,-1.60164 -0.2776,-2.42189 0,-1.53538 0.21134,-2.87769 0.63517,-4.02923 0.42269,-1.1641 1.03158,-2.07116 1.82555,-2.7189 0.80767,-0.66145 1.77985,-0.99275 2.91768,-0.99275 0.87279,0 1.62106,0.17251 2.24253,0.51637 0.6226,0.34386 1.11155,0.80653 1.46912,1.38915 0.37013,0.56892 0.60204,1.20409 0.69458,1.90552 h -1.54795 c -0.14623,-0.75398 -0.46953,-1.3366 -0.97332,-1.74672 -0.50266,-0.41012 -1.13783,-0.61576 -1.90438,-0.61576 -1.04529,0 -1.92608,0.49695 -2.64008,1.48969 -0.70143,0.97903 -1.07842,2.51327 -1.13097,4.60386 0.31759,-0.62147 0.82024,-1.15725 1.50796,-1.60735 0.70143,-0.46268 1.5411,-0.69458 2.52013,-0.69458 0.79397,0 1.53538,0.18507 2.2231,0.5552 0.70144,0.37128 1.27035,0.89336 1.70674,1.56851 0.43754,0.66145 0.65574,1.44171 0.65574,2.34192 0,0.78025 -0.19192,1.52852 -0.57577,2.24252 -0.38384,0.71514 -0.93905,1.29662 -1.66675,1.74673 -0.71514,0.4501 -1.56851,0.67515 -2.56126,0.67515 z m -0.11881,-1.46912 c 0.62147,0 1.17781,-0.13252 1.6679,-0.39641 0.48895,-0.26504 0.87279,-0.62946 1.1504,-1.09213 0.2776,-0.47638 0.41697,-1.01902 0.41697,-1.62792 0,-0.93905 -0.31073,-1.68618 -0.93334,-2.24252 -0.60775,-0.56892 -1.37544,-0.85337 -2.30193,-0.85337 -0.62146,0 -1.17781,0.14622 -1.66675,0.43639 -0.49009,0.27875 -0.88079,0.65574 -1.17096,1.13212 -0.27874,0.47638 -0.41697,0.9916 -0.41697,1.54795 0,0.59518 0.13823,1.13097 0.41697,1.60735 0.29017,0.46267 0.68087,0.82709 1.17096,1.09213 0.48894,0.26389 1.04529,0.39641 1.66675,0.39641 z m 8.24696,1.23036 5.51778,-12.46355 h -7.62093 v -1.42913 h 9.32767 v 1.24978 l -5.45837,12.6429 z m 13.68706,0.23876 c -0.91278,0 -1.73302,-0.16565 -2.46072,-0.49694 -0.72771,-0.34386 -1.30348,-0.81339 -1.72731,-1.40858 -0.41012,-0.60889 -0.61461,-1.31032 -0.61461,-2.10429 0,-0.84652 0.24448,-1.60735 0.73342,-2.28251 0.5038,-0.67401 1.16525,-1.12412 1.98549,-1.34917 -0.75398,-0.25133 -1.33661,-0.65459 -1.74673,-1.21094 -0.41012,-0.5552 -0.61575,-1.1641 -0.61575,-1.82555 0,-0.67516 0.17936,-1.29091 0.53578,-1.84611 0.35758,-0.56892 0.86708,-1.01902 1.52853,-1.34917 0.66145,-0.3313 1.45541,-0.49695 2.3819,-0.49695 0.92648,0 1.72045,0.16565 2.3819,0.49695 0.66144,0.33015 1.17095,0.78025 1.52852,1.34917 0.35643,0.5552 0.53579,1.17095 0.53579,1.84611 0,0.64774 -0.20564,1.25664 -0.61576,1.82555 -0.41012,0.55635 -0.99274,0.95961 -1.74672,1.21094 0.82024,0.22505 1.47598,0.67516 1.96492,1.34917 0.50266,0.67516 0.75398,1.43599 0.75398,2.28251 0,0.79397 -0.21134,1.4954 -0.63517,2.10429 -0.41012,0.59519 -0.97903,1.06472 -1.70674,1.40858 -0.72771,0.33129 -1.54795,0.49694 -2.46072,0.49694 z m 0,-8.23668 c 0.84651,0 1.51482,-0.21248 2.0049,-0.63517 0.50266,-0.43754 0.75399,-1.00645 0.75399,-1.70674 0,-0.7814 -0.24448,-1.36973 -0.73456,-1.76729 -0.48895,-0.39641 -1.16411,-0.59519 -2.02433,-0.59519 -0.86023,0 -1.53538,0.19878 -2.02433,0.59519 -0.47638,0.39756 -0.71514,0.98589 -0.71514,1.76729 0,0.70029 0.24562,1.2692 0.73456,1.70674 0.49009,0.42269 1.15839,0.63517 2.00491,0.63517 z m 0,6.76756 c 1.04529,0 1.82555,-0.23762 2.34191,-0.714 0.52893,-0.49009 0.79397,-1.13211 0.79397,-1.92608 0,-0.89906 -0.28446,-1.58108 -0.85337,-2.04375 -0.56892,-0.46267 -1.32975,-0.69457 -2.28251,-0.69457 -0.95276,0 -1.7136,0.2319 -2.28251,0.69457 -0.56891,0.46267 -0.85337,1.14469 -0.85337,2.04375 0,0.79397 0.25818,1.43599 0.77454,1.92608 0.52893,0.47638 1.31605,0.714 2.36134,0.714 z m 43.63041,1.46912 c -0.87393,0 -1.62106,-0.1725 -2.24367,-0.51636 -0.62146,-0.34386 -1.11726,-0.80082 -1.48854,-1.36973 -0.35643,-0.58148 -0.57577,-1.22351 -0.65459,-1.92494 h 1.54795 c 0.13251,0.75398 0.4501,1.3366 0.95275,1.74672 0.50266,0.41012 1.13783,0.61461 1.90552,0.61461 1.05786,0 1.93865,-0.48894 2.64008,-1.46798 0.70029,-0.99274 1.07842,-2.53383 1.13097,-4.62442 -0.31758,0.62146 -0.82709,1.1641 -1.52852,1.62677 -0.68773,0.45011 -1.52168,0.67516 -2.50071,0.67516 -0.78026,0 -1.52167,-0.18507 -2.2231,-0.55521 -0.70144,-0.37127 -1.27035,-0.8865 -1.70674,-1.54909 -0.4364,-0.67401 -0.6546,-1.46112 -0.6546,-2.36133 0,-0.78026 0.19193,-1.52853 0.57577,-2.24252 0.39641,-0.71514 0.95162,-1.29662 1.66676,-1.74673 0.714,-0.4501 1.56737,-0.67516 2.56011,-0.67516 1.00531,0 1.85297,0.19193 2.54069,0.57577 0.68772,0.37014 1.23721,0.87279 1.64733,1.50797 0.42383,0.63517 0.72771,1.35031 0.91278,2.14427 0.19878,0.78026 0.29816,1.58108 0.29816,2.40132 0,1.53538 -0.21248,2.88455 -0.63517,4.04866 -0.42383,1.15153 -1.03844,2.05745 -1.84611,2.7189 -0.79397,0.64888 -1.75929,0.97332 -2.89712,0.97332 z m 0.0983,-6.68873 c 0.6226,0 1.17781,-0.13937 1.6679,-0.41697 0.48894,-0.29132 0.87964,-0.67516 1.17095,-1.15154 0.29131,-0.47638 0.4364,-0.9916 0.4364,-1.54795 0,-0.59519 -0.14509,-1.12412 -0.4364,-1.58793 -0.29131,-0.47638 -0.68201,-0.84652 -1.17095,-1.11155 -0.49009,-0.26389 -1.0453,-0.39641 -1.6679,-0.39641 -0.62147,0 -1.17667,0.13252 -1.66676,0.39641 -0.49009,0.26503 -0.87279,0.63517 -1.15154,1.11155 -0.2776,0.46381 -0.41697,0.9996 -0.41697,1.6085 0,0.93905 0.30502,1.69303 0.91392,2.26194 0.62146,0.55635 1.39601,0.83395 2.32135,0.83395 z m 13.23695,6.68873 c -1.23151,0 -2.29622,-0.29816 -3.19643,-0.89335 -0.8865,-0.6089 -1.56737,-1.44856 -2.04375,-2.52127 -0.47638,-1.08414 -0.71514,-2.34191 -0.71514,-3.77105 0,-1.428 0.23876,-2.67892 0.71514,-3.75049 0.47638,-1.08528 1.15725,-1.92494 2.04375,-2.52127 0.90021,-0.60776 1.96492,-0.91278 3.19643,-0.91278 1.23036,0 2.28822,0.30502 3.17472,0.91278 0.8865,0.59633 1.56851,1.43599 2.04489,2.52127 0.47638,1.07157 0.714,2.32249 0.714,3.75049 0,1.42914 -0.23762,2.68691 -0.714,3.77105 -0.47638,1.07271 -1.15839,1.91237 -2.04489,2.52127 -0.8865,0.59519 -1.94436,0.89335 -3.17472,0.89335 z m 0,-1.46912 c 0.80653,0 1.52738,-0.22505 2.16255,-0.67516 0.64889,-0.46267 1.15154,-1.11726 1.50911,-1.96492 0.37014,-0.85908 0.5552,-1.88495 0.5552,-3.07647 0,-1.19038 -0.18506,-2.2094 -0.5552,-3.05591 -0.35757,-0.84652 -0.86022,-1.4954 -1.50911,-1.94551 -0.63517,-0.46267 -1.35602,-0.69457 -2.16255,-0.69457 -0.82139,0 -1.54909,0.2319 -2.18427,0.69457 -0.63403,0.45011 -1.13782,1.09899 -1.50796,1.94551 -0.37014,0.84651 -0.5552,1.86553 -0.5552,3.05591 0,1.19152 0.18506,2.21739 0.5552,3.07647 0.37014,0.84766 0.87393,1.50225 1.50796,1.96492 0.63518,0.45011 1.36288,0.67516 2.18427,0.67516 z m 9.71265,1.23036 v -12.02715 l -2.24366,0.4958 v -1.15154 l 2.79887,-1.20979 h 1.13097 v 13.89268 z m 4.40052,0 v -1.17096 c 0.94019,-0.74027 1.82669,-1.48854 2.65949,-2.24252 0.84766,-0.76769 1.59479,-1.52167 2.24367,-2.26309 0.66145,-0.74027 1.17667,-1.46798 1.54795,-2.18312 0.38384,-0.714 0.57577,-1.40172 0.57577,-2.06431 0,-0.48894 -0.0868,-0.9459 -0.25818,-1.36859 -0.1588,-0.42383 -0.42383,-0.76084 -0.79397,-1.01216 -0.37128,-0.26504 -0.87393,-0.39756 -1.50911,-0.39756 -0.60775,0 -1.11726,0.13938 -1.52738,0.41698 -0.41012,0.26503 -0.722,0.62146 -0.93334,1.07157 -0.19878,0.4501 -0.29816,0.93333 -0.29816,1.44855 h -1.60736 c 0,-0.91277 0.19193,-1.69303 0.57577,-2.34191 0.38385,-0.66145 0.90592,-1.1641 1.56737,-1.50796 0.66259,-0.34386 1.40972,-0.51637 2.24367,-0.51637 1.23036,0 2.23567,0.35072 3.01707,1.05215 0.79282,0.68772 1.19037,1.72045 1.19037,3.0959 0,0.82024 -0.20563,1.63477 -0.61575,2.4413 -0.41012,0.79396 -0.93219,1.56851 -1.56737,2.32249 -0.63517,0.74142 -1.31718,1.43599 -2.04489,2.08373 -0.71399,0.64888 -1.3823,1.23036 -2.00376,1.74673 h 6.70815 v 1.38915 z m 52.67248,0.23876 c -0.8865,0 -1.68732,-0.15879 -2.40246,-0.47638 -0.714,-0.33129 -1.28977,-0.82024 -1.72616,-1.46912 -0.42383,-0.64774 -0.64889,-1.45541 -0.67516,-2.42074 h 1.68732 c 0.0126,0.79283 0.29131,1.48169 0.83395,2.06317 0.54149,0.56891 1.30233,0.85337 2.28251,0.85337 0.97903,0 1.71245,-0.27075 2.20254,-0.81339 0.50265,-0.54263 0.75398,-1.19723 0.75398,-1.96492 0,-0.64774 -0.15879,-1.17781 -0.47638,-1.58793 -0.30388,-0.41012 -0.72085,-0.714 -1.24978,-0.91277 -0.51636,-0.19878 -1.08528,-0.29817 -1.70674,-0.29817 h -1.03273 v -1.40857 h 1.03273 c 0.89906,0 1.6005,-0.20564 2.10315,-0.61576 0.51636,-0.41012 0.77455,-0.98588 0.77455,-1.72616 0,-0.6226 -0.20564,-1.13097 -0.61576,-1.52852 -0.39641,-0.41012 -0.99274,-0.61576 -1.78556,-0.61576 -0.76769,0 -1.38345,0.23191 -1.84612,0.69572 -0.46381,0.44897 -0.72085,1.01788 -0.77454,1.70674 h -1.68732 c 0.04,-0.75398 0.23876,-1.42228 0.59633,-2.0049 0.37014,-0.58262 0.87279,-1.03159 1.50796,-1.34917 0.63518,-0.3313 1.36974,-0.49695 2.20369,-0.49695 0.89906,0 1.64733,0.1588 2.24252,0.47638 0.6089,0.31759 1.06472,0.74142 1.36974,1.27035 0.31758,0.52893 0.47637,1.11155 0.47637,1.74672 0,0.70144 -0.19192,1.34346 -0.57576,1.92494 -0.38385,0.56892 -0.95962,0.95276 -1.72731,1.15154 0.82024,0.17136 1.50225,0.56206 2.04489,1.17095 0.54264,0.6089 0.81339,1.40858 0.81339,2.40132 0,0.76769 -0.17821,1.47598 -0.53578,2.12372 -0.34387,0.63517 -0.86023,1.14468 -1.54795,1.52852 -0.68887,0.38385 -1.54224,0.57577 -2.56011,0.57577 z m 12.06485,0 c -0.95276,0 -1.77986,-0.1725 -2.48129,-0.51636 -0.70143,-0.34386 -1.26349,-0.81339 -1.68732,-1.40972 -0.41012,-0.60775 -0.66144,-1.29662 -0.75398,-2.06317 h 1.62792 c 0.15879,0.76655 0.52893,1.38916 1.11155,1.86554 0.58148,0.46267 1.31604,0.69457 2.20254,0.69457 0.66145,0 1.23036,-0.15193 1.70674,-0.45695 0.47638,-0.31759 0.8408,-0.74028 1.09213,-1.27035 0.26504,-0.52893 0.39641,-1.11726 0.39641,-1.76614 0,-1.03159 -0.29017,-1.86554 -0.87279,-2.50071 -0.58262,-0.63517 -1.3366,-0.95276 -2.26309,-0.95276 -0.76654,0 -1.42228,0.1725 -1.96492,0.51636 -0.54264,0.34386 -0.93905,0.79397 -1.19038,1.34917 h -1.58793 l 1.19038,-7.62092 h 7.28506 v 1.44855 h -5.99415 l -0.81453,4.22801 c 0.31759,-0.38384 0.75512,-0.70143 1.31033,-0.95275 0.56891,-0.25133 1.21779,-0.37699 1.9455,-0.37699 0.91277,0 1.70674,0.21134 2.38075,0.63403 0.68887,0.42382 1.22465,0.99959 1.6085,1.7273 0.38384,0.72771 0.57577,1.5548 0.57577,2.48128 0,0.8865 -0.19193,1.70674 -0.57577,2.46073 -0.37128,0.75398 -0.91963,1.35602 -1.64734,1.80613 -0.71514,0.4501 -1.58107,0.67515 -2.60009,0.67515 z m 13.72018,-0.23876 v -2.97708 h -7.04516 v -1.28977 l 6.74814,-9.62583 h 1.94436 v 9.44762 h 2.06431 v 1.46798 h -2.06431 v 2.97708 z m -5.20019,-4.44506 h 5.28016 v -7.60265 z m 17.21706,4.44506 v -2.97708 h -7.04516 v -1.28977 l 6.74814,-9.62583 h 1.94436 v 9.44762 h 2.06431 v 1.46798 h -2.06431 v 2.97708 z m -5.19904,-4.44506 h 5.27901 v -7.60265 z"
     fill="#ffffff"
     id="path71"
     style="stroke-width:1.1424" />
  <path
     d="M 130.15218,89.85401 V 75.960753 h 4.74323 c 1.62791,0 2.96337,0.291083 4.00867,0.873248 1.059,0.568914 1.83926,1.376131 2.34305,2.421424 0.51522,1.032041 0.77341,2.249379 0.77341,3.6519 0,1.402634 -0.25819,2.626598 -0.77341,3.671891 -0.50379,1.032041 -1.28405,1.839144 -2.34305,2.42131 -1.0453,0.569027 -2.38076,0.853484 -4.00867,0.853484 z m 2.53954,-2.183234 h 2.08488 c 1.1641,0 2.08373,-0.185183 2.75889,-0.555662 0.67401,-0.383731 1.15724,-0.926255 1.44856,-1.627572 0.29131,-0.714455 0.43639,-1.574566 0.43639,-2.580217 0,-0.992286 -0.14508,-1.845771 -0.43639,-2.56034 -0.29132,-0.714455 -0.77455,-1.263605 -1.44856,-1.647336 -0.67516,-0.383731 -1.59479,-0.575539 -2.75889,-0.575539 h -2.08488 z m 16.29401,2.421424 c -0.99275,0 -1.87239,-0.211686 -2.64008,-0.635173 -0.76655,-0.423372 -1.36859,-1.018789 -1.80613,-1.786251 -0.4364,-0.767462 -0.65459,-1.653962 -0.65459,-2.659614 0,-1.018789 0.21134,-1.925167 0.63517,-2.719018 0.43639,-0.793966 1.03273,-1.40926 1.78671,-1.845884 0.76769,-0.449876 1.66675,-0.674814 2.69948,-0.674814 0.96533,0 1.8187,0.211686 2.56011,0.635172 0.74027,0.423373 1.31604,1.005538 1.72616,1.746496 0.42383,0.727821 0.63518,1.54155 0.63518,2.441302 0,0.145541 -0.007,0.297709 -0.0194,0.456502 0,0.158793 -0.007,0.324212 -0.0206,0.496143 h -7.48155 c 0.0525,0.767462 0.31758,1.369505 0.79396,1.806129 0.48895,0.436738 1.07842,0.65505 1.76615,0.65505 0.51636,0 0.9459,-0.112526 1.28976,-0.337464 0.35757,-0.23819 0.62147,-0.542524 0.79397,-0.913004 h 2.58067 c -0.18621,0.621921 -0.49694,1.190835 -0.93334,1.70697 -0.42382,0.502768 -0.95275,0.899751 -1.58793,1.190834 -0.62146,0.291082 -1.32975,0.436624 -2.12371,0.436624 z m 0.0206,-8.256558 c -0.62261,0 -1.1721,0.178557 -1.64734,0.535784 -0.47637,0.34409 -0.78139,0.873363 -0.91391,1.587817 h 4.90316 c -0.04,-0.64831 -0.27874,-1.16433 -0.71514,-1.548061 -0.43639,-0.383731 -0.97903,-0.57554 -1.62677,-0.57554 z m 12.89309,8.256558 c -0.74027,0 -1.38916,-0.138916 -1.94436,-0.416746 -0.55635,-0.277946 -1.00531,-0.668303 -1.35031,-1.171071 l -0.27761,1.349627 H 156.0652 V 75.563771 h 2.53955 v 5.855011 c 0.31758,-0.436624 0.73456,-0.820355 1.25092,-1.151193 0.52893,-0.330724 1.21094,-0.496143 2.04375,-0.496143 0.92648,0 1.75358,0.224938 2.48128,0.674814 0.72771,0.449875 1.30348,1.06517 1.72731,1.845884 0.42269,0.7806 0.63517,1.667099 0.63517,2.659499 0,0.9924 -0.21248,1.8789 -0.63517,2.659614 -0.42383,0.767462 -0.9996,1.376131 -1.72731,1.826007 -0.7277,0.436624 -1.5548,0.654936 -2.48128,0.654936 z m -0.53578,-2.22299 c 0.80767,0 1.47597,-0.271205 2.0049,-0.813729 0.52893,-0.54241 0.79397,-1.243727 0.79397,-2.103838 0,-0.859996 -0.26504,-1.567939 -0.79397,-2.123715 -0.52893,-0.555662 -1.19723,-0.833493 -2.0049,-0.833493 -0.82025,0 -1.49426,0.277831 -2.02433,0.833493 -0.51522,0.542524 -0.7734,1.243842 -0.7734,2.103952 0,0.859996 0.25818,1.567939 0.7734,2.123601 0.53007,0.542524 1.20408,0.813729 2.02433,0.813729 z m 9.01807,-9.387873 c -0.46267,0 -0.84651,-0.138915 -1.15153,-0.416746 -0.29131,-0.277945 -0.4364,-0.628547 -0.4364,-1.051919 0,-0.423486 0.14509,-0.767462 0.4364,-1.032155 0.30502,-0.277831 0.68886,-0.416746 1.15153,-0.416746 0.46267,0 0.83967,0.138915 1.13098,0.416746 0.30502,0.264693 0.45696,0.608669 0.45696,1.032155 0,0.423372 -0.15194,0.773974 -0.45696,1.051919 -0.29131,0.277831 -0.66831,0.416746 -1.13098,0.416746 z m -1.27034,11.372673 v -9.844374 h 2.54069 v 9.844374 z m 9.579,0 c -1.03273,0 -1.85983,-0.251441 -2.48129,-0.75421 -0.62146,-0.502769 -0.93334,-1.395895 -0.93334,-2.679377 v -4.287072 h -1.68618 v -2.123715 h 1.68618 l 0.29817,-2.639736 h 2.24252 v 2.639736 h 2.6595 v 2.123715 h -2.6595 v 4.306835 c 0,0.47638 0.0994,0.807218 0.29817,0.9924 0.21134,0.172045 0.56891,0.258068 1.07157,0.258068 h 1.23036 v 2.163356 z m 15.04764,0.23819 c -1.40286,0 -2.60695,-0.297709 -3.61225,-0.893126 -1.00531,-0.608669 -1.77986,-1.448902 -2.3225,-2.520698 -0.54264,-1.084934 -0.81338,-2.335402 -0.81338,-3.751174 0,-1.415772 0.27074,-2.666125 0.81338,-3.751173 0.54264,-1.085049 1.31719,-1.931793 2.3225,-2.540462 1.0053,-0.608669 2.20939,-0.913003 3.61225,-0.913003 1.66676,0 3.02964,0.416746 4.08864,1.250353 1.07157,0.820355 1.73987,1.978174 2.00491,3.473343 h -2.79887 c -0.17251,-0.754211 -0.54264,-1.343002 -1.11156,-1.766374 -0.5552,-0.436738 -1.29662,-0.65505 -2.2231,-0.65505 -1.28291,0 -2.28936,0.436624 -3.01707,1.309986 -0.72771,0.873248 -1.09099,2.070708 -1.09099,3.59238 0,1.521673 0.36328,2.719133 1.09099,3.592381 0.72771,0.86011 1.73416,1.290108 3.01707,1.290108 0.92648,0 1.6679,-0.198434 2.2231,-0.595417 0.56892,-0.41012 0.93905,-0.972522 1.11156,-1.686977 h 2.79887 c -0.26504,1.429024 -0.93334,2.547088 -2.00491,3.354191 -1.059,0.807103 -2.42188,1.210712 -4.08864,1.210712 z m 11.67644,0 c -0.84652,0 -1.54109,-0.13229 -2.08373,-0.396983 -0.54264,-0.277831 -0.94591,-0.641684 -1.21094,-1.09156 -0.26504,-0.449876 -0.39756,-0.946133 -0.39756,-1.488543 0,-0.913003 0.35757,-1.654076 1.07271,-2.222989 0.714,-0.568914 1.78557,-0.853485 3.21471,-0.853485 h 2.5007 v -0.238075 c 0,-0.674928 -0.19192,-1.171071 -0.57576,-1.488658 -0.38385,-0.317472 -0.85909,-0.476265 -1.42914,-0.476265 -0.51522,0 -0.96533,0.125664 -1.34917,0.377105 -0.38385,0.238076 -0.62147,0.595418 -0.714,1.071683 h -2.48129 c 0.0663,-0.714455 0.30388,-1.336376 0.714,-1.865648 0.42383,-0.529273 0.96647,-0.932767 1.62792,-1.210712 0.66145,-0.291083 1.40286,-0.436624 2.2231,-0.436624 1.40286,0 2.50756,0.350601 3.31409,1.051919 0.80768,0.701317 1.21094,1.693717 1.21094,2.9772 v 6.053445 h -2.16369 l -0.23762,-1.587817 c -0.29131,0.529272 -0.70143,0.965896 -1.23036,1.309986 -0.51637,0.343976 -1.18467,0.516021 -2.00491,0.516021 z m 0.57577,-1.9848 c 0.7277,0 1.28976,-0.23819 1.68732,-0.714455 0.41012,-0.476379 0.66716,-1.065171 0.7734,-1.766488 h -2.1637 c -0.67401,0 -1.15725,0.125778 -1.44856,0.377105 -0.29131,0.23819 -0.43639,0.535898 -0.43639,0.893126 0,0.383731 0.14508,0.68144 0.43639,0.89324 0.29131,0.211686 0.67516,0.317472 1.15154,0.317472 z m 7.48498,1.74661 v -9.844374 h 2.26309 l 0.23762,1.84577 c 0.35757,-0.635059 0.8408,-1.137942 1.4497,-1.508421 0.62146,-0.383731 1.34917,-0.575539 2.18312,-0.575539 v 2.679377 h -0.71514 c -0.55521,0 -1.05215,0.08602 -1.48855,0.258067 -0.43639,0.172045 -0.78025,0.469754 -1.03158,0.893126 -0.23876,0.423486 -0.35757,1.012278 -0.35757,1.766488 v 4.485506 z m 12.22022,0.23819 c -0.92649,0 -1.75358,-0.224938 -2.48129,-0.674814 -0.7277,-0.449876 -1.30233,-1.065171 -1.72616,-1.845884 -0.42383,-0.7806 -0.63517,-1.6671 -0.63517,-2.6595 0,-0.9924 0.21134,-1.872274 0.63517,-2.639736 0.42383,-0.780714 0.99846,-1.389382 1.72616,-1.826006 0.72771,-0.449876 1.5548,-0.674814 2.48129,-0.674814 0.74141,0 1.38915,0.138915 1.9455,0.416746 0.5552,0.277945 1.00531,0.668302 1.34917,1.171071 v -5.795492 h 2.54069 V 89.85401 h -2.26309 l -0.2776,-1.409146 c -0.31759,0.436624 -0.74142,0.820355 -1.27035,1.151193 -0.51636,0.330724 -1.19037,0.496143 -2.02432,0.496143 z m 0.53578,-2.22299 c 0.82024,0 1.48854,-0.271205 2.00491,-0.813729 0.52893,-0.555662 0.79396,-1.263605 0.79396,-2.123601 0,-0.86011 -0.26503,-1.561428 -0.79396,-2.103952 -0.51637,-0.555662 -1.18467,-0.833493 -2.00491,-0.833493 -0.80653,0 -1.47483,0.271205 -2.0049,0.81373 -0.52893,0.54241 -0.79397,1.243727 -0.79397,2.103837 0,0.859996 0.26504,1.56794 0.79397,2.123716 0.53007,0.555661 1.19837,0.833492 2.0049,0.833492 z"
     fill="#ffffff"
     id="path73"
     style="stroke-width:1.1424" />
  <path
     d="m 131.16777,202.20495 v -10.02339 l -1.86896,0.41355 v -0.95961 l 2.33163,-1.00874 h 0.94248 v 11.57819 z m 3.66709,0 v -0.97675 c 0.78368,-0.61689 1.52167,-1.2395 2.21625,-1.86896 0.706,-0.6386 1.32861,-1.26806 1.86896,-1.88495 0.55178,-0.61804 0.98132,-1.22465 1.29091,-1.81984 0.31987,-0.59519 0.47866,-1.16867 0.47866,-1.71931 0,-0.40898 -0.0708,-0.7894 -0.21477,-1.14125 -0.13252,-0.353 -0.353,-0.63403 -0.66145,-0.84423 -0.30844,-0.22049 -0.7277,-0.33016 -1.25663,-0.33016 -0.50723,0 -0.9322,0.11538 -1.27377,0.34729 -0.34158,0.22048 -0.6009,0.51751 -0.77683,0.89221 -0.16565,0.37585 -0.24905,0.77798 -0.24905,1.20752 h -1.33888 c 0,-0.76084 0.15993,-1.41086 0.47866,-1.95122 0.31987,-0.55177 0.75627,-0.96989 1.3069,-1.25663 0.55178,-0.28675 1.17439,-0.43069 1.86896,-0.43069 1.02587,0 1.86325,0.29246 2.51442,0.87736 0.66144,0.57234 0.99274,1.43257 0.99274,2.57954 0,0.68429 -0.17136,1.36173 -0.51294,2.0346 -0.34157,0.66145 -0.77797,1.30691 -1.3069,1.93522 -0.52893,0.6169 -1.0967,1.19609 -1.70331,1.73645 -0.59519,0.54035 -1.15268,1.02587 -1.67019,1.45541 h 5.58975 v 1.15839 z m 13.25294,0.19763 c -0.73913,0 -1.40629,-0.13251 -2.00148,-0.39641 -0.59518,-0.27531 -1.07499,-0.68429 -1.43827,-1.22465 -0.353,-0.53921 -0.54036,-1.21208 -0.5632,-2.01747 h 1.40629 c 0.0114,0.66145 0.24218,1.23493 0.69457,1.72045 0.45239,0.4741 1.08642,0.71057 1.90209,0.71057 0.81568,0 1.428,-0.22505 1.83584,-0.67744 0.41925,-0.45239 0.62831,-0.99845 0.62831,-1.6382 0,-0.53921 -0.13251,-0.98132 -0.39641,-1.32289 -0.25361,-0.34158 -0.6009,-0.59519 -1.04186,-0.76084 -0.43069,-0.16565 -0.90478,-0.2479 -1.42229,-0.2479 h -0.86022 v -1.17438 h 0.86022 c 0.74941,0 1.33318,-0.17022 1.75244,-0.51294 0.43068,-0.34157 0.64545,-0.82138 0.64545,-1.43828 0,-0.51864 -0.17136,-0.94362 -0.51293,-1.27377 -0.3313,-0.34157 -0.8271,-0.51293 -1.48855,-0.51293 -0.63974,0 -1.15267,0.19306 -1.53766,0.57919 -0.38613,0.37471 -0.60205,0.8488 -0.64546,1.42229 h -1.40629 c 0.0331,-0.62832 0.19878,-1.18581 0.49695,-1.67019 0.30844,-0.48552 0.7277,-0.86022 1.25663,-1.12526 0.52893,-0.27532 1.14126,-0.41355 1.83583,-0.41355 0.74942,0 1.37316,0.13252 1.86896,0.39756 0.50723,0.26389 0.88765,0.61689 1.14126,1.05786 0.26504,0.44096 0.39641,0.92648 0.39641,1.45541 0,0.58491 -0.15879,1.11955 -0.47866,1.60507 -0.31987,0.47409 -0.79968,0.79396 -1.43942,0.95847 0.68315,0.14394 1.25206,0.46952 1.70331,0.97675 0.45239,0.50722 0.67858,1.17438 0.67858,2.00033 0,0.63975 -0.14851,1.23036 -0.44667,1.77072 -0.28674,0.52893 -0.71629,0.9539 -1.28977,1.27263 -0.57348,0.31987 -1.2852,0.4798 -2.134,0.4798 z m 11.36114,-0.19763 v -2.48129 h -5.87192 v -1.07499 l 5.62402,-8.02191 h 1.61992 v 7.87226 h 1.72045 v 1.22464 h -1.72045 v 2.48129 z m -4.33311,-3.70593 h 4.39937 v -6.33459 z"
     fill="#ffffff"
     id="path75"
     style="stroke-width:1.1424" />
  <path
     d="m 129.29881,251.82381 4.26685,-11.57819 h 1.4714 l 4.25086,11.57819 h -1.4714 l -1.05901,-2.97709 h -4.9283 l -1.07499,2.97709 z m 2.94395,-4.10235 h 4.10121 l -2.05061,-5.72227 z m 8.76675,4.10235 v -11.57819 h 3.73793 c 0.90363,0 1.64276,0.14851 2.21625,0.44667 0.57348,0.29817 0.99845,0.706 1.27377,1.22351 0.27532,0.51865 0.41355,1.09213 0.41355,1.72045 0,0.72771 -0.19878,1.38344 -0.59519,1.96835 -0.38613,0.58491 -0.99275,0.99731 -1.81984,1.24064 l 2.53041,4.97857 h -1.63706 l -2.34876,-4.77979 h -0.0994 -2.28251 v 4.77979 z m 1.38916,-5.87192 h 2.24938 c 0.89335,0 1.54338,-0.21477 1.95235,-0.64546 0.40784,-0.42954 0.61119,-0.98132 0.61119,-1.65305 0,-0.68429 -0.20335,-1.22464 -0.61119,-1.62106 -0.39755,-0.40783 -1.05329,-0.61232 -1.96835,-0.61232 h -2.23338 z m 16.48021,6.06955 c -0.8488,0 -1.58793,-0.15422 -2.21625,-0.46267 -0.62832,-0.30845 -1.11383,-0.73913 -1.45541,-1.28977 -0.34158,-0.55177 -0.51294,-1.19152 -0.51294,-1.91922 h 1.45542 c 0,0.45239 0.1051,0.87165 0.3153,1.25778 0.20906,0.3747 0.51179,0.67744 0.90935,0.90934 0.40783,0.22049 0.90934,0.3313 1.50453,0.3313 0.78369,0 1.38916,-0.1885 1.81984,-0.5632 0.42954,-0.37471 0.64545,-0.84309 0.64545,-1.40515 0,-0.46381 -0.0994,-0.83281 -0.29816,-1.10813 -0.19878,-0.28674 -0.46838,-0.51864 -0.80996,-0.69457 -0.3313,-0.17707 -0.71743,-0.3313 -1.15839,-0.46382 -0.42954,-0.13251 -0.88193,-0.28102 -1.35603,-0.44667 -0.89335,-0.30845 -1.5548,-0.68887 -1.98434,-1.14126 -0.43068,-0.46267 -0.64545,-1.06357 -0.64545,-1.8027 -0.0114,-0.61689 0.13252,-1.16296 0.42954,-1.63705 0.29816,-0.48552 0.71742,-0.86023 1.25778,-1.12526 0.55063,-0.27532 1.2018,-0.41355 1.95121,-0.41355 0.73913,0 1.37887,0.13823 1.91808,0.41355 0.55178,0.27646 0.97675,0.65687 1.27378,1.14125 0.30959,0.48552 0.46952,1.0373 0.4798,1.65419 h -1.45541 c 0,-0.31987 -0.0822,-0.63403 -0.2479,-0.94248 -0.16565,-0.31987 -0.41926,-0.57919 -0.76084,-0.77797 -0.33129,-0.19763 -0.74941,-0.29702 -1.25663,-0.29702 -0.62946,-0.0114 -1.14697,0.14851 -1.5548,0.47981 -0.39756,0.33015 -0.59633,0.78825 -0.59633,1.37201 0,0.49695 0.13823,0.87736 0.41354,1.14126 0.28674,0.26503 0.6843,0.48552 1.19152,0.66145 0.50723,0.16564 1.09099,0.35871 1.75244,0.57919 0.55178,0.19878 1.04758,0.43068 1.48968,0.69458 0.44097,0.26503 0.78255,0.60661 1.02473,1.02587 0.25362,0.41926 0.38042,0.9539 0.38042,1.60392 0,0.55178 -0.1428,1.075 -0.42954,1.57194 -0.28674,0.48438 -0.72199,0.88193 -1.3069,1.19038 -0.57348,0.30845 -1.29548,0.46267 -2.16713,0.46267 z m 5.79081,-0.19763 v -11.90835 h 1.3903 v 5.10994 c 0.27532,-0.50722 0.66716,-0.89792 1.17438,-1.17438 0.50723,-0.28674 1.05786,-0.42954 1.65305,-0.42954 0.94819,0 1.70902,0.29702 2.28251,0.89335 0.57348,0.58377 0.86022,1.48855 0.86022,2.71205 v 4.79693 h -1.37202 v -4.64842 c 0,-1.70902 -0.69,-2.56353 -2.06773,-2.56353 -0.71743,0 -1.31833,0.25932 -1.80271,0.77797 -0.48551,0.50722 -0.7277,1.23493 -0.7277,2.18312 v 4.25086 z m 12.19509,0.19763 c -0.6843,0 -1.25207,-0.11538 -1.70446,-0.34729 -0.45125,-0.23076 -0.78825,-0.54035 -1.00874,-0.92534 -0.22048,-0.38613 -0.33015,-0.80539 -0.33015,-1.25778 0,-0.83737 0.31987,-1.48283 0.95847,-1.93522 0.63974,-0.45124 1.51139,-0.67744 2.6138,-0.67744 h 2.21625 v -0.0994 c 0,-0.71628 -0.18735,-1.25663 -0.56205,-1.62106 -0.37471,-0.3747 -0.87737,-0.56206 -1.50568,-0.56206 -0.54036,0 -1.00874,0.13709 -1.40515,0.41355 -0.38613,0.26389 -0.62946,0.65574 -0.72771,1.17438 h -1.42342 c 0.056,-0.59633 0.25361,-1.09784 0.59633,-1.50568 0.353,-0.40783 0.78825,-0.71628 1.30576,-0.92648 0.51864,-0.22048 1.07042,-0.33015 1.65419,-0.33015 1.14696,0 2.00719,0.30845 2.58067,0.92648 0.58377,0.60547 0.87622,1.41657 0.87622,2.43102 v 5.04483 h -1.24064 l -0.0823,-1.47255 c -0.2319,0.46381 -0.57348,0.86022 -1.02587,1.19152 -0.44096,0.31872 -1.03615,0.47866 -1.78556,0.47866 z m 0.21477,-1.17324 c 0.52893,0 0.98131,-0.13823 1.35602,-0.41355 0.38613,-0.27646 0.67858,-0.63403 0.87622,-1.07614 0.19878,-0.44096 0.29816,-0.90363 0.29816,-1.38915 v -0.016 h -2.10086 c -0.81567,0 -1.39487,0.1428 -1.73645,0.42954 -0.33015,0.27646 -0.4958,0.62375 -0.4958,1.04186 0,0.43069 0.15423,0.77797 0.46267,1.04301 0.31988,0.25361 0.76655,0.38042 1.34004,0.38042 z m 6.00443,0.97561 v -11.90835 h 1.38916 v 7.16169 l 3.3575,-3.45689 h 1.70331 l -3.63853,3.70479 4.1012,4.49876 h -1.76957 l -3.75391,-4.25086 v 4.25086 z m 9.17802,-10.02339 c -0.27646,0 -0.50723,-0.088 -0.69572,-0.26504 -0.17593,-0.18735 -0.2639,-0.41812 -0.2639,-0.69458 0,-0.26389 0.088,-0.48437 0.2639,-0.66144 0.18849,-0.17593 0.41926,-0.2639 0.69572,-0.2639 0.26389,0 0.49009,0.088 0.67744,0.2639 0.18735,0.17707 0.28103,0.39755 0.28103,0.66144 0,0.27646 -0.0937,0.50723 -0.28103,0.69458 -0.18735,0.17707 -0.41355,0.26504 -0.67744,0.26504 z m -0.69572,10.02339 v -8.20355 h 1.39029 v 8.20355 z m 3.80875,0 v -8.20355 h 1.25663 l 0.11653,1.57079 c 0.25361,-0.54035 0.63974,-0.96989 1.15725,-1.28976 0.51864,-0.31988 1.15839,-0.47981 1.91922,-0.47981 v 1.45541 h -0.38042 c -0.48551,0 -0.93219,0.088 -1.34003,0.26504 -0.40783,0.1645 -0.73341,0.45124 -0.9756,0.85908 -0.24333,0.40898 -0.36443,0.97104 -0.36443,1.68732 v 4.13548 z"
     fill="#ffffff"
     id="path77"
     style="stroke-width:1.1424" />
  <path
     d="m 373.15594,253.59681 v -12.02716 l -2.24253,0.4958 v -1.15153 l 2.79887,-1.21094 h 1.13098 v 13.89383 z m 5.77138,0 5.51778,-12.46469 h -7.62207 v -1.42914 h 9.32881 v 1.25092 l -5.45837,12.64291 z m 6.79384,1.88495 4.98085,-17.04913 h 1.64733 l -4.98085,17.04913 z m 10.03481,-1.88495 v -12.02716 l -2.24253,0.4958 v -1.15153 l 2.79888,-1.21094 h 1.13097 v 13.89383 z m 4.40165,0 v -1.17096 c 0.93905,-0.74142 1.82555,-1.48854 2.6595,-2.24253 0.84652,-0.76769 1.59479,-1.52167 2.24253,-2.26308 0.66144,-0.74142 1.17781,-1.46913 1.54794,-2.18312 0.38385,-0.714 0.57577,-1.40287 0.57577,-2.06431 0,-0.48895 -0.0857,-0.94591 -0.25818,-1.36974 -0.15879,-0.42268 -0.42269,-0.76083 -0.79396,-1.01216 -0.37014,-0.26389 -0.8728,-0.39641 -1.50797,-0.39641 -0.6089,0 -1.1184,0.13823 -1.52853,0.41697 -0.41012,0.2639 -0.72085,0.62147 -0.93219,1.07157 -0.19878,0.4501 -0.29817,0.9322 -0.29817,1.44856 h -1.60735 c 0,-0.91278 0.19192,-1.69303 0.57577,-2.34191 0.3827,-0.66145 0.90592,-1.16411 1.56737,-1.50797 0.66145,-0.345 1.40972,-0.51636 2.24252,-0.51636 1.23036,0 2.23681,0.35071 3.01707,1.05215 0.79397,0.68772 1.19152,1.7193 1.19152,3.09589 0,0.82024 -0.20563,1.63363 -0.61575,2.4413 -0.41012,0.79397 -0.93334,1.56737 -1.56851,2.3225 -0.63517,0.74027 -1.31604,1.43485 -2.04375,2.08373 -0.71514,0.64774 -1.3823,1.23036 -2.0049,1.74672 h 6.70815 v 1.38916 z"
     fill="#ffffff"
     id="path79"
     style="stroke-width:1.1424" />
  <circle
     cx="470.34531"
     cy="244.92603"
     r="12.404714"
     fill="#58b3ff"
     id="circle81"
     style="stroke-width:1.1424" />
  <circle
     cx="452.15152"
     cy="244.92603"
     r="12.404714"
     fill="#4fbeff"
     id="circle83"
     style="stroke-width:1.1424" />
  <path
     d="M 499.00349,55.048269 V 0.748901 l -35.74102,15.121332 v 53.612103 z"
     fill="#f7fa62"
     id="path85"
     style="stroke-width:1.1424" />
  <defs
     id="defs287">
    <filter
       id="filter0_dddddd_906_569"
       x="247.883"
       y="379.43799"
       width="255.104"
       height="280.73001"
       filterUnits="userSpaceOnUse"
       color-interpolation-filters="sRGB">
      <feFlood
         flood-opacity="0"
         result="BackgroundImageFix"
         id="feFlood87" />
      <feColorMatrix
         in="SourceAlpha"
         type="matrix"
         values="0 0 0 0 0 0 0 0 0 0 0 0 0 0 0 0 0 0 127 0"
         result="hardAlpha"
         id="feColorMatrix89" />
      <feOffset
         dy="2.22837"
         id="feOffset91" />
      <feGaussianBlur
         stdDeviation="1.89411"
         id="feGaussianBlur93" />
      <feColorMatrix
         type="matrix"
         values="0 0 0 0 0 0 0 0 0 0 0 0 0 0 0 0 0 0 0.01 0"
         id="feColorMatrix95" />
      <feBlend
         mode="normal"
         in2="BackgroundImageFix"
         result="effect1_dropShadow_906_569"
         id="feBlend97" />
      <feColorMatrix
         in="SourceAlpha"
         type="matrix"
         values="0 0 0 0 0 0 0 0 0 0 0 0 0 0 0 0 0 0 127 0"
         result="hardAlpha"
         id="feColorMatrix99" />
      <feOffset
         dy="9.80483"
         id="feOffset101" />
      <feGaussianBlur
         stdDeviation="3.92193"
         id="feGaussianBlur103" />
      <feColorMatrix
         type="matrix"
         values="0 0 0 0 0 0 0 0 0 0 0 0 0 0 0 0 0 0 0.0117778 0"
         id="feColorMatrix105" />
      <feBlend
         mode="normal"
         in2="effect1_dropShadow_906_569"
         result="effect2_dropShadow_906_569"
         id="feBlend107" />
      <feColorMatrix
         in="SourceAlpha"
         type="matrix"
         values="0 0 0 0 0 0 0 0 0 0 0 0 0 0 0 0 0 0 127 0"
         result="hardAlpha"
         id="feColorMatrix109" />
      <feOffset
         dy="24.0664"
         id="feOffset111" />
      <feGaussianBlur
         stdDeviation="7.82158"
         id="feGaussianBlur113" />
      <feColorMatrix
         type="matrix"
         values="0 0 0 0 0 0 0 0 0 0 0 0 0 0 0 0 0 0 0.015 0"
         id="feColorMatrix115" />
      <feBlend
         mode="normal"
         in2="effect2_dropShadow_906_569"
         result="effect3_dropShadow_906_569"
         id="feBlend117" />
      <feColorMatrix
         in="SourceAlpha"
         type="matrix"
         values="0 0 0 0 0 0 0 0 0 0 0 0 0 0 0 0 0 0 127 0"
         result="hardAlpha"
         id="feColorMatrix119" />
      <feOffset
         dy="46.3501"
         id="feOffset121" />
      <feGaussianBlur
         stdDeviation="15.3312"
         id="feGaussianBlur123" />
      <feColorMatrix
         type="matrix"
         values="0 0 0 0 0 0 0 0 0 0 0 0 0 0 0 0 0 0 0.0182222 0"
         id="feColorMatrix125" />
      <feBlend
         mode="normal"
         in2="effect3_dropShadow_906_569"
         result="effect4_dropShadow_906_569"
         id="feBlend127" />
      <feColorMatrix
         in="SourceAlpha"
         type="matrix"
         values="0 0 0 0 0 0 0 0 0 0 0 0 0 0 0 0 0 0 127 0"
         result="hardAlpha"
         id="feColorMatrix129" />
      <feOffset
         dy="77.9929"
         id="feOffset131" />
      <feGaussianBlur
         stdDeviation="28.1889"
         id="feGaussianBlur133" />
      <feColorMatrix
         type="matrix"
         values="0 0 0 0 0 0 0 0 0 0 0 0 0 0 0 0 0 0 0.0227778 0"
         id="feColorMatrix135" />
      <feBlend
         mode="normal"
         in2="effect4_dropShadow_906_569"
         result="effect5_dropShadow_906_569"
         id="feBlend137" />
      <feColorMatrix
         in="SourceAlpha"
         type="matrix"
         values="0 0 0 0 0 0 0 0 0 0 0 0 0 0 0 0 0 0 127 0"
         result="hardAlpha"
         id="feColorMatrix139" />
      <feOffset
         dy="120.332"
         id="feOffset141" />
      <feGaussianBlur
         stdDeviation="48.1328"
         id="feGaussianBlur143" />
      <feColorMatrix
         type="matrix"
         values="0 0 0 0 0 0 0 0 0 0 0 0 0 0 0 0 0 0 0.03 0"
         id="feColorMatrix145" />
      <feBlend
         mode="normal"
         in2="effect5_dropShadow_906_569"
         result="effect6_dropShadow_906_569"
         id="feBlend147" />
      <feBlend
         mode="normal"
         in="SourceGraphic"
         in2="effect6_dropShadow_906_569"
         result="shape"
         id="feBlend149" />
    </filter>
    <filter
       id="filter1_dddddd_906_569"
       x="334.522"
       y="379.43799"
       width="255.104"
       height="280.73001"
       filterUnits="userSpaceOnUse"
       color-interpolation-filters="sRGB">
      <feFlood
         flood-opacity="0"
         result="BackgroundImageFix"
         id="feFlood152" />
      <feColorMatrix
         in="SourceAlpha"
         type="matrix"
         values="0 0 0 0 0 0 0 0 0 0 0 0 0 0 0 0 0 0 127 0"
         result="hardAlpha"
         id="feColorMatrix154" />
      <feOffset
         dy="2.22837"
         id="feOffset156" />
      <feGaussianBlur
         stdDeviation="1.89411"
         id="feGaussianBlur158" />
      <feColorMatrix
         type="matrix"
         values="0 0 0 0 0 0 0 0 0 0 0 0 0 0 0 0 0 0 0.01 0"
         id="feColorMatrix160" />
      <feBlend
         mode="normal"
         in2="BackgroundImageFix"
         result="effect1_dropShadow_906_569"
         id="feBlend162" />
      <feColorMatrix
         in="SourceAlpha"
         type="matrix"
         values="0 0 0 0 0 0 0 0 0 0 0 0 0 0 0 0 0 0 127 0"
         result="hardAlpha"
         id="feColorMatrix164" />
      <feOffset
         dy="9.80483"
         id="feOffset166" />
      <feGaussianBlur
         stdDeviation="3.92193"
         id="feGaussianBlur168" />
      <feColorMatrix
         type="matrix"
         values="0 0 0 0 0 0 0 0 0 0 0 0 0 0 0 0 0 0 0.0117778 0"
         id="feColorMatrix170" />
      <feBlend
         mode="normal"
         in2="effect1_dropShadow_906_569"
         result="effect2_dropShadow_906_569"
         id="feBlend172" />
      <feColorMatrix
         in="SourceAlpha"
         type="matrix"
         values="0 0 0 0 0 0 0 0 0 0 0 0 0 0 0 0 0 0 127 0"
         result="hardAlpha"
         id="feColorMatrix174" />
      <feOffset
         dy="24.0664"
         id="feOffset176" />
      <feGaussianBlur
         stdDeviation="7.82158"
         id="feGaussianBlur178" />
      <feColorMatrix
         type="matrix"
         values="0 0 0 0 0 0 0 0 0 0 0 0 0 0 0 0 0 0 0.015 0"
         id="feColorMatrix180" />
      <feBlend
         mode="normal"
         in2="effect2_dropShadow_906_569"
         result="effect3_dropShadow_906_569"
         id="feBlend182" />
      <feColorMatrix
         in="SourceAlpha"
         type="matrix"
         values="0 0 0 0 0 0 0 0 0 0 0 0 0 0 0 0 0 0 127 0"
         result="hardAlpha"
         id="feColorMatrix184" />
      <feOffset
         dy="46.3501"
         id="feOffset186" />
      <feGaussianBlur
         stdDeviation="15.3312"
         id="feGaussianBlur188" />
      <feColorMatrix
         type="matrix"
         values="0 0 0 0 0 0 0 0 0 0 0 0 0 0 0 0 0 0 0.0182222 0"
         id="feColorMatrix190" />
      <feBlend
         mode="normal"
         in2="effect3_dropShadow_906_569"
         result="effect4_dropShadow_906_569"
         id="feBlend192" />
      <feColorMatrix
         in="SourceAlpha"
         type="matrix"
         values="0 0 0 0 0 0 0 0 0 0 0 0 0 0 0 0 0 0 127 0"
         result="hardAlpha"
         id="feColorMatrix194" />
      <feOffset
         dy="77.9929"
         id="feOffset196" />
      <feGaussianBlur
         stdDeviation="28.1889"
         id="feGaussianBlur198" />
      <feColorMatrix
         type="matrix"
         values="0 0 0 0 0 0 0 0 0 0 0 0 0 0 0 0 0 0 0.0227778 0"
         id="feColorMatrix200" />
      <feBlend
         mode="normal"
         in2="effect4_dropShadow_906_569"
         result="effect5_dropShadow_906_569"
         id="feBlend202" />
      <feColorMatrix
         in="SourceAlpha"
         type="matrix"
         values="0 0 0 0 0 0 0 0 0 0 0 0 0 0 0 0 0 0 127 0"
         result="hardAlpha"
         id="feColorMatrix204" />
      <feOffset
         dy="120.332"
         id="feOffset206" />
      <feGaussianBlur
         stdDeviation="48.1328"
         id="feGaussianBlur208" />
      <feColorMatrix
         type="matrix"
         values="0 0 0 0 0 0 0 0 0 0 0 0 0 0 0 0 0 0 0.03 0"
         id="feColorMatrix210" />
      <feBlend
         mode="normal"
         in2="effect5_dropShadow_906_569"
         result="effect6_dropShadow_906_569"
         id="feBlend212" />
      <feBlend
         mode="normal"
         in="SourceGraphic"
         in2="effect6_dropShadow_906_569"
         result="shape"
         id="feBlend214" />
    </filter>
    <filter
       id="filter2_dddddd_906_569"
       x="421.16199"
       y="379.43799"
       width="255.104"
       height="280.73001"
       filterUnits="userSpaceOnUse"
       color-interpolation-filters="sRGB">
      <feFlood
         flood-opacity="0"
         result="BackgroundImageFix"
         id="feFlood217" />
      <feColorMatrix
         in="SourceAlpha"
         type="matrix"
         values="0 0 0 0 0 0 0 0 0 0 0 0 0 0 0 0 0 0 127 0"
         result="hardAlpha"
         id="feColorMatrix219" />
      <feOffset
         dy="2.22837"
         id="feOffset221" />
      <feGaussianBlur
         stdDeviation="1.89411"
         id="feGaussianBlur223" />
      <feColorMatrix
         type="matrix"
         values="0 0 0 0 0 0 0 0 0 0 0 0 0 0 0 0 0 0 0.01 0"
         id="feColorMatrix225" />
      <feBlend
         mode="normal"
         in2="BackgroundImageFix"
         result="effect1_dropShadow_906_569"
         id="feBlend227" />
      <feColorMatrix
         in="SourceAlpha"
         type="matrix"
         values="0 0 0 0 0 0 0 0 0 0 0 0 0 0 0 0 0 0 127 0"
         result="hardAlpha"
         id="feColorMatrix229" />
      <feOffset
         dy="9.80483"
         id="feOffset231" />
      <feGaussianBlur
         stdDeviation="3.92193"
         id="feGaussianBlur233" />
      <feColorMatrix
         type="matrix"
         values="0 0 0 0 0 0 0 0 0 0 0 0 0 0 0 0 0 0 0.0117778 0"
         id="feColorMatrix235" />
      <feBlend
         mode="normal"
         in2="effect1_dropShadow_906_569"
         result="effect2_dropShadow_906_569"
         id="feBlend237" />
      <feColorMatrix
         in="SourceAlpha"
         type="matrix"
         values="0 0 0 0 0 0 0 0 0 0 0 0 0 0 0 0 0 0 127 0"
         result="hardAlpha"
         id="feColorMatrix239" />
      <feOffset
         dy="24.0664"
         id="feOffset241" />
      <feGaussianBlur
         stdDeviation="7.82158"
         id="feGaussianBlur243" />
      <feColorMatrix
         type="matrix"
         values="0 0 0 0 0 0 0 0 0 0 0 0 0 0 0 0 0 0 0.015 0"
         id="feColorMatrix245" />
      <feBlend
         mode="normal"
         in2="effect2_dropShadow_906_569"
         result="effect3_dropShadow_906_569"
         id="feBlend247" />
      <feColorMatrix
         in="SourceAlpha"
         type="matrix"
         values="0 0 0 0 0 0 0 0 0 0 0 0 0 0 0 0 0 0 127 0"
         result="hardAlpha"
         id="feColorMatrix249" />
      <feOffset
         dy="46.3501"
         id="feOffset251" />
      <feGaussianBlur
         stdDeviation="15.3312"
         id="feGaussianBlur253" />
      <feColorMatrix
         type="matrix"
         values="0 0 0 0 0 0 0 0 0 0 0 0 0 0 0 0 0 0 0.0182222 0"
         id="feColorMatrix255" />
      <feBlend
         mode="normal"
         in2="effect3_dropShadow_906_569"
         result="effect4_dropShadow_906_569"
         id="feBlend257" />
      <feColorMatrix
         in="SourceAlpha"
         type="matrix"
         values="0 0 0 0 0 0 0 0 0 0 0 0 0 0 0 0 0 0 127 0"
         result="hardAlpha"
         id="feColorMatrix259" />
      <feOffset
         dy="77.9929"
         id="feOffset261" />
      <feGaussianBlur
         stdDeviation="28.1889"
         id="feGaussianBlur263" />
      <feColorMatrix
         type="matrix"
         values="0 0 0 0 0 0 0 0 0 0 0 0 0 0 0 0 0 0 0.0227778 0"
         id="feColorMatrix265" />
      <feBlend
         mode="normal"
         in2="effect4_dropShadow_906_569"
         result="effect5_dropShadow_906_569"
         id="feBlend267" />
      <feColorMatrix
         in="SourceAlpha"
         type="matrix"
         values="0 0 0 0 0 0 0 0 0 0 0 0 0 0 0 0 0 0 127 0"
         result="hardAlpha"
         id="feColorMatrix269" />
      <feOffset
         dy="120.332"
         id="feOffset271" />
      <feGaussianBlur
         stdDeviation="48.1328"
         id="feGaussianBlur273" />
      <feColorMatrix
         type="matrix"
         values="0 0 0 0 0 0 0 0 0 0 0 0 0 0 0 0 0 0 0.03 0"
         id="feColorMatrix275" />
      <feBlend
         mode="normal"
         in2="effect5_dropShadow_906_569"
         result="effect6_dropShadow_906_569"
         id="feBlend277" />
      <feBlend
         mode="normal"
         in="SourceGraphic"
         in2="effect6_dropShadow_906_569"
         result="shape"
         id="feBlend279" />
    </filter>
    <linearGradient
       id="paint0_linear_906_569"
       x1="267.66199"
       y1="27"
       x2="267.66199"
       y2="258.64899"
       gradientUnits="userSpaceOnUse"
       gradientTransform="matrix(1.1423966,0,0,1.1423966,6.9529575e-5,-0.10664099)">
      <stop
         stop-color="#2B00D4"
         id="stop282" />
      <stop
         offset="1"
         stop-color="#2100A2"
         id="stop284" />
    </linearGradient>
    <inkscape:path-effect
       effect="fill_between_many"
       method="originald"
       linkedpaths="#path11956,0,1|"
       id="path-effect11958" />
    <mask
       maskUnits="userSpaceOnUse"
       id="mask15250">
      <rect
         style="opacity:1;fill:#ffffff;fill-opacity:1;fill-rule:nonzero;stroke:none;stroke-width:1.142;stroke-linecap:round;stroke-linejoin:round;stroke-dasharray:none;stroke-opacity:1"
         id="rect15252"
         width="433.34"
         height="264.63501"
         x="89.473213"
         y="30.47142"
         rx="11.564" />
    </mask>
  </defs>
</svg>
